%
M48
M72
T01C0.02200
T02C0.02362
T03C0.02400
T04C0.03200
T05C0.03346
T06C0.03740
T07C0.03937
T08C0.04000
T09C0.04400
T10C0.05118
T11C0.13000
%
T01
X179298Y76333
X180548Y62583
X186798Y58833
X141798Y80083
X169298Y100083
X165548Y103833
X268048Y76833
X321798Y48833
X335548Y82583
X294298Y107583
X289298Y120083
X238048Y47583
T02
X225798Y41833
X208298Y35833
X197798Y34833
X197798Y41833
X190798Y48833
X236298Y32833
X289298Y45833
X319298Y68833
X335298Y57833
X335798Y52833
X258798Y68833
X258798Y80833
X209798Y101333
X204798Y101333
X204798Y122333
X209798Y122333
X253798Y120833
X299298Y122833
X308798Y117833
X151298Y105333
X151298Y99833
T03
X283548Y32583
T04
X284298Y39833
X274298Y39833
X264298Y39833
X254298Y39833
X293298Y40333
X333298Y40333
X349298Y81333
X359298Y81333
X364298Y101333
X364298Y111333
X324298Y111333
X314298Y111333
X314298Y101333
X324298Y101333
X274298Y101333
X264298Y101333
X264298Y111333
X274298Y111333
X244298Y101333
X225298Y101333
X194298Y101333
X194298Y111333
X224298Y121333
X244298Y121333
X244298Y131333
X224298Y131333
X174298Y91333
X160298Y91333
X174298Y71333
X134298Y71333
X146798Y51333
X160798Y51333
X183298Y51333
X183298Y41333
T05
X94298Y21333
X104298Y21333
X114298Y21333
X124298Y21333
X134298Y21333
X144298Y21333
X154298Y21333
X164298Y21333
X194298Y56333
X204298Y56333
X214298Y56333
X224298Y56333
X234298Y56333
X244298Y56333
X254298Y56333
X264298Y56333
X274298Y56333
X284298Y56333
X294298Y56333
X304298Y56333
X314298Y56333
X324298Y56333
X324298Y86333
X314298Y86333
X304298Y86333
X294298Y86333
X284298Y86333
X274298Y86333
X264298Y86333
X254298Y86333
X244298Y86333
X234298Y86333
X224298Y86333
X214298Y86333
X204298Y86333
X194298Y86333
X314298Y21333
X324298Y21333
X334298Y21333
X344298Y21333
X354298Y21333
X364298Y21333
T06
X354298Y121333
X344298Y121333
X334298Y121333
X334298Y131333
X344298Y131333
X354298Y131333
T07
X314298Y131333
X304298Y131333
X294298Y131333
X284298Y131333
X274298Y131333
X264298Y131333
X264298Y21333
X254298Y21333
X244298Y21333
X234298Y21333
X224298Y21333
X214298Y21333
X204298Y21333
X194298Y21333
X184298Y21333
X174298Y21333
X274298Y21333
X284298Y21333
X294298Y21333
X304298Y21333
T08
X345398Y38533
X363198Y38533
X363198Y64133
X345398Y64133
T09
X164298Y111333
X164298Y121333
X164298Y131333
X134298Y41333
X94298Y41333
T10
X112998Y61833
X115998Y61833
X118998Y61833
X127798Y78533
X127798Y81533
X127798Y84533
X104198Y84533
X104198Y81533
X104198Y78533
T11
X105298Y121333
M30
