%
M48
M72
T01C0.02200
T02C0.02362
T03C0.02400
T04C0.03200
T05C0.03346
T06C0.03740
T07C0.04000
T08C0.04400
T09C0.05118
T10C0.13000
%
T01
X113350Y50750
X107100Y54500
X105850Y68250
X68350Y72000
X95850Y92000
X92100Y95750
X194600Y68750
X248350Y40750
X262100Y74500
X220850Y99500
X215850Y112000
X164600Y39500
T02
X152350Y33750
X162850Y24750
X134850Y27750
X124350Y26750
X124350Y33750
X117350Y40750
X185350Y60750
X185350Y72750
X136350Y93250
X131350Y93250
X131350Y114250
X136350Y114250
X180350Y112750
X225850Y114750
X235350Y109750
X245850Y60750
X261850Y49750
X262350Y44750
X77850Y91750
X77850Y97250
T03
X210100Y24500
T04
X210850Y31750
X219850Y32250
X200850Y31750
X190850Y31750
X180850Y31750
X109850Y33250
X109850Y43250
X87350Y43250
X73350Y43250
X60850Y63250
X100850Y63250
X100850Y83250
X86850Y83250
X120850Y93250
X120850Y103250
X150850Y113250
X170850Y113250
X190850Y103250
X200850Y103250
X200850Y93250
X190850Y93250
X170850Y93250
X151850Y93250
X150850Y123250
X170850Y123250
X240850Y103250
X250850Y103250
X250850Y93250
X240850Y93250
X275850Y73250
X285850Y73250
X290850Y93250
X290850Y103250
X259850Y32250
T05
X250850Y48250
X240850Y48250
X230850Y48250
X220850Y48250
X210850Y48250
X200850Y48250
X190850Y48250
X180850Y48250
X170850Y48250
X160850Y48250
X150850Y48250
X140850Y48250
X130850Y48250
X120850Y48250
X120850Y78250
X130850Y78250
X140850Y78250
X150850Y78250
X160850Y78250
X170850Y78250
X180850Y78250
X190850Y78250
X200850Y78250
X210850Y78250
X220850Y78250
X230850Y78250
X240850Y78250
X250850Y78250
T06
X260850Y113250
X270850Y113250
X280850Y113250
X280850Y123250
X270850Y123250
X260850Y123250
T07
X20850Y13250
X30850Y13250
X40850Y13250
X50850Y13250
X60850Y13250
X70850Y13250
X80850Y13250
X90850Y13250
X100850Y13250
X110850Y13250
X120850Y13250
X130850Y13250
X140850Y13250
X150850Y13250
X160850Y13250
X170850Y13250
X180850Y13250
X190850Y13250
X200850Y13250
X210850Y13250
X220850Y13250
X230850Y13250
X240850Y13250
X250850Y13250
X260850Y13250
X270850Y13250
X280850Y13250
X290850Y13250
X289750Y30450
X271950Y30450
X271950Y56050
X289750Y56050
X240850Y123250
X230850Y123250
X220850Y123250
X210850Y123250
X200850Y123250
X190850Y123250
T08
X90850Y123250
X90850Y113250
X90850Y103250
X60850Y33250
X20850Y33250
T09
X39550Y53750
X42550Y53750
X45550Y53750
X54350Y70450
X54350Y73450
X54350Y76450
X30750Y76450
X30750Y73450
X30750Y70450
T10
X31850Y113250
M30
