G75*
%MOIN*%
%OFA0B0*%
%FSLAX25Y25*%
%IPPOS*%
%LPD*%
%AMOC8*
5,1,8,0,0,1.08239X$1,22.5*
%
%ADD10C,0.00400*%
%ADD11C,0.00300*%
%ADD12C,0.00700*%
%ADD13C,0.01000*%
%ADD14C,0.00600*%
%ADD15C,0.00500*%
%ADD16R,0.02000X0.10000*%
%ADD17R,0.07500X0.03000*%
%ADD18C,0.00200*%
%ADD19R,0.02500X0.03000*%
%ADD20R,0.11000X0.05000*%
%ADD21C,0.00000*%
%ADD22R,0.03400X0.02400*%
%ADD23C,0.00800*%
%ADD24C,0.01600*%
D10*
X0050550Y0037450D02*
X0052352Y0037450D01*
X0052952Y0038051D01*
X0052952Y0040453D01*
X0052352Y0041053D01*
X0050550Y0041053D01*
X0050550Y0037450D01*
X0054233Y0037450D02*
X0056635Y0037450D01*
X0055434Y0037450D02*
X0055434Y0041053D01*
X0054233Y0039852D01*
X0064050Y0042752D02*
X0066452Y0042752D01*
X0065251Y0043953D02*
X0065251Y0041551D01*
X0096050Y0053051D02*
X0096651Y0052450D01*
X0097852Y0052450D01*
X0098452Y0053051D01*
X0099733Y0053051D02*
X0099733Y0053651D01*
X0100334Y0054252D01*
X0101535Y0054252D01*
X0102135Y0053651D01*
X0102135Y0053051D01*
X0101535Y0052450D01*
X0100334Y0052450D01*
X0099733Y0053051D01*
X0100334Y0054252D02*
X0099733Y0054852D01*
X0099733Y0055453D01*
X0100334Y0056053D01*
X0101535Y0056053D01*
X0102135Y0055453D01*
X0102135Y0054852D01*
X0101535Y0054252D01*
X0098452Y0055453D02*
X0097852Y0056053D01*
X0096651Y0056053D01*
X0096050Y0055453D01*
X0096050Y0053051D01*
X0118550Y0040852D02*
X0119751Y0042053D01*
X0119751Y0038450D01*
X0118550Y0038450D02*
X0120952Y0038450D01*
X0122233Y0039051D02*
X0122834Y0038450D01*
X0124035Y0038450D01*
X0124635Y0039051D01*
X0124635Y0040252D01*
X0124035Y0040852D01*
X0123434Y0040852D01*
X0122233Y0040252D01*
X0122233Y0042053D01*
X0124635Y0042053D01*
X0119005Y0023052D02*
X0117603Y0023052D01*
X0117603Y0020250D01*
X0119005Y0020250D01*
X0119472Y0020717D01*
X0119472Y0022585D01*
X0119005Y0023052D01*
X0116525Y0023052D02*
X0116525Y0020250D01*
X0114657Y0023052D01*
X0114657Y0020250D01*
X0113579Y0020717D02*
X0113579Y0021651D01*
X0112645Y0021651D01*
X0113579Y0020717D02*
X0113112Y0020250D01*
X0112178Y0020250D01*
X0111710Y0020717D01*
X0111710Y0022585D01*
X0112178Y0023052D01*
X0113112Y0023052D01*
X0113579Y0022585D01*
X0103972Y0022151D02*
X0103972Y0020750D01*
X0103972Y0022151D02*
X0103505Y0022618D01*
X0102103Y0022618D01*
X0102103Y0020750D01*
X0101073Y0020750D02*
X0100139Y0020750D01*
X0100606Y0020750D02*
X0100606Y0022618D01*
X0100139Y0022618D01*
X0100606Y0023552D02*
X0100606Y0024019D01*
X0099061Y0023552D02*
X0099061Y0021684D01*
X0098127Y0020750D01*
X0097193Y0021684D01*
X0097193Y0023552D01*
X0095852Y0016053D02*
X0094050Y0016053D01*
X0094050Y0012450D01*
X0095852Y0012450D01*
X0096452Y0013051D01*
X0096452Y0015453D01*
X0095852Y0016053D01*
X0097733Y0014852D02*
X0098934Y0016053D01*
X0098934Y0012450D01*
X0097733Y0012450D02*
X0100135Y0012450D01*
X0128550Y0020417D02*
X0129017Y0019950D01*
X0129951Y0019950D01*
X0130418Y0020417D01*
X0130418Y0021351D01*
X0129951Y0021818D01*
X0129484Y0021818D01*
X0128550Y0021351D01*
X0128550Y0022752D01*
X0130418Y0022752D01*
X0131497Y0022752D02*
X0131497Y0020884D01*
X0132431Y0019950D01*
X0133365Y0020884D01*
X0133365Y0022752D01*
X0159550Y0021785D02*
X0159550Y0021318D01*
X0160017Y0020851D01*
X0160951Y0020851D01*
X0161418Y0020384D01*
X0161418Y0019917D01*
X0160951Y0019450D01*
X0160017Y0019450D01*
X0159550Y0019917D01*
X0159550Y0020384D01*
X0160017Y0020851D01*
X0160951Y0020851D02*
X0161418Y0021318D01*
X0161418Y0021785D01*
X0160951Y0022252D01*
X0160017Y0022252D01*
X0159550Y0021785D01*
X0170550Y0021785D02*
X0170550Y0021318D01*
X0171017Y0020851D01*
X0172418Y0020851D01*
X0172418Y0019917D02*
X0171951Y0019450D01*
X0171017Y0019450D01*
X0170550Y0019917D01*
X0172418Y0019917D02*
X0172418Y0021785D01*
X0171951Y0022252D01*
X0171017Y0022252D01*
X0170550Y0021785D01*
X0177657Y0021618D02*
X0178591Y0022552D01*
X0178591Y0019750D01*
X0177657Y0019750D02*
X0179525Y0019750D01*
X0180603Y0020217D02*
X0181071Y0019750D01*
X0182005Y0019750D01*
X0182472Y0020217D01*
X0182472Y0022085D01*
X0180603Y0020217D01*
X0180603Y0022085D01*
X0181071Y0022552D01*
X0182005Y0022552D01*
X0182472Y0022085D01*
X0198157Y0021618D02*
X0199091Y0022552D01*
X0199091Y0019750D01*
X0198157Y0019750D02*
X0200025Y0019750D01*
X0201103Y0019750D02*
X0202972Y0021618D01*
X0202972Y0022085D01*
X0202505Y0022552D01*
X0201571Y0022552D01*
X0201103Y0022085D01*
X0201103Y0019750D02*
X0202972Y0019750D01*
X0207657Y0019750D02*
X0209525Y0019750D01*
X0208591Y0019750D02*
X0208591Y0022552D01*
X0207657Y0021618D01*
X0210603Y0022085D02*
X0211071Y0022552D01*
X0212005Y0022552D01*
X0212472Y0022085D01*
X0212472Y0021618D01*
X0212005Y0021151D01*
X0212472Y0020684D01*
X0212472Y0020217D01*
X0212005Y0019750D01*
X0211071Y0019750D01*
X0210603Y0020217D01*
X0211538Y0021151D02*
X0212005Y0021151D01*
X0236184Y0036950D02*
X0236184Y0040553D01*
X0237985Y0040553D01*
X0238586Y0039953D01*
X0238586Y0038752D01*
X0237985Y0038151D01*
X0236184Y0038151D01*
X0237385Y0038151D02*
X0238586Y0036950D01*
X0239867Y0038752D02*
X0242269Y0038752D01*
X0241668Y0040553D02*
X0241668Y0036950D01*
X0239867Y0038752D02*
X0241668Y0040553D01*
X0253684Y0040450D02*
X0256086Y0042852D01*
X0256086Y0043453D01*
X0255485Y0044053D01*
X0254284Y0044053D01*
X0253684Y0043453D01*
X0253684Y0040450D02*
X0256086Y0040450D01*
X0257367Y0041051D02*
X0257367Y0041651D01*
X0257967Y0042252D01*
X0259168Y0042252D01*
X0259769Y0041651D01*
X0259769Y0041051D01*
X0259168Y0040450D01*
X0257967Y0040450D01*
X0257367Y0041051D01*
X0257967Y0042252D02*
X0257367Y0042852D01*
X0257367Y0043453D01*
X0257967Y0044053D01*
X0259168Y0044053D01*
X0259769Y0043453D01*
X0259769Y0042852D01*
X0259168Y0042252D01*
X0293548Y0063307D02*
X0293548Y0064708D01*
X0294015Y0065175D01*
X0294949Y0065175D01*
X0295416Y0064708D01*
X0295416Y0063307D01*
X0296350Y0063307D02*
X0293548Y0063307D01*
X0294482Y0066253D02*
X0294482Y0066720D01*
X0296350Y0066720D01*
X0296350Y0066253D02*
X0296350Y0067187D01*
X0296350Y0068217D02*
X0294482Y0068217D01*
X0294482Y0069619D01*
X0294949Y0070086D01*
X0296350Y0070086D01*
X0295883Y0071164D02*
X0296350Y0071631D01*
X0296350Y0072565D01*
X0295883Y0073032D01*
X0294949Y0073032D01*
X0294482Y0072565D01*
X0294482Y0071631D01*
X0294949Y0071164D01*
X0295883Y0071164D01*
X0293548Y0066720D02*
X0293081Y0066720D01*
X0294482Y0077057D02*
X0293548Y0077991D01*
X0296350Y0077991D01*
X0296350Y0077057D02*
X0296350Y0078925D01*
X0295883Y0080003D02*
X0296350Y0080471D01*
X0296350Y0081405D01*
X0295883Y0081872D01*
X0295416Y0081872D01*
X0294949Y0081405D01*
X0294949Y0080938D01*
X0294949Y0081405D02*
X0294482Y0081872D01*
X0294015Y0081872D01*
X0293548Y0081405D01*
X0293548Y0080471D01*
X0294015Y0080003D01*
X0267635Y0085051D02*
X0267035Y0084450D01*
X0265834Y0084450D01*
X0265233Y0085051D01*
X0263952Y0084450D02*
X0262751Y0085651D01*
X0263352Y0085651D02*
X0261550Y0085651D01*
X0261550Y0084450D02*
X0261550Y0088053D01*
X0263352Y0088053D01*
X0263952Y0087453D01*
X0263952Y0086252D01*
X0263352Y0085651D01*
X0265233Y0087453D02*
X0265834Y0088053D01*
X0267035Y0088053D01*
X0267635Y0087453D01*
X0267635Y0086852D01*
X0267035Y0086252D01*
X0267635Y0085651D01*
X0267635Y0085051D01*
X0267035Y0086252D02*
X0266434Y0086252D01*
X0257251Y0080553D02*
X0257251Y0076950D01*
X0256050Y0076950D02*
X0258452Y0076950D01*
X0256050Y0079352D02*
X0257251Y0080553D01*
X0241769Y0086551D02*
X0241769Y0087752D01*
X0241168Y0088352D01*
X0240568Y0088352D01*
X0239367Y0087752D01*
X0239367Y0089553D01*
X0241769Y0089553D01*
X0238086Y0088953D02*
X0238086Y0087752D01*
X0237485Y0087151D01*
X0235684Y0087151D01*
X0236885Y0087151D02*
X0238086Y0085950D01*
X0239367Y0086551D02*
X0239967Y0085950D01*
X0241168Y0085950D01*
X0241769Y0086551D01*
X0238086Y0088953D02*
X0237485Y0089553D01*
X0235684Y0089553D01*
X0235684Y0085950D01*
X0244047Y0099084D02*
X0244047Y0100885D01*
X0244647Y0101486D01*
X0245848Y0101486D01*
X0246449Y0100885D01*
X0246449Y0099084D01*
X0246449Y0100285D02*
X0247650Y0101486D01*
X0247049Y0102767D02*
X0247650Y0103367D01*
X0247650Y0104568D01*
X0247049Y0105169D01*
X0246449Y0105169D01*
X0245848Y0104568D01*
X0245848Y0102767D01*
X0247049Y0102767D01*
X0245848Y0102767D02*
X0244647Y0103968D01*
X0244047Y0105169D01*
X0252550Y0110950D02*
X0254952Y0110950D01*
X0253751Y0110950D02*
X0253751Y0114553D01*
X0252550Y0113352D01*
X0252550Y0123950D02*
X0254952Y0126352D01*
X0254952Y0126953D01*
X0254352Y0127553D01*
X0253151Y0127553D01*
X0252550Y0126953D01*
X0252550Y0123950D02*
X0254952Y0123950D01*
X0287050Y0124252D02*
X0287050Y0123051D01*
X0287651Y0122450D01*
X0288852Y0122450D01*
X0289452Y0123051D01*
X0289452Y0123651D01*
X0288852Y0124252D01*
X0287050Y0124252D01*
X0288251Y0125453D01*
X0289452Y0126053D01*
X0289452Y0113553D02*
X0287050Y0113553D01*
X0287050Y0111752D01*
X0288251Y0112352D01*
X0288852Y0112352D01*
X0289452Y0111752D01*
X0289452Y0110551D01*
X0288852Y0109950D01*
X0287651Y0109950D01*
X0287050Y0110551D01*
X0294047Y0105568D02*
X0294047Y0104367D01*
X0294647Y0103767D01*
X0294647Y0102486D02*
X0295848Y0102486D01*
X0296449Y0101885D01*
X0296449Y0100084D01*
X0296449Y0101285D02*
X0297650Y0102486D01*
X0297650Y0103767D02*
X0295248Y0106169D01*
X0294647Y0106169D01*
X0294047Y0105568D01*
X0297650Y0106169D02*
X0297650Y0103767D01*
X0294647Y0102486D02*
X0294047Y0101885D01*
X0294047Y0100084D01*
X0297650Y0100084D01*
X0247650Y0099084D02*
X0244047Y0099084D01*
X0184150Y0104051D02*
X0183549Y0103450D01*
X0181147Y0103450D01*
X0180547Y0104051D01*
X0180547Y0105252D01*
X0181147Y0105852D01*
X0181147Y0107133D02*
X0180547Y0107734D01*
X0180547Y0108935D01*
X0181147Y0109535D01*
X0181748Y0109535D01*
X0184150Y0107133D01*
X0184150Y0109535D01*
X0183549Y0105852D02*
X0184150Y0105252D01*
X0184150Y0104051D01*
X0175549Y0116450D02*
X0173147Y0116450D01*
X0172547Y0117051D01*
X0172547Y0118252D01*
X0173147Y0118852D01*
X0173147Y0120133D02*
X0172547Y0120734D01*
X0172547Y0121935D01*
X0173147Y0122535D01*
X0173748Y0122535D01*
X0174348Y0121935D01*
X0174949Y0122535D01*
X0175549Y0122535D01*
X0176150Y0121935D01*
X0176150Y0120734D01*
X0175549Y0120133D01*
X0175549Y0118852D02*
X0176150Y0118252D01*
X0176150Y0117051D01*
X0175549Y0116450D01*
X0174348Y0121334D02*
X0174348Y0121935D01*
X0148650Y0122252D02*
X0148650Y0121051D01*
X0148049Y0120450D01*
X0145647Y0120450D01*
X0145047Y0121051D01*
X0145047Y0122252D01*
X0145647Y0122852D01*
X0146248Y0124133D02*
X0145047Y0125334D01*
X0148650Y0125334D01*
X0148650Y0124133D02*
X0148650Y0126535D01*
X0148049Y0122852D02*
X0148650Y0122252D01*
X0111350Y0107905D02*
X0111350Y0106971D01*
X0110883Y0106503D01*
X0109949Y0106503D01*
X0109482Y0106971D01*
X0109482Y0107905D01*
X0109949Y0108372D01*
X0110883Y0108372D01*
X0111350Y0107905D01*
X0111350Y0105425D02*
X0108548Y0105425D01*
X0109482Y0105425D02*
X0109482Y0104024D01*
X0109949Y0103557D01*
X0110883Y0103557D01*
X0111350Y0104024D01*
X0111350Y0105425D01*
X0111350Y0102479D02*
X0111350Y0101078D01*
X0110883Y0100610D01*
X0110416Y0101078D01*
X0110416Y0102479D01*
X0109949Y0102479D02*
X0111350Y0102479D01*
X0109949Y0102479D02*
X0109482Y0102012D01*
X0109482Y0101078D01*
X0109482Y0099532D02*
X0109482Y0098131D01*
X0109949Y0097664D01*
X0110883Y0097664D01*
X0111350Y0098131D01*
X0111350Y0099532D01*
X0111817Y0099532D02*
X0109482Y0099532D01*
X0111817Y0099532D02*
X0112284Y0099065D01*
X0112284Y0098598D01*
X0111350Y0096634D02*
X0111350Y0095700D01*
X0111350Y0096167D02*
X0109482Y0096167D01*
X0109482Y0095700D01*
X0108548Y0096167D02*
X0108081Y0096167D01*
X0111350Y0094621D02*
X0111350Y0092753D01*
X0108548Y0092753D01*
X0117550Y0086852D02*
X0118751Y0088053D01*
X0118751Y0084450D01*
X0117550Y0084450D02*
X0119952Y0084450D01*
X0123035Y0084450D02*
X0123035Y0088053D01*
X0121233Y0086252D01*
X0123635Y0086252D01*
X0113751Y0080953D02*
X0113751Y0078551D01*
X0112550Y0079752D02*
X0114952Y0079752D01*
X0134547Y0093551D02*
X0135147Y0092950D01*
X0137549Y0092950D01*
X0138150Y0093551D01*
X0138150Y0094752D01*
X0137549Y0095352D01*
X0135147Y0095352D01*
X0134547Y0094752D01*
X0134547Y0093551D01*
X0136949Y0094151D02*
X0138150Y0095352D01*
X0138150Y0096633D02*
X0138150Y0099035D01*
X0138150Y0097834D02*
X0134547Y0097834D01*
X0135748Y0096633D01*
X0078934Y0072553D02*
X0078934Y0068950D01*
X0077733Y0068950D02*
X0080135Y0068950D01*
X0077733Y0071352D02*
X0078934Y0072553D01*
X0076452Y0071953D02*
X0076452Y0070752D01*
X0075852Y0070151D01*
X0074050Y0070151D01*
X0074050Y0068950D02*
X0074050Y0072553D01*
X0075852Y0072553D01*
X0076452Y0071953D01*
X0075251Y0070151D02*
X0076452Y0068950D01*
X0074233Y0080950D02*
X0074233Y0081551D01*
X0076635Y0083953D01*
X0076635Y0084553D01*
X0074233Y0084553D01*
X0072952Y0083953D02*
X0072352Y0084553D01*
X0071151Y0084553D01*
X0070550Y0083953D01*
X0070550Y0081551D01*
X0071151Y0080950D01*
X0072352Y0080950D01*
X0072952Y0081551D01*
X0097550Y0124450D02*
X0098751Y0124450D01*
X0098151Y0124450D02*
X0098151Y0128053D01*
X0098751Y0128053D02*
X0097550Y0128053D01*
X0100005Y0127453D02*
X0100005Y0125051D01*
X0100606Y0124450D01*
X0101807Y0124450D01*
X0102407Y0125051D01*
X0103689Y0124450D02*
X0106091Y0124450D01*
X0104890Y0124450D02*
X0104890Y0128053D01*
X0103689Y0126852D01*
X0102407Y0127453D02*
X0101807Y0128053D01*
X0100606Y0128053D01*
X0100005Y0127453D01*
X0183651Y0042053D02*
X0183050Y0041453D01*
X0183050Y0039051D01*
X0183651Y0038450D01*
X0184852Y0038450D01*
X0185452Y0039051D01*
X0186733Y0040252D02*
X0189135Y0040252D01*
X0188535Y0042053D02*
X0188535Y0038450D01*
X0186733Y0040252D02*
X0188535Y0042053D01*
X0185452Y0041453D02*
X0184852Y0042053D01*
X0183651Y0042053D01*
X0203184Y0041453D02*
X0203184Y0039051D01*
X0203784Y0038450D01*
X0204985Y0038450D01*
X0205586Y0039051D01*
X0206867Y0039051D02*
X0206867Y0040252D01*
X0208668Y0040252D01*
X0209269Y0039651D01*
X0209269Y0039051D01*
X0208668Y0038450D01*
X0207467Y0038450D01*
X0206867Y0039051D01*
X0206867Y0040252D02*
X0208068Y0041453D01*
X0209269Y0042053D01*
X0205586Y0041453D02*
X0204985Y0042053D01*
X0203784Y0042053D01*
X0203184Y0041453D01*
D11*
X0191910Y0025002D02*
X0191910Y0022900D01*
X0191210Y0022900D02*
X0192611Y0022900D01*
X0190401Y0022900D02*
X0189000Y0022900D01*
X0189701Y0022900D02*
X0189701Y0025002D01*
X0189000Y0024301D01*
X0191210Y0024301D02*
X0191910Y0025002D01*
X0217370Y0021251D02*
X0217370Y0019850D01*
X0217721Y0019500D01*
X0218421Y0019500D01*
X0218772Y0019850D01*
X0218772Y0020551D01*
X0218071Y0020551D01*
X0218772Y0021251D02*
X0218421Y0021602D01*
X0217721Y0021602D01*
X0217370Y0021251D01*
X0219580Y0021602D02*
X0219580Y0019500D01*
X0220981Y0019500D02*
X0220981Y0021602D01*
X0221790Y0021602D02*
X0222841Y0021602D01*
X0223191Y0021251D01*
X0223191Y0019850D01*
X0222841Y0019500D01*
X0221790Y0019500D01*
X0221790Y0021602D01*
X0219580Y0021602D02*
X0220981Y0019500D01*
X0227000Y0019900D02*
X0227000Y0021301D01*
X0227701Y0022002D01*
X0228401Y0021301D01*
X0228401Y0019900D01*
X0229210Y0019900D02*
X0229210Y0022002D01*
X0230261Y0022002D01*
X0230611Y0021651D01*
X0230611Y0020951D01*
X0230261Y0020601D01*
X0229210Y0020601D01*
X0229910Y0020601D02*
X0230611Y0019900D01*
X0231420Y0019900D02*
X0232821Y0019900D01*
X0233630Y0019900D02*
X0233630Y0022002D01*
X0235031Y0022002D01*
X0234330Y0020951D02*
X0233630Y0020951D01*
X0232821Y0022002D02*
X0231420Y0022002D01*
X0231420Y0019900D01*
X0231420Y0020951D02*
X0232120Y0020951D01*
X0228401Y0020951D02*
X0227000Y0020951D01*
X0155727Y0021401D02*
X0155027Y0021401D01*
X0155377Y0021751D02*
X0155377Y0020350D01*
X0155727Y0020000D01*
X0154218Y0020701D02*
X0152817Y0020701D01*
X0152817Y0021051D02*
X0153167Y0021401D01*
X0153868Y0021401D01*
X0154218Y0021051D01*
X0154218Y0020701D01*
X0153868Y0020000D02*
X0153167Y0020000D01*
X0152817Y0020350D01*
X0152817Y0021051D01*
X0152008Y0021401D02*
X0150957Y0021401D01*
X0150607Y0021051D01*
X0150957Y0020701D01*
X0151658Y0020701D01*
X0152008Y0020350D01*
X0151658Y0020000D01*
X0150607Y0020000D01*
X0149798Y0020701D02*
X0148397Y0020701D01*
X0148397Y0021051D02*
X0148747Y0021401D01*
X0149448Y0021401D01*
X0149798Y0021051D01*
X0149798Y0020701D01*
X0149448Y0020000D02*
X0148747Y0020000D01*
X0148397Y0020350D01*
X0148397Y0021051D01*
X0147588Y0021051D02*
X0147588Y0021751D01*
X0147238Y0022102D01*
X0146187Y0022102D01*
X0146187Y0020000D01*
X0146187Y0020701D02*
X0147238Y0020701D01*
X0147588Y0021051D01*
X0146888Y0020701D02*
X0147588Y0020000D01*
X0199498Y0107587D02*
X0199498Y0108638D01*
X0199849Y0108988D01*
X0200549Y0108988D01*
X0200899Y0108638D01*
X0200899Y0107587D01*
X0200899Y0108288D02*
X0201600Y0108988D01*
X0201250Y0109797D02*
X0200549Y0109797D01*
X0200199Y0110147D01*
X0200199Y0110848D01*
X0200549Y0111198D01*
X0200899Y0111198D01*
X0200899Y0109797D01*
X0201250Y0109797D02*
X0201600Y0110147D01*
X0201600Y0110848D01*
X0201600Y0112007D02*
X0201600Y0113058D01*
X0201250Y0113408D01*
X0200899Y0113058D01*
X0200899Y0112357D01*
X0200549Y0112007D01*
X0200199Y0112357D01*
X0200199Y0113408D01*
X0200549Y0114217D02*
X0200199Y0114567D01*
X0200199Y0115268D01*
X0200549Y0115618D01*
X0200899Y0115618D01*
X0200899Y0114217D01*
X0200549Y0114217D02*
X0201250Y0114217D01*
X0201600Y0114567D01*
X0201600Y0115268D01*
X0201250Y0116777D02*
X0201600Y0117127D01*
X0201250Y0116777D02*
X0199849Y0116777D01*
X0200199Y0116427D02*
X0200199Y0117127D01*
X0199498Y0107587D02*
X0201600Y0107587D01*
D12*
X0207696Y0109600D02*
X0209848Y0109600D01*
X0209131Y0111035D01*
X0209131Y0111752D01*
X0209848Y0112469D01*
X0211283Y0112469D01*
X0212000Y0111752D01*
X0212000Y0110317D01*
X0211283Y0109600D01*
X0207696Y0109600D02*
X0207696Y0112469D01*
X0207696Y0114204D02*
X0210565Y0114204D01*
X0212000Y0115638D01*
X0210565Y0117073D01*
X0207696Y0117073D01*
X0196277Y0116186D02*
X0196277Y0113317D01*
X0195560Y0112600D01*
X0193408Y0112600D01*
X0193408Y0116904D01*
X0195560Y0116904D01*
X0196277Y0116186D01*
X0191673Y0116904D02*
X0191673Y0112600D01*
X0188804Y0116904D01*
X0188804Y0112600D01*
X0187069Y0113317D02*
X0187069Y0114752D01*
X0185635Y0114752D01*
X0187069Y0116186D02*
X0186352Y0116904D01*
X0184917Y0116904D01*
X0184200Y0116186D01*
X0184200Y0113317D01*
X0184917Y0112600D01*
X0186352Y0112600D01*
X0187069Y0113317D01*
X0218196Y0111752D02*
X0218196Y0109600D01*
X0222500Y0109600D01*
X0221065Y0109600D02*
X0221065Y0111752D01*
X0220348Y0112469D01*
X0218914Y0112469D01*
X0218196Y0111752D01*
X0221065Y0111035D02*
X0222500Y0112469D01*
X0222500Y0114204D02*
X0219631Y0117073D01*
X0219631Y0114204D02*
X0222500Y0117073D01*
X0230131Y0116865D02*
X0233000Y0113996D01*
X0230131Y0113996D02*
X0233000Y0116865D01*
X0236888Y0116904D02*
X0239040Y0116904D01*
X0239757Y0116186D01*
X0239757Y0113317D01*
X0239040Y0112600D01*
X0236888Y0112600D01*
X0236888Y0116904D01*
X0241492Y0116904D02*
X0244361Y0116904D01*
X0242927Y0116904D02*
X0242927Y0112600D01*
X0246096Y0112600D02*
X0246096Y0116904D01*
X0248248Y0116904D01*
X0248965Y0116186D01*
X0248965Y0114752D01*
X0248248Y0114035D01*
X0246096Y0114035D01*
X0247531Y0114035D02*
X0248965Y0112600D01*
X0233000Y0110827D02*
X0228696Y0110827D01*
X0228696Y0112261D02*
X0228696Y0109392D01*
X0292696Y0110219D02*
X0292696Y0111653D01*
X0292696Y0110936D02*
X0297000Y0110936D01*
X0297000Y0110219D02*
X0297000Y0111653D01*
X0296283Y0113288D02*
X0297000Y0114005D01*
X0297000Y0115440D01*
X0296283Y0116157D01*
X0296283Y0117892D02*
X0297000Y0118609D01*
X0297000Y0120044D01*
X0296283Y0120761D01*
X0295565Y0120761D01*
X0294848Y0120044D01*
X0294848Y0118609D01*
X0294131Y0117892D01*
X0293414Y0117892D01*
X0292696Y0118609D01*
X0292696Y0120044D01*
X0293414Y0120761D01*
X0292696Y0122496D02*
X0292696Y0124648D01*
X0293414Y0125365D01*
X0294848Y0125365D01*
X0295565Y0124648D01*
X0295565Y0122496D01*
X0297000Y0122496D02*
X0292696Y0122496D01*
X0293414Y0116157D02*
X0292696Y0115440D01*
X0292696Y0114005D01*
X0293414Y0113288D01*
X0296283Y0113288D01*
X0280348Y0027365D02*
X0280348Y0024496D01*
X0278196Y0026648D01*
X0282500Y0026648D01*
X0286992Y0022469D02*
X0288427Y0023904D01*
X0289861Y0022469D01*
X0289861Y0019600D01*
X0291596Y0020317D02*
X0292313Y0019600D01*
X0293748Y0019600D01*
X0294465Y0020317D01*
X0294465Y0021752D01*
X0293748Y0022469D01*
X0293031Y0022469D01*
X0291596Y0021752D01*
X0291596Y0023904D01*
X0294465Y0023904D01*
X0289861Y0021752D02*
X0286992Y0021752D01*
X0286992Y0022469D02*
X0286992Y0019600D01*
X0282500Y0019892D02*
X0279631Y0019892D01*
X0278196Y0021327D01*
X0279631Y0022761D01*
X0282500Y0022761D01*
X0280348Y0022761D02*
X0280348Y0019892D01*
X0274465Y0020317D02*
X0273748Y0019600D01*
X0272313Y0019600D01*
X0271596Y0020317D01*
X0269861Y0019600D02*
X0269861Y0022469D01*
X0268427Y0023904D01*
X0266992Y0022469D01*
X0266992Y0019600D01*
X0266992Y0021752D02*
X0269861Y0021752D01*
X0271596Y0023186D02*
X0272313Y0023904D01*
X0273748Y0023904D01*
X0274465Y0023186D01*
X0274465Y0022469D01*
X0273748Y0021752D01*
X0274465Y0021035D01*
X0274465Y0020317D01*
X0273748Y0021752D02*
X0273031Y0021752D01*
X0262000Y0022761D02*
X0259131Y0022761D01*
X0257696Y0021327D01*
X0259131Y0019892D01*
X0262000Y0019892D01*
X0259848Y0019892D02*
X0259848Y0022761D01*
X0258414Y0024496D02*
X0257696Y0025213D01*
X0257696Y0026648D01*
X0258414Y0027365D01*
X0259131Y0027365D01*
X0262000Y0024496D01*
X0262000Y0027365D01*
X0252500Y0026865D02*
X0252500Y0023996D01*
X0252500Y0025431D02*
X0248196Y0025431D01*
X0249631Y0023996D01*
X0249631Y0022261D02*
X0252500Y0022261D01*
X0250348Y0022261D02*
X0250348Y0019392D01*
X0249631Y0019392D02*
X0248196Y0020827D01*
X0249631Y0022261D01*
X0249631Y0019392D02*
X0252500Y0019392D01*
X0242500Y0019392D02*
X0239631Y0019392D01*
X0238196Y0020827D01*
X0239631Y0022261D01*
X0242500Y0022261D01*
X0241783Y0023996D02*
X0238914Y0026865D01*
X0241783Y0026865D01*
X0242500Y0026148D01*
X0242500Y0024713D01*
X0241783Y0023996D01*
X0238914Y0023996D01*
X0238196Y0024713D01*
X0238196Y0026148D01*
X0238914Y0026865D01*
X0240348Y0022261D02*
X0240348Y0019392D01*
X0091969Y0021417D02*
X0091152Y0020600D01*
X0089517Y0020600D01*
X0088700Y0021417D01*
X0091969Y0024687D01*
X0091969Y0021417D01*
X0088700Y0021417D02*
X0088700Y0024687D01*
X0089517Y0025504D01*
X0091152Y0025504D01*
X0091969Y0024687D01*
X0082969Y0020600D02*
X0079700Y0020600D01*
X0081335Y0020600D02*
X0081335Y0025504D01*
X0079700Y0023869D01*
X0072469Y0023869D02*
X0072469Y0024687D01*
X0071652Y0025504D01*
X0070017Y0025504D01*
X0069200Y0024687D01*
X0072469Y0023869D02*
X0069200Y0020600D01*
X0072469Y0020600D01*
X0062469Y0020917D02*
X0061652Y0020100D01*
X0060017Y0020100D01*
X0059200Y0020917D01*
X0060835Y0022552D02*
X0061652Y0022552D01*
X0062469Y0021735D01*
X0062469Y0020917D01*
X0061652Y0022552D02*
X0062469Y0023369D01*
X0062469Y0024187D01*
X0061652Y0025004D01*
X0060017Y0025004D01*
X0059200Y0024187D01*
X0051969Y0022552D02*
X0048700Y0022552D01*
X0051152Y0025004D01*
X0051152Y0020100D01*
X0041969Y0020917D02*
X0041152Y0020100D01*
X0039517Y0020100D01*
X0038700Y0020917D01*
X0038700Y0022552D02*
X0040335Y0023369D01*
X0041152Y0023369D01*
X0041969Y0022552D01*
X0041969Y0020917D01*
X0038700Y0022552D02*
X0038700Y0025004D01*
X0041969Y0025004D01*
X0031969Y0025004D02*
X0030335Y0024187D01*
X0028700Y0022552D01*
X0031152Y0022552D01*
X0031969Y0021735D01*
X0031969Y0020917D01*
X0031152Y0020100D01*
X0029517Y0020100D01*
X0028700Y0020917D01*
X0028700Y0022552D01*
X0022969Y0024187D02*
X0022969Y0025004D01*
X0019700Y0025004D01*
X0022969Y0024187D02*
X0019700Y0020917D01*
X0019700Y0020100D01*
X0020700Y0048100D02*
X0023569Y0052404D01*
X0025304Y0050969D02*
X0026738Y0052404D01*
X0026738Y0048100D01*
X0025304Y0048100D02*
X0028173Y0048100D01*
X0023569Y0048100D02*
X0020700Y0052404D01*
D13*
X0010850Y0013250D02*
X0010853Y0013008D01*
X0010862Y0012767D01*
X0010876Y0012526D01*
X0010897Y0012285D01*
X0010923Y0012045D01*
X0010955Y0011805D01*
X0010993Y0011566D01*
X0011036Y0011329D01*
X0011086Y0011092D01*
X0011141Y0010857D01*
X0011201Y0010623D01*
X0011268Y0010391D01*
X0011339Y0010160D01*
X0011417Y0009931D01*
X0011500Y0009704D01*
X0011588Y0009479D01*
X0011682Y0009256D01*
X0011781Y0009036D01*
X0011886Y0008818D01*
X0011995Y0008603D01*
X0012110Y0008390D01*
X0012230Y0008180D01*
X0012355Y0007974D01*
X0012485Y0007770D01*
X0012620Y0007569D01*
X0012760Y0007372D01*
X0012904Y0007178D01*
X0013053Y0006988D01*
X0013207Y0006802D01*
X0013365Y0006619D01*
X0013527Y0006440D01*
X0013694Y0006265D01*
X0013865Y0006094D01*
X0014040Y0005927D01*
X0014219Y0005765D01*
X0014402Y0005607D01*
X0014588Y0005453D01*
X0014778Y0005304D01*
X0014972Y0005160D01*
X0015169Y0005020D01*
X0015370Y0004885D01*
X0015574Y0004755D01*
X0015780Y0004630D01*
X0015990Y0004510D01*
X0016203Y0004395D01*
X0016418Y0004286D01*
X0016636Y0004181D01*
X0016856Y0004082D01*
X0017079Y0003988D01*
X0017304Y0003900D01*
X0017531Y0003817D01*
X0017760Y0003739D01*
X0017991Y0003668D01*
X0018223Y0003601D01*
X0018457Y0003541D01*
X0018692Y0003486D01*
X0018929Y0003436D01*
X0019166Y0003393D01*
X0019405Y0003355D01*
X0019645Y0003323D01*
X0019885Y0003297D01*
X0020126Y0003276D01*
X0020367Y0003262D01*
X0020608Y0003253D01*
X0020850Y0003250D01*
X0290850Y0003250D01*
X0291092Y0003253D01*
X0291333Y0003262D01*
X0291574Y0003276D01*
X0291815Y0003297D01*
X0292055Y0003323D01*
X0292295Y0003355D01*
X0292534Y0003393D01*
X0292771Y0003436D01*
X0293008Y0003486D01*
X0293243Y0003541D01*
X0293477Y0003601D01*
X0293709Y0003668D01*
X0293940Y0003739D01*
X0294169Y0003817D01*
X0294396Y0003900D01*
X0294621Y0003988D01*
X0294844Y0004082D01*
X0295064Y0004181D01*
X0295282Y0004286D01*
X0295497Y0004395D01*
X0295710Y0004510D01*
X0295920Y0004630D01*
X0296126Y0004755D01*
X0296330Y0004885D01*
X0296531Y0005020D01*
X0296728Y0005160D01*
X0296922Y0005304D01*
X0297112Y0005453D01*
X0297298Y0005607D01*
X0297481Y0005765D01*
X0297660Y0005927D01*
X0297835Y0006094D01*
X0298006Y0006265D01*
X0298173Y0006440D01*
X0298335Y0006619D01*
X0298493Y0006802D01*
X0298647Y0006988D01*
X0298796Y0007178D01*
X0298940Y0007372D01*
X0299080Y0007569D01*
X0299215Y0007770D01*
X0299345Y0007974D01*
X0299470Y0008180D01*
X0299590Y0008390D01*
X0299705Y0008603D01*
X0299814Y0008818D01*
X0299919Y0009036D01*
X0300018Y0009256D01*
X0300112Y0009479D01*
X0300200Y0009704D01*
X0300283Y0009931D01*
X0300361Y0010160D01*
X0300432Y0010391D01*
X0300499Y0010623D01*
X0300559Y0010857D01*
X0300614Y0011092D01*
X0300664Y0011329D01*
X0300707Y0011566D01*
X0300745Y0011805D01*
X0300777Y0012045D01*
X0300803Y0012285D01*
X0300824Y0012526D01*
X0300838Y0012767D01*
X0300847Y0013008D01*
X0300850Y0013250D01*
X0300850Y0123250D01*
X0300847Y0123492D01*
X0300838Y0123733D01*
X0300824Y0123974D01*
X0300803Y0124215D01*
X0300777Y0124455D01*
X0300745Y0124695D01*
X0300707Y0124934D01*
X0300664Y0125171D01*
X0300614Y0125408D01*
X0300559Y0125643D01*
X0300499Y0125877D01*
X0300432Y0126109D01*
X0300361Y0126340D01*
X0300283Y0126569D01*
X0300200Y0126796D01*
X0300112Y0127021D01*
X0300018Y0127244D01*
X0299919Y0127464D01*
X0299814Y0127682D01*
X0299705Y0127897D01*
X0299590Y0128110D01*
X0299470Y0128320D01*
X0299345Y0128526D01*
X0299215Y0128730D01*
X0299080Y0128931D01*
X0298940Y0129128D01*
X0298796Y0129322D01*
X0298647Y0129512D01*
X0298493Y0129698D01*
X0298335Y0129881D01*
X0298173Y0130060D01*
X0298006Y0130235D01*
X0297835Y0130406D01*
X0297660Y0130573D01*
X0297481Y0130735D01*
X0297298Y0130893D01*
X0297112Y0131047D01*
X0296922Y0131196D01*
X0296728Y0131340D01*
X0296531Y0131480D01*
X0296330Y0131615D01*
X0296126Y0131745D01*
X0295920Y0131870D01*
X0295710Y0131990D01*
X0295497Y0132105D01*
X0295282Y0132214D01*
X0295064Y0132319D01*
X0294844Y0132418D01*
X0294621Y0132512D01*
X0294396Y0132600D01*
X0294169Y0132683D01*
X0293940Y0132761D01*
X0293709Y0132832D01*
X0293477Y0132899D01*
X0293243Y0132959D01*
X0293008Y0133014D01*
X0292771Y0133064D01*
X0292534Y0133107D01*
X0292295Y0133145D01*
X0292055Y0133177D01*
X0291815Y0133203D01*
X0291574Y0133224D01*
X0291333Y0133238D01*
X0291092Y0133247D01*
X0290850Y0133250D01*
X0020850Y0133250D01*
X0020608Y0133247D01*
X0020367Y0133238D01*
X0020126Y0133224D01*
X0019885Y0133203D01*
X0019645Y0133177D01*
X0019405Y0133145D01*
X0019166Y0133107D01*
X0018929Y0133064D01*
X0018692Y0133014D01*
X0018457Y0132959D01*
X0018223Y0132899D01*
X0017991Y0132832D01*
X0017760Y0132761D01*
X0017531Y0132683D01*
X0017304Y0132600D01*
X0017079Y0132512D01*
X0016856Y0132418D01*
X0016636Y0132319D01*
X0016418Y0132214D01*
X0016203Y0132105D01*
X0015990Y0131990D01*
X0015780Y0131870D01*
X0015574Y0131745D01*
X0015370Y0131615D01*
X0015169Y0131480D01*
X0014972Y0131340D01*
X0014778Y0131196D01*
X0014588Y0131047D01*
X0014402Y0130893D01*
X0014219Y0130735D01*
X0014040Y0130573D01*
X0013865Y0130406D01*
X0013694Y0130235D01*
X0013527Y0130060D01*
X0013365Y0129881D01*
X0013207Y0129698D01*
X0013053Y0129512D01*
X0012904Y0129322D01*
X0012760Y0129128D01*
X0012620Y0128931D01*
X0012485Y0128730D01*
X0012355Y0128526D01*
X0012230Y0128320D01*
X0012110Y0128110D01*
X0011995Y0127897D01*
X0011886Y0127682D01*
X0011781Y0127464D01*
X0011682Y0127244D01*
X0011588Y0127021D01*
X0011500Y0126796D01*
X0011417Y0126569D01*
X0011339Y0126340D01*
X0011268Y0126109D01*
X0011201Y0125877D01*
X0011141Y0125643D01*
X0011086Y0125408D01*
X0011036Y0125171D01*
X0010993Y0124934D01*
X0010955Y0124695D01*
X0010923Y0124455D01*
X0010897Y0124215D01*
X0010876Y0123974D01*
X0010862Y0123733D01*
X0010853Y0123492D01*
X0010850Y0123250D01*
X0010850Y0013250D01*
X0106850Y0037250D02*
X0109850Y0037250D01*
X0112850Y0037250D01*
X0112850Y0039250D02*
X0109850Y0039250D01*
X0106850Y0039250D01*
X0184850Y0034750D02*
X0184850Y0031750D01*
X0184850Y0028750D01*
X0186850Y0028750D02*
X0186850Y0031750D01*
X0186850Y0034750D01*
X0204850Y0034750D02*
X0204850Y0031750D01*
X0204850Y0028750D01*
X0206850Y0028750D02*
X0206850Y0031750D01*
X0206850Y0034750D01*
X0290850Y0065750D02*
X0290663Y0065507D01*
X0290471Y0065269D01*
X0290272Y0065036D01*
X0290068Y0064808D01*
X0289859Y0064585D01*
X0289644Y0064367D01*
X0289424Y0064154D01*
X0289199Y0063947D01*
X0288968Y0063745D01*
X0288733Y0063549D01*
X0288493Y0063359D01*
X0288249Y0063175D01*
X0288000Y0062997D01*
X0287746Y0062825D01*
X0287489Y0062659D01*
X0287228Y0062499D01*
X0286963Y0062346D01*
X0286694Y0062200D01*
X0286421Y0062060D01*
X0286146Y0061927D01*
X0285867Y0061801D01*
X0285585Y0061681D01*
X0285300Y0061569D01*
X0285013Y0061464D01*
X0284723Y0061365D01*
X0284431Y0061274D01*
X0284136Y0061190D01*
X0283840Y0061113D01*
X0283542Y0061043D01*
X0283242Y0060981D01*
X0282941Y0060926D01*
X0282639Y0060879D01*
X0282335Y0060839D01*
X0282031Y0060806D01*
X0281726Y0060781D01*
X0281420Y0060763D01*
X0281114Y0060753D01*
X0280808Y0060750D01*
X0280502Y0060755D01*
X0280196Y0060767D01*
X0279890Y0060787D01*
X0279586Y0060814D01*
X0279281Y0060849D01*
X0278978Y0060891D01*
X0278676Y0060940D01*
X0278375Y0060997D01*
X0278076Y0061062D01*
X0277778Y0061133D01*
X0277483Y0061212D01*
X0277189Y0061298D01*
X0276897Y0061391D01*
X0276608Y0061492D01*
X0276321Y0061599D01*
X0276037Y0061714D01*
X0275756Y0061835D01*
X0275478Y0061963D01*
X0275203Y0062098D01*
X0274932Y0062240D01*
X0274664Y0062388D01*
X0274400Y0062543D01*
X0274140Y0062704D01*
X0273884Y0062871D01*
X0273631Y0063045D01*
X0273384Y0063225D01*
X0273140Y0063411D01*
X0272902Y0063602D01*
X0272668Y0063800D01*
X0272439Y0064003D01*
X0272215Y0064212D01*
X0271996Y0064426D01*
X0271783Y0064646D01*
X0271575Y0064870D01*
X0271372Y0065100D01*
X0271176Y0065334D01*
X0270985Y0065574D01*
X0270800Y0065817D01*
X0270621Y0066066D01*
X0270448Y0066318D01*
X0270281Y0066575D01*
X0270121Y0066836D01*
X0269967Y0067101D01*
X0269820Y0067369D01*
X0269679Y0067641D01*
X0269545Y0067916D01*
X0269418Y0068195D01*
X0269297Y0068476D01*
X0269184Y0068761D01*
X0269078Y0069048D01*
X0268978Y0069337D01*
X0268886Y0069629D01*
X0268801Y0069923D01*
X0268723Y0070219D01*
X0268652Y0070517D01*
X0268589Y0070817D01*
X0268533Y0071118D01*
X0268485Y0071420D01*
X0268444Y0071723D01*
X0268410Y0072027D01*
X0268384Y0072332D01*
X0268365Y0072638D01*
X0268354Y0072944D01*
X0268350Y0073250D01*
X0268354Y0073556D01*
X0268365Y0073862D01*
X0268384Y0074168D01*
X0268410Y0074473D01*
X0268444Y0074777D01*
X0268485Y0075080D01*
X0268533Y0075382D01*
X0268589Y0075683D01*
X0268652Y0075983D01*
X0268723Y0076281D01*
X0268801Y0076577D01*
X0268886Y0076871D01*
X0268978Y0077163D01*
X0269078Y0077452D01*
X0269184Y0077739D01*
X0269297Y0078024D01*
X0269418Y0078305D01*
X0269545Y0078584D01*
X0269679Y0078859D01*
X0269820Y0079131D01*
X0269967Y0079399D01*
X0270121Y0079664D01*
X0270281Y0079925D01*
X0270448Y0080182D01*
X0270621Y0080434D01*
X0270800Y0080683D01*
X0270985Y0080926D01*
X0271176Y0081166D01*
X0271372Y0081400D01*
X0271575Y0081630D01*
X0271783Y0081854D01*
X0271996Y0082074D01*
X0272215Y0082288D01*
X0272439Y0082497D01*
X0272668Y0082700D01*
X0272902Y0082898D01*
X0273140Y0083089D01*
X0273384Y0083275D01*
X0273631Y0083455D01*
X0273884Y0083629D01*
X0274140Y0083796D01*
X0274400Y0083957D01*
X0274664Y0084112D01*
X0274932Y0084260D01*
X0275203Y0084402D01*
X0275478Y0084537D01*
X0275756Y0084665D01*
X0276037Y0084786D01*
X0276321Y0084901D01*
X0276608Y0085008D01*
X0276897Y0085109D01*
X0277189Y0085202D01*
X0277483Y0085288D01*
X0277778Y0085367D01*
X0278076Y0085438D01*
X0278375Y0085503D01*
X0278676Y0085560D01*
X0278978Y0085609D01*
X0279281Y0085651D01*
X0279586Y0085686D01*
X0279890Y0085713D01*
X0280196Y0085733D01*
X0280502Y0085745D01*
X0280808Y0085750D01*
X0281114Y0085747D01*
X0281420Y0085737D01*
X0281726Y0085719D01*
X0282031Y0085694D01*
X0282335Y0085661D01*
X0282639Y0085621D01*
X0282941Y0085574D01*
X0283242Y0085519D01*
X0283542Y0085457D01*
X0283840Y0085387D01*
X0284136Y0085310D01*
X0284431Y0085226D01*
X0284723Y0085135D01*
X0285013Y0085036D01*
X0285300Y0084931D01*
X0285585Y0084819D01*
X0285867Y0084699D01*
X0286146Y0084573D01*
X0286421Y0084440D01*
X0286694Y0084300D01*
X0286963Y0084154D01*
X0287228Y0084001D01*
X0287489Y0083841D01*
X0287746Y0083675D01*
X0288000Y0083503D01*
X0288249Y0083325D01*
X0288493Y0083141D01*
X0288733Y0082951D01*
X0288968Y0082755D01*
X0289199Y0082553D01*
X0289424Y0082346D01*
X0289644Y0082133D01*
X0289859Y0081915D01*
X0290068Y0081692D01*
X0290272Y0081464D01*
X0290471Y0081231D01*
X0290663Y0080993D01*
X0290850Y0080750D01*
X0193850Y0097250D02*
X0190850Y0097250D01*
X0187850Y0097250D01*
X0187850Y0099250D02*
X0190850Y0099250D01*
X0193850Y0099250D01*
X0169850Y0116750D02*
X0166850Y0116750D01*
X0163850Y0116750D01*
X0163850Y0118750D02*
X0166850Y0118750D01*
X0169850Y0118750D01*
X0158350Y0118750D02*
X0155350Y0118750D01*
X0152350Y0118750D01*
X0152350Y0116750D02*
X0155350Y0116750D01*
X0158350Y0116750D01*
X0116881Y0105196D02*
X0116712Y0105097D01*
X0116546Y0104993D01*
X0116382Y0104886D01*
X0116221Y0104775D01*
X0116063Y0104660D01*
X0115908Y0104541D01*
X0115755Y0104418D01*
X0115606Y0104292D01*
X0115460Y0104162D01*
X0115317Y0104028D01*
X0115177Y0103891D01*
X0115041Y0103751D01*
X0114908Y0103607D01*
X0114779Y0103460D01*
X0114653Y0103310D01*
X0114532Y0103157D01*
X0114413Y0103001D01*
X0114299Y0102842D01*
X0114189Y0102681D01*
X0114083Y0102516D01*
X0113980Y0102350D01*
X0113882Y0102180D01*
X0113788Y0102009D01*
X0113698Y0101835D01*
X0113613Y0101659D01*
X0113531Y0101481D01*
X0113455Y0101301D01*
X0113382Y0101119D01*
X0113314Y0100936D01*
X0113251Y0100751D01*
X0113192Y0100564D01*
X0113138Y0100376D01*
X0113088Y0100187D01*
X0113043Y0099997D01*
X0113003Y0099805D01*
X0112967Y0099613D01*
X0112936Y0099420D01*
X0112910Y0099226D01*
X0112888Y0099031D01*
X0112872Y0098836D01*
X0112860Y0098641D01*
X0112852Y0098445D01*
X0112850Y0098250D01*
X0124615Y0105309D02*
X0124783Y0105216D01*
X0124949Y0105120D01*
X0125113Y0105020D01*
X0125274Y0104915D01*
X0125433Y0104807D01*
X0125589Y0104695D01*
X0125743Y0104579D01*
X0125893Y0104460D01*
X0126041Y0104337D01*
X0126186Y0104211D01*
X0126327Y0104081D01*
X0126466Y0103948D01*
X0126601Y0103811D01*
X0126733Y0103671D01*
X0126861Y0103529D01*
X0126986Y0103383D01*
X0127108Y0103234D01*
X0127226Y0103082D01*
X0127340Y0102928D01*
X0127450Y0102770D01*
X0127557Y0102611D01*
X0127660Y0102448D01*
X0127759Y0102283D01*
X0127854Y0102116D01*
X0127944Y0101947D01*
X0128031Y0101776D01*
X0128114Y0101602D01*
X0128192Y0101427D01*
X0128266Y0101249D01*
X0128336Y0101070D01*
X0128402Y0100890D01*
X0128463Y0100708D01*
X0128520Y0100524D01*
X0128572Y0100339D01*
X0128620Y0100153D01*
X0128664Y0099966D01*
X0128703Y0099778D01*
X0128737Y0099589D01*
X0128767Y0099399D01*
X0128792Y0099209D01*
X0128813Y0099018D01*
X0128829Y0098826D01*
X0128841Y0098634D01*
X0128848Y0098442D01*
X0128850Y0098250D01*
X0115682Y0092143D02*
X0115536Y0092270D01*
X0115394Y0092399D01*
X0115254Y0092533D01*
X0115118Y0092669D01*
X0114985Y0092809D01*
X0114855Y0092952D01*
X0114729Y0093099D01*
X0114607Y0093248D01*
X0114488Y0093400D01*
X0114373Y0093555D01*
X0114261Y0093712D01*
X0114154Y0093872D01*
X0114050Y0094035D01*
X0113951Y0094201D01*
X0113855Y0094368D01*
X0113763Y0094538D01*
X0113676Y0094710D01*
X0113592Y0094884D01*
X0113513Y0095060D01*
X0113439Y0095238D01*
X0113368Y0095418D01*
X0113302Y0095599D01*
X0113240Y0095782D01*
X0113183Y0095966D01*
X0113130Y0096152D01*
X0113082Y0096339D01*
X0113038Y0096527D01*
X0112999Y0096716D01*
X0112964Y0096906D01*
X0112934Y0097096D01*
X0112908Y0097287D01*
X0112887Y0097479D01*
X0112871Y0097672D01*
X0112859Y0097864D01*
X0112852Y0098057D01*
X0112850Y0098250D01*
X0125972Y0092104D02*
X0126120Y0092231D01*
X0126265Y0092361D01*
X0126406Y0092494D01*
X0126545Y0092631D01*
X0126680Y0092771D01*
X0126811Y0092915D01*
X0126939Y0093062D01*
X0127064Y0093211D01*
X0127185Y0093364D01*
X0127302Y0093519D01*
X0127415Y0093678D01*
X0127524Y0093839D01*
X0127629Y0094003D01*
X0127731Y0094169D01*
X0127828Y0094338D01*
X0127921Y0094508D01*
X0128010Y0094682D01*
X0128095Y0094857D01*
X0128175Y0095034D01*
X0128251Y0095213D01*
X0128323Y0095394D01*
X0128390Y0095577D01*
X0128453Y0095761D01*
X0128511Y0095947D01*
X0128565Y0096134D01*
X0128614Y0096322D01*
X0128659Y0096512D01*
X0128699Y0096702D01*
X0128734Y0096894D01*
X0128765Y0097086D01*
X0128791Y0097279D01*
X0128812Y0097473D01*
X0128829Y0097667D01*
X0128841Y0097861D01*
X0128848Y0098055D01*
X0128850Y0098250D01*
D14*
X0117167Y0102986D02*
X0117048Y0102892D01*
X0116932Y0102794D01*
X0116818Y0102694D01*
X0116707Y0102590D01*
X0116599Y0102484D01*
X0116493Y0102376D01*
X0116391Y0102264D01*
X0116291Y0102150D01*
X0116193Y0102034D01*
X0116099Y0101915D01*
X0116008Y0101794D01*
X0115920Y0101670D01*
X0115835Y0101544D01*
X0115754Y0101417D01*
X0115675Y0101287D01*
X0115600Y0101155D01*
X0115529Y0101022D01*
X0115460Y0100886D01*
X0115395Y0100749D01*
X0115334Y0100611D01*
X0115276Y0100470D01*
X0115222Y0100329D01*
X0115171Y0100186D01*
X0115124Y0100042D01*
X0115080Y0099897D01*
X0115041Y0099750D01*
X0115005Y0099603D01*
X0114972Y0099455D01*
X0114944Y0099306D01*
X0114919Y0099156D01*
X0114898Y0099006D01*
X0114881Y0098856D01*
X0114867Y0098704D01*
X0114858Y0098553D01*
X0114852Y0098402D01*
X0114850Y0098250D01*
X0124450Y0103050D02*
X0124569Y0102958D01*
X0124686Y0102864D01*
X0124800Y0102766D01*
X0124912Y0102666D01*
X0125022Y0102562D01*
X0125128Y0102457D01*
X0125233Y0102348D01*
X0125334Y0102237D01*
X0125432Y0102123D01*
X0125528Y0102007D01*
X0125621Y0101889D01*
X0125710Y0101768D01*
X0125797Y0101645D01*
X0125880Y0101520D01*
X0125961Y0101393D01*
X0126038Y0101264D01*
X0126112Y0101133D01*
X0126183Y0101000D01*
X0126250Y0100866D01*
X0126314Y0100730D01*
X0126374Y0100592D01*
X0126431Y0100453D01*
X0126484Y0100312D01*
X0126534Y0100170D01*
X0126581Y0100027D01*
X0126623Y0099883D01*
X0126663Y0099738D01*
X0126698Y0099592D01*
X0126730Y0099445D01*
X0126758Y0099297D01*
X0126782Y0099149D01*
X0126803Y0099000D01*
X0126820Y0098850D01*
X0126833Y0098701D01*
X0126842Y0098551D01*
X0126848Y0098400D01*
X0126850Y0098250D01*
X0117167Y0093514D02*
X0117048Y0093608D01*
X0116932Y0093706D01*
X0116818Y0093806D01*
X0116707Y0093910D01*
X0116599Y0094016D01*
X0116493Y0094124D01*
X0116391Y0094236D01*
X0116291Y0094350D01*
X0116193Y0094466D01*
X0116099Y0094585D01*
X0116008Y0094706D01*
X0115920Y0094830D01*
X0115835Y0094956D01*
X0115754Y0095083D01*
X0115675Y0095213D01*
X0115600Y0095345D01*
X0115529Y0095478D01*
X0115460Y0095614D01*
X0115395Y0095751D01*
X0115334Y0095889D01*
X0115276Y0096030D01*
X0115222Y0096171D01*
X0115171Y0096314D01*
X0115124Y0096458D01*
X0115080Y0096603D01*
X0115041Y0096750D01*
X0115005Y0096897D01*
X0114972Y0097045D01*
X0114944Y0097194D01*
X0114919Y0097344D01*
X0114898Y0097494D01*
X0114881Y0097644D01*
X0114867Y0097796D01*
X0114858Y0097947D01*
X0114852Y0098098D01*
X0114850Y0098250D01*
X0124337Y0093368D02*
X0124462Y0093459D01*
X0124584Y0093553D01*
X0124703Y0093651D01*
X0124820Y0093751D01*
X0124934Y0093855D01*
X0125046Y0093961D01*
X0125154Y0094070D01*
X0125260Y0094182D01*
X0125363Y0094297D01*
X0125463Y0094414D01*
X0125561Y0094534D01*
X0125654Y0094656D01*
X0125745Y0094780D01*
X0125833Y0094907D01*
X0125917Y0095036D01*
X0125998Y0095168D01*
X0126075Y0095301D01*
X0126149Y0095436D01*
X0126220Y0095573D01*
X0126287Y0095712D01*
X0126350Y0095852D01*
X0126410Y0095995D01*
X0126466Y0096138D01*
X0126518Y0096283D01*
X0126567Y0096429D01*
X0126612Y0096577D01*
X0126653Y0096725D01*
X0126690Y0096875D01*
X0126724Y0097025D01*
X0126753Y0097177D01*
X0126779Y0097329D01*
X0126801Y0097481D01*
X0126818Y0097634D01*
X0126832Y0097788D01*
X0126842Y0097942D01*
X0126848Y0098096D01*
X0126850Y0098250D01*
X0149350Y0101750D02*
X0149190Y0101748D01*
X0149031Y0101742D01*
X0148872Y0101732D01*
X0148713Y0101719D01*
X0148554Y0101701D01*
X0148396Y0101680D01*
X0148239Y0101654D01*
X0148082Y0101625D01*
X0147926Y0101592D01*
X0147771Y0101555D01*
X0147616Y0101515D01*
X0147463Y0101470D01*
X0147311Y0101422D01*
X0147160Y0101370D01*
X0147011Y0101314D01*
X0146863Y0101255D01*
X0146716Y0101192D01*
X0146571Y0101126D01*
X0146428Y0101056D01*
X0146286Y0100982D01*
X0146146Y0100906D01*
X0146008Y0100825D01*
X0145873Y0100742D01*
X0145739Y0100655D01*
X0145607Y0100564D01*
X0145478Y0100471D01*
X0145351Y0100374D01*
X0145226Y0100275D01*
X0145104Y0100172D01*
X0144985Y0100066D01*
X0144868Y0099958D01*
X0144754Y0099846D01*
X0144642Y0099732D01*
X0144534Y0099615D01*
X0144428Y0099496D01*
X0144325Y0099374D01*
X0144226Y0099249D01*
X0144129Y0099122D01*
X0144036Y0098993D01*
X0143945Y0098861D01*
X0143858Y0098727D01*
X0143775Y0098592D01*
X0143694Y0098454D01*
X0143618Y0098314D01*
X0143544Y0098172D01*
X0143474Y0098029D01*
X0143408Y0097884D01*
X0143345Y0097737D01*
X0143286Y0097589D01*
X0143230Y0097440D01*
X0143178Y0097289D01*
X0143130Y0097137D01*
X0143085Y0096984D01*
X0143045Y0096829D01*
X0143008Y0096674D01*
X0142975Y0096518D01*
X0142946Y0096361D01*
X0142920Y0096204D01*
X0142899Y0096046D01*
X0142881Y0095887D01*
X0142868Y0095728D01*
X0142858Y0095569D01*
X0142852Y0095410D01*
X0142850Y0095250D01*
X0142852Y0095090D01*
X0142858Y0094931D01*
X0142868Y0094772D01*
X0142881Y0094613D01*
X0142899Y0094454D01*
X0142920Y0094296D01*
X0142946Y0094139D01*
X0142975Y0093982D01*
X0143008Y0093826D01*
X0143045Y0093671D01*
X0143085Y0093516D01*
X0143130Y0093363D01*
X0143178Y0093211D01*
X0143230Y0093060D01*
X0143286Y0092911D01*
X0143345Y0092763D01*
X0143408Y0092616D01*
X0143474Y0092471D01*
X0143544Y0092328D01*
X0143618Y0092186D01*
X0143694Y0092046D01*
X0143775Y0091908D01*
X0143858Y0091773D01*
X0143945Y0091639D01*
X0144036Y0091507D01*
X0144129Y0091378D01*
X0144226Y0091251D01*
X0144325Y0091126D01*
X0144428Y0091004D01*
X0144534Y0090885D01*
X0144642Y0090768D01*
X0144754Y0090654D01*
X0144868Y0090542D01*
X0144985Y0090434D01*
X0145104Y0090328D01*
X0145226Y0090225D01*
X0145351Y0090126D01*
X0145478Y0090029D01*
X0145607Y0089936D01*
X0145739Y0089845D01*
X0145873Y0089758D01*
X0146008Y0089675D01*
X0146146Y0089594D01*
X0146286Y0089518D01*
X0146428Y0089444D01*
X0146571Y0089374D01*
X0146716Y0089308D01*
X0146863Y0089245D01*
X0147011Y0089186D01*
X0147160Y0089130D01*
X0147311Y0089078D01*
X0147463Y0089030D01*
X0147616Y0088985D01*
X0147771Y0088945D01*
X0147926Y0088908D01*
X0148082Y0088875D01*
X0148239Y0088846D01*
X0148396Y0088820D01*
X0148554Y0088799D01*
X0148713Y0088781D01*
X0148872Y0088768D01*
X0149031Y0088758D01*
X0149190Y0088752D01*
X0149350Y0088750D01*
X0173350Y0088750D01*
X0163850Y0092250D02*
X0163850Y0095250D01*
X0166350Y0095250D01*
X0163850Y0095250D02*
X0163850Y0098250D01*
X0162350Y0098250D02*
X0162350Y0092250D01*
X0160350Y0092250D01*
X0160350Y0098250D01*
X0162350Y0098250D01*
X0158850Y0098250D02*
X0158850Y0095250D01*
X0156350Y0095250D01*
X0158850Y0095250D02*
X0158850Y0092250D01*
X0173350Y0088750D02*
X0173510Y0088752D01*
X0173669Y0088758D01*
X0173828Y0088768D01*
X0173987Y0088781D01*
X0174146Y0088799D01*
X0174304Y0088820D01*
X0174461Y0088846D01*
X0174618Y0088875D01*
X0174774Y0088908D01*
X0174929Y0088945D01*
X0175084Y0088985D01*
X0175237Y0089030D01*
X0175389Y0089078D01*
X0175540Y0089130D01*
X0175689Y0089186D01*
X0175837Y0089245D01*
X0175984Y0089308D01*
X0176129Y0089374D01*
X0176272Y0089444D01*
X0176414Y0089518D01*
X0176554Y0089594D01*
X0176692Y0089675D01*
X0176827Y0089758D01*
X0176961Y0089845D01*
X0177093Y0089936D01*
X0177222Y0090029D01*
X0177349Y0090126D01*
X0177474Y0090225D01*
X0177596Y0090328D01*
X0177715Y0090434D01*
X0177832Y0090542D01*
X0177946Y0090654D01*
X0178058Y0090768D01*
X0178166Y0090885D01*
X0178272Y0091004D01*
X0178375Y0091126D01*
X0178474Y0091251D01*
X0178571Y0091378D01*
X0178664Y0091507D01*
X0178755Y0091639D01*
X0178842Y0091773D01*
X0178925Y0091908D01*
X0179006Y0092046D01*
X0179082Y0092186D01*
X0179156Y0092328D01*
X0179226Y0092471D01*
X0179292Y0092616D01*
X0179355Y0092763D01*
X0179414Y0092911D01*
X0179470Y0093060D01*
X0179522Y0093211D01*
X0179570Y0093363D01*
X0179615Y0093516D01*
X0179655Y0093671D01*
X0179692Y0093826D01*
X0179725Y0093982D01*
X0179754Y0094139D01*
X0179780Y0094296D01*
X0179801Y0094454D01*
X0179819Y0094613D01*
X0179832Y0094772D01*
X0179842Y0094931D01*
X0179848Y0095090D01*
X0179850Y0095250D01*
X0179848Y0095410D01*
X0179842Y0095569D01*
X0179832Y0095728D01*
X0179819Y0095887D01*
X0179801Y0096046D01*
X0179780Y0096204D01*
X0179754Y0096361D01*
X0179725Y0096518D01*
X0179692Y0096674D01*
X0179655Y0096829D01*
X0179615Y0096984D01*
X0179570Y0097137D01*
X0179522Y0097289D01*
X0179470Y0097440D01*
X0179414Y0097589D01*
X0179355Y0097737D01*
X0179292Y0097884D01*
X0179226Y0098029D01*
X0179156Y0098172D01*
X0179082Y0098314D01*
X0179006Y0098454D01*
X0178925Y0098592D01*
X0178842Y0098727D01*
X0178755Y0098861D01*
X0178664Y0098993D01*
X0178571Y0099122D01*
X0178474Y0099249D01*
X0178375Y0099374D01*
X0178272Y0099496D01*
X0178166Y0099615D01*
X0178058Y0099732D01*
X0177946Y0099846D01*
X0177832Y0099958D01*
X0177715Y0100066D01*
X0177596Y0100172D01*
X0177474Y0100275D01*
X0177349Y0100374D01*
X0177222Y0100471D01*
X0177093Y0100564D01*
X0176961Y0100655D01*
X0176827Y0100742D01*
X0176692Y0100825D01*
X0176554Y0100906D01*
X0176414Y0100982D01*
X0176272Y0101056D01*
X0176129Y0101126D01*
X0175984Y0101192D01*
X0175837Y0101255D01*
X0175689Y0101314D01*
X0175540Y0101370D01*
X0175389Y0101422D01*
X0175237Y0101470D01*
X0175084Y0101515D01*
X0174929Y0101555D01*
X0174774Y0101592D01*
X0174618Y0101625D01*
X0174461Y0101654D01*
X0174304Y0101680D01*
X0174146Y0101701D01*
X0173987Y0101719D01*
X0173828Y0101732D01*
X0173669Y0101742D01*
X0173510Y0101748D01*
X0173350Y0101750D01*
X0149350Y0101750D01*
X0151350Y0108250D02*
X0159350Y0108250D01*
X0159410Y0108252D01*
X0159471Y0108257D01*
X0159530Y0108266D01*
X0159589Y0108279D01*
X0159648Y0108295D01*
X0159705Y0108315D01*
X0159760Y0108338D01*
X0159815Y0108365D01*
X0159867Y0108394D01*
X0159918Y0108427D01*
X0159967Y0108463D01*
X0160013Y0108501D01*
X0160057Y0108543D01*
X0160099Y0108587D01*
X0160137Y0108633D01*
X0160173Y0108682D01*
X0160206Y0108733D01*
X0160235Y0108785D01*
X0160262Y0108840D01*
X0160285Y0108895D01*
X0160305Y0108952D01*
X0160321Y0109011D01*
X0160334Y0109070D01*
X0160343Y0109129D01*
X0160348Y0109190D01*
X0160350Y0109250D01*
X0160350Y0126250D01*
X0160348Y0126310D01*
X0160343Y0126371D01*
X0160334Y0126430D01*
X0160321Y0126489D01*
X0160305Y0126548D01*
X0160285Y0126605D01*
X0160262Y0126660D01*
X0160235Y0126715D01*
X0160206Y0126767D01*
X0160173Y0126818D01*
X0160137Y0126867D01*
X0160099Y0126913D01*
X0160057Y0126957D01*
X0160013Y0126999D01*
X0159967Y0127037D01*
X0159918Y0127073D01*
X0159867Y0127106D01*
X0159815Y0127135D01*
X0159760Y0127162D01*
X0159705Y0127185D01*
X0159648Y0127205D01*
X0159589Y0127221D01*
X0159530Y0127234D01*
X0159471Y0127243D01*
X0159410Y0127248D01*
X0159350Y0127250D01*
X0151350Y0127250D01*
X0151290Y0127248D01*
X0151229Y0127243D01*
X0151170Y0127234D01*
X0151111Y0127221D01*
X0151052Y0127205D01*
X0150995Y0127185D01*
X0150940Y0127162D01*
X0150885Y0127135D01*
X0150833Y0127106D01*
X0150782Y0127073D01*
X0150733Y0127037D01*
X0150687Y0126999D01*
X0150643Y0126957D01*
X0150601Y0126913D01*
X0150563Y0126867D01*
X0150527Y0126818D01*
X0150494Y0126767D01*
X0150465Y0126715D01*
X0150438Y0126660D01*
X0150415Y0126605D01*
X0150395Y0126548D01*
X0150379Y0126489D01*
X0150366Y0126430D01*
X0150357Y0126371D01*
X0150352Y0126310D01*
X0150350Y0126250D01*
X0150350Y0109250D01*
X0150352Y0109190D01*
X0150357Y0109129D01*
X0150366Y0109070D01*
X0150379Y0109011D01*
X0150395Y0108952D01*
X0150415Y0108895D01*
X0150438Y0108840D01*
X0150465Y0108785D01*
X0150494Y0108733D01*
X0150527Y0108682D01*
X0150563Y0108633D01*
X0150601Y0108587D01*
X0150643Y0108543D01*
X0150687Y0108501D01*
X0150733Y0108463D01*
X0150782Y0108427D01*
X0150833Y0108394D01*
X0150885Y0108365D01*
X0150940Y0108338D01*
X0150995Y0108315D01*
X0151052Y0108295D01*
X0151111Y0108279D01*
X0151170Y0108266D01*
X0151229Y0108257D01*
X0151290Y0108252D01*
X0151350Y0108250D01*
X0161850Y0109250D02*
X0161850Y0126250D01*
X0161852Y0126310D01*
X0161857Y0126371D01*
X0161866Y0126430D01*
X0161879Y0126489D01*
X0161895Y0126548D01*
X0161915Y0126605D01*
X0161938Y0126660D01*
X0161965Y0126715D01*
X0161994Y0126767D01*
X0162027Y0126818D01*
X0162063Y0126867D01*
X0162101Y0126913D01*
X0162143Y0126957D01*
X0162187Y0126999D01*
X0162233Y0127037D01*
X0162282Y0127073D01*
X0162333Y0127106D01*
X0162385Y0127135D01*
X0162440Y0127162D01*
X0162495Y0127185D01*
X0162552Y0127205D01*
X0162611Y0127221D01*
X0162670Y0127234D01*
X0162729Y0127243D01*
X0162790Y0127248D01*
X0162850Y0127250D01*
X0170850Y0127250D01*
X0170910Y0127248D01*
X0170971Y0127243D01*
X0171030Y0127234D01*
X0171089Y0127221D01*
X0171148Y0127205D01*
X0171205Y0127185D01*
X0171260Y0127162D01*
X0171315Y0127135D01*
X0171367Y0127106D01*
X0171418Y0127073D01*
X0171467Y0127037D01*
X0171513Y0126999D01*
X0171557Y0126957D01*
X0171599Y0126913D01*
X0171637Y0126867D01*
X0171673Y0126818D01*
X0171706Y0126767D01*
X0171735Y0126715D01*
X0171762Y0126660D01*
X0171785Y0126605D01*
X0171805Y0126548D01*
X0171821Y0126489D01*
X0171834Y0126430D01*
X0171843Y0126371D01*
X0171848Y0126310D01*
X0171850Y0126250D01*
X0171850Y0109250D01*
X0171848Y0109190D01*
X0171843Y0109129D01*
X0171834Y0109070D01*
X0171821Y0109011D01*
X0171805Y0108952D01*
X0171785Y0108895D01*
X0171762Y0108840D01*
X0171735Y0108785D01*
X0171706Y0108733D01*
X0171673Y0108682D01*
X0171637Y0108633D01*
X0171599Y0108587D01*
X0171557Y0108543D01*
X0171513Y0108501D01*
X0171467Y0108463D01*
X0171418Y0108427D01*
X0171367Y0108394D01*
X0171315Y0108365D01*
X0171260Y0108338D01*
X0171205Y0108315D01*
X0171148Y0108295D01*
X0171089Y0108279D01*
X0171030Y0108266D01*
X0170971Y0108257D01*
X0170910Y0108252D01*
X0170850Y0108250D01*
X0162850Y0108250D01*
X0162790Y0108252D01*
X0162729Y0108257D01*
X0162670Y0108266D01*
X0162611Y0108279D01*
X0162552Y0108295D01*
X0162495Y0108315D01*
X0162440Y0108338D01*
X0162385Y0108365D01*
X0162333Y0108394D01*
X0162282Y0108427D01*
X0162233Y0108463D01*
X0162187Y0108501D01*
X0162143Y0108543D01*
X0162101Y0108587D01*
X0162063Y0108633D01*
X0162027Y0108682D01*
X0161994Y0108733D01*
X0161965Y0108785D01*
X0161938Y0108840D01*
X0161915Y0108895D01*
X0161895Y0108952D01*
X0161879Y0109011D01*
X0161866Y0109070D01*
X0161857Y0109129D01*
X0161852Y0109190D01*
X0161850Y0109250D01*
X0166850Y0116250D02*
X0166850Y0116750D01*
X0166850Y0118750D02*
X0166850Y0119250D01*
X0155350Y0119250D02*
X0155350Y0118750D01*
X0155350Y0116750D02*
X0155350Y0116250D01*
X0136350Y0117250D02*
X0136350Y0110250D01*
X0136348Y0110190D01*
X0136343Y0110129D01*
X0136334Y0110070D01*
X0136321Y0110011D01*
X0136305Y0109952D01*
X0136285Y0109895D01*
X0136262Y0109840D01*
X0136235Y0109785D01*
X0136206Y0109733D01*
X0136173Y0109682D01*
X0136137Y0109633D01*
X0136099Y0109587D01*
X0136057Y0109543D01*
X0136013Y0109501D01*
X0135967Y0109463D01*
X0135918Y0109427D01*
X0135867Y0109394D01*
X0135815Y0109365D01*
X0135760Y0109338D01*
X0135705Y0109315D01*
X0135648Y0109295D01*
X0135589Y0109279D01*
X0135530Y0109266D01*
X0135471Y0109257D01*
X0135410Y0109252D01*
X0135350Y0109250D01*
X0133850Y0109250D01*
X0133350Y0109750D01*
X0114350Y0109750D01*
X0113850Y0109250D01*
X0112350Y0109250D01*
X0112290Y0109252D01*
X0112229Y0109257D01*
X0112170Y0109266D01*
X0112111Y0109279D01*
X0112052Y0109295D01*
X0111995Y0109315D01*
X0111940Y0109338D01*
X0111885Y0109365D01*
X0111833Y0109394D01*
X0111782Y0109427D01*
X0111733Y0109463D01*
X0111687Y0109501D01*
X0111643Y0109543D01*
X0111601Y0109587D01*
X0111563Y0109633D01*
X0111527Y0109682D01*
X0111494Y0109733D01*
X0111465Y0109785D01*
X0111438Y0109840D01*
X0111415Y0109895D01*
X0111395Y0109952D01*
X0111379Y0110011D01*
X0111366Y0110070D01*
X0111357Y0110129D01*
X0111352Y0110190D01*
X0111350Y0110250D01*
X0111350Y0117250D01*
X0111352Y0117310D01*
X0111357Y0117371D01*
X0111366Y0117430D01*
X0111379Y0117489D01*
X0111395Y0117548D01*
X0111415Y0117605D01*
X0111438Y0117660D01*
X0111465Y0117715D01*
X0111494Y0117767D01*
X0111527Y0117818D01*
X0111563Y0117867D01*
X0111601Y0117913D01*
X0111643Y0117957D01*
X0111687Y0117999D01*
X0111733Y0118037D01*
X0111782Y0118073D01*
X0111833Y0118106D01*
X0111885Y0118135D01*
X0111940Y0118162D01*
X0111995Y0118185D01*
X0112052Y0118205D01*
X0112111Y0118221D01*
X0112170Y0118234D01*
X0112229Y0118243D01*
X0112290Y0118248D01*
X0112350Y0118250D01*
X0113850Y0118250D01*
X0114350Y0117750D01*
X0133350Y0117750D01*
X0133850Y0118250D01*
X0135350Y0118250D01*
X0135410Y0118248D01*
X0135471Y0118243D01*
X0135530Y0118234D01*
X0135589Y0118221D01*
X0135648Y0118205D01*
X0135705Y0118185D01*
X0135760Y0118162D01*
X0135815Y0118135D01*
X0135867Y0118106D01*
X0135918Y0118073D01*
X0135967Y0118037D01*
X0136013Y0117999D01*
X0136057Y0117957D01*
X0136099Y0117913D01*
X0136137Y0117867D01*
X0136173Y0117818D01*
X0136206Y0117767D01*
X0136235Y0117715D01*
X0136262Y0117660D01*
X0136285Y0117605D01*
X0136305Y0117548D01*
X0136321Y0117489D01*
X0136334Y0117430D01*
X0136343Y0117371D01*
X0136348Y0117310D01*
X0136350Y0117250D01*
X0184850Y0106750D02*
X0184850Y0089750D01*
X0184852Y0089690D01*
X0184857Y0089629D01*
X0184866Y0089570D01*
X0184879Y0089511D01*
X0184895Y0089452D01*
X0184915Y0089395D01*
X0184938Y0089340D01*
X0184965Y0089285D01*
X0184994Y0089233D01*
X0185027Y0089182D01*
X0185063Y0089133D01*
X0185101Y0089087D01*
X0185143Y0089043D01*
X0185187Y0089001D01*
X0185233Y0088963D01*
X0185282Y0088927D01*
X0185333Y0088894D01*
X0185385Y0088865D01*
X0185440Y0088838D01*
X0185495Y0088815D01*
X0185552Y0088795D01*
X0185611Y0088779D01*
X0185670Y0088766D01*
X0185729Y0088757D01*
X0185790Y0088752D01*
X0185850Y0088750D01*
X0195850Y0088750D01*
X0195910Y0088752D01*
X0195971Y0088757D01*
X0196030Y0088766D01*
X0196089Y0088779D01*
X0196148Y0088795D01*
X0196205Y0088815D01*
X0196260Y0088838D01*
X0196315Y0088865D01*
X0196367Y0088894D01*
X0196418Y0088927D01*
X0196467Y0088963D01*
X0196513Y0089001D01*
X0196557Y0089043D01*
X0196599Y0089087D01*
X0196637Y0089133D01*
X0196673Y0089182D01*
X0196706Y0089233D01*
X0196735Y0089285D01*
X0196762Y0089340D01*
X0196785Y0089395D01*
X0196805Y0089452D01*
X0196821Y0089511D01*
X0196834Y0089570D01*
X0196843Y0089629D01*
X0196848Y0089690D01*
X0196850Y0089750D01*
X0196850Y0106750D01*
X0196848Y0106810D01*
X0196843Y0106871D01*
X0196834Y0106930D01*
X0196821Y0106989D01*
X0196805Y0107048D01*
X0196785Y0107105D01*
X0196762Y0107160D01*
X0196735Y0107215D01*
X0196706Y0107267D01*
X0196673Y0107318D01*
X0196637Y0107367D01*
X0196599Y0107413D01*
X0196557Y0107457D01*
X0196513Y0107499D01*
X0196467Y0107537D01*
X0196418Y0107573D01*
X0196367Y0107606D01*
X0196315Y0107635D01*
X0196260Y0107662D01*
X0196205Y0107685D01*
X0196148Y0107705D01*
X0196089Y0107721D01*
X0196030Y0107734D01*
X0195971Y0107743D01*
X0195910Y0107748D01*
X0195850Y0107750D01*
X0185850Y0107750D01*
X0185790Y0107748D01*
X0185729Y0107743D01*
X0185670Y0107734D01*
X0185611Y0107721D01*
X0185552Y0107705D01*
X0185495Y0107685D01*
X0185440Y0107662D01*
X0185385Y0107635D01*
X0185333Y0107606D01*
X0185282Y0107573D01*
X0185233Y0107537D01*
X0185187Y0107499D01*
X0185143Y0107457D01*
X0185101Y0107413D01*
X0185063Y0107367D01*
X0185027Y0107318D01*
X0184994Y0107267D01*
X0184965Y0107215D01*
X0184938Y0107160D01*
X0184915Y0107105D01*
X0184895Y0107048D01*
X0184879Y0106989D01*
X0184866Y0106930D01*
X0184857Y0106871D01*
X0184852Y0106810D01*
X0184850Y0106750D01*
X0190850Y0099750D02*
X0190850Y0099250D01*
X0190850Y0097250D02*
X0190850Y0096750D01*
X0208350Y0096750D02*
X0208350Y0089750D01*
X0208352Y0089690D01*
X0208357Y0089629D01*
X0208366Y0089570D01*
X0208379Y0089511D01*
X0208395Y0089452D01*
X0208415Y0089395D01*
X0208438Y0089340D01*
X0208465Y0089285D01*
X0208494Y0089233D01*
X0208527Y0089182D01*
X0208563Y0089133D01*
X0208601Y0089087D01*
X0208643Y0089043D01*
X0208687Y0089001D01*
X0208733Y0088963D01*
X0208782Y0088927D01*
X0208833Y0088894D01*
X0208885Y0088865D01*
X0208940Y0088838D01*
X0208995Y0088815D01*
X0209052Y0088795D01*
X0209111Y0088779D01*
X0209170Y0088766D01*
X0209229Y0088757D01*
X0209290Y0088752D01*
X0209350Y0088750D01*
X0210850Y0088750D01*
X0211350Y0089250D01*
X0230350Y0089250D01*
X0230850Y0088750D01*
X0232350Y0088750D01*
X0232410Y0088752D01*
X0232471Y0088757D01*
X0232530Y0088766D01*
X0232589Y0088779D01*
X0232648Y0088795D01*
X0232705Y0088815D01*
X0232760Y0088838D01*
X0232815Y0088865D01*
X0232867Y0088894D01*
X0232918Y0088927D01*
X0232967Y0088963D01*
X0233013Y0089001D01*
X0233057Y0089043D01*
X0233099Y0089087D01*
X0233137Y0089133D01*
X0233173Y0089182D01*
X0233206Y0089233D01*
X0233235Y0089285D01*
X0233262Y0089340D01*
X0233285Y0089395D01*
X0233305Y0089452D01*
X0233321Y0089511D01*
X0233334Y0089570D01*
X0233343Y0089629D01*
X0233348Y0089690D01*
X0233350Y0089750D01*
X0233350Y0096750D01*
X0233348Y0096810D01*
X0233343Y0096871D01*
X0233334Y0096930D01*
X0233321Y0096989D01*
X0233305Y0097048D01*
X0233285Y0097105D01*
X0233262Y0097160D01*
X0233235Y0097215D01*
X0233206Y0097267D01*
X0233173Y0097318D01*
X0233137Y0097367D01*
X0233099Y0097413D01*
X0233057Y0097457D01*
X0233013Y0097499D01*
X0232967Y0097537D01*
X0232918Y0097573D01*
X0232867Y0097606D01*
X0232815Y0097635D01*
X0232760Y0097662D01*
X0232705Y0097685D01*
X0232648Y0097705D01*
X0232589Y0097721D01*
X0232530Y0097734D01*
X0232471Y0097743D01*
X0232410Y0097748D01*
X0232350Y0097750D01*
X0230850Y0097750D01*
X0230350Y0097250D01*
X0211350Y0097250D01*
X0210850Y0097750D01*
X0209350Y0097750D01*
X0209290Y0097748D01*
X0209229Y0097743D01*
X0209170Y0097734D01*
X0209111Y0097721D01*
X0209052Y0097705D01*
X0208995Y0097685D01*
X0208940Y0097662D01*
X0208885Y0097635D01*
X0208833Y0097606D01*
X0208782Y0097573D01*
X0208733Y0097537D01*
X0208687Y0097499D01*
X0208643Y0097457D01*
X0208601Y0097413D01*
X0208563Y0097367D01*
X0208527Y0097318D01*
X0208494Y0097267D01*
X0208465Y0097215D01*
X0208438Y0097160D01*
X0208415Y0097105D01*
X0208395Y0097048D01*
X0208379Y0096989D01*
X0208366Y0096930D01*
X0208357Y0096871D01*
X0208352Y0096810D01*
X0208350Y0096750D01*
X0209350Y0098750D02*
X0210850Y0098750D01*
X0211350Y0099250D01*
X0230350Y0099250D01*
X0230850Y0098750D01*
X0232350Y0098750D01*
X0232410Y0098752D01*
X0232471Y0098757D01*
X0232530Y0098766D01*
X0232589Y0098779D01*
X0232648Y0098795D01*
X0232705Y0098815D01*
X0232760Y0098838D01*
X0232815Y0098865D01*
X0232867Y0098894D01*
X0232918Y0098927D01*
X0232967Y0098963D01*
X0233013Y0099001D01*
X0233057Y0099043D01*
X0233099Y0099087D01*
X0233137Y0099133D01*
X0233173Y0099182D01*
X0233206Y0099233D01*
X0233235Y0099285D01*
X0233262Y0099340D01*
X0233285Y0099395D01*
X0233305Y0099452D01*
X0233321Y0099511D01*
X0233334Y0099570D01*
X0233343Y0099629D01*
X0233348Y0099690D01*
X0233350Y0099750D01*
X0233350Y0106750D01*
X0233348Y0106810D01*
X0233343Y0106871D01*
X0233334Y0106930D01*
X0233321Y0106989D01*
X0233305Y0107048D01*
X0233285Y0107105D01*
X0233262Y0107160D01*
X0233235Y0107215D01*
X0233206Y0107267D01*
X0233173Y0107318D01*
X0233137Y0107367D01*
X0233099Y0107413D01*
X0233057Y0107457D01*
X0233013Y0107499D01*
X0232967Y0107537D01*
X0232918Y0107573D01*
X0232867Y0107606D01*
X0232815Y0107635D01*
X0232760Y0107662D01*
X0232705Y0107685D01*
X0232648Y0107705D01*
X0232589Y0107721D01*
X0232530Y0107734D01*
X0232471Y0107743D01*
X0232410Y0107748D01*
X0232350Y0107750D01*
X0230850Y0107750D01*
X0230350Y0107250D01*
X0211350Y0107250D01*
X0210850Y0107750D01*
X0209350Y0107750D01*
X0209290Y0107748D01*
X0209229Y0107743D01*
X0209170Y0107734D01*
X0209111Y0107721D01*
X0209052Y0107705D01*
X0208995Y0107685D01*
X0208940Y0107662D01*
X0208885Y0107635D01*
X0208833Y0107606D01*
X0208782Y0107573D01*
X0208733Y0107537D01*
X0208687Y0107499D01*
X0208643Y0107457D01*
X0208601Y0107413D01*
X0208563Y0107367D01*
X0208527Y0107318D01*
X0208494Y0107267D01*
X0208465Y0107215D01*
X0208438Y0107160D01*
X0208415Y0107105D01*
X0208395Y0107048D01*
X0208379Y0106989D01*
X0208366Y0106930D01*
X0208357Y0106871D01*
X0208352Y0106810D01*
X0208350Y0106750D01*
X0208350Y0099750D01*
X0208352Y0099690D01*
X0208357Y0099629D01*
X0208366Y0099570D01*
X0208379Y0099511D01*
X0208395Y0099452D01*
X0208415Y0099395D01*
X0208438Y0099340D01*
X0208465Y0099285D01*
X0208494Y0099233D01*
X0208527Y0099182D01*
X0208563Y0099133D01*
X0208601Y0099087D01*
X0208643Y0099043D01*
X0208687Y0099001D01*
X0208733Y0098963D01*
X0208782Y0098927D01*
X0208833Y0098894D01*
X0208885Y0098865D01*
X0208940Y0098838D01*
X0208995Y0098815D01*
X0209052Y0098795D01*
X0209111Y0098779D01*
X0209170Y0098766D01*
X0209229Y0098757D01*
X0209290Y0098752D01*
X0209350Y0098750D01*
X0208350Y0118250D02*
X0205850Y0120750D01*
X0203350Y0118250D01*
X0198350Y0118250D01*
X0195850Y0120750D01*
X0193350Y0118250D01*
X0188350Y0118250D01*
X0185850Y0120750D01*
X0185850Y0125750D01*
X0188350Y0128250D01*
X0193350Y0128250D01*
X0195850Y0125750D01*
X0198350Y0128250D01*
X0203350Y0128250D01*
X0205850Y0125750D01*
X0208350Y0128250D01*
X0213350Y0128250D01*
X0215850Y0125750D01*
X0218350Y0128250D01*
X0223350Y0128250D01*
X0225850Y0125750D01*
X0228350Y0128250D01*
X0233350Y0128250D01*
X0235850Y0125750D01*
X0238350Y0128250D01*
X0243350Y0128250D01*
X0245850Y0125750D01*
X0245850Y0120750D01*
X0243350Y0118250D01*
X0238350Y0118250D01*
X0235850Y0120750D01*
X0233350Y0118250D01*
X0228350Y0118250D01*
X0225850Y0120750D01*
X0225850Y0125750D01*
X0215850Y0125750D02*
X0215850Y0120750D01*
X0213350Y0118250D01*
X0208350Y0118250D01*
X0205850Y0120750D02*
X0205850Y0125750D01*
X0195850Y0125750D02*
X0195850Y0120750D01*
X0215850Y0120750D02*
X0218350Y0118250D01*
X0223350Y0118250D01*
X0225850Y0120750D01*
X0235850Y0120750D02*
X0235850Y0125750D01*
X0255850Y0125750D02*
X0258350Y0128250D01*
X0263350Y0128250D01*
X0265850Y0125750D01*
X0265850Y0110750D01*
X0268350Y0108250D01*
X0273350Y0108250D01*
X0275850Y0110750D01*
X0278350Y0108250D01*
X0283350Y0108250D01*
X0285850Y0110750D01*
X0285850Y0125750D01*
X0283350Y0128250D01*
X0278350Y0128250D01*
X0275850Y0125750D01*
X0275850Y0110750D01*
X0280350Y0107250D02*
X0261350Y0107250D01*
X0260850Y0107750D01*
X0259350Y0107750D01*
X0259290Y0107748D01*
X0259229Y0107743D01*
X0259170Y0107734D01*
X0259111Y0107721D01*
X0259052Y0107705D01*
X0258995Y0107685D01*
X0258940Y0107662D01*
X0258885Y0107635D01*
X0258833Y0107606D01*
X0258782Y0107573D01*
X0258733Y0107537D01*
X0258687Y0107499D01*
X0258643Y0107457D01*
X0258601Y0107413D01*
X0258563Y0107367D01*
X0258527Y0107318D01*
X0258494Y0107267D01*
X0258465Y0107215D01*
X0258438Y0107160D01*
X0258415Y0107105D01*
X0258395Y0107048D01*
X0258379Y0106989D01*
X0258366Y0106930D01*
X0258357Y0106871D01*
X0258352Y0106810D01*
X0258350Y0106750D01*
X0258350Y0099750D01*
X0258352Y0099690D01*
X0258357Y0099629D01*
X0258366Y0099570D01*
X0258379Y0099511D01*
X0258395Y0099452D01*
X0258415Y0099395D01*
X0258438Y0099340D01*
X0258465Y0099285D01*
X0258494Y0099233D01*
X0258527Y0099182D01*
X0258563Y0099133D01*
X0258601Y0099087D01*
X0258643Y0099043D01*
X0258687Y0099001D01*
X0258733Y0098963D01*
X0258782Y0098927D01*
X0258833Y0098894D01*
X0258885Y0098865D01*
X0258940Y0098838D01*
X0258995Y0098815D01*
X0259052Y0098795D01*
X0259111Y0098779D01*
X0259170Y0098766D01*
X0259229Y0098757D01*
X0259290Y0098752D01*
X0259350Y0098750D01*
X0260850Y0098750D01*
X0261350Y0099250D01*
X0280350Y0099250D01*
X0280850Y0098750D01*
X0282350Y0098750D01*
X0282350Y0097750D02*
X0280850Y0097750D01*
X0280350Y0097250D01*
X0261350Y0097250D01*
X0260850Y0097750D01*
X0259350Y0097750D01*
X0259290Y0097748D01*
X0259229Y0097743D01*
X0259170Y0097734D01*
X0259111Y0097721D01*
X0259052Y0097705D01*
X0258995Y0097685D01*
X0258940Y0097662D01*
X0258885Y0097635D01*
X0258833Y0097606D01*
X0258782Y0097573D01*
X0258733Y0097537D01*
X0258687Y0097499D01*
X0258643Y0097457D01*
X0258601Y0097413D01*
X0258563Y0097367D01*
X0258527Y0097318D01*
X0258494Y0097267D01*
X0258465Y0097215D01*
X0258438Y0097160D01*
X0258415Y0097105D01*
X0258395Y0097048D01*
X0258379Y0096989D01*
X0258366Y0096930D01*
X0258357Y0096871D01*
X0258352Y0096810D01*
X0258350Y0096750D01*
X0258350Y0089750D01*
X0258352Y0089690D01*
X0258357Y0089629D01*
X0258366Y0089570D01*
X0258379Y0089511D01*
X0258395Y0089452D01*
X0258415Y0089395D01*
X0258438Y0089340D01*
X0258465Y0089285D01*
X0258494Y0089233D01*
X0258527Y0089182D01*
X0258563Y0089133D01*
X0258601Y0089087D01*
X0258643Y0089043D01*
X0258687Y0089001D01*
X0258733Y0088963D01*
X0258782Y0088927D01*
X0258833Y0088894D01*
X0258885Y0088865D01*
X0258940Y0088838D01*
X0258995Y0088815D01*
X0259052Y0088795D01*
X0259111Y0088779D01*
X0259170Y0088766D01*
X0259229Y0088757D01*
X0259290Y0088752D01*
X0259350Y0088750D01*
X0260850Y0088750D01*
X0261350Y0089250D01*
X0280350Y0089250D01*
X0280850Y0088750D01*
X0282350Y0088750D01*
X0282410Y0088752D01*
X0282471Y0088757D01*
X0282530Y0088766D01*
X0282589Y0088779D01*
X0282648Y0088795D01*
X0282705Y0088815D01*
X0282760Y0088838D01*
X0282815Y0088865D01*
X0282867Y0088894D01*
X0282918Y0088927D01*
X0282967Y0088963D01*
X0283013Y0089001D01*
X0283057Y0089043D01*
X0283099Y0089087D01*
X0283137Y0089133D01*
X0283173Y0089182D01*
X0283206Y0089233D01*
X0283235Y0089285D01*
X0283262Y0089340D01*
X0283285Y0089395D01*
X0283305Y0089452D01*
X0283321Y0089511D01*
X0283334Y0089570D01*
X0283343Y0089629D01*
X0283348Y0089690D01*
X0283350Y0089750D01*
X0283350Y0096750D01*
X0283348Y0096810D01*
X0283343Y0096871D01*
X0283334Y0096930D01*
X0283321Y0096989D01*
X0283305Y0097048D01*
X0283285Y0097105D01*
X0283262Y0097160D01*
X0283235Y0097215D01*
X0283206Y0097267D01*
X0283173Y0097318D01*
X0283137Y0097367D01*
X0283099Y0097413D01*
X0283057Y0097457D01*
X0283013Y0097499D01*
X0282967Y0097537D01*
X0282918Y0097573D01*
X0282867Y0097606D01*
X0282815Y0097635D01*
X0282760Y0097662D01*
X0282705Y0097685D01*
X0282648Y0097705D01*
X0282589Y0097721D01*
X0282530Y0097734D01*
X0282471Y0097743D01*
X0282410Y0097748D01*
X0282350Y0097750D01*
X0282350Y0098750D02*
X0282410Y0098752D01*
X0282471Y0098757D01*
X0282530Y0098766D01*
X0282589Y0098779D01*
X0282648Y0098795D01*
X0282705Y0098815D01*
X0282760Y0098838D01*
X0282815Y0098865D01*
X0282867Y0098894D01*
X0282918Y0098927D01*
X0282967Y0098963D01*
X0283013Y0099001D01*
X0283057Y0099043D01*
X0283099Y0099087D01*
X0283137Y0099133D01*
X0283173Y0099182D01*
X0283206Y0099233D01*
X0283235Y0099285D01*
X0283262Y0099340D01*
X0283285Y0099395D01*
X0283305Y0099452D01*
X0283321Y0099511D01*
X0283334Y0099570D01*
X0283343Y0099629D01*
X0283348Y0099690D01*
X0283350Y0099750D01*
X0283350Y0106750D01*
X0283348Y0106810D01*
X0283343Y0106871D01*
X0283334Y0106930D01*
X0283321Y0106989D01*
X0283305Y0107048D01*
X0283285Y0107105D01*
X0283262Y0107160D01*
X0283235Y0107215D01*
X0283206Y0107267D01*
X0283173Y0107318D01*
X0283137Y0107367D01*
X0283099Y0107413D01*
X0283057Y0107457D01*
X0283013Y0107499D01*
X0282967Y0107537D01*
X0282918Y0107573D01*
X0282867Y0107606D01*
X0282815Y0107635D01*
X0282760Y0107662D01*
X0282705Y0107685D01*
X0282648Y0107705D01*
X0282589Y0107721D01*
X0282530Y0107734D01*
X0282471Y0107743D01*
X0282410Y0107748D01*
X0282350Y0107750D01*
X0280850Y0107750D01*
X0280350Y0107250D01*
X0265850Y0110750D02*
X0263350Y0108250D01*
X0258350Y0108250D01*
X0255850Y0110750D01*
X0255850Y0125750D01*
X0265850Y0125750D02*
X0268350Y0128250D01*
X0273350Y0128250D01*
X0275850Y0125750D01*
X0258850Y0074250D02*
X0112850Y0074250D01*
X0112850Y0052250D01*
X0258850Y0052250D01*
X0258850Y0060750D01*
X0258752Y0060752D01*
X0258654Y0060758D01*
X0258556Y0060767D01*
X0258459Y0060781D01*
X0258362Y0060798D01*
X0258266Y0060819D01*
X0258171Y0060844D01*
X0258077Y0060872D01*
X0257985Y0060905D01*
X0257893Y0060940D01*
X0257803Y0060980D01*
X0257715Y0061022D01*
X0257628Y0061069D01*
X0257544Y0061118D01*
X0257461Y0061171D01*
X0257381Y0061227D01*
X0257302Y0061287D01*
X0257226Y0061349D01*
X0257153Y0061414D01*
X0257082Y0061482D01*
X0257014Y0061553D01*
X0256949Y0061626D01*
X0256887Y0061702D01*
X0256827Y0061781D01*
X0256771Y0061861D01*
X0256718Y0061944D01*
X0256669Y0062028D01*
X0256622Y0062115D01*
X0256580Y0062203D01*
X0256540Y0062293D01*
X0256505Y0062385D01*
X0256472Y0062477D01*
X0256444Y0062571D01*
X0256419Y0062666D01*
X0256398Y0062762D01*
X0256381Y0062859D01*
X0256367Y0062956D01*
X0256358Y0063054D01*
X0256352Y0063152D01*
X0256350Y0063250D01*
X0256352Y0063348D01*
X0256358Y0063446D01*
X0256367Y0063544D01*
X0256381Y0063641D01*
X0256398Y0063738D01*
X0256419Y0063834D01*
X0256444Y0063929D01*
X0256472Y0064023D01*
X0256505Y0064115D01*
X0256540Y0064207D01*
X0256580Y0064297D01*
X0256622Y0064385D01*
X0256669Y0064472D01*
X0256718Y0064556D01*
X0256771Y0064639D01*
X0256827Y0064719D01*
X0256887Y0064798D01*
X0256949Y0064874D01*
X0257014Y0064947D01*
X0257082Y0065018D01*
X0257153Y0065086D01*
X0257226Y0065151D01*
X0257302Y0065213D01*
X0257381Y0065273D01*
X0257461Y0065329D01*
X0257544Y0065382D01*
X0257628Y0065431D01*
X0257715Y0065478D01*
X0257803Y0065520D01*
X0257893Y0065560D01*
X0257985Y0065595D01*
X0258077Y0065628D01*
X0258171Y0065656D01*
X0258266Y0065681D01*
X0258362Y0065702D01*
X0258459Y0065719D01*
X0258556Y0065733D01*
X0258654Y0065742D01*
X0258752Y0065748D01*
X0258850Y0065750D01*
X0258850Y0074250D01*
X0270850Y0073250D02*
X0270853Y0073495D01*
X0270862Y0073741D01*
X0270877Y0073986D01*
X0270898Y0074230D01*
X0270925Y0074474D01*
X0270958Y0074717D01*
X0270997Y0074960D01*
X0271042Y0075201D01*
X0271093Y0075441D01*
X0271150Y0075680D01*
X0271212Y0075917D01*
X0271281Y0076153D01*
X0271355Y0076387D01*
X0271435Y0076619D01*
X0271520Y0076849D01*
X0271611Y0077077D01*
X0271708Y0077302D01*
X0271810Y0077526D01*
X0271918Y0077746D01*
X0272031Y0077964D01*
X0272149Y0078179D01*
X0272273Y0078391D01*
X0272401Y0078600D01*
X0272535Y0078806D01*
X0272674Y0079008D01*
X0272818Y0079207D01*
X0272967Y0079402D01*
X0273120Y0079594D01*
X0273278Y0079782D01*
X0273440Y0079966D01*
X0273608Y0080145D01*
X0273779Y0080321D01*
X0273955Y0080492D01*
X0274134Y0080660D01*
X0274318Y0080822D01*
X0274506Y0080980D01*
X0274698Y0081133D01*
X0274893Y0081282D01*
X0275092Y0081426D01*
X0275294Y0081565D01*
X0275500Y0081699D01*
X0275709Y0081827D01*
X0275921Y0081951D01*
X0276136Y0082069D01*
X0276354Y0082182D01*
X0276574Y0082290D01*
X0276798Y0082392D01*
X0277023Y0082489D01*
X0277251Y0082580D01*
X0277481Y0082665D01*
X0277713Y0082745D01*
X0277947Y0082819D01*
X0278183Y0082888D01*
X0278420Y0082950D01*
X0278659Y0083007D01*
X0278899Y0083058D01*
X0279140Y0083103D01*
X0279383Y0083142D01*
X0279626Y0083175D01*
X0279870Y0083202D01*
X0280114Y0083223D01*
X0280359Y0083238D01*
X0280605Y0083247D01*
X0280850Y0083250D01*
X0281095Y0083247D01*
X0281341Y0083238D01*
X0281586Y0083223D01*
X0281830Y0083202D01*
X0282074Y0083175D01*
X0282317Y0083142D01*
X0282560Y0083103D01*
X0282801Y0083058D01*
X0283041Y0083007D01*
X0283280Y0082950D01*
X0283517Y0082888D01*
X0283753Y0082819D01*
X0283987Y0082745D01*
X0284219Y0082665D01*
X0284449Y0082580D01*
X0284677Y0082489D01*
X0284902Y0082392D01*
X0285126Y0082290D01*
X0285346Y0082182D01*
X0285564Y0082069D01*
X0285779Y0081951D01*
X0285991Y0081827D01*
X0286200Y0081699D01*
X0286406Y0081565D01*
X0286608Y0081426D01*
X0286807Y0081282D01*
X0287002Y0081133D01*
X0287194Y0080980D01*
X0287382Y0080822D01*
X0287566Y0080660D01*
X0287745Y0080492D01*
X0287921Y0080321D01*
X0288092Y0080145D01*
X0288260Y0079966D01*
X0288422Y0079782D01*
X0288580Y0079594D01*
X0288733Y0079402D01*
X0288882Y0079207D01*
X0289026Y0079008D01*
X0289165Y0078806D01*
X0289299Y0078600D01*
X0289427Y0078391D01*
X0289551Y0078179D01*
X0289669Y0077964D01*
X0289782Y0077746D01*
X0289890Y0077526D01*
X0289992Y0077302D01*
X0290089Y0077077D01*
X0290180Y0076849D01*
X0290265Y0076619D01*
X0290345Y0076387D01*
X0290419Y0076153D01*
X0290488Y0075917D01*
X0290550Y0075680D01*
X0290607Y0075441D01*
X0290658Y0075201D01*
X0290703Y0074960D01*
X0290742Y0074717D01*
X0290775Y0074474D01*
X0290802Y0074230D01*
X0290823Y0073986D01*
X0290838Y0073741D01*
X0290847Y0073495D01*
X0290850Y0073250D01*
X0290847Y0073005D01*
X0290838Y0072759D01*
X0290823Y0072514D01*
X0290802Y0072270D01*
X0290775Y0072026D01*
X0290742Y0071783D01*
X0290703Y0071540D01*
X0290658Y0071299D01*
X0290607Y0071059D01*
X0290550Y0070820D01*
X0290488Y0070583D01*
X0290419Y0070347D01*
X0290345Y0070113D01*
X0290265Y0069881D01*
X0290180Y0069651D01*
X0290089Y0069423D01*
X0289992Y0069198D01*
X0289890Y0068974D01*
X0289782Y0068754D01*
X0289669Y0068536D01*
X0289551Y0068321D01*
X0289427Y0068109D01*
X0289299Y0067900D01*
X0289165Y0067694D01*
X0289026Y0067492D01*
X0288882Y0067293D01*
X0288733Y0067098D01*
X0288580Y0066906D01*
X0288422Y0066718D01*
X0288260Y0066534D01*
X0288092Y0066355D01*
X0287921Y0066179D01*
X0287745Y0066008D01*
X0287566Y0065840D01*
X0287382Y0065678D01*
X0287194Y0065520D01*
X0287002Y0065367D01*
X0286807Y0065218D01*
X0286608Y0065074D01*
X0286406Y0064935D01*
X0286200Y0064801D01*
X0285991Y0064673D01*
X0285779Y0064549D01*
X0285564Y0064431D01*
X0285346Y0064318D01*
X0285126Y0064210D01*
X0284902Y0064108D01*
X0284677Y0064011D01*
X0284449Y0063920D01*
X0284219Y0063835D01*
X0283987Y0063755D01*
X0283753Y0063681D01*
X0283517Y0063612D01*
X0283280Y0063550D01*
X0283041Y0063493D01*
X0282801Y0063442D01*
X0282560Y0063397D01*
X0282317Y0063358D01*
X0282074Y0063325D01*
X0281830Y0063298D01*
X0281586Y0063277D01*
X0281341Y0063262D01*
X0281095Y0063253D01*
X0280850Y0063250D01*
X0280605Y0063253D01*
X0280359Y0063262D01*
X0280114Y0063277D01*
X0279870Y0063298D01*
X0279626Y0063325D01*
X0279383Y0063358D01*
X0279140Y0063397D01*
X0278899Y0063442D01*
X0278659Y0063493D01*
X0278420Y0063550D01*
X0278183Y0063612D01*
X0277947Y0063681D01*
X0277713Y0063755D01*
X0277481Y0063835D01*
X0277251Y0063920D01*
X0277023Y0064011D01*
X0276798Y0064108D01*
X0276574Y0064210D01*
X0276354Y0064318D01*
X0276136Y0064431D01*
X0275921Y0064549D01*
X0275709Y0064673D01*
X0275500Y0064801D01*
X0275294Y0064935D01*
X0275092Y0065074D01*
X0274893Y0065218D01*
X0274698Y0065367D01*
X0274506Y0065520D01*
X0274318Y0065678D01*
X0274134Y0065840D01*
X0273955Y0066008D01*
X0273779Y0066179D01*
X0273608Y0066355D01*
X0273440Y0066534D01*
X0273278Y0066718D01*
X0273120Y0066906D01*
X0272967Y0067098D01*
X0272818Y0067293D01*
X0272674Y0067492D01*
X0272535Y0067694D01*
X0272401Y0067900D01*
X0272273Y0068109D01*
X0272149Y0068321D01*
X0272031Y0068536D01*
X0271918Y0068754D01*
X0271810Y0068974D01*
X0271708Y0069198D01*
X0271611Y0069423D01*
X0271520Y0069651D01*
X0271435Y0069881D01*
X0271355Y0070113D01*
X0271281Y0070347D01*
X0271212Y0070583D01*
X0271150Y0070820D01*
X0271093Y0071059D01*
X0271042Y0071299D01*
X0270997Y0071540D01*
X0270958Y0071783D01*
X0270925Y0072026D01*
X0270898Y0072270D01*
X0270877Y0072514D01*
X0270862Y0072759D01*
X0270853Y0073005D01*
X0270850Y0073250D01*
X0277850Y0056250D02*
X0277850Y0055250D01*
X0276850Y0055250D01*
X0277850Y0056250D02*
X0283850Y0056250D01*
X0283850Y0055250D01*
X0284850Y0055250D01*
X0292850Y0051750D02*
X0292850Y0048250D01*
X0292850Y0038250D01*
X0292850Y0034750D01*
X0284850Y0031250D02*
X0283850Y0031250D01*
X0283850Y0030250D01*
X0277850Y0030250D01*
X0277850Y0031250D01*
X0276850Y0031250D01*
X0268850Y0034750D02*
X0268850Y0038750D01*
X0268850Y0048250D01*
X0268850Y0051750D01*
X0279850Y0043250D02*
X0279852Y0043313D01*
X0279858Y0043375D01*
X0279868Y0043437D01*
X0279881Y0043499D01*
X0279899Y0043559D01*
X0279920Y0043618D01*
X0279945Y0043676D01*
X0279974Y0043732D01*
X0280006Y0043786D01*
X0280041Y0043838D01*
X0280079Y0043887D01*
X0280121Y0043935D01*
X0280165Y0043979D01*
X0280213Y0044021D01*
X0280262Y0044059D01*
X0280314Y0044094D01*
X0280368Y0044126D01*
X0280424Y0044155D01*
X0280482Y0044180D01*
X0280541Y0044201D01*
X0280601Y0044219D01*
X0280663Y0044232D01*
X0280725Y0044242D01*
X0280787Y0044248D01*
X0280850Y0044250D01*
X0280913Y0044248D01*
X0280975Y0044242D01*
X0281037Y0044232D01*
X0281099Y0044219D01*
X0281159Y0044201D01*
X0281218Y0044180D01*
X0281276Y0044155D01*
X0281332Y0044126D01*
X0281386Y0044094D01*
X0281438Y0044059D01*
X0281487Y0044021D01*
X0281535Y0043979D01*
X0281579Y0043935D01*
X0281621Y0043887D01*
X0281659Y0043838D01*
X0281694Y0043786D01*
X0281726Y0043732D01*
X0281755Y0043676D01*
X0281780Y0043618D01*
X0281801Y0043559D01*
X0281819Y0043499D01*
X0281832Y0043437D01*
X0281842Y0043375D01*
X0281848Y0043313D01*
X0281850Y0043250D01*
X0281848Y0043187D01*
X0281842Y0043125D01*
X0281832Y0043063D01*
X0281819Y0043001D01*
X0281801Y0042941D01*
X0281780Y0042882D01*
X0281755Y0042824D01*
X0281726Y0042768D01*
X0281694Y0042714D01*
X0281659Y0042662D01*
X0281621Y0042613D01*
X0281579Y0042565D01*
X0281535Y0042521D01*
X0281487Y0042479D01*
X0281438Y0042441D01*
X0281386Y0042406D01*
X0281332Y0042374D01*
X0281276Y0042345D01*
X0281218Y0042320D01*
X0281159Y0042299D01*
X0281099Y0042281D01*
X0281037Y0042268D01*
X0280975Y0042258D01*
X0280913Y0042252D01*
X0280850Y0042250D01*
X0280787Y0042252D01*
X0280725Y0042258D01*
X0280663Y0042268D01*
X0280601Y0042281D01*
X0280541Y0042299D01*
X0280482Y0042320D01*
X0280424Y0042345D01*
X0280368Y0042374D01*
X0280314Y0042406D01*
X0280262Y0042441D01*
X0280213Y0042479D01*
X0280165Y0042521D01*
X0280121Y0042565D01*
X0280079Y0042613D01*
X0280041Y0042662D01*
X0280006Y0042714D01*
X0279974Y0042768D01*
X0279945Y0042824D01*
X0279920Y0042882D01*
X0279899Y0042941D01*
X0279881Y0043001D01*
X0279868Y0043063D01*
X0279858Y0043125D01*
X0279852Y0043187D01*
X0279850Y0043250D01*
X0273850Y0043250D02*
X0273852Y0043422D01*
X0273858Y0043593D01*
X0273869Y0043765D01*
X0273884Y0043936D01*
X0273903Y0044107D01*
X0273926Y0044277D01*
X0273953Y0044447D01*
X0273985Y0044616D01*
X0274020Y0044784D01*
X0274060Y0044951D01*
X0274104Y0045117D01*
X0274151Y0045282D01*
X0274203Y0045446D01*
X0274259Y0045608D01*
X0274319Y0045769D01*
X0274383Y0045929D01*
X0274451Y0046087D01*
X0274522Y0046243D01*
X0274597Y0046397D01*
X0274677Y0046550D01*
X0274759Y0046700D01*
X0274846Y0046849D01*
X0274936Y0046995D01*
X0275030Y0047139D01*
X0275127Y0047281D01*
X0275228Y0047420D01*
X0275332Y0047557D01*
X0275439Y0047691D01*
X0275550Y0047822D01*
X0275663Y0047951D01*
X0275780Y0048077D01*
X0275900Y0048200D01*
X0276023Y0048320D01*
X0276149Y0048437D01*
X0276278Y0048550D01*
X0276409Y0048661D01*
X0276543Y0048768D01*
X0276680Y0048872D01*
X0276819Y0048973D01*
X0276961Y0049070D01*
X0277105Y0049164D01*
X0277251Y0049254D01*
X0277400Y0049341D01*
X0277550Y0049423D01*
X0277703Y0049503D01*
X0277857Y0049578D01*
X0278013Y0049649D01*
X0278171Y0049717D01*
X0278331Y0049781D01*
X0278492Y0049841D01*
X0278654Y0049897D01*
X0278818Y0049949D01*
X0278983Y0049996D01*
X0279149Y0050040D01*
X0279316Y0050080D01*
X0279484Y0050115D01*
X0279653Y0050147D01*
X0279823Y0050174D01*
X0279993Y0050197D01*
X0280164Y0050216D01*
X0280335Y0050231D01*
X0280507Y0050242D01*
X0280678Y0050248D01*
X0280850Y0050250D01*
X0281022Y0050248D01*
X0281193Y0050242D01*
X0281365Y0050231D01*
X0281536Y0050216D01*
X0281707Y0050197D01*
X0281877Y0050174D01*
X0282047Y0050147D01*
X0282216Y0050115D01*
X0282384Y0050080D01*
X0282551Y0050040D01*
X0282717Y0049996D01*
X0282882Y0049949D01*
X0283046Y0049897D01*
X0283208Y0049841D01*
X0283369Y0049781D01*
X0283529Y0049717D01*
X0283687Y0049649D01*
X0283843Y0049578D01*
X0283997Y0049503D01*
X0284150Y0049423D01*
X0284300Y0049341D01*
X0284449Y0049254D01*
X0284595Y0049164D01*
X0284739Y0049070D01*
X0284881Y0048973D01*
X0285020Y0048872D01*
X0285157Y0048768D01*
X0285291Y0048661D01*
X0285422Y0048550D01*
X0285551Y0048437D01*
X0285677Y0048320D01*
X0285800Y0048200D01*
X0285920Y0048077D01*
X0286037Y0047951D01*
X0286150Y0047822D01*
X0286261Y0047691D01*
X0286368Y0047557D01*
X0286472Y0047420D01*
X0286573Y0047281D01*
X0286670Y0047139D01*
X0286764Y0046995D01*
X0286854Y0046849D01*
X0286941Y0046700D01*
X0287023Y0046550D01*
X0287103Y0046397D01*
X0287178Y0046243D01*
X0287249Y0046087D01*
X0287317Y0045929D01*
X0287381Y0045769D01*
X0287441Y0045608D01*
X0287497Y0045446D01*
X0287549Y0045282D01*
X0287596Y0045117D01*
X0287640Y0044951D01*
X0287680Y0044784D01*
X0287715Y0044616D01*
X0287747Y0044447D01*
X0287774Y0044277D01*
X0287797Y0044107D01*
X0287816Y0043936D01*
X0287831Y0043765D01*
X0287842Y0043593D01*
X0287848Y0043422D01*
X0287850Y0043250D01*
X0287848Y0043078D01*
X0287842Y0042907D01*
X0287831Y0042735D01*
X0287816Y0042564D01*
X0287797Y0042393D01*
X0287774Y0042223D01*
X0287747Y0042053D01*
X0287715Y0041884D01*
X0287680Y0041716D01*
X0287640Y0041549D01*
X0287596Y0041383D01*
X0287549Y0041218D01*
X0287497Y0041054D01*
X0287441Y0040892D01*
X0287381Y0040731D01*
X0287317Y0040571D01*
X0287249Y0040413D01*
X0287178Y0040257D01*
X0287103Y0040103D01*
X0287023Y0039950D01*
X0286941Y0039800D01*
X0286854Y0039651D01*
X0286764Y0039505D01*
X0286670Y0039361D01*
X0286573Y0039219D01*
X0286472Y0039080D01*
X0286368Y0038943D01*
X0286261Y0038809D01*
X0286150Y0038678D01*
X0286037Y0038549D01*
X0285920Y0038423D01*
X0285800Y0038300D01*
X0285677Y0038180D01*
X0285551Y0038063D01*
X0285422Y0037950D01*
X0285291Y0037839D01*
X0285157Y0037732D01*
X0285020Y0037628D01*
X0284881Y0037527D01*
X0284739Y0037430D01*
X0284595Y0037336D01*
X0284449Y0037246D01*
X0284300Y0037159D01*
X0284150Y0037077D01*
X0283997Y0036997D01*
X0283843Y0036922D01*
X0283687Y0036851D01*
X0283529Y0036783D01*
X0283369Y0036719D01*
X0283208Y0036659D01*
X0283046Y0036603D01*
X0282882Y0036551D01*
X0282717Y0036504D01*
X0282551Y0036460D01*
X0282384Y0036420D01*
X0282216Y0036385D01*
X0282047Y0036353D01*
X0281877Y0036326D01*
X0281707Y0036303D01*
X0281536Y0036284D01*
X0281365Y0036269D01*
X0281193Y0036258D01*
X0281022Y0036252D01*
X0280850Y0036250D01*
X0280678Y0036252D01*
X0280507Y0036258D01*
X0280335Y0036269D01*
X0280164Y0036284D01*
X0279993Y0036303D01*
X0279823Y0036326D01*
X0279653Y0036353D01*
X0279484Y0036385D01*
X0279316Y0036420D01*
X0279149Y0036460D01*
X0278983Y0036504D01*
X0278818Y0036551D01*
X0278654Y0036603D01*
X0278492Y0036659D01*
X0278331Y0036719D01*
X0278171Y0036783D01*
X0278013Y0036851D01*
X0277857Y0036922D01*
X0277703Y0036997D01*
X0277550Y0037077D01*
X0277400Y0037159D01*
X0277251Y0037246D01*
X0277105Y0037336D01*
X0276961Y0037430D01*
X0276819Y0037527D01*
X0276680Y0037628D01*
X0276543Y0037732D01*
X0276409Y0037839D01*
X0276278Y0037950D01*
X0276149Y0038063D01*
X0276023Y0038180D01*
X0275900Y0038300D01*
X0275780Y0038423D01*
X0275663Y0038549D01*
X0275550Y0038678D01*
X0275439Y0038809D01*
X0275332Y0038943D01*
X0275228Y0039080D01*
X0275127Y0039219D01*
X0275030Y0039361D01*
X0274936Y0039505D01*
X0274846Y0039651D01*
X0274759Y0039800D01*
X0274677Y0039950D01*
X0274597Y0040103D01*
X0274522Y0040257D01*
X0274451Y0040413D01*
X0274383Y0040571D01*
X0274319Y0040731D01*
X0274259Y0040892D01*
X0274203Y0041054D01*
X0274151Y0041218D01*
X0274104Y0041383D01*
X0274060Y0041549D01*
X0274020Y0041716D01*
X0273985Y0041884D01*
X0273953Y0042053D01*
X0273926Y0042223D01*
X0273903Y0042393D01*
X0273884Y0042564D01*
X0273869Y0042735D01*
X0273858Y0042907D01*
X0273852Y0043078D01*
X0273850Y0043250D01*
X0252350Y0035750D02*
X0252350Y0028750D01*
X0252348Y0028690D01*
X0252343Y0028629D01*
X0252334Y0028570D01*
X0252321Y0028511D01*
X0252305Y0028452D01*
X0252285Y0028395D01*
X0252262Y0028340D01*
X0252235Y0028285D01*
X0252206Y0028233D01*
X0252173Y0028182D01*
X0252137Y0028133D01*
X0252099Y0028087D01*
X0252057Y0028043D01*
X0252013Y0028001D01*
X0251967Y0027963D01*
X0251918Y0027927D01*
X0251867Y0027894D01*
X0251815Y0027865D01*
X0251760Y0027838D01*
X0251705Y0027815D01*
X0251648Y0027795D01*
X0251589Y0027779D01*
X0251530Y0027766D01*
X0251471Y0027757D01*
X0251410Y0027752D01*
X0251350Y0027750D01*
X0249850Y0027750D01*
X0249350Y0028250D01*
X0230350Y0028250D01*
X0229850Y0027750D01*
X0228350Y0027750D01*
X0228290Y0027752D01*
X0228229Y0027757D01*
X0228170Y0027766D01*
X0228111Y0027779D01*
X0228052Y0027795D01*
X0227995Y0027815D01*
X0227940Y0027838D01*
X0227885Y0027865D01*
X0227833Y0027894D01*
X0227782Y0027927D01*
X0227733Y0027963D01*
X0227687Y0028001D01*
X0227643Y0028043D01*
X0227601Y0028087D01*
X0227563Y0028133D01*
X0227527Y0028182D01*
X0227494Y0028233D01*
X0227465Y0028285D01*
X0227438Y0028340D01*
X0227415Y0028395D01*
X0227395Y0028452D01*
X0227379Y0028511D01*
X0227366Y0028570D01*
X0227357Y0028629D01*
X0227352Y0028690D01*
X0227350Y0028750D01*
X0227350Y0035750D01*
X0227352Y0035810D01*
X0227357Y0035871D01*
X0227366Y0035930D01*
X0227379Y0035989D01*
X0227395Y0036048D01*
X0227415Y0036105D01*
X0227438Y0036160D01*
X0227465Y0036215D01*
X0227494Y0036267D01*
X0227527Y0036318D01*
X0227563Y0036367D01*
X0227601Y0036413D01*
X0227643Y0036457D01*
X0227687Y0036499D01*
X0227733Y0036537D01*
X0227782Y0036573D01*
X0227833Y0036606D01*
X0227885Y0036635D01*
X0227940Y0036662D01*
X0227995Y0036685D01*
X0228052Y0036705D01*
X0228111Y0036721D01*
X0228170Y0036734D01*
X0228229Y0036743D01*
X0228290Y0036748D01*
X0228350Y0036750D01*
X0229850Y0036750D01*
X0230350Y0036250D01*
X0249350Y0036250D01*
X0249850Y0036750D01*
X0251350Y0036750D01*
X0251410Y0036748D01*
X0251471Y0036743D01*
X0251530Y0036734D01*
X0251589Y0036721D01*
X0251648Y0036705D01*
X0251705Y0036685D01*
X0251760Y0036662D01*
X0251815Y0036635D01*
X0251867Y0036606D01*
X0251918Y0036573D01*
X0251967Y0036537D01*
X0252013Y0036499D01*
X0252057Y0036457D01*
X0252099Y0036413D01*
X0252137Y0036367D01*
X0252173Y0036318D01*
X0252206Y0036267D01*
X0252235Y0036215D01*
X0252262Y0036160D01*
X0252285Y0036105D01*
X0252305Y0036048D01*
X0252321Y0035989D01*
X0252334Y0035930D01*
X0252343Y0035871D01*
X0252348Y0035810D01*
X0252350Y0035750D01*
X0215350Y0036750D02*
X0215350Y0026750D01*
X0215348Y0026690D01*
X0215343Y0026629D01*
X0215334Y0026570D01*
X0215321Y0026511D01*
X0215305Y0026452D01*
X0215285Y0026395D01*
X0215262Y0026340D01*
X0215235Y0026285D01*
X0215206Y0026233D01*
X0215173Y0026182D01*
X0215137Y0026133D01*
X0215099Y0026087D01*
X0215057Y0026043D01*
X0215013Y0026001D01*
X0214967Y0025963D01*
X0214918Y0025927D01*
X0214867Y0025894D01*
X0214815Y0025865D01*
X0214760Y0025838D01*
X0214705Y0025815D01*
X0214648Y0025795D01*
X0214589Y0025779D01*
X0214530Y0025766D01*
X0214471Y0025757D01*
X0214410Y0025752D01*
X0214350Y0025750D01*
X0197350Y0025750D01*
X0197290Y0025752D01*
X0197229Y0025757D01*
X0197170Y0025766D01*
X0197111Y0025779D01*
X0197052Y0025795D01*
X0196995Y0025815D01*
X0196940Y0025838D01*
X0196885Y0025865D01*
X0196833Y0025894D01*
X0196782Y0025927D01*
X0196733Y0025963D01*
X0196687Y0026001D01*
X0196643Y0026043D01*
X0196601Y0026087D01*
X0196563Y0026133D01*
X0196527Y0026182D01*
X0196494Y0026233D01*
X0196465Y0026285D01*
X0196438Y0026340D01*
X0196415Y0026395D01*
X0196395Y0026452D01*
X0196379Y0026511D01*
X0196366Y0026570D01*
X0196357Y0026629D01*
X0196352Y0026690D01*
X0196350Y0026750D01*
X0196350Y0036750D01*
X0195350Y0036750D02*
X0195350Y0026750D01*
X0195348Y0026690D01*
X0195343Y0026629D01*
X0195334Y0026570D01*
X0195321Y0026511D01*
X0195305Y0026452D01*
X0195285Y0026395D01*
X0195262Y0026340D01*
X0195235Y0026285D01*
X0195206Y0026233D01*
X0195173Y0026182D01*
X0195137Y0026133D01*
X0195099Y0026087D01*
X0195057Y0026043D01*
X0195013Y0026001D01*
X0194967Y0025963D01*
X0194918Y0025927D01*
X0194867Y0025894D01*
X0194815Y0025865D01*
X0194760Y0025838D01*
X0194705Y0025815D01*
X0194648Y0025795D01*
X0194589Y0025779D01*
X0194530Y0025766D01*
X0194471Y0025757D01*
X0194410Y0025752D01*
X0194350Y0025750D01*
X0177350Y0025750D01*
X0177290Y0025752D01*
X0177229Y0025757D01*
X0177170Y0025766D01*
X0177111Y0025779D01*
X0177052Y0025795D01*
X0176995Y0025815D01*
X0176940Y0025838D01*
X0176885Y0025865D01*
X0176833Y0025894D01*
X0176782Y0025927D01*
X0176733Y0025963D01*
X0176687Y0026001D01*
X0176643Y0026043D01*
X0176601Y0026087D01*
X0176563Y0026133D01*
X0176527Y0026182D01*
X0176494Y0026233D01*
X0176465Y0026285D01*
X0176438Y0026340D01*
X0176415Y0026395D01*
X0176395Y0026452D01*
X0176379Y0026511D01*
X0176366Y0026570D01*
X0176357Y0026629D01*
X0176352Y0026690D01*
X0176350Y0026750D01*
X0176350Y0036750D01*
X0176352Y0036810D01*
X0176357Y0036871D01*
X0176366Y0036930D01*
X0176379Y0036989D01*
X0176395Y0037048D01*
X0176415Y0037105D01*
X0176438Y0037160D01*
X0176465Y0037215D01*
X0176494Y0037267D01*
X0176527Y0037318D01*
X0176563Y0037367D01*
X0176601Y0037413D01*
X0176643Y0037457D01*
X0176687Y0037499D01*
X0176733Y0037537D01*
X0176782Y0037573D01*
X0176833Y0037606D01*
X0176885Y0037635D01*
X0176940Y0037662D01*
X0176995Y0037685D01*
X0177052Y0037705D01*
X0177111Y0037721D01*
X0177170Y0037734D01*
X0177229Y0037743D01*
X0177290Y0037748D01*
X0177350Y0037750D01*
X0194350Y0037750D01*
X0194410Y0037748D01*
X0194471Y0037743D01*
X0194530Y0037734D01*
X0194589Y0037721D01*
X0194648Y0037705D01*
X0194705Y0037685D01*
X0194760Y0037662D01*
X0194815Y0037635D01*
X0194867Y0037606D01*
X0194918Y0037573D01*
X0194967Y0037537D01*
X0195013Y0037499D01*
X0195057Y0037457D01*
X0195099Y0037413D01*
X0195137Y0037367D01*
X0195173Y0037318D01*
X0195206Y0037267D01*
X0195235Y0037215D01*
X0195262Y0037160D01*
X0195285Y0037105D01*
X0195305Y0037048D01*
X0195321Y0036989D01*
X0195334Y0036930D01*
X0195343Y0036871D01*
X0195348Y0036810D01*
X0195350Y0036750D01*
X0196350Y0036750D02*
X0196352Y0036810D01*
X0196357Y0036871D01*
X0196366Y0036930D01*
X0196379Y0036989D01*
X0196395Y0037048D01*
X0196415Y0037105D01*
X0196438Y0037160D01*
X0196465Y0037215D01*
X0196494Y0037267D01*
X0196527Y0037318D01*
X0196563Y0037367D01*
X0196601Y0037413D01*
X0196643Y0037457D01*
X0196687Y0037499D01*
X0196733Y0037537D01*
X0196782Y0037573D01*
X0196833Y0037606D01*
X0196885Y0037635D01*
X0196940Y0037662D01*
X0196995Y0037685D01*
X0197052Y0037705D01*
X0197111Y0037721D01*
X0197170Y0037734D01*
X0197229Y0037743D01*
X0197290Y0037748D01*
X0197350Y0037750D01*
X0214350Y0037750D01*
X0214410Y0037748D01*
X0214471Y0037743D01*
X0214530Y0037734D01*
X0214589Y0037721D01*
X0214648Y0037705D01*
X0214705Y0037685D01*
X0214760Y0037662D01*
X0214815Y0037635D01*
X0214867Y0037606D01*
X0214918Y0037573D01*
X0214967Y0037537D01*
X0215013Y0037499D01*
X0215057Y0037457D01*
X0215099Y0037413D01*
X0215137Y0037367D01*
X0215173Y0037318D01*
X0215206Y0037267D01*
X0215235Y0037215D01*
X0215262Y0037160D01*
X0215285Y0037105D01*
X0215305Y0037048D01*
X0215321Y0036989D01*
X0215334Y0036930D01*
X0215343Y0036871D01*
X0215348Y0036810D01*
X0215350Y0036750D01*
X0207350Y0031750D02*
X0206850Y0031750D01*
X0204850Y0031750D02*
X0204350Y0031750D01*
X0187350Y0031750D02*
X0186850Y0031750D01*
X0184850Y0031750D02*
X0184350Y0031750D01*
X0155850Y0015750D02*
X0153350Y0018250D01*
X0148350Y0018250D01*
X0145850Y0015750D01*
X0143350Y0018250D01*
X0138350Y0018250D01*
X0135850Y0015750D01*
X0135850Y0010750D01*
X0138350Y0008250D01*
X0143350Y0008250D01*
X0145850Y0010750D01*
X0145850Y0015750D01*
X0155850Y0015750D02*
X0155850Y0010750D01*
X0153350Y0008250D01*
X0148350Y0008250D01*
X0145850Y0010750D01*
X0135850Y0010750D02*
X0133350Y0008250D01*
X0128350Y0008250D01*
X0125850Y0010750D01*
X0123350Y0008250D01*
X0118350Y0008250D01*
X0115850Y0010750D01*
X0113350Y0008250D01*
X0108350Y0008250D01*
X0105850Y0010750D01*
X0103350Y0008250D01*
X0098350Y0008250D01*
X0095850Y0010750D01*
X0095850Y0015750D01*
X0098350Y0018250D01*
X0103350Y0018250D01*
X0105850Y0015750D01*
X0108350Y0018250D01*
X0113350Y0018250D01*
X0115850Y0015750D01*
X0118350Y0018250D01*
X0123350Y0018250D01*
X0125850Y0015750D01*
X0128350Y0018250D01*
X0133350Y0018250D01*
X0135850Y0015750D01*
X0125850Y0015750D02*
X0125850Y0010750D01*
X0115850Y0010750D02*
X0115850Y0015750D01*
X0105850Y0015750D02*
X0105850Y0010750D01*
X0104850Y0028750D02*
X0114850Y0028750D01*
X0114910Y0028752D01*
X0114971Y0028757D01*
X0115030Y0028766D01*
X0115089Y0028779D01*
X0115148Y0028795D01*
X0115205Y0028815D01*
X0115260Y0028838D01*
X0115315Y0028865D01*
X0115367Y0028894D01*
X0115418Y0028927D01*
X0115467Y0028963D01*
X0115513Y0029001D01*
X0115557Y0029043D01*
X0115599Y0029087D01*
X0115637Y0029133D01*
X0115673Y0029182D01*
X0115706Y0029233D01*
X0115735Y0029285D01*
X0115762Y0029340D01*
X0115785Y0029395D01*
X0115805Y0029452D01*
X0115821Y0029511D01*
X0115834Y0029570D01*
X0115843Y0029629D01*
X0115848Y0029690D01*
X0115850Y0029750D01*
X0115850Y0046750D01*
X0115848Y0046810D01*
X0115843Y0046871D01*
X0115834Y0046930D01*
X0115821Y0046989D01*
X0115805Y0047048D01*
X0115785Y0047105D01*
X0115762Y0047160D01*
X0115735Y0047215D01*
X0115706Y0047267D01*
X0115673Y0047318D01*
X0115637Y0047367D01*
X0115599Y0047413D01*
X0115557Y0047457D01*
X0115513Y0047499D01*
X0115467Y0047537D01*
X0115418Y0047573D01*
X0115367Y0047606D01*
X0115315Y0047635D01*
X0115260Y0047662D01*
X0115205Y0047685D01*
X0115148Y0047705D01*
X0115089Y0047721D01*
X0115030Y0047734D01*
X0114971Y0047743D01*
X0114910Y0047748D01*
X0114850Y0047750D01*
X0104850Y0047750D01*
X0104790Y0047748D01*
X0104729Y0047743D01*
X0104670Y0047734D01*
X0104611Y0047721D01*
X0104552Y0047705D01*
X0104495Y0047685D01*
X0104440Y0047662D01*
X0104385Y0047635D01*
X0104333Y0047606D01*
X0104282Y0047573D01*
X0104233Y0047537D01*
X0104187Y0047499D01*
X0104143Y0047457D01*
X0104101Y0047413D01*
X0104063Y0047367D01*
X0104027Y0047318D01*
X0103994Y0047267D01*
X0103965Y0047215D01*
X0103938Y0047160D01*
X0103915Y0047105D01*
X0103895Y0047048D01*
X0103879Y0046989D01*
X0103866Y0046930D01*
X0103857Y0046871D01*
X0103852Y0046810D01*
X0103850Y0046750D01*
X0103850Y0029750D01*
X0103852Y0029690D01*
X0103857Y0029629D01*
X0103866Y0029570D01*
X0103879Y0029511D01*
X0103895Y0029452D01*
X0103915Y0029395D01*
X0103938Y0029340D01*
X0103965Y0029285D01*
X0103994Y0029233D01*
X0104027Y0029182D01*
X0104063Y0029133D01*
X0104101Y0029087D01*
X0104143Y0029043D01*
X0104187Y0029001D01*
X0104233Y0028963D01*
X0104282Y0028927D01*
X0104333Y0028894D01*
X0104385Y0028865D01*
X0104440Y0028838D01*
X0104495Y0028815D01*
X0104552Y0028795D01*
X0104611Y0028779D01*
X0104670Y0028766D01*
X0104729Y0028757D01*
X0104790Y0028752D01*
X0104850Y0028750D01*
X0109850Y0036750D02*
X0109850Y0037250D01*
X0109850Y0039250D02*
X0109850Y0039750D01*
X0066850Y0041750D02*
X0066855Y0042143D01*
X0066869Y0042535D01*
X0066893Y0042927D01*
X0066927Y0043318D01*
X0066970Y0043709D01*
X0067023Y0044098D01*
X0067086Y0044485D01*
X0067157Y0044871D01*
X0067239Y0045256D01*
X0067329Y0045638D01*
X0067430Y0046017D01*
X0067539Y0046395D01*
X0067658Y0046769D01*
X0067785Y0047140D01*
X0067922Y0047508D01*
X0068068Y0047873D01*
X0068223Y0048234D01*
X0068386Y0048591D01*
X0068558Y0048944D01*
X0068739Y0049292D01*
X0068929Y0049636D01*
X0069126Y0049976D01*
X0069332Y0050310D01*
X0069546Y0050639D01*
X0069769Y0050963D01*
X0069999Y0051281D01*
X0070236Y0051594D01*
X0070482Y0051900D01*
X0070735Y0052201D01*
X0070995Y0052495D01*
X0071262Y0052783D01*
X0071536Y0053064D01*
X0071817Y0053338D01*
X0072105Y0053605D01*
X0072399Y0053865D01*
X0072700Y0054118D01*
X0073006Y0054364D01*
X0073319Y0054601D01*
X0073637Y0054831D01*
X0073961Y0055054D01*
X0074290Y0055268D01*
X0074624Y0055474D01*
X0074964Y0055671D01*
X0075308Y0055861D01*
X0075656Y0056042D01*
X0076009Y0056214D01*
X0076366Y0056377D01*
X0076727Y0056532D01*
X0077092Y0056678D01*
X0077460Y0056815D01*
X0077831Y0056942D01*
X0078205Y0057061D01*
X0078583Y0057170D01*
X0078962Y0057271D01*
X0079344Y0057361D01*
X0079729Y0057443D01*
X0080115Y0057514D01*
X0080502Y0057577D01*
X0080891Y0057630D01*
X0081282Y0057673D01*
X0081673Y0057707D01*
X0082065Y0057731D01*
X0082457Y0057745D01*
X0082850Y0057750D01*
X0083243Y0057745D01*
X0083635Y0057731D01*
X0084027Y0057707D01*
X0084418Y0057673D01*
X0084809Y0057630D01*
X0085198Y0057577D01*
X0085585Y0057514D01*
X0085971Y0057443D01*
X0086356Y0057361D01*
X0086738Y0057271D01*
X0087117Y0057170D01*
X0087495Y0057061D01*
X0087869Y0056942D01*
X0088240Y0056815D01*
X0088608Y0056678D01*
X0088973Y0056532D01*
X0089334Y0056377D01*
X0089691Y0056214D01*
X0090044Y0056042D01*
X0090392Y0055861D01*
X0090736Y0055671D01*
X0091076Y0055474D01*
X0091410Y0055268D01*
X0091739Y0055054D01*
X0092063Y0054831D01*
X0092381Y0054601D01*
X0092694Y0054364D01*
X0093000Y0054118D01*
X0093301Y0053865D01*
X0093595Y0053605D01*
X0093883Y0053338D01*
X0094164Y0053064D01*
X0094438Y0052783D01*
X0094705Y0052495D01*
X0094965Y0052201D01*
X0095218Y0051900D01*
X0095464Y0051594D01*
X0095701Y0051281D01*
X0095931Y0050963D01*
X0096154Y0050639D01*
X0096368Y0050310D01*
X0096574Y0049976D01*
X0096771Y0049636D01*
X0096961Y0049292D01*
X0097142Y0048944D01*
X0097314Y0048591D01*
X0097477Y0048234D01*
X0097632Y0047873D01*
X0097778Y0047508D01*
X0097915Y0047140D01*
X0098042Y0046769D01*
X0098161Y0046395D01*
X0098270Y0046017D01*
X0098371Y0045638D01*
X0098461Y0045256D01*
X0098543Y0044871D01*
X0098614Y0044485D01*
X0098677Y0044098D01*
X0098730Y0043709D01*
X0098773Y0043318D01*
X0098807Y0042927D01*
X0098831Y0042535D01*
X0098845Y0042143D01*
X0098850Y0041750D01*
X0098845Y0041357D01*
X0098831Y0040965D01*
X0098807Y0040573D01*
X0098773Y0040182D01*
X0098730Y0039791D01*
X0098677Y0039402D01*
X0098614Y0039015D01*
X0098543Y0038629D01*
X0098461Y0038244D01*
X0098371Y0037862D01*
X0098270Y0037483D01*
X0098161Y0037105D01*
X0098042Y0036731D01*
X0097915Y0036360D01*
X0097778Y0035992D01*
X0097632Y0035627D01*
X0097477Y0035266D01*
X0097314Y0034909D01*
X0097142Y0034556D01*
X0096961Y0034208D01*
X0096771Y0033864D01*
X0096574Y0033524D01*
X0096368Y0033190D01*
X0096154Y0032861D01*
X0095931Y0032537D01*
X0095701Y0032219D01*
X0095464Y0031906D01*
X0095218Y0031600D01*
X0094965Y0031299D01*
X0094705Y0031005D01*
X0094438Y0030717D01*
X0094164Y0030436D01*
X0093883Y0030162D01*
X0093595Y0029895D01*
X0093301Y0029635D01*
X0093000Y0029382D01*
X0092694Y0029136D01*
X0092381Y0028899D01*
X0092063Y0028669D01*
X0091739Y0028446D01*
X0091410Y0028232D01*
X0091076Y0028026D01*
X0090736Y0027829D01*
X0090392Y0027639D01*
X0090044Y0027458D01*
X0089691Y0027286D01*
X0089334Y0027123D01*
X0088973Y0026968D01*
X0088608Y0026822D01*
X0088240Y0026685D01*
X0087869Y0026558D01*
X0087495Y0026439D01*
X0087117Y0026330D01*
X0086738Y0026229D01*
X0086356Y0026139D01*
X0085971Y0026057D01*
X0085585Y0025986D01*
X0085198Y0025923D01*
X0084809Y0025870D01*
X0084418Y0025827D01*
X0084027Y0025793D01*
X0083635Y0025769D01*
X0083243Y0025755D01*
X0082850Y0025750D01*
X0082457Y0025755D01*
X0082065Y0025769D01*
X0081673Y0025793D01*
X0081282Y0025827D01*
X0080891Y0025870D01*
X0080502Y0025923D01*
X0080115Y0025986D01*
X0079729Y0026057D01*
X0079344Y0026139D01*
X0078962Y0026229D01*
X0078583Y0026330D01*
X0078205Y0026439D01*
X0077831Y0026558D01*
X0077460Y0026685D01*
X0077092Y0026822D01*
X0076727Y0026968D01*
X0076366Y0027123D01*
X0076009Y0027286D01*
X0075656Y0027458D01*
X0075308Y0027639D01*
X0074964Y0027829D01*
X0074624Y0028026D01*
X0074290Y0028232D01*
X0073961Y0028446D01*
X0073637Y0028669D01*
X0073319Y0028899D01*
X0073006Y0029136D01*
X0072700Y0029382D01*
X0072399Y0029635D01*
X0072105Y0029895D01*
X0071817Y0030162D01*
X0071536Y0030436D01*
X0071262Y0030717D01*
X0070995Y0031005D01*
X0070735Y0031299D01*
X0070482Y0031600D01*
X0070236Y0031906D01*
X0069999Y0032219D01*
X0069769Y0032537D01*
X0069546Y0032861D01*
X0069332Y0033190D01*
X0069126Y0033524D01*
X0068929Y0033864D01*
X0068739Y0034208D01*
X0068558Y0034556D01*
X0068386Y0034909D01*
X0068223Y0035266D01*
X0068068Y0035627D01*
X0067922Y0035992D01*
X0067785Y0036360D01*
X0067658Y0036731D01*
X0067539Y0037105D01*
X0067430Y0037483D01*
X0067329Y0037862D01*
X0067239Y0038244D01*
X0067157Y0038629D01*
X0067086Y0039015D01*
X0067023Y0039402D01*
X0066970Y0039791D01*
X0066927Y0040182D01*
X0066893Y0040573D01*
X0066869Y0040965D01*
X0066855Y0041357D01*
X0066850Y0041750D01*
X0070850Y0044750D02*
X0070850Y0047750D01*
X0069350Y0046250D02*
X0072350Y0046250D01*
X0048850Y0038250D02*
X0048850Y0028250D01*
X0032850Y0028250D01*
X0032850Y0038250D01*
X0048850Y0038250D01*
X0040850Y0035750D02*
X0040850Y0033250D01*
X0040850Y0030750D01*
X0040850Y0033250D02*
X0036850Y0030750D01*
X0036850Y0035750D01*
X0040850Y0033250D01*
X0034850Y0033250D01*
X0040850Y0033250D02*
X0043350Y0033250D01*
X0108350Y0074750D02*
X0108350Y0077750D01*
X0109850Y0076250D02*
X0106850Y0076250D01*
X0080350Y0080750D02*
X0080355Y0081143D01*
X0080369Y0081535D01*
X0080393Y0081927D01*
X0080427Y0082318D01*
X0080470Y0082709D01*
X0080523Y0083098D01*
X0080586Y0083485D01*
X0080657Y0083871D01*
X0080739Y0084256D01*
X0080829Y0084638D01*
X0080930Y0085017D01*
X0081039Y0085395D01*
X0081158Y0085769D01*
X0081285Y0086140D01*
X0081422Y0086508D01*
X0081568Y0086873D01*
X0081723Y0087234D01*
X0081886Y0087591D01*
X0082058Y0087944D01*
X0082239Y0088292D01*
X0082429Y0088636D01*
X0082626Y0088976D01*
X0082832Y0089310D01*
X0083046Y0089639D01*
X0083269Y0089963D01*
X0083499Y0090281D01*
X0083736Y0090594D01*
X0083982Y0090900D01*
X0084235Y0091201D01*
X0084495Y0091495D01*
X0084762Y0091783D01*
X0085036Y0092064D01*
X0085317Y0092338D01*
X0085605Y0092605D01*
X0085899Y0092865D01*
X0086200Y0093118D01*
X0086506Y0093364D01*
X0086819Y0093601D01*
X0087137Y0093831D01*
X0087461Y0094054D01*
X0087790Y0094268D01*
X0088124Y0094474D01*
X0088464Y0094671D01*
X0088808Y0094861D01*
X0089156Y0095042D01*
X0089509Y0095214D01*
X0089866Y0095377D01*
X0090227Y0095532D01*
X0090592Y0095678D01*
X0090960Y0095815D01*
X0091331Y0095942D01*
X0091705Y0096061D01*
X0092083Y0096170D01*
X0092462Y0096271D01*
X0092844Y0096361D01*
X0093229Y0096443D01*
X0093615Y0096514D01*
X0094002Y0096577D01*
X0094391Y0096630D01*
X0094782Y0096673D01*
X0095173Y0096707D01*
X0095565Y0096731D01*
X0095957Y0096745D01*
X0096350Y0096750D01*
X0096743Y0096745D01*
X0097135Y0096731D01*
X0097527Y0096707D01*
X0097918Y0096673D01*
X0098309Y0096630D01*
X0098698Y0096577D01*
X0099085Y0096514D01*
X0099471Y0096443D01*
X0099856Y0096361D01*
X0100238Y0096271D01*
X0100617Y0096170D01*
X0100995Y0096061D01*
X0101369Y0095942D01*
X0101740Y0095815D01*
X0102108Y0095678D01*
X0102473Y0095532D01*
X0102834Y0095377D01*
X0103191Y0095214D01*
X0103544Y0095042D01*
X0103892Y0094861D01*
X0104236Y0094671D01*
X0104576Y0094474D01*
X0104910Y0094268D01*
X0105239Y0094054D01*
X0105563Y0093831D01*
X0105881Y0093601D01*
X0106194Y0093364D01*
X0106500Y0093118D01*
X0106801Y0092865D01*
X0107095Y0092605D01*
X0107383Y0092338D01*
X0107664Y0092064D01*
X0107938Y0091783D01*
X0108205Y0091495D01*
X0108465Y0091201D01*
X0108718Y0090900D01*
X0108964Y0090594D01*
X0109201Y0090281D01*
X0109431Y0089963D01*
X0109654Y0089639D01*
X0109868Y0089310D01*
X0110074Y0088976D01*
X0110271Y0088636D01*
X0110461Y0088292D01*
X0110642Y0087944D01*
X0110814Y0087591D01*
X0110977Y0087234D01*
X0111132Y0086873D01*
X0111278Y0086508D01*
X0111415Y0086140D01*
X0111542Y0085769D01*
X0111661Y0085395D01*
X0111770Y0085017D01*
X0111871Y0084638D01*
X0111961Y0084256D01*
X0112043Y0083871D01*
X0112114Y0083485D01*
X0112177Y0083098D01*
X0112230Y0082709D01*
X0112273Y0082318D01*
X0112307Y0081927D01*
X0112331Y0081535D01*
X0112345Y0081143D01*
X0112350Y0080750D01*
X0112345Y0080357D01*
X0112331Y0079965D01*
X0112307Y0079573D01*
X0112273Y0079182D01*
X0112230Y0078791D01*
X0112177Y0078402D01*
X0112114Y0078015D01*
X0112043Y0077629D01*
X0111961Y0077244D01*
X0111871Y0076862D01*
X0111770Y0076483D01*
X0111661Y0076105D01*
X0111542Y0075731D01*
X0111415Y0075360D01*
X0111278Y0074992D01*
X0111132Y0074627D01*
X0110977Y0074266D01*
X0110814Y0073909D01*
X0110642Y0073556D01*
X0110461Y0073208D01*
X0110271Y0072864D01*
X0110074Y0072524D01*
X0109868Y0072190D01*
X0109654Y0071861D01*
X0109431Y0071537D01*
X0109201Y0071219D01*
X0108964Y0070906D01*
X0108718Y0070600D01*
X0108465Y0070299D01*
X0108205Y0070005D01*
X0107938Y0069717D01*
X0107664Y0069436D01*
X0107383Y0069162D01*
X0107095Y0068895D01*
X0106801Y0068635D01*
X0106500Y0068382D01*
X0106194Y0068136D01*
X0105881Y0067899D01*
X0105563Y0067669D01*
X0105239Y0067446D01*
X0104910Y0067232D01*
X0104576Y0067026D01*
X0104236Y0066829D01*
X0103892Y0066639D01*
X0103544Y0066458D01*
X0103191Y0066286D01*
X0102834Y0066123D01*
X0102473Y0065968D01*
X0102108Y0065822D01*
X0101740Y0065685D01*
X0101369Y0065558D01*
X0100995Y0065439D01*
X0100617Y0065330D01*
X0100238Y0065229D01*
X0099856Y0065139D01*
X0099471Y0065057D01*
X0099085Y0064986D01*
X0098698Y0064923D01*
X0098309Y0064870D01*
X0097918Y0064827D01*
X0097527Y0064793D01*
X0097135Y0064769D01*
X0096743Y0064755D01*
X0096350Y0064750D01*
X0095957Y0064755D01*
X0095565Y0064769D01*
X0095173Y0064793D01*
X0094782Y0064827D01*
X0094391Y0064870D01*
X0094002Y0064923D01*
X0093615Y0064986D01*
X0093229Y0065057D01*
X0092844Y0065139D01*
X0092462Y0065229D01*
X0092083Y0065330D01*
X0091705Y0065439D01*
X0091331Y0065558D01*
X0090960Y0065685D01*
X0090592Y0065822D01*
X0090227Y0065968D01*
X0089866Y0066123D01*
X0089509Y0066286D01*
X0089156Y0066458D01*
X0088808Y0066639D01*
X0088464Y0066829D01*
X0088124Y0067026D01*
X0087790Y0067232D01*
X0087461Y0067446D01*
X0087137Y0067669D01*
X0086819Y0067899D01*
X0086506Y0068136D01*
X0086200Y0068382D01*
X0085899Y0068635D01*
X0085605Y0068895D01*
X0085317Y0069162D01*
X0085036Y0069436D01*
X0084762Y0069717D01*
X0084495Y0070005D01*
X0084235Y0070299D01*
X0083982Y0070600D01*
X0083736Y0070906D01*
X0083499Y0071219D01*
X0083269Y0071537D01*
X0083046Y0071861D01*
X0082832Y0072190D01*
X0082626Y0072524D01*
X0082429Y0072864D01*
X0082239Y0073208D01*
X0082058Y0073556D01*
X0081886Y0073909D01*
X0081723Y0074266D01*
X0081568Y0074627D01*
X0081422Y0074992D01*
X0081285Y0075360D01*
X0081158Y0075731D01*
X0081039Y0076105D01*
X0080930Y0076483D01*
X0080829Y0076862D01*
X0080739Y0077244D01*
X0080657Y0077629D01*
X0080586Y0078015D01*
X0080523Y0078402D01*
X0080470Y0078791D01*
X0080427Y0079182D01*
X0080393Y0079573D01*
X0080369Y0079965D01*
X0080355Y0080357D01*
X0080350Y0080750D01*
X0080350Y0090250D02*
X0031350Y0090250D01*
X0031350Y0093750D01*
X0025350Y0093750D01*
X0025350Y0090250D01*
X0017850Y0090250D01*
X0017850Y0131250D01*
X0025350Y0131250D01*
X0025350Y0127750D01*
X0031350Y0127750D01*
X0031350Y0131250D01*
X0080350Y0131250D01*
X0080350Y0090250D01*
X0024250Y0110750D02*
X0024252Y0110924D01*
X0024259Y0111098D01*
X0024269Y0111272D01*
X0024284Y0111446D01*
X0024303Y0111619D01*
X0024327Y0111792D01*
X0024355Y0111964D01*
X0024386Y0112135D01*
X0024423Y0112306D01*
X0024463Y0112475D01*
X0024507Y0112644D01*
X0024556Y0112811D01*
X0024608Y0112977D01*
X0024665Y0113142D01*
X0024726Y0113305D01*
X0024790Y0113467D01*
X0024859Y0113627D01*
X0024932Y0113786D01*
X0025008Y0113942D01*
X0025088Y0114097D01*
X0025172Y0114250D01*
X0025260Y0114400D01*
X0025352Y0114548D01*
X0025447Y0114695D01*
X0025545Y0114838D01*
X0025647Y0114979D01*
X0025753Y0115118D01*
X0025862Y0115254D01*
X0025974Y0115388D01*
X0026089Y0115518D01*
X0026208Y0115646D01*
X0026330Y0115770D01*
X0026454Y0115892D01*
X0026582Y0116011D01*
X0026712Y0116126D01*
X0026846Y0116238D01*
X0026982Y0116347D01*
X0027121Y0116453D01*
X0027262Y0116555D01*
X0027405Y0116653D01*
X0027552Y0116748D01*
X0027700Y0116840D01*
X0027850Y0116928D01*
X0028003Y0117012D01*
X0028158Y0117092D01*
X0028314Y0117168D01*
X0028473Y0117241D01*
X0028633Y0117310D01*
X0028795Y0117374D01*
X0028958Y0117435D01*
X0029123Y0117492D01*
X0029289Y0117544D01*
X0029456Y0117593D01*
X0029625Y0117637D01*
X0029794Y0117677D01*
X0029965Y0117714D01*
X0030136Y0117745D01*
X0030308Y0117773D01*
X0030481Y0117797D01*
X0030654Y0117816D01*
X0030828Y0117831D01*
X0031002Y0117841D01*
X0031176Y0117848D01*
X0031350Y0117850D01*
X0031524Y0117848D01*
X0031698Y0117841D01*
X0031872Y0117831D01*
X0032046Y0117816D01*
X0032219Y0117797D01*
X0032392Y0117773D01*
X0032564Y0117745D01*
X0032735Y0117714D01*
X0032906Y0117677D01*
X0033075Y0117637D01*
X0033244Y0117593D01*
X0033411Y0117544D01*
X0033577Y0117492D01*
X0033742Y0117435D01*
X0033905Y0117374D01*
X0034067Y0117310D01*
X0034227Y0117241D01*
X0034386Y0117168D01*
X0034542Y0117092D01*
X0034697Y0117012D01*
X0034850Y0116928D01*
X0035000Y0116840D01*
X0035148Y0116748D01*
X0035295Y0116653D01*
X0035438Y0116555D01*
X0035579Y0116453D01*
X0035718Y0116347D01*
X0035854Y0116238D01*
X0035988Y0116126D01*
X0036118Y0116011D01*
X0036246Y0115892D01*
X0036370Y0115770D01*
X0036492Y0115646D01*
X0036611Y0115518D01*
X0036726Y0115388D01*
X0036838Y0115254D01*
X0036947Y0115118D01*
X0037053Y0114979D01*
X0037155Y0114838D01*
X0037253Y0114695D01*
X0037348Y0114548D01*
X0037440Y0114400D01*
X0037528Y0114250D01*
X0037612Y0114097D01*
X0037692Y0113942D01*
X0037768Y0113786D01*
X0037841Y0113627D01*
X0037910Y0113467D01*
X0037974Y0113305D01*
X0038035Y0113142D01*
X0038092Y0112977D01*
X0038144Y0112811D01*
X0038193Y0112644D01*
X0038237Y0112475D01*
X0038277Y0112306D01*
X0038314Y0112135D01*
X0038345Y0111964D01*
X0038373Y0111792D01*
X0038397Y0111619D01*
X0038416Y0111446D01*
X0038431Y0111272D01*
X0038441Y0111098D01*
X0038448Y0110924D01*
X0038450Y0110750D01*
X0038448Y0110576D01*
X0038441Y0110402D01*
X0038431Y0110228D01*
X0038416Y0110054D01*
X0038397Y0109881D01*
X0038373Y0109708D01*
X0038345Y0109536D01*
X0038314Y0109365D01*
X0038277Y0109194D01*
X0038237Y0109025D01*
X0038193Y0108856D01*
X0038144Y0108689D01*
X0038092Y0108523D01*
X0038035Y0108358D01*
X0037974Y0108195D01*
X0037910Y0108033D01*
X0037841Y0107873D01*
X0037768Y0107714D01*
X0037692Y0107558D01*
X0037612Y0107403D01*
X0037528Y0107250D01*
X0037440Y0107100D01*
X0037348Y0106952D01*
X0037253Y0106805D01*
X0037155Y0106662D01*
X0037053Y0106521D01*
X0036947Y0106382D01*
X0036838Y0106246D01*
X0036726Y0106112D01*
X0036611Y0105982D01*
X0036492Y0105854D01*
X0036370Y0105730D01*
X0036246Y0105608D01*
X0036118Y0105489D01*
X0035988Y0105374D01*
X0035854Y0105262D01*
X0035718Y0105153D01*
X0035579Y0105047D01*
X0035438Y0104945D01*
X0035295Y0104847D01*
X0035148Y0104752D01*
X0035000Y0104660D01*
X0034850Y0104572D01*
X0034697Y0104488D01*
X0034542Y0104408D01*
X0034386Y0104332D01*
X0034227Y0104259D01*
X0034067Y0104190D01*
X0033905Y0104126D01*
X0033742Y0104065D01*
X0033577Y0104008D01*
X0033411Y0103956D01*
X0033244Y0103907D01*
X0033075Y0103863D01*
X0032906Y0103823D01*
X0032735Y0103786D01*
X0032564Y0103755D01*
X0032392Y0103727D01*
X0032219Y0103703D01*
X0032046Y0103684D01*
X0031872Y0103669D01*
X0031698Y0103659D01*
X0031524Y0103652D01*
X0031350Y0103650D01*
X0031176Y0103652D01*
X0031002Y0103659D01*
X0030828Y0103669D01*
X0030654Y0103684D01*
X0030481Y0103703D01*
X0030308Y0103727D01*
X0030136Y0103755D01*
X0029965Y0103786D01*
X0029794Y0103823D01*
X0029625Y0103863D01*
X0029456Y0103907D01*
X0029289Y0103956D01*
X0029123Y0104008D01*
X0028958Y0104065D01*
X0028795Y0104126D01*
X0028633Y0104190D01*
X0028473Y0104259D01*
X0028314Y0104332D01*
X0028158Y0104408D01*
X0028003Y0104488D01*
X0027850Y0104572D01*
X0027700Y0104660D01*
X0027552Y0104752D01*
X0027405Y0104847D01*
X0027262Y0104945D01*
X0027121Y0105047D01*
X0026982Y0105153D01*
X0026846Y0105262D01*
X0026712Y0105374D01*
X0026582Y0105489D01*
X0026454Y0105608D01*
X0026330Y0105730D01*
X0026208Y0105854D01*
X0026089Y0105982D01*
X0025974Y0106112D01*
X0025862Y0106246D01*
X0025753Y0106382D01*
X0025647Y0106521D01*
X0025545Y0106662D01*
X0025447Y0106805D01*
X0025352Y0106952D01*
X0025260Y0107100D01*
X0025172Y0107250D01*
X0025088Y0107403D01*
X0025008Y0107558D01*
X0024932Y0107714D01*
X0024859Y0107873D01*
X0024790Y0108033D01*
X0024726Y0108195D01*
X0024665Y0108358D01*
X0024608Y0108523D01*
X0024556Y0108689D01*
X0024507Y0108856D01*
X0024463Y0109025D01*
X0024423Y0109194D01*
X0024386Y0109365D01*
X0024355Y0109536D01*
X0024327Y0109708D01*
X0024303Y0109881D01*
X0024284Y0110054D01*
X0024269Y0110228D01*
X0024259Y0110402D01*
X0024252Y0110576D01*
X0024250Y0110750D01*
X0235850Y0015750D02*
X0238350Y0018250D01*
X0243350Y0018250D01*
X0245850Y0015750D01*
X0248350Y0018250D01*
X0253350Y0018250D01*
X0255850Y0015750D01*
X0258350Y0018250D01*
X0263350Y0018250D01*
X0265850Y0015750D01*
X0268350Y0018250D01*
X0273350Y0018250D01*
X0275850Y0015750D01*
X0278350Y0018250D01*
X0283350Y0018250D01*
X0285850Y0015750D01*
X0288350Y0018250D01*
X0293350Y0018250D01*
X0295850Y0015750D01*
X0295850Y0010750D01*
X0293350Y0008250D01*
X0288350Y0008250D01*
X0285850Y0010750D01*
X0283350Y0008250D01*
X0278350Y0008250D01*
X0275850Y0010750D01*
X0275850Y0015750D01*
X0285850Y0015750D02*
X0285850Y0010750D01*
X0275850Y0010750D02*
X0273350Y0008250D01*
X0268350Y0008250D01*
X0265850Y0010750D01*
X0263350Y0008250D01*
X0258350Y0008250D01*
X0255850Y0010750D01*
X0253350Y0008250D01*
X0248350Y0008250D01*
X0245850Y0010750D01*
X0243350Y0008250D01*
X0238350Y0008250D01*
X0235850Y0010750D01*
X0235850Y0015750D01*
X0245850Y0015750D02*
X0245850Y0010750D01*
X0255850Y0010750D02*
X0255850Y0015750D01*
X0265850Y0015750D02*
X0265850Y0010750D01*
D15*
X0015850Y0008250D02*
X0015850Y0018250D01*
X0095850Y0018250D01*
X0095850Y0008250D01*
X0015850Y0008250D01*
X0014950Y0053850D02*
X0014950Y0089150D01*
X0001250Y0089150D01*
X0001250Y0053750D01*
X0031850Y0053750D01*
X0053100Y0053750D02*
X0054350Y0053750D01*
X0054350Y0062500D01*
X0054350Y0083750D02*
X0054350Y0089150D01*
X0014950Y0089150D01*
X0116892Y0032753D02*
X0116892Y0029751D01*
X0117643Y0029000D01*
X0119144Y0029000D01*
X0119895Y0029751D01*
X0121496Y0029751D02*
X0122247Y0029000D01*
X0123748Y0029000D01*
X0124499Y0029751D01*
X0124499Y0032753D01*
X0123748Y0033504D01*
X0122247Y0033504D01*
X0121496Y0032753D01*
X0121496Y0032003D01*
X0122247Y0031252D01*
X0124499Y0031252D01*
X0119895Y0032753D02*
X0119144Y0033504D01*
X0117643Y0033504D01*
X0116892Y0032753D01*
X0155850Y0018250D02*
X0235850Y0018250D01*
X0235850Y0008250D01*
X0155850Y0008250D01*
X0155850Y0018250D01*
X0293596Y0040751D02*
X0294347Y0040000D01*
X0295097Y0040000D01*
X0295848Y0040751D01*
X0295848Y0042252D01*
X0296599Y0043003D01*
X0297349Y0043003D01*
X0298100Y0042252D01*
X0298100Y0040751D01*
X0297349Y0040000D01*
X0293596Y0040751D02*
X0293596Y0042252D01*
X0294347Y0043003D01*
X0295097Y0044604D02*
X0293596Y0046105D01*
X0298100Y0046105D01*
X0298100Y0044604D02*
X0298100Y0047606D01*
D16*
X0046350Y0033250D03*
D17*
X0052600Y0033250D03*
X0029100Y0033250D03*
D18*
X0045350Y0092750D02*
X0077850Y0092750D01*
X0077850Y0128750D01*
X0045350Y0128750D01*
X0045350Y0092750D01*
X0268850Y0048250D02*
X0269850Y0048250D01*
X0269850Y0038750D01*
X0268850Y0038750D01*
X0291850Y0038250D02*
X0292850Y0038250D01*
X0291850Y0038250D02*
X0291850Y0048250D01*
X0292850Y0048250D01*
D19*
X0092600Y0100750D03*
X0092600Y0110750D03*
X0092600Y0120750D03*
D20*
X0085850Y0120750D03*
X0085850Y0110750D03*
X0085850Y0100750D03*
D21*
X0024850Y0110750D02*
X0024852Y0110911D01*
X0024858Y0111071D01*
X0024868Y0111232D01*
X0024882Y0111392D01*
X0024900Y0111552D01*
X0024921Y0111711D01*
X0024947Y0111870D01*
X0024977Y0112028D01*
X0025010Y0112185D01*
X0025048Y0112342D01*
X0025089Y0112497D01*
X0025134Y0112651D01*
X0025183Y0112804D01*
X0025236Y0112956D01*
X0025292Y0113107D01*
X0025353Y0113256D01*
X0025416Y0113404D01*
X0025484Y0113550D01*
X0025555Y0113694D01*
X0025629Y0113836D01*
X0025707Y0113977D01*
X0025789Y0114115D01*
X0025874Y0114252D01*
X0025962Y0114386D01*
X0026054Y0114518D01*
X0026149Y0114648D01*
X0026247Y0114776D01*
X0026348Y0114901D01*
X0026452Y0115023D01*
X0026559Y0115143D01*
X0026669Y0115260D01*
X0026782Y0115375D01*
X0026898Y0115486D01*
X0027017Y0115595D01*
X0027138Y0115700D01*
X0027262Y0115803D01*
X0027388Y0115903D01*
X0027516Y0115999D01*
X0027647Y0116092D01*
X0027781Y0116182D01*
X0027916Y0116269D01*
X0028054Y0116352D01*
X0028193Y0116432D01*
X0028335Y0116508D01*
X0028478Y0116581D01*
X0028623Y0116650D01*
X0028770Y0116716D01*
X0028918Y0116778D01*
X0029068Y0116836D01*
X0029219Y0116891D01*
X0029372Y0116942D01*
X0029526Y0116989D01*
X0029681Y0117032D01*
X0029837Y0117071D01*
X0029993Y0117107D01*
X0030151Y0117138D01*
X0030309Y0117166D01*
X0030468Y0117190D01*
X0030628Y0117210D01*
X0030788Y0117226D01*
X0030948Y0117238D01*
X0031109Y0117246D01*
X0031270Y0117250D01*
X0031430Y0117250D01*
X0031591Y0117246D01*
X0031752Y0117238D01*
X0031912Y0117226D01*
X0032072Y0117210D01*
X0032232Y0117190D01*
X0032391Y0117166D01*
X0032549Y0117138D01*
X0032707Y0117107D01*
X0032863Y0117071D01*
X0033019Y0117032D01*
X0033174Y0116989D01*
X0033328Y0116942D01*
X0033481Y0116891D01*
X0033632Y0116836D01*
X0033782Y0116778D01*
X0033930Y0116716D01*
X0034077Y0116650D01*
X0034222Y0116581D01*
X0034365Y0116508D01*
X0034507Y0116432D01*
X0034646Y0116352D01*
X0034784Y0116269D01*
X0034919Y0116182D01*
X0035053Y0116092D01*
X0035184Y0115999D01*
X0035312Y0115903D01*
X0035438Y0115803D01*
X0035562Y0115700D01*
X0035683Y0115595D01*
X0035802Y0115486D01*
X0035918Y0115375D01*
X0036031Y0115260D01*
X0036141Y0115143D01*
X0036248Y0115023D01*
X0036352Y0114901D01*
X0036453Y0114776D01*
X0036551Y0114648D01*
X0036646Y0114518D01*
X0036738Y0114386D01*
X0036826Y0114252D01*
X0036911Y0114115D01*
X0036993Y0113977D01*
X0037071Y0113836D01*
X0037145Y0113694D01*
X0037216Y0113550D01*
X0037284Y0113404D01*
X0037347Y0113256D01*
X0037408Y0113107D01*
X0037464Y0112956D01*
X0037517Y0112804D01*
X0037566Y0112651D01*
X0037611Y0112497D01*
X0037652Y0112342D01*
X0037690Y0112185D01*
X0037723Y0112028D01*
X0037753Y0111870D01*
X0037779Y0111711D01*
X0037800Y0111552D01*
X0037818Y0111392D01*
X0037832Y0111232D01*
X0037842Y0111071D01*
X0037848Y0110911D01*
X0037850Y0110750D01*
X0037848Y0110589D01*
X0037842Y0110429D01*
X0037832Y0110268D01*
X0037818Y0110108D01*
X0037800Y0109948D01*
X0037779Y0109789D01*
X0037753Y0109630D01*
X0037723Y0109472D01*
X0037690Y0109315D01*
X0037652Y0109158D01*
X0037611Y0109003D01*
X0037566Y0108849D01*
X0037517Y0108696D01*
X0037464Y0108544D01*
X0037408Y0108393D01*
X0037347Y0108244D01*
X0037284Y0108096D01*
X0037216Y0107950D01*
X0037145Y0107806D01*
X0037071Y0107664D01*
X0036993Y0107523D01*
X0036911Y0107385D01*
X0036826Y0107248D01*
X0036738Y0107114D01*
X0036646Y0106982D01*
X0036551Y0106852D01*
X0036453Y0106724D01*
X0036352Y0106599D01*
X0036248Y0106477D01*
X0036141Y0106357D01*
X0036031Y0106240D01*
X0035918Y0106125D01*
X0035802Y0106014D01*
X0035683Y0105905D01*
X0035562Y0105800D01*
X0035438Y0105697D01*
X0035312Y0105597D01*
X0035184Y0105501D01*
X0035053Y0105408D01*
X0034919Y0105318D01*
X0034784Y0105231D01*
X0034646Y0105148D01*
X0034507Y0105068D01*
X0034365Y0104992D01*
X0034222Y0104919D01*
X0034077Y0104850D01*
X0033930Y0104784D01*
X0033782Y0104722D01*
X0033632Y0104664D01*
X0033481Y0104609D01*
X0033328Y0104558D01*
X0033174Y0104511D01*
X0033019Y0104468D01*
X0032863Y0104429D01*
X0032707Y0104393D01*
X0032549Y0104362D01*
X0032391Y0104334D01*
X0032232Y0104310D01*
X0032072Y0104290D01*
X0031912Y0104274D01*
X0031752Y0104262D01*
X0031591Y0104254D01*
X0031430Y0104250D01*
X0031270Y0104250D01*
X0031109Y0104254D01*
X0030948Y0104262D01*
X0030788Y0104274D01*
X0030628Y0104290D01*
X0030468Y0104310D01*
X0030309Y0104334D01*
X0030151Y0104362D01*
X0029993Y0104393D01*
X0029837Y0104429D01*
X0029681Y0104468D01*
X0029526Y0104511D01*
X0029372Y0104558D01*
X0029219Y0104609D01*
X0029068Y0104664D01*
X0028918Y0104722D01*
X0028770Y0104784D01*
X0028623Y0104850D01*
X0028478Y0104919D01*
X0028335Y0104992D01*
X0028193Y0105068D01*
X0028054Y0105148D01*
X0027916Y0105231D01*
X0027781Y0105318D01*
X0027647Y0105408D01*
X0027516Y0105501D01*
X0027388Y0105597D01*
X0027262Y0105697D01*
X0027138Y0105800D01*
X0027017Y0105905D01*
X0026898Y0106014D01*
X0026782Y0106125D01*
X0026669Y0106240D01*
X0026559Y0106357D01*
X0026452Y0106477D01*
X0026348Y0106599D01*
X0026247Y0106724D01*
X0026149Y0106852D01*
X0026054Y0106982D01*
X0025962Y0107114D01*
X0025874Y0107248D01*
X0025789Y0107385D01*
X0025707Y0107523D01*
X0025629Y0107664D01*
X0025555Y0107806D01*
X0025484Y0107950D01*
X0025416Y0108096D01*
X0025353Y0108244D01*
X0025292Y0108393D01*
X0025236Y0108544D01*
X0025183Y0108696D01*
X0025134Y0108849D01*
X0025089Y0109003D01*
X0025048Y0109158D01*
X0025010Y0109315D01*
X0024977Y0109472D01*
X0024947Y0109630D01*
X0024921Y0109789D01*
X0024900Y0109948D01*
X0024882Y0110108D01*
X0024868Y0110268D01*
X0024858Y0110429D01*
X0024852Y0110589D01*
X0024850Y0110750D01*
D22*
X0109650Y0113750D03*
X0138050Y0113750D03*
X0206650Y0103250D03*
X0206650Y0093250D03*
X0235050Y0093250D03*
X0235050Y0103250D03*
X0256650Y0103250D03*
X0256650Y0093250D03*
X0285050Y0093250D03*
X0285050Y0103250D03*
X0254050Y0032250D03*
X0225650Y0032250D03*
D23*
X0290850Y0065750D02*
X0290850Y0080750D01*
D24*
X0173350Y0086750D02*
X0149350Y0086750D01*
X0149143Y0086753D01*
X0148936Y0086760D01*
X0148730Y0086773D01*
X0148523Y0086790D01*
X0148318Y0086813D01*
X0148112Y0086841D01*
X0147908Y0086873D01*
X0147704Y0086911D01*
X0147502Y0086953D01*
X0147300Y0087001D01*
X0147100Y0087053D01*
X0146901Y0087110D01*
X0146704Y0087172D01*
X0146508Y0087239D01*
X0146314Y0087311D01*
X0146121Y0087387D01*
X0145931Y0087468D01*
X0145742Y0087554D01*
X0145556Y0087644D01*
X0145372Y0087738D01*
X0145190Y0087838D01*
X0145011Y0087941D01*
X0144834Y0088049D01*
X0144660Y0088161D01*
X0144489Y0088277D01*
X0144320Y0088398D01*
X0144155Y0088522D01*
X0143993Y0088651D01*
X0143834Y0088783D01*
X0143678Y0088919D01*
X0143525Y0089059D01*
X0143376Y0089203D01*
X0143231Y0089350D01*
X0143089Y0089501D01*
X0142951Y0089655D01*
X0142816Y0089813D01*
X0142686Y0089973D01*
X0142560Y0090137D01*
X0142437Y0090304D01*
X0142319Y0090474D01*
X0142204Y0090647D01*
X0142094Y0090822D01*
X0141989Y0091000D01*
X0141887Y0091181D01*
X0141791Y0091363D01*
X0141698Y0091549D01*
X0141610Y0091736D01*
X0141527Y0091926D01*
X0141448Y0092117D01*
X0141374Y0092310D01*
X0141305Y0092506D01*
X0141241Y0092702D01*
X0141181Y0092900D01*
X0141126Y0093100D01*
X0141076Y0093301D01*
X0141031Y0093503D01*
X0140991Y0093706D01*
X0140956Y0093910D01*
X0140926Y0094115D01*
X0140901Y0094320D01*
X0140881Y0094526D01*
X0140866Y0094733D01*
X0140856Y0094940D01*
X0140851Y0095147D01*
X0140851Y0095353D01*
X0140856Y0095560D01*
X0140866Y0095767D01*
X0140881Y0095974D01*
X0140901Y0096180D01*
X0140926Y0096385D01*
X0140956Y0096590D01*
X0140991Y0096794D01*
X0141031Y0096997D01*
X0141076Y0097199D01*
X0141126Y0097400D01*
X0141181Y0097600D01*
X0141241Y0097798D01*
X0141305Y0097994D01*
X0141374Y0098190D01*
X0141448Y0098383D01*
X0141527Y0098574D01*
X0141610Y0098764D01*
X0141698Y0098951D01*
X0141791Y0099137D01*
X0141887Y0099319D01*
X0141989Y0099500D01*
X0142094Y0099678D01*
X0142204Y0099853D01*
X0142319Y0100026D01*
X0142437Y0100196D01*
X0142560Y0100363D01*
X0142686Y0100527D01*
X0142816Y0100687D01*
X0142951Y0100845D01*
X0143089Y0100999D01*
X0143231Y0101150D01*
X0143376Y0101297D01*
X0143525Y0101441D01*
X0143678Y0101581D01*
X0143834Y0101717D01*
X0143993Y0101849D01*
X0144155Y0101978D01*
X0144320Y0102102D01*
X0144489Y0102223D01*
X0144660Y0102339D01*
X0144834Y0102451D01*
X0145011Y0102559D01*
X0145190Y0102662D01*
X0145372Y0102762D01*
X0145556Y0102856D01*
X0145742Y0102946D01*
X0145931Y0103032D01*
X0146121Y0103113D01*
X0146314Y0103189D01*
X0146508Y0103261D01*
X0146704Y0103328D01*
X0146901Y0103390D01*
X0147100Y0103447D01*
X0147300Y0103499D01*
X0147502Y0103547D01*
X0147704Y0103589D01*
X0147908Y0103627D01*
X0148112Y0103659D01*
X0148318Y0103687D01*
X0148523Y0103710D01*
X0148730Y0103727D01*
X0148936Y0103740D01*
X0149143Y0103747D01*
X0149350Y0103750D01*
X0173350Y0103750D01*
X0173557Y0103747D01*
X0173764Y0103740D01*
X0173970Y0103727D01*
X0174177Y0103710D01*
X0174382Y0103687D01*
X0174588Y0103659D01*
X0174792Y0103627D01*
X0174996Y0103589D01*
X0175198Y0103547D01*
X0175400Y0103499D01*
X0175600Y0103447D01*
X0175799Y0103390D01*
X0175996Y0103328D01*
X0176192Y0103261D01*
X0176386Y0103189D01*
X0176579Y0103113D01*
X0176769Y0103032D01*
X0176958Y0102946D01*
X0177144Y0102856D01*
X0177328Y0102762D01*
X0177510Y0102662D01*
X0177689Y0102559D01*
X0177866Y0102451D01*
X0178040Y0102339D01*
X0178211Y0102223D01*
X0178380Y0102102D01*
X0178545Y0101978D01*
X0178707Y0101849D01*
X0178866Y0101717D01*
X0179022Y0101581D01*
X0179175Y0101441D01*
X0179324Y0101297D01*
X0179469Y0101150D01*
X0179611Y0100999D01*
X0179749Y0100845D01*
X0179884Y0100687D01*
X0180014Y0100527D01*
X0180140Y0100363D01*
X0180263Y0100196D01*
X0180381Y0100026D01*
X0180496Y0099853D01*
X0180606Y0099678D01*
X0180711Y0099500D01*
X0180813Y0099319D01*
X0180909Y0099137D01*
X0181002Y0098951D01*
X0181090Y0098764D01*
X0181173Y0098574D01*
X0181252Y0098383D01*
X0181326Y0098190D01*
X0181395Y0097994D01*
X0181459Y0097798D01*
X0181519Y0097600D01*
X0181574Y0097400D01*
X0181624Y0097199D01*
X0181669Y0096997D01*
X0181709Y0096794D01*
X0181744Y0096590D01*
X0181774Y0096385D01*
X0181799Y0096180D01*
X0181819Y0095974D01*
X0181834Y0095767D01*
X0181844Y0095560D01*
X0181849Y0095353D01*
X0181849Y0095147D01*
X0181844Y0094940D01*
X0181834Y0094733D01*
X0181819Y0094526D01*
X0181799Y0094320D01*
X0181774Y0094115D01*
X0181744Y0093910D01*
X0181709Y0093706D01*
X0181669Y0093503D01*
X0181624Y0093301D01*
X0181574Y0093100D01*
X0181519Y0092900D01*
X0181459Y0092702D01*
X0181395Y0092506D01*
X0181326Y0092310D01*
X0181252Y0092117D01*
X0181173Y0091926D01*
X0181090Y0091736D01*
X0181002Y0091549D01*
X0180909Y0091363D01*
X0180813Y0091181D01*
X0180711Y0091000D01*
X0180606Y0090822D01*
X0180496Y0090647D01*
X0180381Y0090474D01*
X0180263Y0090304D01*
X0180140Y0090137D01*
X0180014Y0089973D01*
X0179884Y0089813D01*
X0179749Y0089655D01*
X0179611Y0089501D01*
X0179469Y0089350D01*
X0179324Y0089203D01*
X0179175Y0089059D01*
X0179022Y0088919D01*
X0178866Y0088783D01*
X0178707Y0088651D01*
X0178545Y0088522D01*
X0178380Y0088398D01*
X0178211Y0088277D01*
X0178040Y0088161D01*
X0177866Y0088049D01*
X0177689Y0087941D01*
X0177510Y0087838D01*
X0177328Y0087738D01*
X0177144Y0087644D01*
X0176958Y0087554D01*
X0176769Y0087468D01*
X0176579Y0087387D01*
X0176386Y0087311D01*
X0176192Y0087239D01*
X0175996Y0087172D01*
X0175799Y0087110D01*
X0175600Y0087053D01*
X0175400Y0087001D01*
X0175198Y0086953D01*
X0174996Y0086911D01*
X0174792Y0086873D01*
X0174588Y0086841D01*
X0174382Y0086813D01*
X0174177Y0086790D01*
X0173970Y0086773D01*
X0173764Y0086760D01*
X0173557Y0086753D01*
X0173350Y0086750D01*
M02*
