G75*
%MOIN*%
%OFA0B0*%
%FSLAX25Y25*%
%IPPOS*%
%LPD*%
%AMOC8*
5,1,8,0,0,1.08239X$1,22.5*
%
%ADD10C,0.06000*%
%ADD11OC8,0.06502*%
%ADD12OC8,0.16148*%
%ADD13C,0.08077*%
%ADD14C,0.07000*%
%ADD15C,0.07000*%
%ADD16C,0.13400*%
%ADD17OC8,0.05600*%
%ADD18C,0.06400*%
%ADD19C,0.05600*%
%ADD20OC8,0.06700*%
%ADD21C,0.06700*%
%ADD22OC8,0.06400*%
%ADD23OC8,0.07400*%
D10*
X0120850Y0046850D02*
X0120850Y0049650D01*
X0130850Y0049650D02*
X0130850Y0046850D01*
X0140850Y0046850D02*
X0140850Y0049650D01*
X0150850Y0049650D02*
X0150850Y0046850D01*
X0160850Y0046850D02*
X0160850Y0049650D01*
X0170850Y0049650D02*
X0170850Y0046850D01*
X0180850Y0046850D02*
X0180850Y0049650D01*
X0190850Y0049650D02*
X0190850Y0046850D01*
X0200850Y0046850D02*
X0200850Y0049650D01*
X0210850Y0049650D02*
X0210850Y0046850D01*
X0220850Y0046850D02*
X0220850Y0049650D01*
X0230850Y0049650D02*
X0230850Y0046850D01*
X0240850Y0046850D02*
X0240850Y0049650D01*
X0250850Y0049650D02*
X0250850Y0046850D01*
X0250850Y0076850D02*
X0250850Y0079650D01*
X0240850Y0079650D02*
X0240850Y0076850D01*
X0230850Y0076850D02*
X0230850Y0079650D01*
X0220850Y0079650D02*
X0220850Y0076850D01*
X0210850Y0076850D02*
X0210850Y0079650D01*
X0200850Y0079650D02*
X0200850Y0076850D01*
X0190850Y0076850D02*
X0190850Y0079650D01*
X0180850Y0079650D02*
X0180850Y0076850D01*
X0170850Y0076850D02*
X0170850Y0079650D01*
X0160850Y0079650D02*
X0160850Y0076850D01*
X0150850Y0076850D02*
X0150850Y0079650D01*
X0140850Y0079650D02*
X0140850Y0076850D01*
X0130850Y0076850D02*
X0130850Y0079650D01*
X0120850Y0079650D02*
X0120850Y0076850D01*
D11*
X0260850Y0113250D03*
X0270850Y0113250D03*
X0280850Y0113250D03*
X0280850Y0123250D03*
X0270850Y0123250D03*
X0260850Y0123250D03*
D12*
X0054350Y0073450D03*
X0030750Y0073450D03*
X0042550Y0053750D03*
D13*
X0039550Y0053750D03*
X0045550Y0053750D03*
X0054350Y0070450D03*
X0054350Y0076450D03*
X0030750Y0076450D03*
X0030750Y0070450D03*
D14*
X0020850Y0033250D03*
X0060850Y0033250D03*
D15*
X0089200Y0103250D02*
X0092500Y0103250D01*
X0092500Y0113250D02*
X0089200Y0113250D01*
X0089200Y0123250D02*
X0092500Y0123250D01*
D16*
X0031850Y0113250D03*
D17*
X0120850Y0103250D03*
X0120850Y0093250D03*
X0100850Y0063250D03*
X0060850Y0063250D03*
X0200850Y0093250D03*
X0200850Y0103250D03*
X0240850Y0103250D03*
X0250850Y0103250D03*
X0250850Y0093250D03*
X0240850Y0093250D03*
X0275850Y0073250D03*
X0285850Y0073250D03*
X0290850Y0093250D03*
X0290850Y0103250D03*
X0259850Y0032250D03*
X0219850Y0032250D03*
D18*
X0271950Y0031950D02*
X0271950Y0028950D01*
X0289750Y0028950D02*
X0289750Y0031950D01*
X0289750Y0054550D02*
X0289750Y0057550D01*
X0271950Y0057550D02*
X0271950Y0054550D01*
D19*
X0170850Y0093250D03*
X0151850Y0093250D03*
D20*
X0190850Y0093250D03*
X0190850Y0103250D03*
X0170850Y0113250D03*
X0150850Y0113250D03*
X0150850Y0123250D03*
X0170850Y0123250D03*
X0086850Y0083250D03*
X0087350Y0043250D03*
X0109850Y0043250D03*
X0109850Y0033250D03*
X0180850Y0031750D03*
X0190850Y0031750D03*
X0200850Y0031750D03*
X0210850Y0031750D03*
D21*
X0100850Y0083250D03*
X0073350Y0043250D03*
D22*
X0100850Y0013250D03*
X0110850Y0013250D03*
X0120850Y0013250D03*
X0130850Y0013250D03*
X0140850Y0013250D03*
X0150850Y0013250D03*
X0240850Y0013250D03*
X0250850Y0013250D03*
X0260850Y0013250D03*
X0270850Y0013250D03*
X0280850Y0013250D03*
X0290850Y0013250D03*
X0240850Y0123250D03*
X0230850Y0123250D03*
X0220850Y0123250D03*
X0210850Y0123250D03*
X0200850Y0123250D03*
X0190850Y0123250D03*
D23*
X0020850Y0013250D03*
X0030850Y0013250D03*
X0040850Y0013250D03*
X0050850Y0013250D03*
X0060850Y0013250D03*
X0070850Y0013250D03*
X0080850Y0013250D03*
X0090850Y0013250D03*
X0160850Y0013250D03*
X0170850Y0013250D03*
X0180850Y0013250D03*
X0190850Y0013250D03*
X0200850Y0013250D03*
X0210850Y0013250D03*
X0220850Y0013250D03*
X0230850Y0013250D03*
M02*
