G75*
%MOIN*%
%OFA0B0*%
%FSLAX25Y25*%
%IPPOS*%
%LPD*%
%AMOC8*
5,1,8,0,0,1.08239X$1,22.5*
%
%ADD10C,0.01000*%
%ADD11C,0.05600*%
%ADD12OC8,0.06102*%
%ADD13OC8,0.15748*%
%ADD14R,0.15748X0.15748*%
%ADD15C,0.07677*%
%ADD16C,0.06600*%
%ADD17C,0.06600*%
%ADD18C,0.00000*%
%ADD19OC8,0.04800*%
%ADD20C,0.06000*%
%ADD21C,0.04800*%
%ADD22OC8,0.06300*%
%ADD23C,0.06300*%
%ADD24OC8,0.06000*%
%ADD25OC8,0.07000*%
%ADD26C,0.02000*%
%ADD27C,0.03562*%
%ADD28OC8,0.03562*%
%ADD29OC8,0.02400*%
D10*
X0020850Y0003250D02*
X0290850Y0003250D01*
X0291092Y0003253D01*
X0291333Y0003262D01*
X0291574Y0003276D01*
X0291815Y0003297D01*
X0292055Y0003323D01*
X0292295Y0003355D01*
X0292534Y0003393D01*
X0292771Y0003436D01*
X0293008Y0003486D01*
X0293243Y0003541D01*
X0293477Y0003601D01*
X0293709Y0003668D01*
X0293940Y0003739D01*
X0294169Y0003817D01*
X0294396Y0003900D01*
X0294621Y0003988D01*
X0294844Y0004082D01*
X0295064Y0004181D01*
X0295282Y0004286D01*
X0295497Y0004395D01*
X0295710Y0004510D01*
X0295920Y0004630D01*
X0296126Y0004755D01*
X0296330Y0004885D01*
X0296531Y0005020D01*
X0296728Y0005160D01*
X0296922Y0005304D01*
X0297112Y0005453D01*
X0297298Y0005607D01*
X0297481Y0005765D01*
X0297660Y0005927D01*
X0297835Y0006094D01*
X0298006Y0006265D01*
X0298173Y0006440D01*
X0298335Y0006619D01*
X0298493Y0006802D01*
X0298647Y0006988D01*
X0298796Y0007178D01*
X0298940Y0007372D01*
X0299080Y0007569D01*
X0299215Y0007770D01*
X0299345Y0007974D01*
X0299470Y0008180D01*
X0299590Y0008390D01*
X0299705Y0008603D01*
X0299814Y0008818D01*
X0299919Y0009036D01*
X0300018Y0009256D01*
X0300112Y0009479D01*
X0300200Y0009704D01*
X0300283Y0009931D01*
X0300361Y0010160D01*
X0300432Y0010391D01*
X0300499Y0010623D01*
X0300559Y0010857D01*
X0300614Y0011092D01*
X0300664Y0011329D01*
X0300707Y0011566D01*
X0300745Y0011805D01*
X0300777Y0012045D01*
X0300803Y0012285D01*
X0300824Y0012526D01*
X0300838Y0012767D01*
X0300847Y0013008D01*
X0300850Y0013250D01*
X0300850Y0123250D01*
X0300847Y0123492D01*
X0300838Y0123733D01*
X0300824Y0123974D01*
X0300803Y0124215D01*
X0300777Y0124455D01*
X0300745Y0124695D01*
X0300707Y0124934D01*
X0300664Y0125171D01*
X0300614Y0125408D01*
X0300559Y0125643D01*
X0300499Y0125877D01*
X0300432Y0126109D01*
X0300361Y0126340D01*
X0300283Y0126569D01*
X0300200Y0126796D01*
X0300112Y0127021D01*
X0300018Y0127244D01*
X0299919Y0127464D01*
X0299814Y0127682D01*
X0299705Y0127897D01*
X0299590Y0128110D01*
X0299470Y0128320D01*
X0299345Y0128526D01*
X0299215Y0128730D01*
X0299080Y0128931D01*
X0298940Y0129128D01*
X0298796Y0129322D01*
X0298647Y0129512D01*
X0298493Y0129698D01*
X0298335Y0129881D01*
X0298173Y0130060D01*
X0298006Y0130235D01*
X0297835Y0130406D01*
X0297660Y0130573D01*
X0297481Y0130735D01*
X0297298Y0130893D01*
X0297112Y0131047D01*
X0296922Y0131196D01*
X0296728Y0131340D01*
X0296531Y0131480D01*
X0296330Y0131615D01*
X0296126Y0131745D01*
X0295920Y0131870D01*
X0295710Y0131990D01*
X0295497Y0132105D01*
X0295282Y0132214D01*
X0295064Y0132319D01*
X0294844Y0132418D01*
X0294621Y0132512D01*
X0294396Y0132600D01*
X0294169Y0132683D01*
X0293940Y0132761D01*
X0293709Y0132832D01*
X0293477Y0132899D01*
X0293243Y0132959D01*
X0293008Y0133014D01*
X0292771Y0133064D01*
X0292534Y0133107D01*
X0292295Y0133145D01*
X0292055Y0133177D01*
X0291815Y0133203D01*
X0291574Y0133224D01*
X0291333Y0133238D01*
X0291092Y0133247D01*
X0290850Y0133250D01*
X0020850Y0133250D01*
X0020608Y0133247D01*
X0020367Y0133238D01*
X0020126Y0133224D01*
X0019885Y0133203D01*
X0019645Y0133177D01*
X0019405Y0133145D01*
X0019166Y0133107D01*
X0018929Y0133064D01*
X0018692Y0133014D01*
X0018457Y0132959D01*
X0018223Y0132899D01*
X0017991Y0132832D01*
X0017760Y0132761D01*
X0017531Y0132683D01*
X0017304Y0132600D01*
X0017079Y0132512D01*
X0016856Y0132418D01*
X0016636Y0132319D01*
X0016418Y0132214D01*
X0016203Y0132105D01*
X0015990Y0131990D01*
X0015780Y0131870D01*
X0015574Y0131745D01*
X0015370Y0131615D01*
X0015169Y0131480D01*
X0014972Y0131340D01*
X0014778Y0131196D01*
X0014588Y0131047D01*
X0014402Y0130893D01*
X0014219Y0130735D01*
X0014040Y0130573D01*
X0013865Y0130406D01*
X0013694Y0130235D01*
X0013527Y0130060D01*
X0013365Y0129881D01*
X0013207Y0129698D01*
X0013053Y0129512D01*
X0012904Y0129322D01*
X0012760Y0129128D01*
X0012620Y0128931D01*
X0012485Y0128730D01*
X0012355Y0128526D01*
X0012230Y0128320D01*
X0012110Y0128110D01*
X0011995Y0127897D01*
X0011886Y0127682D01*
X0011781Y0127464D01*
X0011682Y0127244D01*
X0011588Y0127021D01*
X0011500Y0126796D01*
X0011417Y0126569D01*
X0011339Y0126340D01*
X0011268Y0126109D01*
X0011201Y0125877D01*
X0011141Y0125643D01*
X0011086Y0125408D01*
X0011036Y0125171D01*
X0010993Y0124934D01*
X0010955Y0124695D01*
X0010923Y0124455D01*
X0010897Y0124215D01*
X0010876Y0123974D01*
X0010862Y0123733D01*
X0010853Y0123492D01*
X0010850Y0123250D01*
X0010850Y0013250D01*
X0010853Y0013008D01*
X0010862Y0012767D01*
X0010876Y0012526D01*
X0010897Y0012285D01*
X0010923Y0012045D01*
X0010955Y0011805D01*
X0010993Y0011566D01*
X0011036Y0011329D01*
X0011086Y0011092D01*
X0011141Y0010857D01*
X0011201Y0010623D01*
X0011268Y0010391D01*
X0011339Y0010160D01*
X0011417Y0009931D01*
X0011500Y0009704D01*
X0011588Y0009479D01*
X0011682Y0009256D01*
X0011781Y0009036D01*
X0011886Y0008818D01*
X0011995Y0008603D01*
X0012110Y0008390D01*
X0012230Y0008180D01*
X0012355Y0007974D01*
X0012485Y0007770D01*
X0012620Y0007569D01*
X0012760Y0007372D01*
X0012904Y0007178D01*
X0013053Y0006988D01*
X0013207Y0006802D01*
X0013365Y0006619D01*
X0013527Y0006440D01*
X0013694Y0006265D01*
X0013865Y0006094D01*
X0014040Y0005927D01*
X0014219Y0005765D01*
X0014402Y0005607D01*
X0014588Y0005453D01*
X0014778Y0005304D01*
X0014972Y0005160D01*
X0015169Y0005020D01*
X0015370Y0004885D01*
X0015574Y0004755D01*
X0015780Y0004630D01*
X0015990Y0004510D01*
X0016203Y0004395D01*
X0016418Y0004286D01*
X0016636Y0004181D01*
X0016856Y0004082D01*
X0017079Y0003988D01*
X0017304Y0003900D01*
X0017531Y0003817D01*
X0017760Y0003739D01*
X0017991Y0003668D01*
X0018223Y0003601D01*
X0018457Y0003541D01*
X0018692Y0003486D01*
X0018929Y0003436D01*
X0019166Y0003393D01*
X0019405Y0003355D01*
X0019645Y0003323D01*
X0019885Y0003297D01*
X0020126Y0003276D01*
X0020367Y0003262D01*
X0020608Y0003253D01*
X0020850Y0003250D01*
X0030850Y0013250D02*
X0030850Y0015250D01*
X0076450Y0060850D01*
X0128450Y0060850D01*
X0140450Y0072850D01*
X0140450Y0077650D01*
X0140850Y0078250D01*
X0147650Y0072050D02*
X0150850Y0075250D01*
X0150850Y0078250D01*
X0156450Y0073650D02*
X0156450Y0083250D01*
X0157250Y0084050D01*
X0157250Y0085650D01*
X0156450Y0086450D01*
X0156450Y0087250D01*
X0158850Y0089650D01*
X0158850Y0093650D01*
X0177250Y0112050D01*
X0251650Y0112050D01*
X0258050Y0118450D01*
X0262850Y0118450D01*
X0267650Y0123250D01*
X0270850Y0123250D01*
X0249850Y0120250D02*
X0247850Y0118250D01*
X0217850Y0118250D01*
X0215850Y0120250D01*
X0215850Y0126250D01*
X0213350Y0128750D01*
X0203850Y0128750D01*
X0200850Y0125750D01*
X0200850Y0123250D01*
X0196450Y0109650D02*
X0246850Y0109650D01*
X0250850Y0105650D01*
X0250850Y0103250D01*
X0240850Y0103250D02*
X0238850Y0103250D01*
X0233250Y0097650D01*
X0233250Y0085650D01*
X0230850Y0083250D01*
X0230850Y0078250D01*
X0230850Y0075250D01*
X0227650Y0072050D01*
X0227650Y0071250D01*
X0216450Y0060050D01*
X0192450Y0060050D01*
X0191650Y0063250D02*
X0186050Y0057650D01*
X0178850Y0057650D02*
X0178850Y0055250D01*
X0176450Y0052850D01*
X0176450Y0044850D01*
X0166050Y0034450D01*
X0155650Y0034450D01*
X0135650Y0014450D01*
X0135650Y0011250D01*
X0132450Y0008050D01*
X0129250Y0008050D01*
X0126050Y0011250D01*
X0126050Y0014450D01*
X0123650Y0016850D01*
X0123650Y0019250D01*
X0122050Y0020850D01*
X0097250Y0020850D01*
X0093250Y0016850D01*
X0093250Y0016050D01*
X0090850Y0013650D01*
X0090850Y0013250D01*
X0081250Y0013650D02*
X0080850Y0013250D01*
X0081250Y0013650D02*
X0081250Y0015250D01*
X0090850Y0024850D01*
X0127650Y0024850D01*
X0144450Y0041650D01*
X0144450Y0042450D01*
X0145250Y0043250D01*
X0145250Y0052050D01*
X0147650Y0054450D01*
X0147650Y0055250D01*
X0141250Y0053650D02*
X0141250Y0048850D01*
X0140850Y0048250D01*
X0141250Y0053650D02*
X0158850Y0071250D01*
X0156450Y0073650D01*
X0147650Y0072050D02*
X0147650Y0071250D01*
X0134850Y0058450D01*
X0114050Y0058450D01*
X0098050Y0042450D01*
X0098050Y0038450D01*
X0081250Y0021650D01*
X0047650Y0021650D01*
X0041250Y0015250D01*
X0041250Y0013650D01*
X0040850Y0013250D01*
X0060850Y0013250D02*
X0061250Y0013650D01*
X0063650Y0013650D01*
X0068450Y0018450D01*
X0073250Y0018450D01*
X0075650Y0016050D01*
X0076450Y0016050D01*
X0078850Y0018450D01*
X0081250Y0018450D01*
X0100450Y0037650D01*
X0100450Y0040850D01*
X0111650Y0052050D01*
X0120450Y0048050D02*
X0120850Y0048250D01*
X0120450Y0048050D02*
X0120450Y0042450D01*
X0117250Y0039250D01*
X0117250Y0038450D01*
X0150850Y0016050D02*
X0158850Y0024050D01*
X0222850Y0024050D01*
X0226050Y0027250D01*
X0222850Y0030450D01*
X0222050Y0030450D01*
X0220450Y0032050D01*
X0219850Y0032250D01*
X0226050Y0027250D02*
X0228450Y0024850D01*
X0263650Y0024850D01*
X0269250Y0030450D01*
X0271950Y0030450D01*
X0272450Y0030450D01*
X0272450Y0036050D01*
X0275650Y0039250D01*
X0275650Y0047250D01*
X0272450Y0050450D01*
X0272450Y0056050D01*
X0271950Y0056050D01*
X0220850Y0078250D02*
X0220450Y0078450D01*
X0220450Y0082450D01*
X0210050Y0092850D01*
X0200450Y0086450D02*
X0198850Y0088050D01*
X0198850Y0089650D01*
X0195650Y0092850D01*
X0195650Y0096050D01*
X0190850Y0093250D02*
X0190850Y0092850D01*
X0197250Y0086450D01*
X0197250Y0084850D01*
X0196450Y0084050D01*
X0200450Y0086450D02*
X0200450Y0078450D01*
X0200850Y0078250D01*
X0210850Y0078250D02*
X0210850Y0069650D01*
X0209250Y0068050D01*
X0209250Y0067250D01*
X0205250Y0063250D01*
X0191650Y0063250D01*
X0189250Y0068050D02*
X0178850Y0057650D01*
X0189250Y0068050D02*
X0206050Y0068050D01*
X0190850Y0103250D02*
X0193250Y0105650D01*
X0193250Y0106450D01*
X0196450Y0109650D01*
X0105250Y0100850D02*
X0095650Y0091250D01*
X0086050Y0091250D01*
X0100450Y0064050D02*
X0115650Y0064050D01*
X0027350Y0039250D02*
X0027350Y0025750D01*
X0025850Y0024250D01*
X0027350Y0039250D02*
X0025850Y0040750D01*
X0025850Y0043750D01*
X0150850Y0016050D02*
X0150850Y0013250D01*
X0190850Y0020850D02*
X0191650Y0021650D01*
X0204450Y0021650D01*
X0210850Y0015250D01*
X0210850Y0013250D01*
D11*
X0210850Y0045450D02*
X0210850Y0051050D01*
X0200850Y0051050D02*
X0200850Y0045450D01*
X0190850Y0045450D02*
X0190850Y0051050D01*
X0180850Y0051050D02*
X0180850Y0045450D01*
X0170850Y0045450D02*
X0170850Y0051050D01*
X0160850Y0051050D02*
X0160850Y0045450D01*
X0150850Y0045450D02*
X0150850Y0051050D01*
X0140850Y0051050D02*
X0140850Y0045450D01*
X0130850Y0045450D02*
X0130850Y0051050D01*
X0120850Y0051050D02*
X0120850Y0045450D01*
X0120850Y0075450D02*
X0120850Y0081050D01*
X0130850Y0081050D02*
X0130850Y0075450D01*
X0140850Y0075450D02*
X0140850Y0081050D01*
X0150850Y0081050D02*
X0150850Y0075450D01*
X0160850Y0075450D02*
X0160850Y0081050D01*
X0170850Y0081050D02*
X0170850Y0075450D01*
X0180850Y0075450D02*
X0180850Y0081050D01*
X0190850Y0081050D02*
X0190850Y0075450D01*
X0200850Y0075450D02*
X0200850Y0081050D01*
X0210850Y0081050D02*
X0210850Y0075450D01*
X0220850Y0075450D02*
X0220850Y0081050D01*
X0230850Y0081050D02*
X0230850Y0075450D01*
X0240850Y0075450D02*
X0240850Y0081050D01*
X0250850Y0081050D02*
X0250850Y0075450D01*
X0250850Y0051050D02*
X0250850Y0045450D01*
X0240850Y0045450D02*
X0240850Y0051050D01*
X0230850Y0051050D02*
X0230850Y0045450D01*
X0220850Y0045450D02*
X0220850Y0051050D01*
D12*
X0260850Y0113250D03*
X0270850Y0113250D03*
X0280850Y0113250D03*
X0280850Y0123250D03*
X0270850Y0123250D03*
X0260850Y0123250D03*
D13*
X0054350Y0073450D03*
X0042550Y0053750D03*
D14*
X0030750Y0073450D03*
D15*
X0030750Y0070450D03*
X0030750Y0076450D03*
X0054350Y0076450D03*
X0054350Y0070450D03*
X0045550Y0053750D03*
X0039550Y0053750D03*
D16*
X0020850Y0033250D03*
X0060850Y0033250D03*
D17*
X0087050Y0100750D02*
X0093650Y0100750D01*
X0093650Y0110750D02*
X0087050Y0110750D01*
X0087050Y0120750D02*
X0093650Y0120750D01*
D18*
X0024850Y0110750D02*
X0024852Y0110911D01*
X0024858Y0111071D01*
X0024868Y0111232D01*
X0024882Y0111392D01*
X0024900Y0111552D01*
X0024921Y0111711D01*
X0024947Y0111870D01*
X0024977Y0112028D01*
X0025010Y0112185D01*
X0025048Y0112342D01*
X0025089Y0112497D01*
X0025134Y0112651D01*
X0025183Y0112804D01*
X0025236Y0112956D01*
X0025292Y0113107D01*
X0025353Y0113256D01*
X0025416Y0113404D01*
X0025484Y0113550D01*
X0025555Y0113694D01*
X0025629Y0113836D01*
X0025707Y0113977D01*
X0025789Y0114115D01*
X0025874Y0114252D01*
X0025962Y0114386D01*
X0026054Y0114518D01*
X0026149Y0114648D01*
X0026247Y0114776D01*
X0026348Y0114901D01*
X0026452Y0115023D01*
X0026559Y0115143D01*
X0026669Y0115260D01*
X0026782Y0115375D01*
X0026898Y0115486D01*
X0027017Y0115595D01*
X0027138Y0115700D01*
X0027262Y0115803D01*
X0027388Y0115903D01*
X0027516Y0115999D01*
X0027647Y0116092D01*
X0027781Y0116182D01*
X0027916Y0116269D01*
X0028054Y0116352D01*
X0028193Y0116432D01*
X0028335Y0116508D01*
X0028478Y0116581D01*
X0028623Y0116650D01*
X0028770Y0116716D01*
X0028918Y0116778D01*
X0029068Y0116836D01*
X0029219Y0116891D01*
X0029372Y0116942D01*
X0029526Y0116989D01*
X0029681Y0117032D01*
X0029837Y0117071D01*
X0029993Y0117107D01*
X0030151Y0117138D01*
X0030309Y0117166D01*
X0030468Y0117190D01*
X0030628Y0117210D01*
X0030788Y0117226D01*
X0030948Y0117238D01*
X0031109Y0117246D01*
X0031270Y0117250D01*
X0031430Y0117250D01*
X0031591Y0117246D01*
X0031752Y0117238D01*
X0031912Y0117226D01*
X0032072Y0117210D01*
X0032232Y0117190D01*
X0032391Y0117166D01*
X0032549Y0117138D01*
X0032707Y0117107D01*
X0032863Y0117071D01*
X0033019Y0117032D01*
X0033174Y0116989D01*
X0033328Y0116942D01*
X0033481Y0116891D01*
X0033632Y0116836D01*
X0033782Y0116778D01*
X0033930Y0116716D01*
X0034077Y0116650D01*
X0034222Y0116581D01*
X0034365Y0116508D01*
X0034507Y0116432D01*
X0034646Y0116352D01*
X0034784Y0116269D01*
X0034919Y0116182D01*
X0035053Y0116092D01*
X0035184Y0115999D01*
X0035312Y0115903D01*
X0035438Y0115803D01*
X0035562Y0115700D01*
X0035683Y0115595D01*
X0035802Y0115486D01*
X0035918Y0115375D01*
X0036031Y0115260D01*
X0036141Y0115143D01*
X0036248Y0115023D01*
X0036352Y0114901D01*
X0036453Y0114776D01*
X0036551Y0114648D01*
X0036646Y0114518D01*
X0036738Y0114386D01*
X0036826Y0114252D01*
X0036911Y0114115D01*
X0036993Y0113977D01*
X0037071Y0113836D01*
X0037145Y0113694D01*
X0037216Y0113550D01*
X0037284Y0113404D01*
X0037347Y0113256D01*
X0037408Y0113107D01*
X0037464Y0112956D01*
X0037517Y0112804D01*
X0037566Y0112651D01*
X0037611Y0112497D01*
X0037652Y0112342D01*
X0037690Y0112185D01*
X0037723Y0112028D01*
X0037753Y0111870D01*
X0037779Y0111711D01*
X0037800Y0111552D01*
X0037818Y0111392D01*
X0037832Y0111232D01*
X0037842Y0111071D01*
X0037848Y0110911D01*
X0037850Y0110750D01*
X0037848Y0110589D01*
X0037842Y0110429D01*
X0037832Y0110268D01*
X0037818Y0110108D01*
X0037800Y0109948D01*
X0037779Y0109789D01*
X0037753Y0109630D01*
X0037723Y0109472D01*
X0037690Y0109315D01*
X0037652Y0109158D01*
X0037611Y0109003D01*
X0037566Y0108849D01*
X0037517Y0108696D01*
X0037464Y0108544D01*
X0037408Y0108393D01*
X0037347Y0108244D01*
X0037284Y0108096D01*
X0037216Y0107950D01*
X0037145Y0107806D01*
X0037071Y0107664D01*
X0036993Y0107523D01*
X0036911Y0107385D01*
X0036826Y0107248D01*
X0036738Y0107114D01*
X0036646Y0106982D01*
X0036551Y0106852D01*
X0036453Y0106724D01*
X0036352Y0106599D01*
X0036248Y0106477D01*
X0036141Y0106357D01*
X0036031Y0106240D01*
X0035918Y0106125D01*
X0035802Y0106014D01*
X0035683Y0105905D01*
X0035562Y0105800D01*
X0035438Y0105697D01*
X0035312Y0105597D01*
X0035184Y0105501D01*
X0035053Y0105408D01*
X0034919Y0105318D01*
X0034784Y0105231D01*
X0034646Y0105148D01*
X0034507Y0105068D01*
X0034365Y0104992D01*
X0034222Y0104919D01*
X0034077Y0104850D01*
X0033930Y0104784D01*
X0033782Y0104722D01*
X0033632Y0104664D01*
X0033481Y0104609D01*
X0033328Y0104558D01*
X0033174Y0104511D01*
X0033019Y0104468D01*
X0032863Y0104429D01*
X0032707Y0104393D01*
X0032549Y0104362D01*
X0032391Y0104334D01*
X0032232Y0104310D01*
X0032072Y0104290D01*
X0031912Y0104274D01*
X0031752Y0104262D01*
X0031591Y0104254D01*
X0031430Y0104250D01*
X0031270Y0104250D01*
X0031109Y0104254D01*
X0030948Y0104262D01*
X0030788Y0104274D01*
X0030628Y0104290D01*
X0030468Y0104310D01*
X0030309Y0104334D01*
X0030151Y0104362D01*
X0029993Y0104393D01*
X0029837Y0104429D01*
X0029681Y0104468D01*
X0029526Y0104511D01*
X0029372Y0104558D01*
X0029219Y0104609D01*
X0029068Y0104664D01*
X0028918Y0104722D01*
X0028770Y0104784D01*
X0028623Y0104850D01*
X0028478Y0104919D01*
X0028335Y0104992D01*
X0028193Y0105068D01*
X0028054Y0105148D01*
X0027916Y0105231D01*
X0027781Y0105318D01*
X0027647Y0105408D01*
X0027516Y0105501D01*
X0027388Y0105597D01*
X0027262Y0105697D01*
X0027138Y0105800D01*
X0027017Y0105905D01*
X0026898Y0106014D01*
X0026782Y0106125D01*
X0026669Y0106240D01*
X0026559Y0106357D01*
X0026452Y0106477D01*
X0026348Y0106599D01*
X0026247Y0106724D01*
X0026149Y0106852D01*
X0026054Y0106982D01*
X0025962Y0107114D01*
X0025874Y0107248D01*
X0025789Y0107385D01*
X0025707Y0107523D01*
X0025629Y0107664D01*
X0025555Y0107806D01*
X0025484Y0107950D01*
X0025416Y0108096D01*
X0025353Y0108244D01*
X0025292Y0108393D01*
X0025236Y0108544D01*
X0025183Y0108696D01*
X0025134Y0108849D01*
X0025089Y0109003D01*
X0025048Y0109158D01*
X0025010Y0109315D01*
X0024977Y0109472D01*
X0024947Y0109630D01*
X0024921Y0109789D01*
X0024900Y0109948D01*
X0024882Y0110108D01*
X0024868Y0110268D01*
X0024858Y0110429D01*
X0024852Y0110589D01*
X0024850Y0110750D01*
D19*
X0103850Y0113750D03*
X0120850Y0103250D03*
X0120850Y0093250D03*
X0143850Y0113750D03*
X0200850Y0103250D03*
X0200850Y0093250D03*
X0240850Y0093250D03*
X0250850Y0093250D03*
X0250850Y0103250D03*
X0240850Y0103250D03*
X0290850Y0103250D03*
X0290850Y0093250D03*
X0285850Y0073250D03*
X0275850Y0073250D03*
X0259850Y0032250D03*
X0219850Y0032250D03*
D20*
X0271950Y0033450D02*
X0271950Y0027450D01*
X0289750Y0027450D02*
X0289750Y0033450D01*
X0289750Y0053050D02*
X0289750Y0059050D01*
X0271950Y0059050D02*
X0271950Y0053050D01*
D21*
X0170850Y0095250D03*
X0151850Y0095250D03*
D22*
X0155350Y0112750D03*
X0166850Y0112750D03*
X0166850Y0122750D03*
X0155350Y0122750D03*
X0190850Y0103250D03*
X0190850Y0093250D03*
X0089350Y0080750D03*
X0109850Y0043250D03*
X0089850Y0041750D03*
X0109850Y0033250D03*
X0180850Y0031750D03*
X0190850Y0031750D03*
X0200850Y0031750D03*
X0210850Y0031750D03*
D23*
X0103350Y0080750D03*
X0075850Y0041750D03*
D24*
X0100850Y0013250D03*
X0110850Y0013250D03*
X0120850Y0013250D03*
X0130850Y0013250D03*
X0140850Y0013250D03*
X0150850Y0013250D03*
X0240850Y0013250D03*
X0250850Y0013250D03*
X0260850Y0013250D03*
X0270850Y0013250D03*
X0280850Y0013250D03*
X0290850Y0013250D03*
X0240850Y0123250D03*
X0230850Y0123250D03*
X0220850Y0123250D03*
X0210850Y0123250D03*
X0200850Y0123250D03*
X0190850Y0123250D03*
D25*
X0190850Y0013250D03*
X0200850Y0013250D03*
X0210850Y0013250D03*
X0220850Y0013250D03*
X0230850Y0013250D03*
X0180850Y0013250D03*
X0170850Y0013250D03*
X0160850Y0013250D03*
X0090850Y0013250D03*
X0080850Y0013250D03*
X0070850Y0013250D03*
X0060850Y0013250D03*
X0050850Y0013250D03*
X0040850Y0013250D03*
X0030850Y0013250D03*
X0020850Y0013250D03*
D26*
X0016254Y0008654D02*
X0017899Y0007458D01*
X0019833Y0006830D01*
X0020850Y0006750D01*
X0127014Y0006750D01*
X0124218Y0009547D01*
X0122921Y0008250D01*
X0120850Y0008250D01*
X0120850Y0013250D01*
X0120850Y0013250D01*
X0120850Y0018250D01*
X0121114Y0018250D01*
X0121014Y0018350D01*
X0098286Y0018350D01*
X0095907Y0015971D01*
X0096204Y0015675D01*
X0098779Y0018250D01*
X0102921Y0018250D01*
X0105850Y0015321D01*
X0105850Y0013250D01*
X0110850Y0013250D01*
X0110850Y0013250D01*
X0110850Y0018250D01*
X0112921Y0018250D01*
X0115850Y0015321D01*
X0115850Y0013250D01*
X0110850Y0013250D01*
X0110850Y0013250D01*
X0110850Y0013250D01*
X0110850Y0018250D01*
X0108779Y0018250D01*
X0105850Y0015321D01*
X0105850Y0011179D01*
X0108779Y0008250D01*
X0110850Y0008250D01*
X0112921Y0008250D01*
X0115850Y0011179D01*
X0115850Y0013250D01*
X0120850Y0013250D01*
X0120850Y0013250D01*
X0120850Y0013250D01*
X0120850Y0018250D01*
X0118779Y0018250D01*
X0115850Y0015321D01*
X0115850Y0013250D01*
X0110850Y0013250D01*
X0110850Y0008250D01*
X0110850Y0013250D01*
X0110850Y0013250D01*
X0105850Y0013250D01*
X0105850Y0011179D01*
X0102921Y0008250D01*
X0098779Y0008250D01*
X0096204Y0010825D01*
X0093128Y0007750D01*
X0088572Y0007750D01*
X0085850Y0010472D01*
X0083128Y0007750D01*
X0078572Y0007750D01*
X0075850Y0010472D01*
X0073128Y0007750D01*
X0068572Y0007750D01*
X0065850Y0010472D01*
X0063128Y0007750D01*
X0058572Y0007750D01*
X0055850Y0010472D01*
X0053128Y0007750D01*
X0048572Y0007750D01*
X0045850Y0010472D01*
X0043128Y0007750D01*
X0038572Y0007750D01*
X0035850Y0010472D01*
X0033128Y0007750D01*
X0028572Y0007750D01*
X0025850Y0010472D01*
X0023128Y0007750D01*
X0018572Y0007750D01*
X0015350Y0010972D01*
X0015350Y0015528D01*
X0018572Y0018750D01*
X0023128Y0018750D01*
X0025850Y0016028D01*
X0028572Y0018750D01*
X0030814Y0018750D01*
X0075034Y0062969D01*
X0075953Y0063350D01*
X0097250Y0063350D01*
X0097250Y0065375D01*
X0099125Y0067250D01*
X0101775Y0067250D01*
X0102475Y0066550D01*
X0113625Y0066550D01*
X0114325Y0067250D01*
X0116975Y0067250D01*
X0118850Y0065375D01*
X0118850Y0063350D01*
X0127414Y0063350D01*
X0136788Y0072724D01*
X0136781Y0072731D01*
X0136050Y0074495D01*
X0136050Y0082005D01*
X0136781Y0083769D01*
X0138131Y0085119D01*
X0139895Y0085850D01*
X0141805Y0085850D01*
X0143569Y0085119D01*
X0144919Y0083769D01*
X0145650Y0082005D01*
X0145650Y0074495D01*
X0144919Y0072731D01*
X0143569Y0071381D01*
X0141805Y0070650D01*
X0141786Y0070650D01*
X0132086Y0060950D01*
X0133814Y0060950D01*
X0145150Y0072286D01*
X0145150Y0072547D01*
X0145531Y0073466D01*
X0146199Y0074135D01*
X0146050Y0074495D01*
X0146050Y0082005D01*
X0146781Y0083769D01*
X0148131Y0085119D01*
X0149895Y0085850D01*
X0151805Y0085850D01*
X0153569Y0085119D01*
X0154240Y0084448D01*
X0154331Y0084666D01*
X0154514Y0084850D01*
X0154331Y0085034D01*
X0153950Y0085953D01*
X0153950Y0087747D01*
X0154331Y0088666D01*
X0155034Y0089369D01*
X0156350Y0090686D01*
X0156350Y0094147D01*
X0156731Y0095066D01*
X0157434Y0095769D01*
X0175834Y0114169D01*
X0176753Y0114550D01*
X0212907Y0114550D01*
X0209207Y0118250D01*
X0208779Y0118250D01*
X0205850Y0121179D01*
X0205850Y0125321D01*
X0206779Y0126250D01*
X0204921Y0126250D01*
X0205850Y0125321D01*
X0205850Y0121179D01*
X0202921Y0118250D01*
X0198779Y0118250D01*
X0195850Y0121179D01*
X0195850Y0123250D01*
X0195850Y0125321D01*
X0192921Y0128250D01*
X0190850Y0128250D01*
X0190850Y0123250D01*
X0190850Y0123250D01*
X0195850Y0123250D01*
X0190850Y0123250D01*
X0190850Y0123250D01*
X0190850Y0123250D01*
X0185850Y0123250D01*
X0185850Y0125321D01*
X0188779Y0128250D01*
X0190850Y0128250D01*
X0190850Y0123250D01*
X0190850Y0118250D01*
X0192921Y0118250D01*
X0195850Y0121179D01*
X0195850Y0125321D01*
X0198779Y0128250D01*
X0199814Y0128250D01*
X0201314Y0129750D01*
X0020850Y0129750D01*
X0019833Y0129670D01*
X0017899Y0129042D01*
X0016254Y0127846D01*
X0015058Y0126201D01*
X0014430Y0124267D01*
X0014350Y0123250D01*
X0014350Y0013250D01*
X0014430Y0012233D01*
X0015058Y0010299D01*
X0016254Y0008654D01*
X0015824Y0009246D02*
X0017076Y0009246D01*
X0018550Y0007247D02*
X0126517Y0007247D01*
X0124519Y0009246D02*
X0123917Y0009246D01*
X0120850Y0009246D02*
X0120850Y0009246D01*
X0120850Y0008250D02*
X0120850Y0013250D01*
X0115850Y0013250D01*
X0115850Y0011179D01*
X0118779Y0008250D01*
X0120850Y0008250D01*
X0117783Y0009246D02*
X0113917Y0009246D01*
X0110850Y0009246D02*
X0110850Y0009246D01*
X0107783Y0009246D02*
X0103917Y0009246D01*
X0105850Y0011244D02*
X0105850Y0011244D01*
X0105850Y0013243D02*
X0105850Y0013243D01*
X0110850Y0013243D02*
X0110850Y0013243D01*
X0110850Y0011244D02*
X0110850Y0011244D01*
X0115850Y0011244D02*
X0115850Y0011244D01*
X0115850Y0013243D02*
X0115850Y0013243D01*
X0120850Y0013243D02*
X0120850Y0013243D01*
X0120850Y0011244D02*
X0120850Y0011244D01*
X0120850Y0015241D02*
X0120850Y0015241D01*
X0120850Y0017240D02*
X0120850Y0017240D01*
X0117769Y0017240D02*
X0113931Y0017240D01*
X0115850Y0015241D02*
X0115850Y0015241D01*
X0110850Y0015241D02*
X0110850Y0015241D01*
X0110850Y0017240D02*
X0110850Y0017240D01*
X0107769Y0017240D02*
X0103931Y0017240D01*
X0105850Y0015241D02*
X0105850Y0015241D01*
X0097769Y0017240D02*
X0097175Y0017240D01*
X0097783Y0009246D02*
X0094624Y0009246D01*
X0087076Y0009246D02*
X0084624Y0009246D01*
X0077076Y0009246D02*
X0074624Y0009246D01*
X0067076Y0009246D02*
X0064624Y0009246D01*
X0057076Y0009246D02*
X0054624Y0009246D01*
X0047076Y0009246D02*
X0044624Y0009246D01*
X0037076Y0009246D02*
X0034624Y0009246D01*
X0027076Y0009246D02*
X0024624Y0009246D01*
X0015350Y0011244D02*
X0014751Y0011244D01*
X0014351Y0013243D02*
X0015350Y0013243D01*
X0015350Y0015241D02*
X0014350Y0015241D01*
X0014350Y0017240D02*
X0017061Y0017240D01*
X0014350Y0019238D02*
X0031303Y0019238D01*
X0033301Y0021237D02*
X0028184Y0021237D01*
X0027416Y0020469D02*
X0029631Y0022684D01*
X0029631Y0024724D01*
X0029850Y0025253D01*
X0029850Y0039747D01*
X0029469Y0040666D01*
X0028791Y0041344D01*
X0029631Y0042184D01*
X0029631Y0045316D01*
X0027416Y0047531D01*
X0024284Y0047531D01*
X0022069Y0045316D01*
X0022069Y0042184D01*
X0023350Y0040903D01*
X0023350Y0040253D01*
X0023731Y0039334D01*
X0024850Y0038214D01*
X0024850Y0036745D01*
X0023852Y0037743D01*
X0021904Y0038550D01*
X0019796Y0038550D01*
X0017848Y0037743D01*
X0016357Y0036252D01*
X0015550Y0034304D01*
X0015550Y0032196D01*
X0016357Y0030248D01*
X0017848Y0028757D01*
X0019796Y0027950D01*
X0021904Y0027950D01*
X0023852Y0028757D01*
X0024850Y0029755D01*
X0024850Y0028031D01*
X0024284Y0028031D01*
X0022069Y0025816D01*
X0022069Y0022684D01*
X0024284Y0020469D01*
X0027416Y0020469D01*
X0029631Y0023235D02*
X0035300Y0023235D01*
X0037298Y0025234D02*
X0029842Y0025234D01*
X0029850Y0027232D02*
X0039297Y0027232D01*
X0041295Y0029231D02*
X0029850Y0029231D01*
X0024850Y0029231D02*
X0024326Y0029231D01*
X0023485Y0027232D02*
X0014350Y0027232D01*
X0014350Y0029231D02*
X0017374Y0029231D01*
X0015950Y0031229D02*
X0014350Y0031229D01*
X0014350Y0033228D02*
X0015550Y0033228D01*
X0015932Y0035226D02*
X0014350Y0035226D01*
X0014350Y0037225D02*
X0017329Y0037225D01*
X0014350Y0039223D02*
X0023841Y0039223D01*
X0023031Y0041222D02*
X0014350Y0041222D01*
X0014350Y0043220D02*
X0022069Y0043220D01*
X0022069Y0045219D02*
X0014350Y0045219D01*
X0014350Y0047217D02*
X0023970Y0047217D01*
X0027730Y0047217D02*
X0035119Y0047217D01*
X0033120Y0049216D02*
X0014350Y0049216D01*
X0014350Y0051214D02*
X0032676Y0051214D01*
X0032676Y0049660D02*
X0032676Y0053470D01*
X0033711Y0053470D01*
X0033711Y0054030D01*
X0032676Y0054030D01*
X0032676Y0057840D01*
X0038412Y0063576D01*
X0031030Y0063576D01*
X0031030Y0064611D01*
X0030470Y0064611D01*
X0030470Y0063576D01*
X0022613Y0063576D01*
X0022104Y0063712D01*
X0021648Y0063976D01*
X0021276Y0064348D01*
X0021012Y0064804D01*
X0020876Y0065313D01*
X0020876Y0073170D01*
X0025557Y0073170D01*
X0025673Y0073450D01*
X0025557Y0073730D01*
X0020876Y0073730D01*
X0020876Y0081587D01*
X0021012Y0082096D01*
X0021276Y0082552D01*
X0021648Y0082924D01*
X0022104Y0083188D01*
X0022613Y0083324D01*
X0030470Y0083324D01*
X0030470Y0082289D01*
X0031030Y0082289D01*
X0031030Y0083324D01*
X0038887Y0083324D01*
X0039396Y0083188D01*
X0039852Y0082924D01*
X0040224Y0082552D01*
X0040488Y0082096D01*
X0040624Y0081587D01*
X0040624Y0073730D01*
X0035943Y0073730D01*
X0035827Y0073450D01*
X0035943Y0073170D01*
X0040624Y0073170D01*
X0040624Y0065313D01*
X0040488Y0064804D01*
X0040224Y0064348D01*
X0039852Y0063976D01*
X0039396Y0063712D01*
X0039066Y0063624D01*
X0042270Y0063624D01*
X0042270Y0058943D01*
X0042550Y0058827D01*
X0042830Y0058943D01*
X0042830Y0063624D01*
X0046640Y0063624D01*
X0052424Y0057840D01*
X0052424Y0054030D01*
X0051389Y0054030D01*
X0051389Y0053470D01*
X0052424Y0053470D01*
X0052424Y0049660D01*
X0046640Y0043876D01*
X0042830Y0043876D01*
X0042830Y0048557D01*
X0042550Y0048673D01*
X0042270Y0048557D01*
X0042270Y0043876D01*
X0038460Y0043876D01*
X0032676Y0049660D01*
X0032676Y0053213D02*
X0014350Y0053213D01*
X0014350Y0055211D02*
X0032676Y0055211D01*
X0032676Y0057210D02*
X0014350Y0057210D01*
X0014350Y0059208D02*
X0034044Y0059208D01*
X0036043Y0061207D02*
X0014350Y0061207D01*
X0014350Y0063205D02*
X0038041Y0063205D01*
X0042270Y0063205D02*
X0042830Y0063205D01*
X0042830Y0061207D02*
X0042270Y0061207D01*
X0042270Y0059208D02*
X0042830Y0059208D01*
X0049057Y0061207D02*
X0073271Y0061207D01*
X0075603Y0063205D02*
X0047059Y0063205D01*
X0050260Y0063576D02*
X0058440Y0063576D01*
X0064224Y0069360D01*
X0064224Y0077540D01*
X0058440Y0083324D01*
X0050260Y0083324D01*
X0044476Y0077540D01*
X0044476Y0069360D01*
X0050260Y0063576D01*
X0048632Y0065204D02*
X0040595Y0065204D01*
X0040624Y0067202D02*
X0046634Y0067202D01*
X0044635Y0069201D02*
X0040624Y0069201D01*
X0040624Y0071199D02*
X0044476Y0071199D01*
X0044476Y0073198D02*
X0035931Y0073198D01*
X0040624Y0075196D02*
X0044476Y0075196D01*
X0044476Y0077195D02*
X0040624Y0077195D01*
X0040624Y0079193D02*
X0046129Y0079193D01*
X0048128Y0081192D02*
X0040624Y0081192D01*
X0039386Y0083190D02*
X0050127Y0083190D01*
X0058573Y0083190D02*
X0084507Y0083190D01*
X0084200Y0082883D02*
X0084200Y0080750D01*
X0089350Y0080750D01*
X0094500Y0080750D01*
X0094500Y0082883D01*
X0091483Y0085900D01*
X0089350Y0085900D01*
X0089350Y0080750D01*
X0089350Y0080750D01*
X0089350Y0080750D01*
X0094500Y0080750D01*
X0094500Y0078617D01*
X0091483Y0075600D01*
X0089350Y0075600D01*
X0089350Y0080750D01*
X0089350Y0080750D01*
X0089350Y0080750D01*
X0089350Y0085900D01*
X0087217Y0085900D01*
X0084200Y0082883D01*
X0084200Y0081192D02*
X0060572Y0081192D01*
X0062571Y0079193D02*
X0084200Y0079193D01*
X0084200Y0078617D02*
X0087217Y0075600D01*
X0089350Y0075600D01*
X0089350Y0080750D01*
X0084200Y0080750D01*
X0084200Y0078617D01*
X0085622Y0077195D02*
X0064224Y0077195D01*
X0064224Y0075196D02*
X0116050Y0075196D01*
X0116050Y0074495D02*
X0116781Y0072731D01*
X0118131Y0071381D01*
X0119895Y0070650D01*
X0121805Y0070650D01*
X0123569Y0071381D01*
X0124919Y0072731D01*
X0125650Y0074495D01*
X0125650Y0082005D01*
X0124919Y0083769D01*
X0123569Y0085119D01*
X0121805Y0085850D01*
X0119895Y0085850D01*
X0118131Y0085119D01*
X0116781Y0083769D01*
X0116050Y0082005D01*
X0116050Y0074495D01*
X0116587Y0073198D02*
X0064224Y0073198D01*
X0064224Y0071199D02*
X0118569Y0071199D01*
X0123131Y0071199D02*
X0128569Y0071199D01*
X0128131Y0071381D02*
X0129895Y0070650D01*
X0131805Y0070650D01*
X0133569Y0071381D01*
X0134919Y0072731D01*
X0135650Y0074495D01*
X0135650Y0082005D01*
X0134919Y0083769D01*
X0133569Y0085119D01*
X0131805Y0085850D01*
X0129895Y0085850D01*
X0128131Y0085119D01*
X0126781Y0083769D01*
X0126050Y0082005D01*
X0126050Y0074495D01*
X0126781Y0072731D01*
X0128131Y0071381D01*
X0126587Y0073198D02*
X0125113Y0073198D01*
X0125650Y0075196D02*
X0126050Y0075196D01*
X0126050Y0077195D02*
X0125650Y0077195D01*
X0125650Y0079193D02*
X0126050Y0079193D01*
X0126050Y0081192D02*
X0125650Y0081192D01*
X0125159Y0083190D02*
X0126541Y0083190D01*
X0128299Y0085189D02*
X0123401Y0085189D01*
X0118299Y0085189D02*
X0111975Y0085189D01*
X0111793Y0084751D02*
X0112250Y0085853D01*
X0112250Y0107047D01*
X0111793Y0108149D01*
X0108133Y0111810D01*
X0108250Y0111927D01*
X0108250Y0115573D01*
X0105673Y0118150D01*
X0102027Y0118150D01*
X0099450Y0115573D01*
X0099450Y0111927D01*
X0102027Y0109350D01*
X0102107Y0109350D01*
X0106250Y0105207D01*
X0106250Y0104050D01*
X0103925Y0104050D01*
X0102050Y0102175D01*
X0102050Y0101186D01*
X0094614Y0093750D01*
X0088075Y0093750D01*
X0087375Y0094450D01*
X0084725Y0094450D01*
X0082850Y0092575D01*
X0082850Y0089925D01*
X0084725Y0088050D01*
X0087375Y0088050D01*
X0088075Y0088750D01*
X0096147Y0088750D01*
X0097066Y0089131D01*
X0097769Y0089834D01*
X0105586Y0097650D01*
X0106250Y0097650D01*
X0106250Y0087693D01*
X0104433Y0085876D01*
X0104374Y0085900D01*
X0102326Y0085900D01*
X0100433Y0085116D01*
X0098984Y0083667D01*
X0098200Y0081774D01*
X0098200Y0079726D01*
X0098984Y0077833D01*
X0100433Y0076384D01*
X0102326Y0075600D01*
X0104374Y0075600D01*
X0106267Y0076384D01*
X0107716Y0077833D01*
X0108500Y0079726D01*
X0108500Y0081457D01*
X0110949Y0083907D01*
X0110949Y0083907D01*
X0111793Y0084751D01*
X0110233Y0083190D02*
X0116541Y0083190D01*
X0116050Y0081192D02*
X0108500Y0081192D01*
X0103650Y0080850D02*
X0103350Y0080750D01*
X0103650Y0080850D02*
X0109250Y0086450D01*
X0109250Y0106450D01*
X0103650Y0112050D01*
X0103650Y0113650D01*
X0103850Y0113750D01*
X0108250Y0113168D02*
X0139450Y0113168D01*
X0139450Y0111927D02*
X0142027Y0109350D01*
X0145673Y0109350D01*
X0148250Y0111927D01*
X0148250Y0115573D01*
X0145673Y0118150D01*
X0142027Y0118150D01*
X0139450Y0115573D01*
X0139450Y0111927D01*
X0140208Y0111170D02*
X0108773Y0111170D01*
X0110772Y0109171D02*
X0151646Y0109171D01*
X0150200Y0110617D02*
X0153217Y0107600D01*
X0157483Y0107600D01*
X0160500Y0110617D01*
X0160500Y0114883D01*
X0157633Y0117750D01*
X0160500Y0120617D01*
X0160500Y0122750D01*
X0160500Y0124883D01*
X0157483Y0127900D01*
X0155350Y0127900D01*
X0155350Y0122750D01*
X0155350Y0122750D01*
X0160500Y0122750D01*
X0155350Y0122750D01*
X0155350Y0122750D01*
X0155350Y0122750D01*
X0150200Y0122750D01*
X0150200Y0124883D01*
X0153217Y0127900D01*
X0155350Y0127900D01*
X0155350Y0122750D01*
X0150200Y0122750D01*
X0150200Y0120617D01*
X0153067Y0117750D01*
X0150200Y0114883D01*
X0150200Y0110617D01*
X0150200Y0111170D02*
X0147492Y0111170D01*
X0148250Y0113168D02*
X0150200Y0113168D01*
X0150483Y0115167D02*
X0148250Y0115167D01*
X0146657Y0117165D02*
X0152482Y0117165D01*
X0151653Y0119164D02*
X0098730Y0119164D01*
X0098950Y0119696D02*
X0098950Y0121804D01*
X0098143Y0123752D01*
X0096652Y0125243D01*
X0094704Y0126050D01*
X0085996Y0126050D01*
X0084048Y0125243D01*
X0082557Y0123752D01*
X0081750Y0121804D01*
X0081750Y0119696D01*
X0082557Y0117748D01*
X0084048Y0116257D01*
X0085278Y0115747D01*
X0085016Y0115662D01*
X0084272Y0115283D01*
X0083597Y0114793D01*
X0083007Y0114203D01*
X0082517Y0113528D01*
X0082138Y0112784D01*
X0081880Y0111991D01*
X0081750Y0111167D01*
X0081750Y0110850D01*
X0090250Y0110850D01*
X0090250Y0110650D01*
X0081750Y0110650D01*
X0081750Y0110333D01*
X0081880Y0109509D01*
X0082138Y0108716D01*
X0082517Y0107972D01*
X0083007Y0107297D01*
X0083597Y0106707D01*
X0084272Y0106217D01*
X0085016Y0105838D01*
X0085278Y0105753D01*
X0084048Y0105243D01*
X0082557Y0103752D01*
X0081750Y0101804D01*
X0081750Y0099696D01*
X0082557Y0097748D01*
X0084048Y0096257D01*
X0085996Y0095450D01*
X0094704Y0095450D01*
X0096652Y0096257D01*
X0098143Y0097748D01*
X0098950Y0099696D01*
X0098950Y0101804D01*
X0098143Y0103752D01*
X0096652Y0105243D01*
X0095422Y0105753D01*
X0095684Y0105838D01*
X0096428Y0106217D01*
X0097103Y0106707D01*
X0097693Y0107297D01*
X0098183Y0107972D01*
X0098562Y0108716D01*
X0098819Y0109509D01*
X0098950Y0110333D01*
X0098950Y0110650D01*
X0090450Y0110650D01*
X0090450Y0110850D01*
X0098950Y0110850D01*
X0098950Y0111167D01*
X0098819Y0111991D01*
X0098562Y0112784D01*
X0098183Y0113528D01*
X0097693Y0114203D01*
X0097103Y0114793D01*
X0096428Y0115283D01*
X0095684Y0115662D01*
X0095422Y0115747D01*
X0096652Y0116257D01*
X0098143Y0117748D01*
X0098950Y0119696D01*
X0098950Y0121162D02*
X0150200Y0121162D01*
X0150200Y0123161D02*
X0098388Y0123161D01*
X0096736Y0125159D02*
X0150476Y0125159D01*
X0152475Y0127158D02*
X0015754Y0127158D01*
X0018252Y0129156D02*
X0200721Y0129156D01*
X0197687Y0127158D02*
X0194013Y0127158D01*
X0190850Y0127158D02*
X0190850Y0127158D01*
X0187687Y0127158D02*
X0169725Y0127158D01*
X0168983Y0127900D02*
X0166850Y0127900D01*
X0166850Y0122750D01*
X0166850Y0122750D01*
X0172000Y0122750D01*
X0172000Y0124883D01*
X0168983Y0127900D01*
X0166850Y0127900D02*
X0164717Y0127900D01*
X0161700Y0124883D01*
X0161700Y0122750D01*
X0166850Y0122750D01*
X0166850Y0122750D01*
X0166850Y0122750D01*
X0166850Y0127900D01*
X0166850Y0127158D02*
X0166850Y0127158D01*
X0163975Y0127158D02*
X0158225Y0127158D01*
X0155350Y0127158D02*
X0155350Y0127158D01*
X0155350Y0125159D02*
X0155350Y0125159D01*
X0155350Y0123161D02*
X0155350Y0123161D01*
X0160224Y0125159D02*
X0161976Y0125159D01*
X0161700Y0123161D02*
X0160500Y0123161D01*
X0161700Y0122750D02*
X0161700Y0120617D01*
X0164567Y0117750D01*
X0161700Y0114883D01*
X0161700Y0110617D01*
X0164717Y0107600D01*
X0168983Y0107600D01*
X0172000Y0110617D01*
X0172000Y0114883D01*
X0169133Y0117750D01*
X0172000Y0120617D01*
X0172000Y0122750D01*
X0166850Y0122750D01*
X0161700Y0122750D01*
X0161700Y0121162D02*
X0160500Y0121162D01*
X0159047Y0119164D02*
X0163153Y0119164D01*
X0163982Y0117165D02*
X0158218Y0117165D01*
X0160217Y0115167D02*
X0161983Y0115167D01*
X0161700Y0113168D02*
X0160500Y0113168D01*
X0160500Y0111170D02*
X0161700Y0111170D01*
X0163146Y0109171D02*
X0159054Y0109171D01*
X0166839Y0105174D02*
X0125148Y0105174D01*
X0125250Y0105073D02*
X0122673Y0107650D01*
X0119027Y0107650D01*
X0116450Y0105073D01*
X0116450Y0101427D01*
X0119027Y0098850D01*
X0122673Y0098850D01*
X0125250Y0101427D01*
X0125250Y0105073D01*
X0125250Y0103176D02*
X0164840Y0103176D01*
X0162842Y0101177D02*
X0125000Y0101177D01*
X0123001Y0099179D02*
X0149837Y0099179D01*
X0149358Y0098980D02*
X0148120Y0097742D01*
X0147450Y0096125D01*
X0147450Y0094375D01*
X0148120Y0092758D01*
X0149358Y0091520D01*
X0150975Y0090850D01*
X0152725Y0090850D01*
X0154342Y0091520D01*
X0155580Y0092758D01*
X0156250Y0094375D01*
X0156250Y0096125D01*
X0155580Y0097742D01*
X0154342Y0098980D01*
X0152725Y0099650D01*
X0150975Y0099650D01*
X0149358Y0098980D01*
X0147887Y0097180D02*
X0123142Y0097180D01*
X0122673Y0097650D02*
X0120850Y0097650D01*
X0120850Y0093250D01*
X0120850Y0093250D01*
X0125250Y0093250D01*
X0125250Y0095073D01*
X0122673Y0097650D01*
X0120850Y0097650D02*
X0119027Y0097650D01*
X0116450Y0095073D01*
X0116450Y0093250D01*
X0120850Y0093250D01*
X0120850Y0093250D01*
X0120850Y0093250D01*
X0120850Y0097650D01*
X0120850Y0097180D02*
X0120850Y0097180D01*
X0118558Y0097180D02*
X0112250Y0097180D01*
X0112250Y0099179D02*
X0118699Y0099179D01*
X0116700Y0101177D02*
X0112250Y0101177D01*
X0112250Y0103176D02*
X0116450Y0103176D01*
X0116552Y0105174D02*
X0112250Y0105174D01*
X0112198Y0107173D02*
X0118550Y0107173D01*
X0123150Y0107173D02*
X0168837Y0107173D01*
X0170554Y0109171D02*
X0170836Y0109171D01*
X0172000Y0111170D02*
X0172834Y0111170D01*
X0172000Y0113168D02*
X0174833Y0113168D01*
X0171717Y0115167D02*
X0212291Y0115167D01*
X0210292Y0117165D02*
X0169718Y0117165D01*
X0170547Y0119164D02*
X0187865Y0119164D01*
X0188779Y0118250D02*
X0185850Y0121179D01*
X0185850Y0123250D01*
X0190850Y0123250D01*
X0190850Y0123250D01*
X0190850Y0118250D01*
X0188779Y0118250D01*
X0190850Y0119164D02*
X0190850Y0119164D01*
X0190850Y0121162D02*
X0190850Y0121162D01*
X0193835Y0119164D02*
X0197865Y0119164D01*
X0195867Y0121162D02*
X0195833Y0121162D01*
X0195850Y0123161D02*
X0195850Y0123161D01*
X0195850Y0125159D02*
X0195850Y0125159D01*
X0190850Y0125159D02*
X0190850Y0125159D01*
X0190850Y0123161D02*
X0190850Y0123161D01*
X0185850Y0123161D02*
X0172000Y0123161D01*
X0171724Y0125159D02*
X0185850Y0125159D01*
X0185867Y0121162D02*
X0172000Y0121162D01*
X0166850Y0123161D02*
X0166850Y0123161D01*
X0166850Y0125159D02*
X0166850Y0125159D01*
X0141043Y0117165D02*
X0106657Y0117165D01*
X0108250Y0115167D02*
X0139450Y0115167D01*
X0169913Y0101177D02*
X0185700Y0101177D01*
X0185700Y0101117D02*
X0188567Y0098250D01*
X0185700Y0095383D01*
X0185700Y0091117D01*
X0188717Y0088100D01*
X0192064Y0088100D01*
X0194020Y0086145D01*
X0193250Y0085375D01*
X0193250Y0085251D01*
X0191805Y0085850D01*
X0189895Y0085850D01*
X0188131Y0085119D01*
X0186781Y0083769D01*
X0186050Y0082005D01*
X0186050Y0074495D01*
X0186461Y0073503D01*
X0168307Y0055349D01*
X0168228Y0055159D01*
X0168131Y0055119D01*
X0166781Y0053769D01*
X0166050Y0052005D01*
X0166050Y0044495D01*
X0166344Y0043786D01*
X0163207Y0040650D01*
X0152653Y0040650D01*
X0151551Y0040193D01*
X0129607Y0018250D01*
X0128779Y0018250D01*
X0127282Y0016753D01*
X0126150Y0017886D01*
X0126150Y0019747D01*
X0125769Y0020666D01*
X0125066Y0021369D01*
X0124169Y0022266D01*
X0124086Y0022350D01*
X0128147Y0022350D01*
X0129066Y0022731D01*
X0145866Y0039531D01*
X0146569Y0040234D01*
X0146950Y0041153D01*
X0146950Y0041414D01*
X0147369Y0041834D01*
X0147460Y0042052D01*
X0148131Y0041381D01*
X0149895Y0040650D01*
X0151805Y0040650D01*
X0153569Y0041381D01*
X0154919Y0042731D01*
X0155650Y0044495D01*
X0155650Y0052005D01*
X0154919Y0053769D01*
X0153569Y0055119D01*
X0151805Y0055850D01*
X0150850Y0055850D01*
X0150850Y0056575D01*
X0149280Y0058145D01*
X0160969Y0069834D01*
X0161307Y0070650D01*
X0161805Y0070650D01*
X0163569Y0071381D01*
X0164919Y0072731D01*
X0165650Y0074495D01*
X0165650Y0082005D01*
X0164919Y0083769D01*
X0163569Y0085119D01*
X0161805Y0085850D01*
X0159895Y0085850D01*
X0159750Y0085790D01*
X0159750Y0086147D01*
X0159496Y0086760D01*
X0160969Y0088234D01*
X0161350Y0089153D01*
X0161350Y0092614D01*
X0178286Y0109550D01*
X0192814Y0109550D01*
X0191664Y0108400D01*
X0188717Y0108400D01*
X0185700Y0105383D01*
X0185700Y0101117D01*
X0185700Y0103176D02*
X0171911Y0103176D01*
X0173910Y0105174D02*
X0185700Y0105174D01*
X0187489Y0107173D02*
X0175908Y0107173D01*
X0177907Y0109171D02*
X0192436Y0109171D01*
X0203835Y0119164D02*
X0207865Y0119164D01*
X0205867Y0121162D02*
X0205833Y0121162D01*
X0210850Y0120850D02*
X0210850Y0123250D01*
X0205850Y0123161D02*
X0205850Y0123161D01*
X0205850Y0125159D02*
X0205850Y0125159D01*
X0210850Y0120850D02*
X0216450Y0115250D01*
X0250850Y0115250D01*
X0258850Y0123250D01*
X0260850Y0123250D01*
X0255799Y0124441D02*
X0255799Y0125342D01*
X0258758Y0128301D01*
X0262942Y0128301D01*
X0265850Y0125393D01*
X0268758Y0128301D01*
X0272942Y0128301D01*
X0275850Y0125393D01*
X0278758Y0128301D01*
X0280850Y0128301D01*
X0280850Y0123250D01*
X0280850Y0123250D01*
X0285901Y0123250D01*
X0285901Y0125342D01*
X0282942Y0128301D01*
X0280850Y0128301D01*
X0280850Y0123250D01*
X0280850Y0123250D01*
X0285901Y0123250D01*
X0285901Y0121158D01*
X0282993Y0118250D01*
X0285901Y0115342D01*
X0285901Y0111158D01*
X0282942Y0108199D01*
X0278758Y0108199D01*
X0275850Y0111107D01*
X0272942Y0108199D01*
X0268758Y0108199D01*
X0265850Y0111107D01*
X0262942Y0108199D01*
X0258758Y0108199D01*
X0255799Y0111158D01*
X0255799Y0112663D01*
X0253769Y0110634D01*
X0253066Y0109931D01*
X0252147Y0109550D01*
X0250486Y0109550D01*
X0252266Y0107769D01*
X0252266Y0107769D01*
X0252386Y0107650D01*
X0252673Y0107650D01*
X0255250Y0105073D01*
X0255250Y0101427D01*
X0252673Y0098850D01*
X0249027Y0098850D01*
X0246450Y0101427D01*
X0246450Y0105073D01*
X0247171Y0105793D01*
X0245814Y0107150D01*
X0243173Y0107150D01*
X0245250Y0105073D01*
X0245250Y0101427D01*
X0242673Y0098850D01*
X0239027Y0098850D01*
X0238506Y0099371D01*
X0235750Y0096614D01*
X0235750Y0085153D01*
X0235369Y0084234D01*
X0234912Y0083776D01*
X0234919Y0083769D01*
X0235650Y0082005D01*
X0235650Y0074495D01*
X0234919Y0072731D01*
X0233569Y0071381D01*
X0231805Y0070650D01*
X0230107Y0070650D01*
X0229769Y0069834D01*
X0229066Y0069131D01*
X0217866Y0057931D01*
X0216947Y0057550D01*
X0215953Y0057550D01*
X0194475Y0057550D01*
X0193775Y0056850D01*
X0191125Y0056850D01*
X0189955Y0058020D01*
X0189250Y0057314D01*
X0189250Y0056325D01*
X0187375Y0054450D01*
X0184725Y0054450D01*
X0182850Y0056325D01*
X0182850Y0058114D01*
X0181350Y0056614D01*
X0181350Y0055850D01*
X0181805Y0055850D01*
X0183569Y0055119D01*
X0184919Y0053769D01*
X0185650Y0052005D01*
X0185650Y0044495D01*
X0184919Y0042731D01*
X0183569Y0041381D01*
X0181805Y0040650D01*
X0179895Y0040650D01*
X0178131Y0041381D01*
X0177324Y0042188D01*
X0167466Y0032331D01*
X0166547Y0031950D01*
X0156686Y0031950D01*
X0142953Y0018218D01*
X0145850Y0015321D01*
X0145850Y0011179D01*
X0148779Y0008250D01*
X0152921Y0008250D01*
X0155496Y0010825D01*
X0158572Y0007750D01*
X0163128Y0007750D01*
X0165850Y0010472D01*
X0168572Y0007750D01*
X0173128Y0007750D01*
X0175850Y0010472D01*
X0178572Y0007750D01*
X0183128Y0007750D01*
X0185850Y0010472D01*
X0188572Y0007750D01*
X0193128Y0007750D01*
X0195850Y0010472D01*
X0198572Y0007750D01*
X0203128Y0007750D01*
X0205850Y0010472D01*
X0208572Y0007750D01*
X0213128Y0007750D01*
X0215850Y0010472D01*
X0218572Y0007750D01*
X0220850Y0007750D01*
X0223128Y0007750D01*
X0225850Y0010472D01*
X0228572Y0007750D01*
X0233128Y0007750D01*
X0236204Y0010825D01*
X0238779Y0008250D01*
X0242921Y0008250D01*
X0245850Y0011179D01*
X0245850Y0015321D01*
X0242921Y0018250D01*
X0238779Y0018250D01*
X0236204Y0015675D01*
X0233128Y0018750D01*
X0228572Y0018750D01*
X0225850Y0016028D01*
X0223128Y0018750D01*
X0220850Y0018750D01*
X0220850Y0013250D01*
X0220850Y0013250D01*
X0220850Y0018750D01*
X0218572Y0018750D01*
X0215850Y0016028D01*
X0213128Y0018750D01*
X0210886Y0018750D01*
X0208086Y0021550D01*
X0223347Y0021550D01*
X0224266Y0021931D01*
X0226050Y0023714D01*
X0226331Y0023434D01*
X0227034Y0022731D01*
X0227953Y0022350D01*
X0264147Y0022350D01*
X0265066Y0022731D01*
X0267489Y0025154D01*
X0267711Y0024618D01*
X0269118Y0023211D01*
X0270955Y0022450D01*
X0272945Y0022450D01*
X0274782Y0023211D01*
X0276189Y0024618D01*
X0276950Y0026455D01*
X0276950Y0034445D01*
X0276197Y0036262D01*
X0277066Y0037131D01*
X0277769Y0037834D01*
X0278150Y0038753D01*
X0278150Y0047747D01*
X0277769Y0048666D01*
X0276197Y0050238D01*
X0276950Y0052055D01*
X0276950Y0060045D01*
X0276189Y0061882D01*
X0274782Y0063289D01*
X0272945Y0064050D01*
X0270955Y0064050D01*
X0269118Y0063289D01*
X0267711Y0061882D01*
X0266950Y0060045D01*
X0266950Y0052055D01*
X0267711Y0050218D01*
X0269118Y0048811D01*
X0270955Y0048050D01*
X0271314Y0048050D01*
X0273150Y0046214D01*
X0273150Y0040286D01*
X0271314Y0038450D01*
X0270955Y0038450D01*
X0269118Y0037689D01*
X0267711Y0036282D01*
X0266950Y0034445D01*
X0266950Y0031686D01*
X0262614Y0027350D01*
X0229486Y0027350D01*
X0228169Y0028666D01*
X0227466Y0029369D01*
X0224266Y0032569D01*
X0224250Y0032576D01*
X0224250Y0034073D01*
X0221673Y0036650D01*
X0218027Y0036650D01*
X0215630Y0034253D01*
X0212983Y0036900D01*
X0208717Y0036900D01*
X0205850Y0034033D01*
X0202983Y0036900D01*
X0200850Y0036900D01*
X0200850Y0031750D01*
X0200850Y0031750D01*
X0200850Y0026600D01*
X0202983Y0026600D01*
X0205850Y0029467D01*
X0208717Y0026600D01*
X0212983Y0026600D01*
X0216000Y0029617D01*
X0216000Y0029877D01*
X0218027Y0027850D01*
X0221673Y0027850D01*
X0221773Y0027950D01*
X0221814Y0027950D01*
X0222514Y0027250D01*
X0221814Y0026550D01*
X0158353Y0026550D01*
X0157434Y0026169D01*
X0156731Y0025466D01*
X0149514Y0018250D01*
X0148779Y0018250D01*
X0145850Y0015321D01*
X0145850Y0011179D01*
X0142921Y0008250D01*
X0138779Y0008250D01*
X0137482Y0009547D01*
X0137066Y0009131D01*
X0134686Y0006750D01*
X0290850Y0006750D01*
X0291867Y0006830D01*
X0293801Y0007458D01*
X0295446Y0008654D01*
X0296642Y0010299D01*
X0297270Y0012233D01*
X0297350Y0013250D01*
X0297350Y0123250D01*
X0297270Y0124267D01*
X0296642Y0126201D01*
X0295446Y0127846D01*
X0293801Y0129042D01*
X0291867Y0129670D01*
X0290850Y0129750D01*
X0215886Y0129750D01*
X0217266Y0128369D01*
X0217969Y0127666D01*
X0218035Y0127507D01*
X0218779Y0128250D01*
X0222921Y0128250D01*
X0225850Y0125321D01*
X0225850Y0121179D01*
X0225421Y0120750D01*
X0226279Y0120750D01*
X0225850Y0121179D01*
X0225850Y0125321D01*
X0228779Y0128250D01*
X0232921Y0128250D01*
X0235850Y0125321D01*
X0235850Y0121179D01*
X0235421Y0120750D01*
X0236279Y0120750D01*
X0235850Y0121179D01*
X0235850Y0125321D01*
X0238779Y0128250D01*
X0242921Y0128250D01*
X0245850Y0125321D01*
X0245850Y0121179D01*
X0245421Y0120750D01*
X0246069Y0120750D01*
X0246069Y0121816D01*
X0248284Y0124031D01*
X0251416Y0124031D01*
X0253402Y0122045D01*
X0255799Y0124441D01*
X0255799Y0125159D02*
X0245850Y0125159D01*
X0245850Y0123161D02*
X0247413Y0123161D01*
X0246069Y0121162D02*
X0245833Y0121162D01*
X0252287Y0123161D02*
X0254518Y0123161D01*
X0257614Y0127158D02*
X0244013Y0127158D01*
X0237687Y0127158D02*
X0234013Y0127158D01*
X0235850Y0125159D02*
X0235850Y0125159D01*
X0235850Y0123161D02*
X0235850Y0123161D01*
X0235833Y0121162D02*
X0235867Y0121162D01*
X0225867Y0121162D02*
X0225833Y0121162D01*
X0225850Y0123161D02*
X0225850Y0123161D01*
X0225850Y0125159D02*
X0225850Y0125159D01*
X0224013Y0127158D02*
X0227687Y0127158D01*
X0216479Y0129156D02*
X0293448Y0129156D01*
X0295946Y0127158D02*
X0284086Y0127158D01*
X0280850Y0127158D02*
X0280850Y0127158D01*
X0277614Y0127158D02*
X0274086Y0127158D01*
X0267614Y0127158D02*
X0264086Y0127158D01*
X0280850Y0125159D02*
X0280850Y0125159D01*
X0285901Y0125159D02*
X0296980Y0125159D01*
X0297350Y0123161D02*
X0285901Y0123161D01*
X0285901Y0121162D02*
X0297350Y0121162D01*
X0297350Y0119164D02*
X0283907Y0119164D01*
X0284078Y0117165D02*
X0297350Y0117165D01*
X0297350Y0115167D02*
X0285901Y0115167D01*
X0285901Y0113168D02*
X0297350Y0113168D01*
X0297350Y0111170D02*
X0285901Y0111170D01*
X0283915Y0109171D02*
X0297350Y0109171D01*
X0297350Y0107173D02*
X0293150Y0107173D01*
X0292673Y0107650D02*
X0290850Y0107650D01*
X0290850Y0103250D01*
X0295250Y0103250D01*
X0295250Y0105073D01*
X0292673Y0107650D01*
X0290850Y0107650D02*
X0289027Y0107650D01*
X0286450Y0105073D01*
X0286450Y0103250D01*
X0290850Y0103250D01*
X0290850Y0103250D01*
X0290850Y0103250D01*
X0295250Y0103250D01*
X0295250Y0101427D01*
X0292673Y0098850D01*
X0290850Y0098850D01*
X0290850Y0103250D01*
X0290850Y0103250D01*
X0290850Y0103250D01*
X0290850Y0107650D01*
X0290850Y0107173D02*
X0290850Y0107173D01*
X0290850Y0105174D02*
X0290850Y0105174D01*
X0288550Y0107173D02*
X0253150Y0107173D01*
X0255148Y0105174D02*
X0286552Y0105174D01*
X0286450Y0103250D02*
X0286450Y0101427D01*
X0289027Y0098850D01*
X0290850Y0098850D01*
X0290850Y0103250D01*
X0286450Y0103250D01*
X0286450Y0103176D02*
X0255250Y0103176D01*
X0255000Y0101177D02*
X0286700Y0101177D01*
X0288699Y0099179D02*
X0253001Y0099179D01*
X0252673Y0097650D02*
X0249027Y0097650D01*
X0246450Y0095073D01*
X0246450Y0091427D01*
X0249027Y0088850D01*
X0252673Y0088850D01*
X0255250Y0091427D01*
X0255250Y0095073D01*
X0252673Y0097650D01*
X0253142Y0097180D02*
X0288558Y0097180D01*
X0289027Y0097650D02*
X0286450Y0095073D01*
X0286450Y0091427D01*
X0289027Y0088850D01*
X0292673Y0088850D01*
X0295250Y0091427D01*
X0295250Y0095073D01*
X0292673Y0097650D01*
X0289027Y0097650D01*
X0290850Y0099179D02*
X0290850Y0099179D01*
X0293001Y0099179D02*
X0297350Y0099179D01*
X0297350Y0097180D02*
X0293142Y0097180D01*
X0295141Y0095182D02*
X0297350Y0095182D01*
X0297350Y0093183D02*
X0295250Y0093183D01*
X0295007Y0091184D02*
X0297350Y0091184D01*
X0297350Y0089186D02*
X0293009Y0089186D01*
X0288691Y0089186D02*
X0253009Y0089186D01*
X0255007Y0091184D02*
X0286693Y0091184D01*
X0286450Y0093183D02*
X0255250Y0093183D01*
X0255141Y0095182D02*
X0286559Y0095182D01*
X0290850Y0101177D02*
X0290850Y0101177D01*
X0290850Y0103176D02*
X0290850Y0103176D01*
X0295250Y0103176D02*
X0297350Y0103176D01*
X0297350Y0101177D02*
X0295000Y0101177D01*
X0295148Y0105174D02*
X0297350Y0105174D01*
X0277785Y0109171D02*
X0273915Y0109171D01*
X0267785Y0109171D02*
X0263915Y0109171D01*
X0257785Y0109171D02*
X0250864Y0109171D01*
X0254305Y0111170D02*
X0255799Y0111170D01*
X0246552Y0105174D02*
X0245148Y0105174D01*
X0245250Y0103176D02*
X0246450Y0103176D01*
X0246700Y0101177D02*
X0245000Y0101177D01*
X0243001Y0099179D02*
X0248699Y0099179D01*
X0248558Y0097180D02*
X0243142Y0097180D01*
X0242673Y0097650D02*
X0239027Y0097650D01*
X0236450Y0095073D01*
X0236450Y0091427D01*
X0239027Y0088850D01*
X0242673Y0088850D01*
X0245250Y0091427D01*
X0245250Y0095073D01*
X0242673Y0097650D01*
X0245141Y0095182D02*
X0246559Y0095182D01*
X0246450Y0093183D02*
X0245250Y0093183D01*
X0245007Y0091184D02*
X0246693Y0091184D01*
X0248691Y0089186D02*
X0243009Y0089186D01*
X0238691Y0089186D02*
X0235750Y0089186D01*
X0235750Y0091184D02*
X0236693Y0091184D01*
X0236450Y0093183D02*
X0235750Y0093183D01*
X0235750Y0095182D02*
X0236559Y0095182D01*
X0236316Y0097180D02*
X0238558Y0097180D01*
X0238699Y0099179D02*
X0238314Y0099179D01*
X0235750Y0087187D02*
X0297350Y0087187D01*
X0297350Y0085189D02*
X0253401Y0085189D01*
X0253569Y0085119D02*
X0251805Y0085850D01*
X0249895Y0085850D01*
X0248131Y0085119D01*
X0246781Y0083769D01*
X0246050Y0082005D01*
X0246050Y0074495D01*
X0246781Y0072731D01*
X0248131Y0071381D01*
X0249895Y0070650D01*
X0251805Y0070650D01*
X0253569Y0071381D01*
X0254919Y0072731D01*
X0255650Y0074495D01*
X0255650Y0082005D01*
X0254919Y0083769D01*
X0253569Y0085119D01*
X0248299Y0085189D02*
X0243401Y0085189D01*
X0243569Y0085119D02*
X0241805Y0085850D01*
X0239895Y0085850D01*
X0238131Y0085119D01*
X0236781Y0083769D01*
X0236050Y0082005D01*
X0236050Y0074495D01*
X0236781Y0072731D01*
X0238131Y0071381D01*
X0239895Y0070650D01*
X0241805Y0070650D01*
X0243569Y0071381D01*
X0244919Y0072731D01*
X0245650Y0074495D01*
X0245650Y0082005D01*
X0244919Y0083769D01*
X0243569Y0085119D01*
X0245159Y0083190D02*
X0246541Y0083190D01*
X0246050Y0081192D02*
X0245650Y0081192D01*
X0245650Y0079193D02*
X0246050Y0079193D01*
X0246050Y0077195D02*
X0245650Y0077195D01*
X0245650Y0075196D02*
X0246050Y0075196D01*
X0246587Y0073198D02*
X0245113Y0073198D01*
X0243131Y0071199D02*
X0248569Y0071199D01*
X0253131Y0071199D02*
X0271678Y0071199D01*
X0271450Y0071427D02*
X0274027Y0068850D01*
X0277673Y0068850D01*
X0280250Y0071427D01*
X0280250Y0075073D01*
X0277673Y0077650D01*
X0274027Y0077650D01*
X0271450Y0075073D01*
X0271450Y0071427D01*
X0271450Y0073198D02*
X0255113Y0073198D01*
X0255650Y0075196D02*
X0271574Y0075196D01*
X0273572Y0077195D02*
X0255650Y0077195D01*
X0255650Y0079193D02*
X0297350Y0079193D01*
X0297350Y0077195D02*
X0288128Y0077195D01*
X0287673Y0077650D02*
X0285850Y0077650D01*
X0285850Y0073250D01*
X0290250Y0073250D01*
X0290250Y0075073D01*
X0287673Y0077650D01*
X0285850Y0077650D02*
X0284027Y0077650D01*
X0281450Y0075073D01*
X0281450Y0073250D01*
X0285850Y0073250D01*
X0285850Y0073250D01*
X0285850Y0073250D01*
X0290250Y0073250D01*
X0290250Y0071427D01*
X0287673Y0068850D01*
X0285850Y0068850D01*
X0285850Y0073250D01*
X0285850Y0073250D01*
X0285850Y0073250D01*
X0285850Y0077650D01*
X0285850Y0077195D02*
X0285850Y0077195D01*
X0283572Y0077195D02*
X0278128Y0077195D01*
X0280126Y0075196D02*
X0281574Y0075196D01*
X0281450Y0073250D02*
X0281450Y0071427D01*
X0284027Y0068850D01*
X0285850Y0068850D01*
X0285850Y0073250D01*
X0281450Y0073250D01*
X0281450Y0073198D02*
X0280250Y0073198D01*
X0280022Y0071199D02*
X0281678Y0071199D01*
X0283677Y0069201D02*
X0278023Y0069201D01*
X0273677Y0069201D02*
X0229136Y0069201D01*
X0227138Y0067202D02*
X0297350Y0067202D01*
X0297350Y0065204D02*
X0225139Y0065204D01*
X0223141Y0063205D02*
X0269034Y0063205D01*
X0267431Y0061207D02*
X0221142Y0061207D01*
X0219144Y0059208D02*
X0266950Y0059208D01*
X0266950Y0057210D02*
X0194135Y0057210D01*
X0193366Y0055155D02*
X0192693Y0055498D01*
X0191974Y0055732D01*
X0191228Y0055850D01*
X0190850Y0055850D01*
X0190850Y0048250D01*
X0190850Y0048250D01*
X0195650Y0048250D01*
X0195650Y0051428D01*
X0195532Y0052174D01*
X0195298Y0052893D01*
X0194955Y0053566D01*
X0194511Y0054177D01*
X0193977Y0054711D01*
X0193366Y0055155D01*
X0193256Y0055211D02*
X0198353Y0055211D01*
X0198131Y0055119D02*
X0196781Y0053769D01*
X0196050Y0052005D01*
X0196050Y0044495D01*
X0196781Y0042731D01*
X0198131Y0041381D01*
X0199895Y0040650D01*
X0201805Y0040650D01*
X0203569Y0041381D01*
X0204919Y0042731D01*
X0205650Y0044495D01*
X0205650Y0052005D01*
X0204919Y0053769D01*
X0203569Y0055119D01*
X0201805Y0055850D01*
X0199895Y0055850D01*
X0198131Y0055119D01*
X0196550Y0053213D02*
X0195135Y0053213D01*
X0195650Y0051214D02*
X0196050Y0051214D01*
X0190850Y0051214D02*
X0190850Y0051214D01*
X0190850Y0053213D02*
X0190850Y0053213D01*
X0190850Y0055211D02*
X0190850Y0055211D01*
X0190850Y0055850D02*
X0190472Y0055850D01*
X0189726Y0055732D01*
X0189007Y0055498D01*
X0188334Y0055155D01*
X0187723Y0054711D01*
X0187189Y0054177D01*
X0186745Y0053566D01*
X0186402Y0052893D01*
X0186168Y0052174D01*
X0186050Y0051428D01*
X0186050Y0048250D01*
X0190850Y0048250D01*
X0190850Y0048250D01*
X0190850Y0048250D01*
X0190850Y0055850D01*
X0190765Y0057210D02*
X0189250Y0057210D01*
X0188444Y0055211D02*
X0188137Y0055211D01*
X0186565Y0053213D02*
X0185150Y0053213D01*
X0185650Y0051214D02*
X0186050Y0051214D01*
X0186050Y0049216D02*
X0185650Y0049216D01*
X0186050Y0048250D02*
X0186050Y0045072D01*
X0186168Y0044326D01*
X0186402Y0043607D01*
X0186745Y0042934D01*
X0187189Y0042323D01*
X0187723Y0041789D01*
X0188334Y0041345D01*
X0189007Y0041002D01*
X0189726Y0040768D01*
X0190472Y0040650D01*
X0190850Y0040650D01*
X0191228Y0040650D01*
X0191974Y0040768D01*
X0192693Y0041002D01*
X0193366Y0041345D01*
X0193977Y0041789D01*
X0194511Y0042323D01*
X0194955Y0042934D01*
X0195298Y0043607D01*
X0195532Y0044326D01*
X0195650Y0045072D01*
X0195650Y0048250D01*
X0190850Y0048250D01*
X0190850Y0040650D01*
X0190850Y0048250D01*
X0190850Y0048250D01*
X0186050Y0048250D01*
X0186050Y0047217D02*
X0185650Y0047217D01*
X0185650Y0045219D02*
X0186050Y0045219D01*
X0186599Y0043220D02*
X0185122Y0043220D01*
X0183185Y0041222D02*
X0188576Y0041222D01*
X0190850Y0041222D02*
X0190850Y0041222D01*
X0193124Y0041222D02*
X0198515Y0041222D01*
X0196578Y0043220D02*
X0195101Y0043220D01*
X0195650Y0045219D02*
X0196050Y0045219D01*
X0190850Y0045219D02*
X0190850Y0045219D01*
X0190850Y0043220D02*
X0190850Y0043220D01*
X0190850Y0047217D02*
X0190850Y0047217D01*
X0190850Y0049216D02*
X0190850Y0049216D01*
X0195650Y0049216D02*
X0196050Y0049216D01*
X0196050Y0047217D02*
X0195650Y0047217D01*
X0205122Y0043220D02*
X0206578Y0043220D01*
X0206781Y0042731D02*
X0208131Y0041381D01*
X0209895Y0040650D01*
X0211805Y0040650D01*
X0213569Y0041381D01*
X0214919Y0042731D01*
X0215650Y0044495D01*
X0215650Y0052005D01*
X0214919Y0053769D01*
X0213569Y0055119D01*
X0211805Y0055850D01*
X0209895Y0055850D01*
X0208131Y0055119D01*
X0206781Y0053769D01*
X0206050Y0052005D01*
X0206050Y0044495D01*
X0206781Y0042731D01*
X0208515Y0041222D02*
X0203185Y0041222D01*
X0205650Y0045219D02*
X0206050Y0045219D01*
X0206050Y0047217D02*
X0205650Y0047217D01*
X0205650Y0049216D02*
X0206050Y0049216D01*
X0206050Y0051214D02*
X0205650Y0051214D01*
X0205150Y0053213D02*
X0206550Y0053213D01*
X0208353Y0055211D02*
X0203347Y0055211D01*
X0213347Y0055211D02*
X0218353Y0055211D01*
X0218131Y0055119D02*
X0216781Y0053769D01*
X0216050Y0052005D01*
X0216050Y0044495D01*
X0216781Y0042731D01*
X0218131Y0041381D01*
X0219895Y0040650D01*
X0221805Y0040650D01*
X0223569Y0041381D01*
X0224919Y0042731D01*
X0225650Y0044495D01*
X0225650Y0052005D01*
X0224919Y0053769D01*
X0223569Y0055119D01*
X0221805Y0055850D01*
X0219895Y0055850D01*
X0218131Y0055119D01*
X0216550Y0053213D02*
X0215150Y0053213D01*
X0215650Y0051214D02*
X0216050Y0051214D01*
X0216050Y0049216D02*
X0215650Y0049216D01*
X0215650Y0047217D02*
X0216050Y0047217D01*
X0216050Y0045219D02*
X0215650Y0045219D01*
X0215122Y0043220D02*
X0216578Y0043220D01*
X0218515Y0041222D02*
X0213185Y0041222D01*
X0223185Y0041222D02*
X0228515Y0041222D01*
X0228131Y0041381D02*
X0229895Y0040650D01*
X0231805Y0040650D01*
X0233569Y0041381D01*
X0234919Y0042731D01*
X0235650Y0044495D01*
X0235650Y0052005D01*
X0234919Y0053769D01*
X0233569Y0055119D01*
X0231805Y0055850D01*
X0229895Y0055850D01*
X0228131Y0055119D01*
X0226781Y0053769D01*
X0226050Y0052005D01*
X0226050Y0044495D01*
X0226781Y0042731D01*
X0228131Y0041381D01*
X0226578Y0043220D02*
X0225122Y0043220D01*
X0225650Y0045219D02*
X0226050Y0045219D01*
X0226050Y0047217D02*
X0225650Y0047217D01*
X0225650Y0049216D02*
X0226050Y0049216D01*
X0226050Y0051214D02*
X0225650Y0051214D01*
X0225150Y0053213D02*
X0226550Y0053213D01*
X0228353Y0055211D02*
X0223347Y0055211D01*
X0233347Y0055211D02*
X0238353Y0055211D01*
X0238131Y0055119D02*
X0236781Y0053769D01*
X0236050Y0052005D01*
X0236050Y0044495D01*
X0236781Y0042731D01*
X0238131Y0041381D01*
X0239895Y0040650D01*
X0241805Y0040650D01*
X0243569Y0041381D01*
X0244919Y0042731D01*
X0245650Y0044495D01*
X0245650Y0052005D01*
X0244919Y0053769D01*
X0243569Y0055119D01*
X0241805Y0055850D01*
X0239895Y0055850D01*
X0238131Y0055119D01*
X0236550Y0053213D02*
X0235150Y0053213D01*
X0235650Y0051214D02*
X0236050Y0051214D01*
X0236050Y0049216D02*
X0235650Y0049216D01*
X0235650Y0047217D02*
X0236050Y0047217D01*
X0236050Y0045219D02*
X0235650Y0045219D01*
X0235122Y0043220D02*
X0236578Y0043220D01*
X0238515Y0041222D02*
X0233185Y0041222D01*
X0243185Y0041222D02*
X0248515Y0041222D01*
X0248131Y0041381D02*
X0249895Y0040650D01*
X0251805Y0040650D01*
X0253569Y0041381D01*
X0254919Y0042731D01*
X0255650Y0044495D01*
X0255650Y0052005D01*
X0254919Y0053769D01*
X0253569Y0055119D01*
X0251805Y0055850D01*
X0249895Y0055850D01*
X0248131Y0055119D01*
X0246781Y0053769D01*
X0246050Y0052005D01*
X0246050Y0044495D01*
X0246781Y0042731D01*
X0248131Y0041381D01*
X0253185Y0041222D02*
X0273150Y0041222D01*
X0272088Y0039223D02*
X0174359Y0039223D01*
X0176357Y0041222D02*
X0178515Y0041222D01*
X0178717Y0036900D02*
X0175700Y0033883D01*
X0175700Y0031750D01*
X0180850Y0031750D01*
X0180850Y0031750D01*
X0180850Y0036900D01*
X0182983Y0036900D01*
X0185850Y0034033D01*
X0188717Y0036900D01*
X0192983Y0036900D01*
X0195850Y0034033D01*
X0198717Y0036900D01*
X0200850Y0036900D01*
X0200850Y0031750D01*
X0200850Y0031750D01*
X0200850Y0026600D01*
X0198717Y0026600D01*
X0195850Y0029467D01*
X0192983Y0026600D01*
X0188717Y0026600D01*
X0185850Y0029467D01*
X0182983Y0026600D01*
X0180850Y0026600D01*
X0180850Y0031750D01*
X0180850Y0031750D01*
X0180850Y0031750D01*
X0180850Y0036900D01*
X0178717Y0036900D01*
X0177043Y0035226D02*
X0170362Y0035226D01*
X0172360Y0037225D02*
X0268654Y0037225D01*
X0267274Y0035226D02*
X0263096Y0035226D01*
X0264250Y0034073D02*
X0261673Y0036650D01*
X0258027Y0036650D01*
X0255450Y0034073D01*
X0255450Y0030427D01*
X0258027Y0027850D01*
X0261673Y0027850D01*
X0264250Y0030427D01*
X0264250Y0034073D01*
X0264250Y0033228D02*
X0266950Y0033228D01*
X0266494Y0031229D02*
X0264250Y0031229D01*
X0264495Y0029231D02*
X0263053Y0029231D01*
X0256647Y0029231D02*
X0227605Y0029231D01*
X0227466Y0029369D02*
X0227466Y0029369D01*
X0228169Y0028666D02*
X0228169Y0028666D01*
X0225606Y0031229D02*
X0255450Y0031229D01*
X0255450Y0033228D02*
X0224250Y0033228D01*
X0223096Y0035226D02*
X0256604Y0035226D01*
X0255122Y0043220D02*
X0273150Y0043220D01*
X0273150Y0045219D02*
X0255650Y0045219D01*
X0255650Y0047217D02*
X0272147Y0047217D01*
X0277220Y0049216D02*
X0286521Y0049216D01*
X0286493Y0049236D02*
X0287129Y0048774D01*
X0287831Y0048416D01*
X0288579Y0048173D01*
X0289356Y0048050D01*
X0289750Y0048050D01*
X0290144Y0048050D01*
X0290921Y0048173D01*
X0291669Y0048416D01*
X0292371Y0048774D01*
X0293007Y0049236D01*
X0293564Y0049793D01*
X0294026Y0050429D01*
X0294384Y0051131D01*
X0294627Y0051879D01*
X0294750Y0052656D01*
X0294750Y0056050D01*
X0294750Y0059444D01*
X0294627Y0060221D01*
X0294384Y0060969D01*
X0294026Y0061671D01*
X0293564Y0062307D01*
X0293007Y0062864D01*
X0292371Y0063326D01*
X0291669Y0063684D01*
X0290921Y0063927D01*
X0290144Y0064050D01*
X0289750Y0064050D01*
X0289750Y0056050D01*
X0289750Y0056050D01*
X0294750Y0056050D01*
X0289750Y0056050D01*
X0289750Y0056050D01*
X0289750Y0056050D01*
X0284750Y0056050D01*
X0284750Y0059444D01*
X0284873Y0060221D01*
X0285116Y0060969D01*
X0285474Y0061671D01*
X0285936Y0062307D01*
X0286493Y0062864D01*
X0287129Y0063326D01*
X0287831Y0063684D01*
X0288579Y0063927D01*
X0289356Y0064050D01*
X0289750Y0064050D01*
X0289750Y0056050D01*
X0289750Y0048050D01*
X0289750Y0056050D01*
X0289750Y0056050D01*
X0284750Y0056050D01*
X0284750Y0052656D01*
X0284873Y0051879D01*
X0285116Y0051131D01*
X0285474Y0050429D01*
X0285936Y0049793D01*
X0286493Y0049236D01*
X0289750Y0049216D02*
X0289750Y0049216D01*
X0292979Y0049216D02*
X0297350Y0049216D01*
X0297350Y0047217D02*
X0278150Y0047217D01*
X0278150Y0045219D02*
X0297350Y0045219D01*
X0297350Y0043220D02*
X0278150Y0043220D01*
X0278150Y0041222D02*
X0297350Y0041222D01*
X0297350Y0039223D02*
X0278150Y0039223D01*
X0277160Y0037225D02*
X0286454Y0037225D01*
X0286493Y0037264D02*
X0285936Y0036707D01*
X0285474Y0036071D01*
X0285116Y0035369D01*
X0284873Y0034621D01*
X0284750Y0033844D01*
X0284750Y0030450D01*
X0289750Y0030450D01*
X0289750Y0030450D01*
X0289750Y0038450D01*
X0290144Y0038450D01*
X0290921Y0038327D01*
X0291669Y0038084D01*
X0292371Y0037726D01*
X0293007Y0037264D01*
X0293564Y0036707D01*
X0294026Y0036071D01*
X0294384Y0035369D01*
X0294627Y0034621D01*
X0294750Y0033844D01*
X0294750Y0030450D01*
X0289750Y0030450D01*
X0289750Y0030450D01*
X0289750Y0030450D01*
X0289750Y0038450D01*
X0289356Y0038450D01*
X0288579Y0038327D01*
X0287831Y0038084D01*
X0287129Y0037726D01*
X0286493Y0037264D01*
X0285070Y0035226D02*
X0276626Y0035226D01*
X0276950Y0033228D02*
X0284750Y0033228D01*
X0284750Y0031229D02*
X0276950Y0031229D01*
X0276950Y0029231D02*
X0284750Y0029231D01*
X0284750Y0030450D02*
X0284750Y0027056D01*
X0284873Y0026279D01*
X0285116Y0025531D01*
X0285474Y0024829D01*
X0285936Y0024193D01*
X0286493Y0023636D01*
X0287129Y0023174D01*
X0287831Y0022816D01*
X0288579Y0022573D01*
X0289356Y0022450D01*
X0289750Y0022450D01*
X0290144Y0022450D01*
X0290921Y0022573D01*
X0291669Y0022816D01*
X0292371Y0023174D01*
X0293007Y0023636D01*
X0293564Y0024193D01*
X0294026Y0024829D01*
X0294384Y0025531D01*
X0294627Y0026279D01*
X0294750Y0027056D01*
X0294750Y0030450D01*
X0289750Y0030450D01*
X0289750Y0022450D01*
X0289750Y0030450D01*
X0289750Y0030450D01*
X0284750Y0030450D01*
X0289750Y0031229D02*
X0289750Y0031229D01*
X0289750Y0033228D02*
X0289750Y0033228D01*
X0289750Y0035226D02*
X0289750Y0035226D01*
X0289750Y0037225D02*
X0289750Y0037225D01*
X0293046Y0037225D02*
X0297350Y0037225D01*
X0297350Y0035226D02*
X0294430Y0035226D01*
X0294750Y0033228D02*
X0297350Y0033228D01*
X0297350Y0031229D02*
X0294750Y0031229D01*
X0294750Y0029231D02*
X0297350Y0029231D01*
X0297350Y0027232D02*
X0294750Y0027232D01*
X0294232Y0025234D02*
X0297350Y0025234D01*
X0297350Y0023235D02*
X0292455Y0023235D01*
X0289750Y0023235D02*
X0289750Y0023235D01*
X0289750Y0025234D02*
X0289750Y0025234D01*
X0287045Y0023235D02*
X0274806Y0023235D01*
X0276444Y0025234D02*
X0285268Y0025234D01*
X0284750Y0027232D02*
X0276950Y0027232D01*
X0269094Y0023235D02*
X0265571Y0023235D01*
X0262921Y0018250D02*
X0258779Y0018250D01*
X0255850Y0015321D01*
X0255850Y0011179D01*
X0258779Y0008250D01*
X0262921Y0008250D01*
X0265850Y0011179D01*
X0268779Y0008250D01*
X0272921Y0008250D01*
X0275850Y0011179D01*
X0278779Y0008250D01*
X0282921Y0008250D01*
X0285850Y0011179D01*
X0288779Y0008250D01*
X0292921Y0008250D01*
X0295850Y0011179D01*
X0295850Y0015321D01*
X0292921Y0018250D01*
X0288779Y0018250D01*
X0285850Y0015321D01*
X0285850Y0011179D01*
X0285850Y0015321D01*
X0282921Y0018250D01*
X0278779Y0018250D01*
X0275850Y0015321D01*
X0275850Y0011179D01*
X0275850Y0015321D01*
X0272921Y0018250D01*
X0268779Y0018250D01*
X0265850Y0015321D01*
X0265850Y0011179D01*
X0265850Y0015321D01*
X0262921Y0018250D01*
X0263931Y0017240D02*
X0267769Y0017240D01*
X0265850Y0015241D02*
X0265850Y0015241D01*
X0265850Y0013243D02*
X0265850Y0013243D01*
X0265850Y0011244D02*
X0265850Y0011244D01*
X0263917Y0009246D02*
X0267783Y0009246D01*
X0273917Y0009246D02*
X0277783Y0009246D01*
X0275850Y0011244D02*
X0275850Y0011244D01*
X0275850Y0013243D02*
X0275850Y0013243D01*
X0275850Y0015241D02*
X0275850Y0015241D01*
X0273931Y0017240D02*
X0277769Y0017240D01*
X0283931Y0017240D02*
X0287769Y0017240D01*
X0285850Y0015241D02*
X0285850Y0015241D01*
X0285850Y0013243D02*
X0285850Y0013243D01*
X0285850Y0011244D02*
X0285850Y0011244D01*
X0283917Y0009246D02*
X0287783Y0009246D01*
X0293150Y0007247D02*
X0135183Y0007247D01*
X0137181Y0009246D02*
X0137783Y0009246D01*
X0143917Y0009246D02*
X0147783Y0009246D01*
X0145850Y0011244D02*
X0145850Y0011244D01*
X0145850Y0013243D02*
X0145850Y0013243D01*
X0145850Y0015241D02*
X0145850Y0015241D01*
X0143931Y0017240D02*
X0147769Y0017240D01*
X0150503Y0019238D02*
X0143974Y0019238D01*
X0145972Y0021237D02*
X0152501Y0021237D01*
X0154500Y0023235D02*
X0147971Y0023235D01*
X0149969Y0025234D02*
X0156498Y0025234D01*
X0151968Y0027232D02*
X0178085Y0027232D01*
X0178717Y0026600D02*
X0175700Y0029617D01*
X0175700Y0031750D01*
X0180850Y0031750D01*
X0180850Y0026600D01*
X0178717Y0026600D01*
X0180850Y0027232D02*
X0180850Y0027232D01*
X0180850Y0029231D02*
X0180850Y0029231D01*
X0183615Y0027232D02*
X0188085Y0027232D01*
X0186086Y0029231D02*
X0185614Y0029231D01*
X0180850Y0031229D02*
X0180850Y0031229D01*
X0180850Y0033228D02*
X0180850Y0033228D01*
X0175700Y0033228D02*
X0168363Y0033228D01*
X0164450Y0037650D02*
X0153250Y0037650D01*
X0130850Y0015250D01*
X0130850Y0013250D01*
X0127769Y0017240D02*
X0126796Y0017240D01*
X0126150Y0019238D02*
X0130595Y0019238D01*
X0132594Y0021237D02*
X0125199Y0021237D01*
X0125066Y0021369D02*
X0125066Y0021369D01*
X0124169Y0022266D02*
X0124169Y0022266D01*
X0129571Y0023235D02*
X0134592Y0023235D01*
X0136591Y0025234D02*
X0131569Y0025234D01*
X0133568Y0027232D02*
X0138590Y0027232D01*
X0140588Y0029231D02*
X0135566Y0029231D01*
X0137565Y0031229D02*
X0142587Y0031229D01*
X0144585Y0033228D02*
X0139563Y0033228D01*
X0141562Y0035226D02*
X0146584Y0035226D01*
X0148582Y0037225D02*
X0143560Y0037225D01*
X0145559Y0039223D02*
X0150581Y0039223D01*
X0148515Y0041222D02*
X0146950Y0041222D01*
X0153185Y0041222D02*
X0158515Y0041222D01*
X0158131Y0041381D02*
X0159895Y0040650D01*
X0161805Y0040650D01*
X0163569Y0041381D01*
X0164919Y0042731D01*
X0165650Y0044495D01*
X0165650Y0052005D01*
X0164919Y0053769D01*
X0163569Y0055119D01*
X0161805Y0055850D01*
X0159895Y0055850D01*
X0158131Y0055119D01*
X0156781Y0053769D01*
X0156050Y0052005D01*
X0156050Y0044495D01*
X0156781Y0042731D01*
X0158131Y0041381D01*
X0163185Y0041222D02*
X0163779Y0041222D01*
X0165122Y0043220D02*
X0165778Y0043220D01*
X0165650Y0045219D02*
X0166050Y0045219D01*
X0166050Y0047217D02*
X0165650Y0047217D01*
X0165650Y0049216D02*
X0166050Y0049216D01*
X0166050Y0051214D02*
X0165650Y0051214D01*
X0165150Y0053213D02*
X0166550Y0053213D01*
X0168250Y0055211D02*
X0163347Y0055211D01*
X0158353Y0055211D02*
X0153347Y0055211D01*
X0155150Y0053213D02*
X0156550Y0053213D01*
X0156050Y0051214D02*
X0155650Y0051214D01*
X0155650Y0049216D02*
X0156050Y0049216D01*
X0156050Y0047217D02*
X0155650Y0047217D01*
X0155650Y0045219D02*
X0156050Y0045219D01*
X0156578Y0043220D02*
X0155122Y0043220D01*
X0164450Y0037650D02*
X0170050Y0043250D01*
X0170050Y0048050D01*
X0170850Y0048250D01*
X0170850Y0053650D01*
X0190850Y0073650D01*
X0190850Y0078250D01*
X0186050Y0079193D02*
X0185650Y0079193D01*
X0185650Y0078250D02*
X0185650Y0081428D01*
X0185532Y0082174D01*
X0185298Y0082893D01*
X0184955Y0083566D01*
X0184511Y0084177D01*
X0183977Y0084711D01*
X0183366Y0085155D01*
X0182693Y0085498D01*
X0181974Y0085732D01*
X0181228Y0085850D01*
X0180850Y0085850D01*
X0180850Y0078250D01*
X0180850Y0078250D01*
X0185650Y0078250D01*
X0180850Y0078250D01*
X0180850Y0078250D01*
X0180850Y0078250D01*
X0176050Y0078250D01*
X0176050Y0081428D01*
X0176168Y0082174D01*
X0176402Y0082893D01*
X0176745Y0083566D01*
X0177189Y0084177D01*
X0177723Y0084711D01*
X0178334Y0085155D01*
X0179007Y0085498D01*
X0179726Y0085732D01*
X0180472Y0085850D01*
X0180850Y0085850D01*
X0180850Y0078250D01*
X0180850Y0070650D01*
X0181228Y0070650D01*
X0181974Y0070768D01*
X0182693Y0071002D01*
X0183366Y0071345D01*
X0183977Y0071789D01*
X0184511Y0072323D01*
X0184955Y0072934D01*
X0185298Y0073607D01*
X0185532Y0074326D01*
X0185650Y0075072D01*
X0185650Y0078250D01*
X0185650Y0077195D02*
X0186050Y0077195D01*
X0186050Y0075196D02*
X0185650Y0075196D01*
X0186155Y0073198D02*
X0185090Y0073198D01*
X0184157Y0071199D02*
X0183081Y0071199D01*
X0182158Y0069201D02*
X0160336Y0069201D01*
X0163131Y0071199D02*
X0168569Y0071199D01*
X0168131Y0071381D02*
X0169895Y0070650D01*
X0171805Y0070650D01*
X0173569Y0071381D01*
X0174919Y0072731D01*
X0175650Y0074495D01*
X0175650Y0082005D01*
X0174919Y0083769D01*
X0173569Y0085119D01*
X0171805Y0085850D01*
X0169895Y0085850D01*
X0168131Y0085119D01*
X0166781Y0083769D01*
X0166050Y0082005D01*
X0166050Y0074495D01*
X0166781Y0072731D01*
X0168131Y0071381D01*
X0166587Y0073198D02*
X0165113Y0073198D01*
X0165650Y0075196D02*
X0166050Y0075196D01*
X0166050Y0077195D02*
X0165650Y0077195D01*
X0165650Y0079193D02*
X0166050Y0079193D01*
X0166050Y0081192D02*
X0165650Y0081192D01*
X0165159Y0083190D02*
X0166541Y0083190D01*
X0168299Y0085189D02*
X0163401Y0085189D01*
X0159923Y0087187D02*
X0192977Y0087187D01*
X0188299Y0085189D02*
X0183300Y0085189D01*
X0180850Y0085189D02*
X0180850Y0085189D01*
X0178400Y0085189D02*
X0173401Y0085189D01*
X0175159Y0083190D02*
X0176553Y0083190D01*
X0176050Y0081192D02*
X0175650Y0081192D01*
X0180850Y0081192D02*
X0180850Y0081192D01*
X0180850Y0083190D02*
X0180850Y0083190D01*
X0185147Y0083190D02*
X0186541Y0083190D01*
X0186050Y0081192D02*
X0185650Y0081192D01*
X0180850Y0079193D02*
X0180850Y0079193D01*
X0180850Y0078250D02*
X0176050Y0078250D01*
X0176050Y0075072D01*
X0176168Y0074326D01*
X0176402Y0073607D01*
X0176745Y0072934D01*
X0177189Y0072323D01*
X0177723Y0071789D01*
X0178334Y0071345D01*
X0179007Y0071002D01*
X0179726Y0070768D01*
X0180472Y0070650D01*
X0180850Y0070650D01*
X0180850Y0078250D01*
X0180850Y0078250D01*
X0180850Y0077195D02*
X0180850Y0077195D01*
X0176050Y0077195D02*
X0175650Y0077195D01*
X0175650Y0079193D02*
X0176050Y0079193D01*
X0176050Y0075196D02*
X0175650Y0075196D01*
X0175113Y0073198D02*
X0176610Y0073198D01*
X0180850Y0073198D02*
X0180850Y0073198D01*
X0180850Y0075196D02*
X0180850Y0075196D01*
X0180850Y0071199D02*
X0180850Y0071199D01*
X0178619Y0071199D02*
X0173131Y0071199D01*
X0180160Y0067202D02*
X0158338Y0067202D01*
X0156339Y0065204D02*
X0178161Y0065204D01*
X0176163Y0063205D02*
X0154341Y0063205D01*
X0152342Y0061207D02*
X0174164Y0061207D01*
X0172166Y0059208D02*
X0150344Y0059208D01*
X0150216Y0057210D02*
X0170167Y0057210D01*
X0181945Y0057210D02*
X0182850Y0057210D01*
X0183347Y0055211D02*
X0183963Y0055211D01*
X0151267Y0067202D02*
X0147138Y0067202D01*
X0145139Y0065204D02*
X0149268Y0065204D01*
X0147270Y0063205D02*
X0143141Y0063205D01*
X0141142Y0061207D02*
X0145271Y0061207D01*
X0143273Y0059208D02*
X0139144Y0059208D01*
X0137145Y0057210D02*
X0141274Y0057210D01*
X0139914Y0055850D02*
X0139895Y0055850D01*
X0138131Y0055119D01*
X0136781Y0053769D01*
X0136050Y0052005D01*
X0136050Y0044495D01*
X0136781Y0042731D01*
X0138131Y0041381D01*
X0139895Y0040650D01*
X0139914Y0040650D01*
X0126614Y0027350D01*
X0093686Y0027350D01*
X0102569Y0036234D01*
X0102950Y0037153D01*
X0102950Y0039814D01*
X0104700Y0041564D01*
X0104700Y0041117D01*
X0107567Y0038250D01*
X0104700Y0035383D01*
X0104700Y0031117D01*
X0107717Y0028100D01*
X0111983Y0028100D01*
X0115000Y0031117D01*
X0115000Y0035383D01*
X0112133Y0038250D01*
X0115000Y0041117D01*
X0115000Y0043250D01*
X0115000Y0045383D01*
X0111983Y0048400D01*
X0111536Y0048400D01*
X0111986Y0048850D01*
X0112975Y0048850D01*
X0114850Y0050725D01*
X0114850Y0053375D01*
X0113680Y0054545D01*
X0115086Y0055950D01*
X0135347Y0055950D01*
X0136266Y0056331D01*
X0136969Y0057034D01*
X0149769Y0069834D01*
X0150107Y0070650D01*
X0151805Y0070650D01*
X0153569Y0071381D01*
X0154376Y0072188D01*
X0155314Y0071250D01*
X0139914Y0055850D01*
X0138353Y0055211D02*
X0133347Y0055211D01*
X0133569Y0055119D02*
X0131805Y0055850D01*
X0129895Y0055850D01*
X0128131Y0055119D01*
X0126781Y0053769D01*
X0126050Y0052005D01*
X0126050Y0044495D01*
X0126781Y0042731D01*
X0128131Y0041381D01*
X0129895Y0040650D01*
X0131805Y0040650D01*
X0133569Y0041381D01*
X0134919Y0042731D01*
X0135650Y0044495D01*
X0135650Y0052005D01*
X0134919Y0053769D01*
X0133569Y0055119D01*
X0135150Y0053213D02*
X0136550Y0053213D01*
X0136050Y0051214D02*
X0135650Y0051214D01*
X0135650Y0049216D02*
X0136050Y0049216D01*
X0136050Y0047217D02*
X0135650Y0047217D01*
X0135650Y0045219D02*
X0136050Y0045219D01*
X0136578Y0043220D02*
X0135122Y0043220D01*
X0133185Y0041222D02*
X0138515Y0041222D01*
X0138488Y0039223D02*
X0120759Y0039223D01*
X0120450Y0038914D02*
X0121866Y0040331D01*
X0122455Y0040919D01*
X0123569Y0041381D01*
X0124919Y0042731D01*
X0125650Y0044495D01*
X0125650Y0052005D01*
X0124919Y0053769D01*
X0123569Y0055119D01*
X0121805Y0055850D01*
X0119895Y0055850D01*
X0118131Y0055119D01*
X0116781Y0053769D01*
X0116050Y0052005D01*
X0116050Y0044495D01*
X0116781Y0042731D01*
X0116988Y0042524D01*
X0116114Y0041650D01*
X0115925Y0041650D01*
X0114050Y0039775D01*
X0114050Y0037125D01*
X0115925Y0035250D01*
X0118575Y0035250D01*
X0120450Y0037125D01*
X0120450Y0038914D01*
X0120450Y0037225D02*
X0136489Y0037225D01*
X0134491Y0035226D02*
X0115000Y0035226D01*
X0114050Y0037225D02*
X0113158Y0037225D01*
X0113106Y0039223D02*
X0114050Y0039223D01*
X0115000Y0041222D02*
X0115496Y0041222D01*
X0115000Y0043220D02*
X0116578Y0043220D01*
X0115000Y0043250D02*
X0109850Y0043250D01*
X0109850Y0043250D01*
X0115000Y0043250D01*
X0115000Y0045219D02*
X0116050Y0045219D01*
X0116050Y0047217D02*
X0113166Y0047217D01*
X0113341Y0049216D02*
X0116050Y0049216D01*
X0116050Y0051214D02*
X0114850Y0051214D01*
X0114850Y0053213D02*
X0116550Y0053213D01*
X0118353Y0055211D02*
X0114347Y0055211D01*
X0109274Y0057210D02*
X0076345Y0057210D01*
X0077486Y0058350D02*
X0110414Y0058350D01*
X0096634Y0044569D01*
X0095931Y0043866D01*
X0095550Y0042947D01*
X0095550Y0039486D01*
X0080214Y0024150D01*
X0047153Y0024150D01*
X0046234Y0023769D01*
X0041214Y0018750D01*
X0038572Y0018750D01*
X0035850Y0016028D01*
X0035507Y0016371D01*
X0077486Y0058350D01*
X0071273Y0059208D02*
X0051056Y0059208D01*
X0052424Y0057210D02*
X0069274Y0057210D01*
X0067276Y0055211D02*
X0052424Y0055211D01*
X0052424Y0053213D02*
X0065277Y0053213D01*
X0063279Y0051214D02*
X0052424Y0051214D01*
X0051980Y0049216D02*
X0061280Y0049216D01*
X0059282Y0047217D02*
X0049981Y0047217D01*
X0047983Y0045219D02*
X0057283Y0045219D01*
X0055285Y0043220D02*
X0029631Y0043220D01*
X0029631Y0045219D02*
X0037117Y0045219D01*
X0042270Y0045219D02*
X0042830Y0045219D01*
X0042830Y0047217D02*
X0042270Y0047217D01*
X0053286Y0041222D02*
X0028914Y0041222D01*
X0029850Y0039223D02*
X0051288Y0039223D01*
X0049289Y0037225D02*
X0029850Y0037225D01*
X0029850Y0035226D02*
X0047291Y0035226D01*
X0045292Y0033228D02*
X0029850Y0033228D01*
X0029850Y0031229D02*
X0043294Y0031229D01*
X0048366Y0029231D02*
X0057374Y0029231D01*
X0057848Y0028757D02*
X0056357Y0030248D01*
X0055550Y0032196D01*
X0055550Y0034304D01*
X0056357Y0036252D01*
X0057848Y0037743D01*
X0059796Y0038550D01*
X0061904Y0038550D01*
X0063852Y0037743D01*
X0065343Y0036252D01*
X0066150Y0034304D01*
X0066150Y0032196D01*
X0065343Y0030248D01*
X0063852Y0028757D01*
X0061904Y0027950D01*
X0059796Y0027950D01*
X0057848Y0028757D01*
X0055950Y0031229D02*
X0050365Y0031229D01*
X0052363Y0033228D02*
X0055550Y0033228D01*
X0055932Y0035226D02*
X0054362Y0035226D01*
X0056360Y0037225D02*
X0057329Y0037225D01*
X0058359Y0039223D02*
X0071322Y0039223D01*
X0071484Y0038833D02*
X0072933Y0037384D01*
X0074826Y0036600D01*
X0076874Y0036600D01*
X0078767Y0037384D01*
X0080216Y0038833D01*
X0081000Y0040726D01*
X0081000Y0042774D01*
X0080216Y0044667D01*
X0078767Y0046116D01*
X0076874Y0046900D01*
X0074826Y0046900D01*
X0072933Y0046116D01*
X0071484Y0044667D01*
X0070700Y0042774D01*
X0070700Y0040726D01*
X0071484Y0038833D01*
X0073317Y0037225D02*
X0064371Y0037225D01*
X0065768Y0035226D02*
X0091291Y0035226D01*
X0091983Y0036600D02*
X0089850Y0036600D01*
X0089850Y0041750D01*
X0095000Y0041750D01*
X0095000Y0043883D01*
X0091983Y0046900D01*
X0089850Y0046900D01*
X0089850Y0041750D01*
X0089850Y0041750D01*
X0089850Y0041750D01*
X0095000Y0041750D01*
X0095000Y0039617D01*
X0091983Y0036600D01*
X0092608Y0037225D02*
X0093289Y0037225D01*
X0089850Y0037225D02*
X0089850Y0037225D01*
X0089850Y0036600D02*
X0089850Y0041750D01*
X0089850Y0041750D01*
X0089850Y0041750D01*
X0084700Y0041750D01*
X0084700Y0043883D01*
X0087717Y0046900D01*
X0089850Y0046900D01*
X0089850Y0041750D01*
X0084700Y0041750D01*
X0084700Y0039617D01*
X0087717Y0036600D01*
X0089850Y0036600D01*
X0087092Y0037225D02*
X0078383Y0037225D01*
X0080378Y0039223D02*
X0085094Y0039223D01*
X0084700Y0041222D02*
X0081000Y0041222D01*
X0080815Y0043220D02*
X0084700Y0043220D01*
X0086036Y0045219D02*
X0079664Y0045219D01*
X0072036Y0045219D02*
X0064354Y0045219D01*
X0062356Y0043220D02*
X0070885Y0043220D01*
X0070700Y0041222D02*
X0060357Y0041222D01*
X0066353Y0047217D02*
X0099282Y0047217D01*
X0101280Y0049216D02*
X0068351Y0049216D01*
X0070350Y0051214D02*
X0103279Y0051214D01*
X0105277Y0053213D02*
X0072348Y0053213D01*
X0074347Y0055211D02*
X0107276Y0055211D01*
X0123347Y0055211D02*
X0128353Y0055211D01*
X0126550Y0053213D02*
X0125150Y0053213D01*
X0125650Y0051214D02*
X0126050Y0051214D01*
X0126050Y0049216D02*
X0125650Y0049216D01*
X0125650Y0047217D02*
X0126050Y0047217D01*
X0126050Y0045219D02*
X0125650Y0045219D01*
X0125122Y0043220D02*
X0126578Y0043220D01*
X0128515Y0041222D02*
X0123185Y0041222D01*
X0121866Y0040331D02*
X0121866Y0040331D01*
X0115000Y0033228D02*
X0132492Y0033228D01*
X0130494Y0031229D02*
X0115000Y0031229D01*
X0113114Y0029231D02*
X0128495Y0029231D01*
X0106586Y0029231D02*
X0095566Y0029231D01*
X0097565Y0031229D02*
X0104700Y0031229D01*
X0104700Y0033228D02*
X0099563Y0033228D01*
X0101562Y0035226D02*
X0104700Y0035226D01*
X0102950Y0037225D02*
X0106542Y0037225D01*
X0106594Y0039223D02*
X0102950Y0039223D01*
X0104357Y0041222D02*
X0104700Y0041222D01*
X0097283Y0045219D02*
X0093664Y0045219D01*
X0095000Y0043220D02*
X0095663Y0043220D01*
X0095550Y0041222D02*
X0095000Y0041222D01*
X0095288Y0039223D02*
X0094606Y0039223D01*
X0089850Y0039223D02*
X0089850Y0039223D01*
X0089850Y0041222D02*
X0089850Y0041222D01*
X0089850Y0043220D02*
X0089850Y0043220D01*
X0089850Y0045219D02*
X0089850Y0045219D01*
X0089292Y0033228D02*
X0066150Y0033228D01*
X0065750Y0031229D02*
X0087294Y0031229D01*
X0085295Y0029231D02*
X0064326Y0029231D01*
X0081298Y0025234D02*
X0044369Y0025234D01*
X0045700Y0023235D02*
X0042371Y0023235D01*
X0043701Y0021237D02*
X0040372Y0021237D01*
X0041703Y0019238D02*
X0038374Y0019238D01*
X0037061Y0017240D02*
X0036375Y0017240D01*
X0027061Y0017240D02*
X0024639Y0017240D01*
X0023516Y0021237D02*
X0014350Y0021237D01*
X0014350Y0023235D02*
X0022069Y0023235D01*
X0022069Y0025234D02*
X0014350Y0025234D01*
X0024371Y0037225D02*
X0024850Y0037225D01*
X0046368Y0027232D02*
X0083297Y0027232D01*
X0153966Y0029231D02*
X0176086Y0029231D01*
X0175700Y0031229D02*
X0155965Y0031229D01*
X0180850Y0035226D02*
X0180850Y0035226D01*
X0184657Y0035226D02*
X0187043Y0035226D01*
X0194657Y0035226D02*
X0197043Y0035226D01*
X0200850Y0035226D02*
X0200850Y0035226D01*
X0204657Y0035226D02*
X0207043Y0035226D01*
X0200850Y0033228D02*
X0200850Y0033228D01*
X0200850Y0031229D02*
X0200850Y0031229D01*
X0200850Y0029231D02*
X0200850Y0029231D01*
X0200850Y0027232D02*
X0200850Y0027232D01*
X0203615Y0027232D02*
X0208085Y0027232D01*
X0206086Y0029231D02*
X0205614Y0029231D01*
X0213615Y0027232D02*
X0222497Y0027232D01*
X0216647Y0029231D02*
X0215614Y0029231D01*
X0225571Y0023235D02*
X0226529Y0023235D01*
X0227061Y0017240D02*
X0224639Y0017240D01*
X0220850Y0017240D02*
X0220850Y0017240D01*
X0220850Y0015241D02*
X0220850Y0015241D01*
X0220850Y0013250D02*
X0220850Y0007750D01*
X0220850Y0013250D01*
X0220850Y0013250D01*
X0220850Y0013243D02*
X0220850Y0013243D01*
X0220850Y0011244D02*
X0220850Y0011244D01*
X0220850Y0009246D02*
X0220850Y0009246D01*
X0224624Y0009246D02*
X0227076Y0009246D01*
X0234624Y0009246D02*
X0237783Y0009246D01*
X0243917Y0009246D02*
X0247783Y0009246D01*
X0248779Y0008250D02*
X0252921Y0008250D01*
X0255850Y0011179D01*
X0255850Y0015321D01*
X0252921Y0018250D01*
X0248779Y0018250D01*
X0245850Y0015321D01*
X0245850Y0011179D01*
X0248779Y0008250D01*
X0253917Y0009246D02*
X0257783Y0009246D01*
X0255850Y0011244D02*
X0255850Y0011244D01*
X0255850Y0013243D02*
X0255850Y0013243D01*
X0255850Y0015241D02*
X0255850Y0015241D01*
X0253931Y0017240D02*
X0257769Y0017240D01*
X0247769Y0017240D02*
X0243931Y0017240D01*
X0245850Y0015241D02*
X0245850Y0015241D01*
X0245850Y0013243D02*
X0245850Y0013243D01*
X0245850Y0011244D02*
X0245850Y0011244D01*
X0237769Y0017240D02*
X0234639Y0017240D01*
X0217061Y0017240D02*
X0214639Y0017240D01*
X0210397Y0019238D02*
X0297350Y0019238D01*
X0297350Y0021237D02*
X0208399Y0021237D01*
X0198085Y0027232D02*
X0193615Y0027232D01*
X0195614Y0029231D02*
X0196086Y0029231D01*
X0214657Y0035226D02*
X0216604Y0035226D01*
X0245122Y0043220D02*
X0246578Y0043220D01*
X0246050Y0045219D02*
X0245650Y0045219D01*
X0245650Y0047217D02*
X0246050Y0047217D01*
X0246050Y0049216D02*
X0245650Y0049216D01*
X0245650Y0051214D02*
X0246050Y0051214D01*
X0246550Y0053213D02*
X0245150Y0053213D01*
X0243347Y0055211D02*
X0248353Y0055211D01*
X0253347Y0055211D02*
X0266950Y0055211D01*
X0266950Y0053213D02*
X0255150Y0053213D01*
X0255650Y0051214D02*
X0267298Y0051214D01*
X0268713Y0049216D02*
X0255650Y0049216D01*
X0276602Y0051214D02*
X0285089Y0051214D01*
X0284750Y0053213D02*
X0276950Y0053213D01*
X0276950Y0055211D02*
X0284750Y0055211D01*
X0289750Y0055211D02*
X0289750Y0055211D01*
X0289750Y0053213D02*
X0289750Y0053213D01*
X0289750Y0051214D02*
X0289750Y0051214D01*
X0294411Y0051214D02*
X0297350Y0051214D01*
X0297350Y0053213D02*
X0294750Y0053213D01*
X0294750Y0055211D02*
X0297350Y0055211D01*
X0297350Y0057210D02*
X0294750Y0057210D01*
X0294750Y0059208D02*
X0297350Y0059208D01*
X0297350Y0061207D02*
X0294263Y0061207D01*
X0292537Y0063205D02*
X0297350Y0063205D01*
X0289750Y0063205D02*
X0289750Y0063205D01*
X0289750Y0061207D02*
X0289750Y0061207D01*
X0286963Y0063205D02*
X0274866Y0063205D01*
X0276469Y0061207D02*
X0285237Y0061207D01*
X0284750Y0059208D02*
X0276950Y0059208D01*
X0276950Y0057210D02*
X0284750Y0057210D01*
X0289750Y0057210D02*
X0289750Y0057210D01*
X0289750Y0059208D02*
X0289750Y0059208D01*
X0288023Y0069201D02*
X0297350Y0069201D01*
X0297350Y0071199D02*
X0290022Y0071199D01*
X0285850Y0071199D02*
X0285850Y0071199D01*
X0285850Y0069201D02*
X0285850Y0069201D01*
X0285850Y0073198D02*
X0285850Y0073198D01*
X0285850Y0075196D02*
X0285850Y0075196D01*
X0290126Y0075196D02*
X0297350Y0075196D01*
X0297350Y0073198D02*
X0290250Y0073198D01*
X0297350Y0081192D02*
X0255650Y0081192D01*
X0255159Y0083190D02*
X0297350Y0083190D01*
X0238299Y0085189D02*
X0235750Y0085189D01*
X0235159Y0083190D02*
X0236541Y0083190D01*
X0236050Y0081192D02*
X0235650Y0081192D01*
X0235650Y0079193D02*
X0236050Y0079193D01*
X0236050Y0077195D02*
X0235650Y0077195D01*
X0235650Y0075196D02*
X0236050Y0075196D01*
X0236587Y0073198D02*
X0235113Y0073198D01*
X0233131Y0071199D02*
X0238569Y0071199D01*
X0187631Y0089186D02*
X0161350Y0089186D01*
X0161350Y0091184D02*
X0169167Y0091184D01*
X0169975Y0090850D02*
X0168358Y0091520D01*
X0167120Y0092758D01*
X0166450Y0094375D01*
X0166450Y0096125D01*
X0167120Y0097742D01*
X0168358Y0098980D01*
X0169975Y0099650D01*
X0171725Y0099650D01*
X0173342Y0098980D01*
X0174580Y0097742D01*
X0175250Y0096125D01*
X0175250Y0094375D01*
X0174580Y0092758D01*
X0173342Y0091520D01*
X0171725Y0090850D01*
X0169975Y0090850D01*
X0172533Y0091184D02*
X0185700Y0091184D01*
X0185700Y0093183D02*
X0174756Y0093183D01*
X0175250Y0095182D02*
X0185700Y0095182D01*
X0187497Y0097180D02*
X0174813Y0097180D01*
X0172863Y0099179D02*
X0187638Y0099179D01*
X0168837Y0099179D02*
X0167914Y0099179D01*
X0166887Y0097180D02*
X0165916Y0097180D01*
X0160843Y0099179D02*
X0153863Y0099179D01*
X0155813Y0097180D02*
X0158845Y0097180D01*
X0156846Y0095182D02*
X0156250Y0095182D01*
X0156350Y0093183D02*
X0155756Y0093183D01*
X0156350Y0091184D02*
X0153533Y0091184D01*
X0154850Y0089186D02*
X0123009Y0089186D01*
X0122673Y0088850D02*
X0120850Y0088850D01*
X0120850Y0093250D01*
X0125250Y0093250D01*
X0125250Y0091427D01*
X0122673Y0088850D01*
X0120850Y0088850D02*
X0120850Y0093250D01*
X0120850Y0093250D01*
X0116450Y0093250D01*
X0116450Y0091427D01*
X0119027Y0088850D01*
X0120850Y0088850D01*
X0120850Y0089186D02*
X0120850Y0089186D01*
X0120850Y0091184D02*
X0120850Y0091184D01*
X0118691Y0089186D02*
X0112250Y0089186D01*
X0112250Y0091184D02*
X0116693Y0091184D01*
X0116450Y0093183D02*
X0112250Y0093183D01*
X0112250Y0095182D02*
X0116559Y0095182D01*
X0120850Y0095182D02*
X0120850Y0095182D01*
X0120850Y0093183D02*
X0120850Y0093183D01*
X0125250Y0093183D02*
X0147944Y0093183D01*
X0147450Y0095182D02*
X0125141Y0095182D01*
X0125007Y0091184D02*
X0150167Y0091184D01*
X0153950Y0087187D02*
X0112250Y0087187D01*
X0106250Y0089186D02*
X0097122Y0089186D01*
X0099120Y0091184D02*
X0106250Y0091184D01*
X0106250Y0093183D02*
X0101119Y0093183D01*
X0103117Y0095182D02*
X0106250Y0095182D01*
X0106250Y0097180D02*
X0105116Y0097180D01*
X0100043Y0099179D02*
X0098736Y0099179D01*
X0098045Y0097180D02*
X0097575Y0097180D01*
X0096046Y0095182D02*
X0014350Y0095182D01*
X0014350Y0093183D02*
X0083458Y0093183D01*
X0082850Y0091184D02*
X0014350Y0091184D01*
X0014350Y0089186D02*
X0083589Y0089186D01*
X0086506Y0085189D02*
X0014350Y0085189D01*
X0014350Y0087187D02*
X0105745Y0087187D01*
X0100609Y0085189D02*
X0092194Y0085189D01*
X0089350Y0085189D02*
X0089350Y0085189D01*
X0089350Y0083190D02*
X0089350Y0083190D01*
X0089350Y0081192D02*
X0089350Y0081192D01*
X0089350Y0079193D02*
X0089350Y0079193D01*
X0089350Y0077195D02*
X0089350Y0077195D01*
X0093078Y0077195D02*
X0099622Y0077195D01*
X0098420Y0079193D02*
X0094500Y0079193D01*
X0094500Y0081192D02*
X0098200Y0081192D01*
X0098787Y0083190D02*
X0094193Y0083190D01*
X0107078Y0077195D02*
X0116050Y0077195D01*
X0116050Y0079193D02*
X0108280Y0079193D01*
X0114277Y0067202D02*
X0101823Y0067202D01*
X0099077Y0067202D02*
X0062066Y0067202D01*
X0060068Y0065204D02*
X0097250Y0065204D01*
X0117023Y0067202D02*
X0131267Y0067202D01*
X0129268Y0065204D02*
X0118850Y0065204D01*
X0132342Y0061207D02*
X0134071Y0061207D01*
X0134341Y0063205D02*
X0136070Y0063205D01*
X0136339Y0065204D02*
X0138068Y0065204D01*
X0138338Y0067202D02*
X0140067Y0067202D01*
X0140336Y0069201D02*
X0142065Y0069201D01*
X0143131Y0071199D02*
X0144064Y0071199D01*
X0145113Y0073198D02*
X0145420Y0073198D01*
X0145650Y0075196D02*
X0146050Y0075196D01*
X0146050Y0077195D02*
X0145650Y0077195D01*
X0145650Y0079193D02*
X0146050Y0079193D01*
X0146050Y0081192D02*
X0145650Y0081192D01*
X0145159Y0083190D02*
X0146541Y0083190D01*
X0148299Y0085189D02*
X0143401Y0085189D01*
X0138299Y0085189D02*
X0133401Y0085189D01*
X0135159Y0083190D02*
X0136541Y0083190D01*
X0136050Y0081192D02*
X0135650Y0081192D01*
X0135650Y0079193D02*
X0136050Y0079193D01*
X0136050Y0077195D02*
X0135650Y0077195D01*
X0135650Y0075196D02*
X0136050Y0075196D01*
X0136587Y0073198D02*
X0135113Y0073198D01*
X0135264Y0071199D02*
X0133131Y0071199D01*
X0133265Y0069201D02*
X0064065Y0069201D01*
X0031030Y0083190D02*
X0030470Y0083190D01*
X0022114Y0083190D02*
X0014350Y0083190D01*
X0014350Y0081192D02*
X0020876Y0081192D01*
X0020876Y0079193D02*
X0014350Y0079193D01*
X0014350Y0077195D02*
X0020876Y0077195D01*
X0020876Y0075196D02*
X0014350Y0075196D01*
X0014350Y0073198D02*
X0025569Y0073198D01*
X0020876Y0071199D02*
X0014350Y0071199D01*
X0014350Y0069201D02*
X0020876Y0069201D01*
X0020876Y0067202D02*
X0014350Y0067202D01*
X0014350Y0065204D02*
X0020905Y0065204D01*
X0014350Y0097180D02*
X0083125Y0097180D01*
X0081964Y0099179D02*
X0014350Y0099179D01*
X0014350Y0101177D02*
X0025931Y0101177D01*
X0027104Y0100500D02*
X0024596Y0101948D01*
X0022548Y0103996D01*
X0021100Y0106504D01*
X0020350Y0109302D01*
X0020350Y0112198D01*
X0021100Y0114996D01*
X0022548Y0117504D01*
X0024596Y0119552D01*
X0027104Y0121000D01*
X0029902Y0121750D01*
X0032798Y0121750D01*
X0035596Y0121000D01*
X0038104Y0119552D01*
X0040152Y0117504D01*
X0041600Y0114996D01*
X0042350Y0112198D01*
X0042350Y0109302D01*
X0041600Y0106504D01*
X0040152Y0103996D01*
X0038104Y0101948D01*
X0035596Y0100500D01*
X0032798Y0099750D01*
X0029902Y0099750D01*
X0027104Y0100500D01*
X0023368Y0103176D02*
X0014350Y0103176D01*
X0014350Y0105174D02*
X0021868Y0105174D01*
X0020921Y0107173D02*
X0014350Y0107173D01*
X0014350Y0109171D02*
X0020385Y0109171D01*
X0020350Y0111170D02*
X0014350Y0111170D01*
X0014350Y0113168D02*
X0020610Y0113168D01*
X0021198Y0115167D02*
X0014350Y0115167D01*
X0014350Y0117165D02*
X0022352Y0117165D01*
X0024207Y0119164D02*
X0014350Y0119164D01*
X0014350Y0121162D02*
X0027708Y0121162D01*
X0034992Y0121162D02*
X0081750Y0121162D01*
X0081970Y0119164D02*
X0038493Y0119164D01*
X0040348Y0117165D02*
X0083140Y0117165D01*
X0084112Y0115167D02*
X0041502Y0115167D01*
X0042090Y0113168D02*
X0082334Y0113168D01*
X0081750Y0111170D02*
X0042350Y0111170D01*
X0042315Y0109171D02*
X0081990Y0109171D01*
X0083132Y0107173D02*
X0041779Y0107173D01*
X0040832Y0105174D02*
X0083979Y0105174D01*
X0082318Y0103176D02*
X0039332Y0103176D01*
X0036769Y0101177D02*
X0081750Y0101177D01*
X0096721Y0105174D02*
X0106250Y0105174D01*
X0104285Y0107173D02*
X0097568Y0107173D01*
X0098710Y0109171D02*
X0102286Y0109171D01*
X0100208Y0111170D02*
X0098950Y0111170D01*
X0099450Y0113168D02*
X0098366Y0113168D01*
X0099450Y0115167D02*
X0096588Y0115167D01*
X0097560Y0117165D02*
X0101043Y0117165D01*
X0083964Y0125159D02*
X0014720Y0125159D01*
X0014350Y0123161D02*
X0082312Y0123161D01*
X0098382Y0103176D02*
X0103050Y0103176D01*
X0102042Y0101177D02*
X0098950Y0101177D01*
X0153401Y0085189D02*
X0154266Y0085189D01*
X0161919Y0093183D02*
X0166944Y0093183D01*
X0166450Y0095182D02*
X0163917Y0095182D01*
X0155264Y0071199D02*
X0153131Y0071199D01*
X0153265Y0069201D02*
X0149136Y0069201D01*
X0153917Y0009246D02*
X0157076Y0009246D01*
X0164624Y0009246D02*
X0167076Y0009246D01*
X0174624Y0009246D02*
X0177076Y0009246D01*
X0184624Y0009246D02*
X0187076Y0009246D01*
X0194624Y0009246D02*
X0197076Y0009246D01*
X0204624Y0009246D02*
X0207076Y0009246D01*
X0214624Y0009246D02*
X0217076Y0009246D01*
X0289750Y0027232D02*
X0289750Y0027232D01*
X0289750Y0029231D02*
X0289750Y0029231D01*
X0293931Y0017240D02*
X0297350Y0017240D01*
X0297350Y0015241D02*
X0295850Y0015241D01*
X0295850Y0013243D02*
X0297349Y0013243D01*
X0296949Y0011244D02*
X0295850Y0011244D01*
X0295876Y0009246D02*
X0293917Y0009246D01*
D27*
X0150850Y0024250D03*
X0140350Y0031250D03*
X0104850Y0028750D03*
X0096850Y0029250D03*
X0089850Y0035750D03*
X0180850Y0106750D03*
X0179850Y0116750D03*
D28*
X0249850Y0120250D03*
X0044350Y0126250D03*
X0030850Y0123750D03*
X0021350Y0126250D03*
X0044350Y0110250D03*
X0030850Y0097750D03*
X0021350Y0095750D03*
X0044350Y0095750D03*
X0025850Y0043750D03*
X0025850Y0024250D03*
D29*
X0111650Y0052050D03*
X0115650Y0064050D03*
X0100450Y0064050D03*
X0147650Y0055250D03*
X0117250Y0038450D03*
X0186050Y0057650D03*
X0192450Y0060050D03*
X0206050Y0068050D03*
X0196450Y0084050D03*
X0210050Y0092850D03*
X0195650Y0096050D03*
X0105250Y0100850D03*
X0086050Y0091250D03*
X0190850Y0020850D03*
M02*
