G75*
%MOIN*%
%OFA0B0*%
%FSLAX25Y25*%
%IPPOS*%
%LPD*%
%AMOC8*
5,1,8,0,0,1.08239X$1,22.5*
%
%ADD10C,0.01000*%
%ADD11C,0.05600*%
%ADD12OC8,0.06102*%
%ADD13OC8,0.15748*%
%ADD14C,0.07677*%
%ADD15C,0.06600*%
%ADD16C,0.06600*%
%ADD17C,0.00000*%
%ADD18OC8,0.05200*%
%ADD19C,0.06000*%
%ADD20C,0.05200*%
%ADD21OC8,0.06300*%
%ADD22C,0.06300*%
%ADD23OC8,0.06000*%
%ADD24OC8,0.07000*%
%ADD25C,0.02000*%
%ADD26C,0.04362*%
%ADD27C,0.01200*%
%ADD28C,0.04400*%
%ADD29C,0.04200*%
D10*
X0020850Y0003250D02*
X0290850Y0003250D01*
X0280850Y0007000D02*
X0280850Y0013250D01*
X0270850Y0013250D02*
X0267100Y0017000D01*
X0266100Y0017000D01*
X0264350Y0018750D01*
X0264350Y0035750D01*
X0263350Y0036750D01*
X0256350Y0036750D01*
X0255350Y0037750D01*
X0255350Y0053250D01*
X0253850Y0054750D01*
X0237350Y0054750D01*
X0230850Y0048250D01*
X0240850Y0048250D02*
X0244600Y0044500D01*
X0244600Y0017000D01*
X0245850Y0015750D01*
X0245850Y0010750D01*
X0249600Y0007000D01*
X0280850Y0007000D01*
X0290850Y0003250D02*
X0291092Y0003253D01*
X0291333Y0003262D01*
X0291574Y0003276D01*
X0291815Y0003297D01*
X0292055Y0003323D01*
X0292295Y0003355D01*
X0292534Y0003393D01*
X0292771Y0003436D01*
X0293008Y0003486D01*
X0293243Y0003541D01*
X0293477Y0003601D01*
X0293709Y0003668D01*
X0293940Y0003739D01*
X0294169Y0003817D01*
X0294396Y0003900D01*
X0294621Y0003988D01*
X0294844Y0004082D01*
X0295064Y0004181D01*
X0295282Y0004286D01*
X0295497Y0004395D01*
X0295710Y0004510D01*
X0295920Y0004630D01*
X0296126Y0004755D01*
X0296330Y0004885D01*
X0296531Y0005020D01*
X0296728Y0005160D01*
X0296922Y0005304D01*
X0297112Y0005453D01*
X0297298Y0005607D01*
X0297481Y0005765D01*
X0297660Y0005927D01*
X0297835Y0006094D01*
X0298006Y0006265D01*
X0298173Y0006440D01*
X0298335Y0006619D01*
X0298493Y0006802D01*
X0298647Y0006988D01*
X0298796Y0007178D01*
X0298940Y0007372D01*
X0299080Y0007569D01*
X0299215Y0007770D01*
X0299345Y0007974D01*
X0299470Y0008180D01*
X0299590Y0008390D01*
X0299705Y0008603D01*
X0299814Y0008818D01*
X0299919Y0009036D01*
X0300018Y0009256D01*
X0300112Y0009479D01*
X0300200Y0009704D01*
X0300283Y0009931D01*
X0300361Y0010160D01*
X0300432Y0010391D01*
X0300499Y0010623D01*
X0300559Y0010857D01*
X0300614Y0011092D01*
X0300664Y0011329D01*
X0300707Y0011566D01*
X0300745Y0011805D01*
X0300777Y0012045D01*
X0300803Y0012285D01*
X0300824Y0012526D01*
X0300838Y0012767D01*
X0300847Y0013008D01*
X0300850Y0013250D01*
X0300850Y0123250D01*
X0300847Y0123492D01*
X0300838Y0123733D01*
X0300824Y0123974D01*
X0300803Y0124215D01*
X0300777Y0124455D01*
X0300745Y0124695D01*
X0300707Y0124934D01*
X0300664Y0125171D01*
X0300614Y0125408D01*
X0300559Y0125643D01*
X0300499Y0125877D01*
X0300432Y0126109D01*
X0300361Y0126340D01*
X0300283Y0126569D01*
X0300200Y0126796D01*
X0300112Y0127021D01*
X0300018Y0127244D01*
X0299919Y0127464D01*
X0299814Y0127682D01*
X0299705Y0127897D01*
X0299590Y0128110D01*
X0299470Y0128320D01*
X0299345Y0128526D01*
X0299215Y0128730D01*
X0299080Y0128931D01*
X0298940Y0129128D01*
X0298796Y0129322D01*
X0298647Y0129512D01*
X0298493Y0129698D01*
X0298335Y0129881D01*
X0298173Y0130060D01*
X0298006Y0130235D01*
X0297835Y0130406D01*
X0297660Y0130573D01*
X0297481Y0130735D01*
X0297298Y0130893D01*
X0297112Y0131047D01*
X0296922Y0131196D01*
X0296728Y0131340D01*
X0296531Y0131480D01*
X0296330Y0131615D01*
X0296126Y0131745D01*
X0295920Y0131870D01*
X0295710Y0131990D01*
X0295497Y0132105D01*
X0295282Y0132214D01*
X0295064Y0132319D01*
X0294844Y0132418D01*
X0294621Y0132512D01*
X0294396Y0132600D01*
X0294169Y0132683D01*
X0293940Y0132761D01*
X0293709Y0132832D01*
X0293477Y0132899D01*
X0293243Y0132959D01*
X0293008Y0133014D01*
X0292771Y0133064D01*
X0292534Y0133107D01*
X0292295Y0133145D01*
X0292055Y0133177D01*
X0291815Y0133203D01*
X0291574Y0133224D01*
X0291333Y0133238D01*
X0291092Y0133247D01*
X0290850Y0133250D01*
X0020850Y0133250D01*
X0020608Y0133247D01*
X0020367Y0133238D01*
X0020126Y0133224D01*
X0019885Y0133203D01*
X0019645Y0133177D01*
X0019405Y0133145D01*
X0019166Y0133107D01*
X0018929Y0133064D01*
X0018692Y0133014D01*
X0018457Y0132959D01*
X0018223Y0132899D01*
X0017991Y0132832D01*
X0017760Y0132761D01*
X0017531Y0132683D01*
X0017304Y0132600D01*
X0017079Y0132512D01*
X0016856Y0132418D01*
X0016636Y0132319D01*
X0016418Y0132214D01*
X0016203Y0132105D01*
X0015990Y0131990D01*
X0015780Y0131870D01*
X0015574Y0131745D01*
X0015370Y0131615D01*
X0015169Y0131480D01*
X0014972Y0131340D01*
X0014778Y0131196D01*
X0014588Y0131047D01*
X0014402Y0130893D01*
X0014219Y0130735D01*
X0014040Y0130573D01*
X0013865Y0130406D01*
X0013694Y0130235D01*
X0013527Y0130060D01*
X0013365Y0129881D01*
X0013207Y0129698D01*
X0013053Y0129512D01*
X0012904Y0129322D01*
X0012760Y0129128D01*
X0012620Y0128931D01*
X0012485Y0128730D01*
X0012355Y0128526D01*
X0012230Y0128320D01*
X0012110Y0128110D01*
X0011995Y0127897D01*
X0011886Y0127682D01*
X0011781Y0127464D01*
X0011682Y0127244D01*
X0011588Y0127021D01*
X0011500Y0126796D01*
X0011417Y0126569D01*
X0011339Y0126340D01*
X0011268Y0126109D01*
X0011201Y0125877D01*
X0011141Y0125643D01*
X0011086Y0125408D01*
X0011036Y0125171D01*
X0010993Y0124934D01*
X0010955Y0124695D01*
X0010923Y0124455D01*
X0010897Y0124215D01*
X0010876Y0123974D01*
X0010862Y0123733D01*
X0010853Y0123492D01*
X0010850Y0123250D01*
X0010850Y0013250D01*
X0010853Y0013008D01*
X0010862Y0012767D01*
X0010876Y0012526D01*
X0010897Y0012285D01*
X0010923Y0012045D01*
X0010955Y0011805D01*
X0010993Y0011566D01*
X0011036Y0011329D01*
X0011086Y0011092D01*
X0011141Y0010857D01*
X0011201Y0010623D01*
X0011268Y0010391D01*
X0011339Y0010160D01*
X0011417Y0009931D01*
X0011500Y0009704D01*
X0011588Y0009479D01*
X0011682Y0009256D01*
X0011781Y0009036D01*
X0011886Y0008818D01*
X0011995Y0008603D01*
X0012110Y0008390D01*
X0012230Y0008180D01*
X0012355Y0007974D01*
X0012485Y0007770D01*
X0012620Y0007569D01*
X0012760Y0007372D01*
X0012904Y0007178D01*
X0013053Y0006988D01*
X0013207Y0006802D01*
X0013365Y0006619D01*
X0013527Y0006440D01*
X0013694Y0006265D01*
X0013865Y0006094D01*
X0014040Y0005927D01*
X0014219Y0005765D01*
X0014402Y0005607D01*
X0014588Y0005453D01*
X0014778Y0005304D01*
X0014972Y0005160D01*
X0015169Y0005020D01*
X0015370Y0004885D01*
X0015574Y0004755D01*
X0015780Y0004630D01*
X0015990Y0004510D01*
X0016203Y0004395D01*
X0016418Y0004286D01*
X0016636Y0004181D01*
X0016856Y0004082D01*
X0017079Y0003988D01*
X0017304Y0003900D01*
X0017531Y0003817D01*
X0017760Y0003739D01*
X0017991Y0003668D01*
X0018223Y0003601D01*
X0018457Y0003541D01*
X0018692Y0003486D01*
X0018929Y0003436D01*
X0019166Y0003393D01*
X0019405Y0003355D01*
X0019645Y0003323D01*
X0019885Y0003297D01*
X0020126Y0003276D01*
X0020367Y0003262D01*
X0020608Y0003253D01*
X0020850Y0003250D01*
X0045850Y0007000D02*
X0045850Y0042000D01*
X0065850Y0062000D01*
X0065850Y0068250D01*
X0064600Y0069500D01*
X0064600Y0105750D01*
X0088350Y0129500D01*
X0195850Y0129500D01*
X0195850Y0092000D01*
X0209600Y0078250D01*
X0210850Y0078250D01*
X0217100Y0085750D02*
X0220850Y0082000D01*
X0220850Y0078250D01*
X0230850Y0078250D02*
X0230850Y0093250D01*
X0240850Y0103250D01*
X0240850Y0113250D02*
X0250850Y0103250D01*
X0255850Y0108250D02*
X0255850Y0090750D01*
X0245850Y0080750D01*
X0245850Y0069500D01*
X0233350Y0057000D01*
X0195350Y0057000D01*
X0195350Y0046250D01*
X0205850Y0035750D01*
X0205850Y0020750D01*
X0200850Y0015750D01*
X0190850Y0016250D02*
X0190850Y0013250D01*
X0190850Y0016250D02*
X0189350Y0017750D01*
X0186350Y0020750D01*
X0176350Y0020750D01*
X0164850Y0032250D01*
X0164850Y0039250D01*
X0164600Y0039500D01*
X0160850Y0032000D02*
X0175850Y0017000D01*
X0175850Y0009500D01*
X0178350Y0007000D01*
X0210850Y0007000D01*
X0210850Y0013250D01*
X0229719Y0019994D02*
X0230850Y0018863D01*
X0230850Y0013250D01*
X0250850Y0013250D02*
X0250850Y0038250D01*
X0248350Y0040750D01*
X0271950Y0030450D02*
X0272100Y0030750D01*
X0272100Y0055750D01*
X0271950Y0056050D01*
X0270850Y0057000D01*
X0270850Y0058250D01*
X0268350Y0060750D01*
X0268350Y0100750D01*
X0280850Y0113250D01*
X0270850Y0123250D02*
X0265850Y0118250D01*
X0265850Y0078250D01*
X0262100Y0074500D01*
X0250850Y0078250D02*
X0268350Y0060750D01*
X0240850Y0068750D02*
X0240850Y0078250D01*
X0240850Y0093250D01*
X0220850Y0099500D02*
X0220850Y0123250D01*
X0230850Y0123250D02*
X0230850Y0129500D01*
X0208350Y0129500D01*
X0205850Y0127000D01*
X0205850Y0108250D01*
X0200850Y0103250D01*
X0215850Y0112000D02*
X0217100Y0110750D01*
X0217100Y0085750D01*
X0194600Y0068750D02*
X0240850Y0068750D01*
X0195350Y0057000D02*
X0159600Y0057000D01*
X0150850Y0048250D01*
X0160850Y0048250D02*
X0160850Y0032000D01*
X0145850Y0028250D02*
X0160850Y0013250D01*
X0170850Y0013250D02*
X0170850Y0007500D01*
X0170350Y0007000D01*
X0148350Y0007000D01*
X0145850Y0009500D01*
X0145850Y0023250D01*
X0120850Y0048250D01*
X0113350Y0050750D02*
X0140850Y0078250D01*
X0130850Y0078250D02*
X0107100Y0054500D01*
X0105850Y0068250D02*
X0115850Y0078250D01*
X0115850Y0098250D01*
X0120850Y0103250D01*
X0095850Y0092000D02*
X0095850Y0028250D01*
X0080850Y0013250D01*
X0070850Y0013250D02*
X0092100Y0034500D01*
X0092100Y0095750D01*
X0120850Y0078250D02*
X0127100Y0084500D01*
X0145850Y0084500D01*
X0145850Y0028250D01*
X0170350Y0007000D02*
X0170850Y0007000D01*
X0068350Y0030750D02*
X0050850Y0013250D01*
X0054600Y0007000D02*
X0045850Y0007000D01*
X0054600Y0007000D02*
X0060850Y0013250D01*
X0068350Y0030750D02*
X0068350Y0072000D01*
X0150850Y0093250D02*
X0151850Y0093250D01*
X0152100Y0093250D01*
X0160850Y0084500D01*
X0160850Y0078250D01*
X0170850Y0078250D02*
X0170850Y0093250D01*
X0170850Y0113250D01*
X0150850Y0113250D02*
X0150850Y0093250D01*
X0240850Y0113250D02*
X0240850Y0123250D01*
X0255850Y0108250D02*
X0260850Y0113250D01*
D11*
X0250850Y0079650D02*
X0250850Y0076850D01*
X0240850Y0076850D02*
X0240850Y0079650D01*
X0230850Y0079650D02*
X0230850Y0076850D01*
X0220850Y0076850D02*
X0220850Y0079650D01*
X0210850Y0079650D02*
X0210850Y0076850D01*
X0200850Y0076850D02*
X0200850Y0079650D01*
X0190850Y0079650D02*
X0190850Y0076850D01*
X0180850Y0076850D02*
X0180850Y0079650D01*
X0170850Y0079650D02*
X0170850Y0076850D01*
X0160850Y0076850D02*
X0160850Y0079650D01*
X0150850Y0079650D02*
X0150850Y0076850D01*
X0140850Y0076850D02*
X0140850Y0079650D01*
X0130850Y0079650D02*
X0130850Y0076850D01*
X0120850Y0076850D02*
X0120850Y0079650D01*
X0120850Y0049650D02*
X0120850Y0046850D01*
X0130850Y0046850D02*
X0130850Y0049650D01*
X0140850Y0049650D02*
X0140850Y0046850D01*
X0150850Y0046850D02*
X0150850Y0049650D01*
X0160850Y0049650D02*
X0160850Y0046850D01*
X0170850Y0046850D02*
X0170850Y0049650D01*
X0180850Y0049650D02*
X0180850Y0046850D01*
X0190850Y0046850D02*
X0190850Y0049650D01*
X0200850Y0049650D02*
X0200850Y0046850D01*
X0210850Y0046850D02*
X0210850Y0049650D01*
X0220850Y0049650D02*
X0220850Y0046850D01*
X0230850Y0046850D02*
X0230850Y0049650D01*
X0240850Y0049650D02*
X0240850Y0046850D01*
X0250850Y0046850D02*
X0250850Y0049650D01*
D12*
X0260850Y0113250D03*
X0270850Y0113250D03*
X0280850Y0113250D03*
X0280850Y0123250D03*
X0270850Y0123250D03*
X0260850Y0123250D03*
D13*
X0054350Y0073450D03*
X0030750Y0073450D03*
X0042550Y0053750D03*
D14*
X0039550Y0053750D03*
X0045550Y0053750D03*
X0054350Y0070450D03*
X0054350Y0076450D03*
X0030750Y0076450D03*
X0030750Y0070450D03*
D15*
X0020850Y0033250D03*
X0060850Y0033250D03*
D16*
X0089200Y0103250D02*
X0092500Y0103250D01*
X0092500Y0113250D02*
X0089200Y0113250D01*
X0089200Y0123250D02*
X0092500Y0123250D01*
D17*
X0025350Y0113250D02*
X0025352Y0113411D01*
X0025358Y0113571D01*
X0025368Y0113732D01*
X0025382Y0113892D01*
X0025400Y0114052D01*
X0025421Y0114211D01*
X0025447Y0114370D01*
X0025477Y0114528D01*
X0025510Y0114685D01*
X0025548Y0114842D01*
X0025589Y0114997D01*
X0025634Y0115151D01*
X0025683Y0115304D01*
X0025736Y0115456D01*
X0025792Y0115607D01*
X0025853Y0115756D01*
X0025916Y0115904D01*
X0025984Y0116050D01*
X0026055Y0116194D01*
X0026129Y0116336D01*
X0026207Y0116477D01*
X0026289Y0116615D01*
X0026374Y0116752D01*
X0026462Y0116886D01*
X0026554Y0117018D01*
X0026649Y0117148D01*
X0026747Y0117276D01*
X0026848Y0117401D01*
X0026952Y0117523D01*
X0027059Y0117643D01*
X0027169Y0117760D01*
X0027282Y0117875D01*
X0027398Y0117986D01*
X0027517Y0118095D01*
X0027638Y0118200D01*
X0027762Y0118303D01*
X0027888Y0118403D01*
X0028016Y0118499D01*
X0028147Y0118592D01*
X0028281Y0118682D01*
X0028416Y0118769D01*
X0028554Y0118852D01*
X0028693Y0118932D01*
X0028835Y0119008D01*
X0028978Y0119081D01*
X0029123Y0119150D01*
X0029270Y0119216D01*
X0029418Y0119278D01*
X0029568Y0119336D01*
X0029719Y0119391D01*
X0029872Y0119442D01*
X0030026Y0119489D01*
X0030181Y0119532D01*
X0030337Y0119571D01*
X0030493Y0119607D01*
X0030651Y0119638D01*
X0030809Y0119666D01*
X0030968Y0119690D01*
X0031128Y0119710D01*
X0031288Y0119726D01*
X0031448Y0119738D01*
X0031609Y0119746D01*
X0031770Y0119750D01*
X0031930Y0119750D01*
X0032091Y0119746D01*
X0032252Y0119738D01*
X0032412Y0119726D01*
X0032572Y0119710D01*
X0032732Y0119690D01*
X0032891Y0119666D01*
X0033049Y0119638D01*
X0033207Y0119607D01*
X0033363Y0119571D01*
X0033519Y0119532D01*
X0033674Y0119489D01*
X0033828Y0119442D01*
X0033981Y0119391D01*
X0034132Y0119336D01*
X0034282Y0119278D01*
X0034430Y0119216D01*
X0034577Y0119150D01*
X0034722Y0119081D01*
X0034865Y0119008D01*
X0035007Y0118932D01*
X0035146Y0118852D01*
X0035284Y0118769D01*
X0035419Y0118682D01*
X0035553Y0118592D01*
X0035684Y0118499D01*
X0035812Y0118403D01*
X0035938Y0118303D01*
X0036062Y0118200D01*
X0036183Y0118095D01*
X0036302Y0117986D01*
X0036418Y0117875D01*
X0036531Y0117760D01*
X0036641Y0117643D01*
X0036748Y0117523D01*
X0036852Y0117401D01*
X0036953Y0117276D01*
X0037051Y0117148D01*
X0037146Y0117018D01*
X0037238Y0116886D01*
X0037326Y0116752D01*
X0037411Y0116615D01*
X0037493Y0116477D01*
X0037571Y0116336D01*
X0037645Y0116194D01*
X0037716Y0116050D01*
X0037784Y0115904D01*
X0037847Y0115756D01*
X0037908Y0115607D01*
X0037964Y0115456D01*
X0038017Y0115304D01*
X0038066Y0115151D01*
X0038111Y0114997D01*
X0038152Y0114842D01*
X0038190Y0114685D01*
X0038223Y0114528D01*
X0038253Y0114370D01*
X0038279Y0114211D01*
X0038300Y0114052D01*
X0038318Y0113892D01*
X0038332Y0113732D01*
X0038342Y0113571D01*
X0038348Y0113411D01*
X0038350Y0113250D01*
X0038348Y0113089D01*
X0038342Y0112929D01*
X0038332Y0112768D01*
X0038318Y0112608D01*
X0038300Y0112448D01*
X0038279Y0112289D01*
X0038253Y0112130D01*
X0038223Y0111972D01*
X0038190Y0111815D01*
X0038152Y0111658D01*
X0038111Y0111503D01*
X0038066Y0111349D01*
X0038017Y0111196D01*
X0037964Y0111044D01*
X0037908Y0110893D01*
X0037847Y0110744D01*
X0037784Y0110596D01*
X0037716Y0110450D01*
X0037645Y0110306D01*
X0037571Y0110164D01*
X0037493Y0110023D01*
X0037411Y0109885D01*
X0037326Y0109748D01*
X0037238Y0109614D01*
X0037146Y0109482D01*
X0037051Y0109352D01*
X0036953Y0109224D01*
X0036852Y0109099D01*
X0036748Y0108977D01*
X0036641Y0108857D01*
X0036531Y0108740D01*
X0036418Y0108625D01*
X0036302Y0108514D01*
X0036183Y0108405D01*
X0036062Y0108300D01*
X0035938Y0108197D01*
X0035812Y0108097D01*
X0035684Y0108001D01*
X0035553Y0107908D01*
X0035419Y0107818D01*
X0035284Y0107731D01*
X0035146Y0107648D01*
X0035007Y0107568D01*
X0034865Y0107492D01*
X0034722Y0107419D01*
X0034577Y0107350D01*
X0034430Y0107284D01*
X0034282Y0107222D01*
X0034132Y0107164D01*
X0033981Y0107109D01*
X0033828Y0107058D01*
X0033674Y0107011D01*
X0033519Y0106968D01*
X0033363Y0106929D01*
X0033207Y0106893D01*
X0033049Y0106862D01*
X0032891Y0106834D01*
X0032732Y0106810D01*
X0032572Y0106790D01*
X0032412Y0106774D01*
X0032252Y0106762D01*
X0032091Y0106754D01*
X0031930Y0106750D01*
X0031770Y0106750D01*
X0031609Y0106754D01*
X0031448Y0106762D01*
X0031288Y0106774D01*
X0031128Y0106790D01*
X0030968Y0106810D01*
X0030809Y0106834D01*
X0030651Y0106862D01*
X0030493Y0106893D01*
X0030337Y0106929D01*
X0030181Y0106968D01*
X0030026Y0107011D01*
X0029872Y0107058D01*
X0029719Y0107109D01*
X0029568Y0107164D01*
X0029418Y0107222D01*
X0029270Y0107284D01*
X0029123Y0107350D01*
X0028978Y0107419D01*
X0028835Y0107492D01*
X0028693Y0107568D01*
X0028554Y0107648D01*
X0028416Y0107731D01*
X0028281Y0107818D01*
X0028147Y0107908D01*
X0028016Y0108001D01*
X0027888Y0108097D01*
X0027762Y0108197D01*
X0027638Y0108300D01*
X0027517Y0108405D01*
X0027398Y0108514D01*
X0027282Y0108625D01*
X0027169Y0108740D01*
X0027059Y0108857D01*
X0026952Y0108977D01*
X0026848Y0109099D01*
X0026747Y0109224D01*
X0026649Y0109352D01*
X0026554Y0109482D01*
X0026462Y0109614D01*
X0026374Y0109748D01*
X0026289Y0109885D01*
X0026207Y0110023D01*
X0026129Y0110164D01*
X0026055Y0110306D01*
X0025984Y0110450D01*
X0025916Y0110596D01*
X0025853Y0110744D01*
X0025792Y0110893D01*
X0025736Y0111044D01*
X0025683Y0111196D01*
X0025634Y0111349D01*
X0025589Y0111503D01*
X0025548Y0111658D01*
X0025510Y0111815D01*
X0025477Y0111972D01*
X0025447Y0112130D01*
X0025421Y0112289D01*
X0025400Y0112448D01*
X0025382Y0112608D01*
X0025368Y0112768D01*
X0025358Y0112929D01*
X0025352Y0113089D01*
X0025350Y0113250D01*
D18*
X0120850Y0103250D03*
X0120850Y0093250D03*
X0100850Y0063250D03*
X0060850Y0063250D03*
X0200850Y0093250D03*
X0200850Y0103250D03*
X0240850Y0103250D03*
X0250850Y0103250D03*
X0250850Y0093250D03*
X0240850Y0093250D03*
X0275850Y0073250D03*
X0285850Y0073250D03*
X0290850Y0093250D03*
X0290850Y0103250D03*
X0259850Y0032250D03*
X0219850Y0032250D03*
D19*
X0271950Y0031950D02*
X0271950Y0028950D01*
X0289750Y0028950D02*
X0289750Y0031950D01*
X0289750Y0054550D02*
X0289750Y0057550D01*
X0271950Y0057550D02*
X0271950Y0054550D01*
D20*
X0170850Y0093250D03*
X0151850Y0093250D03*
D21*
X0190850Y0093250D03*
X0190850Y0103250D03*
X0170850Y0113250D03*
X0150850Y0113250D03*
X0150850Y0123250D03*
X0170850Y0123250D03*
X0086850Y0083250D03*
X0087350Y0043250D03*
X0109850Y0043250D03*
X0109850Y0033250D03*
X0180850Y0031750D03*
X0190850Y0031750D03*
X0200850Y0031750D03*
X0210850Y0031750D03*
D22*
X0100850Y0083250D03*
X0073350Y0043250D03*
D23*
X0100850Y0013250D03*
X0110850Y0013250D03*
X0120850Y0013250D03*
X0130850Y0013250D03*
X0140850Y0013250D03*
X0150850Y0013250D03*
X0240850Y0013250D03*
X0250850Y0013250D03*
X0260850Y0013250D03*
X0270850Y0013250D03*
X0280850Y0013250D03*
X0290850Y0013250D03*
X0240850Y0123250D03*
X0230850Y0123250D03*
X0220850Y0123250D03*
X0210850Y0123250D03*
X0200850Y0123250D03*
X0190850Y0123250D03*
D24*
X0190850Y0013250D03*
X0200850Y0013250D03*
X0210850Y0013250D03*
X0220850Y0013250D03*
X0230850Y0013250D03*
X0180850Y0013250D03*
X0170850Y0013250D03*
X0160850Y0013250D03*
X0090850Y0013250D03*
X0080850Y0013250D03*
X0070850Y0013250D03*
X0060850Y0013250D03*
X0050850Y0013250D03*
X0040850Y0013250D03*
X0030850Y0013250D03*
X0020850Y0013250D03*
D25*
X0020850Y0033250D02*
X0020850Y0053250D01*
X0027850Y0060250D01*
X0032850Y0060250D01*
X0039350Y0066750D01*
X0044350Y0066750D01*
X0051050Y0073450D01*
X0054350Y0073450D01*
X0069350Y0079750D02*
X0073350Y0075750D01*
X0073350Y0043250D01*
X0086850Y0043750D02*
X0086850Y0083250D01*
X0077850Y0092250D01*
X0077850Y0097250D01*
X0071350Y0103750D02*
X0069350Y0101750D01*
X0069350Y0079750D01*
X0100850Y0083250D02*
X0100850Y0113250D01*
X0090850Y0123250D01*
X0131350Y0114250D02*
X0131350Y0093250D01*
X0136350Y0092750D02*
X0136350Y0114250D01*
X0180350Y0112750D02*
X0180850Y0112250D01*
X0180850Y0078250D01*
X0185350Y0072750D02*
X0185350Y0060750D01*
X0197100Y0072000D02*
X0190850Y0078250D01*
X0197100Y0072000D02*
X0213350Y0072000D01*
X0215850Y0074500D01*
X0215850Y0082000D01*
X0211225Y0086625D01*
X0210850Y0087000D01*
X0210850Y0123250D01*
X0225850Y0114750D02*
X0230850Y0109750D01*
X0235350Y0109750D01*
X0285850Y0073250D02*
X0289750Y0069350D01*
X0289750Y0056050D01*
X0289750Y0030450D01*
X0262350Y0044750D02*
X0261850Y0045250D01*
X0261850Y0054750D01*
X0255850Y0060750D01*
X0246350Y0060750D01*
X0162850Y0024750D02*
X0153850Y0033750D01*
X0152350Y0033750D01*
X0134850Y0027750D02*
X0133850Y0026750D01*
X0124350Y0026750D01*
X0124350Y0033750D02*
X0117350Y0040750D01*
X0109600Y0033250D02*
X0100850Y0042000D01*
X0100850Y0063250D01*
X0100850Y0083250D01*
X0090850Y0103250D02*
X0090350Y0103750D01*
X0071350Y0103750D01*
X0086850Y0043750D02*
X0087350Y0043250D01*
X0109600Y0033250D02*
X0109850Y0033250D01*
X0129850Y0013250D01*
X0130850Y0013250D01*
X0110850Y0033250D02*
X0109850Y0033250D01*
D26*
X0124350Y0033750D03*
X0134850Y0027750D03*
X0124350Y0026750D03*
X0152350Y0033750D03*
X0162850Y0024750D03*
X0117350Y0040750D03*
X0185350Y0060750D03*
X0185350Y0072750D03*
X0136350Y0093250D03*
X0131350Y0093250D03*
X0131350Y0114250D03*
X0136350Y0114250D03*
X0180350Y0112750D03*
X0225850Y0114750D03*
X0235350Y0109750D03*
X0245850Y0060750D03*
X0261850Y0049750D03*
X0262350Y0044750D03*
X0077850Y0091750D03*
X0077850Y0097250D03*
D27*
X0180850Y0048250D02*
X0180850Y0043750D01*
X0171350Y0034250D01*
X0171350Y0031750D01*
X0177850Y0025250D01*
X0184350Y0025250D01*
X0190850Y0031750D01*
X0200850Y0031750D02*
X0190850Y0041750D01*
X0190850Y0048250D01*
X0200850Y0048250D02*
X0200850Y0046750D01*
X0205850Y0041750D01*
X0234850Y0041750D01*
X0240350Y0036250D01*
X0240350Y0013750D01*
X0230850Y0018750D02*
X0229719Y0019994D01*
X0225850Y0024250D01*
X0211350Y0024250D01*
X0210100Y0024500D01*
X0190850Y0041750D02*
X0180850Y0031750D01*
D28*
X0210100Y0024500D03*
D29*
X0248350Y0040750D03*
X0194600Y0068750D03*
X0164600Y0039500D03*
X0113350Y0050750D03*
X0107100Y0054500D03*
X0105850Y0068250D03*
X0068350Y0072000D03*
X0095850Y0092000D03*
X0092100Y0095750D03*
X0215850Y0112000D03*
X0220850Y0099500D03*
X0262100Y0074500D03*
M02*
