G75*
%MOIN*%
%OFA0B0*%
%FSLAX25Y25*%
%IPPOS*%
%LPD*%
%AMOC8*
5,1,8,0,0,1.08239X$1,22.5*
%
%ADD10C,0.00300*%
%ADD11C,0.00700*%
%ADD12C,0.00400*%
%ADD13C,0.00600*%
%ADD14C,0.00500*%
%ADD15R,0.02000X0.10000*%
%ADD16R,0.07500X0.03000*%
%ADD17C,0.00200*%
%ADD18R,0.02500X0.03000*%
%ADD19R,0.11000X0.05000*%
%ADD20R,0.03400X0.02400*%
%ADD21C,0.01000*%
%ADD22C,0.00800*%
%ADD23C,0.01600*%
D10*
X0098107Y0020701D02*
X0098808Y0020000D01*
X0099508Y0020701D01*
X0099508Y0022102D01*
X0100317Y0021401D02*
X0100667Y0021401D01*
X0100667Y0020000D01*
X0100317Y0020000D02*
X0101017Y0020000D01*
X0101790Y0020000D02*
X0101790Y0021401D01*
X0102841Y0021401D01*
X0103191Y0021051D01*
X0103191Y0020000D01*
X0100667Y0022102D02*
X0100667Y0022452D01*
X0098107Y0022102D02*
X0098107Y0020701D01*
X0128500Y0020951D02*
X0129201Y0021301D01*
X0129551Y0021301D01*
X0129901Y0020951D01*
X0129901Y0020250D01*
X0129551Y0019900D01*
X0128850Y0019900D01*
X0128500Y0020250D01*
X0128500Y0020951D02*
X0128500Y0022002D01*
X0129901Y0022002D01*
X0130710Y0022002D02*
X0130710Y0020601D01*
X0131410Y0019900D01*
X0132111Y0020601D01*
X0132111Y0022002D01*
X0149598Y0020451D02*
X0149598Y0019400D01*
X0151700Y0019400D01*
X0150999Y0019400D02*
X0150999Y0020451D01*
X0150649Y0020801D01*
X0149949Y0020801D01*
X0149598Y0020451D01*
X0150999Y0020101D02*
X0151700Y0020801D01*
X0151350Y0021610D02*
X0150649Y0021610D01*
X0150299Y0021960D01*
X0150299Y0022661D01*
X0150649Y0023011D01*
X0150999Y0023011D01*
X0150999Y0021610D01*
X0151350Y0021610D02*
X0151700Y0021960D01*
X0151700Y0022661D01*
X0151700Y0023820D02*
X0151700Y0024871D01*
X0151350Y0025221D01*
X0150999Y0024871D01*
X0150999Y0024170D01*
X0150649Y0023820D01*
X0150299Y0024170D01*
X0150299Y0025221D01*
X0150649Y0026030D02*
X0150299Y0026380D01*
X0150299Y0027081D01*
X0150649Y0027431D01*
X0150999Y0027431D01*
X0150999Y0026030D01*
X0150649Y0026030D02*
X0151350Y0026030D01*
X0151700Y0026380D01*
X0151700Y0027081D01*
X0151350Y0028590D02*
X0149949Y0028590D01*
X0150299Y0028240D02*
X0150299Y0028940D01*
X0151350Y0028590D02*
X0151700Y0028940D01*
X0159500Y0021151D02*
X0159500Y0020801D01*
X0159850Y0020451D01*
X0160551Y0020451D01*
X0160901Y0020101D01*
X0160901Y0019750D01*
X0160551Y0019400D01*
X0159850Y0019400D01*
X0159500Y0019750D01*
X0159500Y0020101D01*
X0159850Y0020451D01*
X0160551Y0020451D02*
X0160901Y0020801D01*
X0160901Y0021151D01*
X0160551Y0021502D01*
X0159850Y0021502D01*
X0159500Y0021151D01*
X0170500Y0021151D02*
X0170500Y0020801D01*
X0170850Y0020451D01*
X0171901Y0020451D01*
X0171901Y0021151D02*
X0171551Y0021502D01*
X0170850Y0021502D01*
X0170500Y0021151D01*
X0170500Y0019750D02*
X0170850Y0019400D01*
X0171551Y0019400D01*
X0171901Y0019750D01*
X0171901Y0021151D01*
X0179080Y0020901D02*
X0179781Y0021602D01*
X0179781Y0019500D01*
X0180481Y0019500D02*
X0179080Y0019500D01*
X0181290Y0019850D02*
X0182691Y0021251D01*
X0182691Y0019850D01*
X0182341Y0019500D01*
X0181640Y0019500D01*
X0181290Y0019850D01*
X0181290Y0021251D01*
X0181640Y0021602D01*
X0182341Y0021602D01*
X0182691Y0021251D01*
X0189000Y0020801D02*
X0189701Y0021502D01*
X0189701Y0019400D01*
X0190401Y0019400D02*
X0189000Y0019400D01*
X0191210Y0019400D02*
X0192611Y0019400D01*
X0191910Y0019400D02*
X0191910Y0021502D01*
X0191210Y0020801D01*
X0199080Y0020901D02*
X0199781Y0021602D01*
X0199781Y0019500D01*
X0200481Y0019500D02*
X0199080Y0019500D01*
X0201290Y0019500D02*
X0202691Y0020901D01*
X0202691Y0021251D01*
X0202341Y0021602D01*
X0201640Y0021602D01*
X0201290Y0021251D01*
X0201290Y0019500D02*
X0202691Y0019500D01*
X0209080Y0019500D02*
X0210481Y0019500D01*
X0209781Y0019500D02*
X0209781Y0021602D01*
X0209080Y0020901D01*
X0211290Y0021251D02*
X0211640Y0021602D01*
X0212341Y0021602D01*
X0212691Y0021251D01*
X0212691Y0020901D01*
X0212341Y0020551D01*
X0212691Y0020201D01*
X0212691Y0019850D01*
X0212341Y0019500D01*
X0211640Y0019500D01*
X0211290Y0019850D01*
X0211991Y0020551D02*
X0212341Y0020551D01*
X0217370Y0021251D02*
X0217370Y0019850D01*
X0217721Y0019500D01*
X0218421Y0019500D01*
X0218772Y0019850D01*
X0218772Y0020551D01*
X0218071Y0020551D01*
X0218772Y0021251D02*
X0218421Y0021602D01*
X0217721Y0021602D01*
X0217370Y0021251D01*
X0219580Y0021602D02*
X0219580Y0019500D01*
X0220981Y0019500D02*
X0219580Y0021602D01*
X0220981Y0021602D02*
X0220981Y0019500D01*
X0221790Y0019500D02*
X0222841Y0019500D01*
X0223191Y0019850D01*
X0223191Y0021251D01*
X0222841Y0021602D01*
X0221790Y0021602D01*
X0221790Y0019500D01*
X0226660Y0019500D02*
X0226660Y0020901D01*
X0227361Y0021602D01*
X0228062Y0020901D01*
X0228062Y0019500D01*
X0228870Y0019500D02*
X0228870Y0021602D01*
X0229921Y0021602D01*
X0230272Y0021251D01*
X0230272Y0020551D01*
X0229921Y0020201D01*
X0228870Y0020201D01*
X0229571Y0020201D02*
X0230272Y0019500D01*
X0231080Y0019500D02*
X0232481Y0019500D01*
X0233290Y0019500D02*
X0233290Y0021602D01*
X0234691Y0021602D01*
X0233991Y0020551D02*
X0233290Y0020551D01*
X0232481Y0021602D02*
X0231080Y0021602D01*
X0231080Y0019500D01*
X0231080Y0020551D02*
X0231781Y0020551D01*
X0228062Y0020551D02*
X0226660Y0020551D01*
D11*
X0238196Y0020827D02*
X0239631Y0022261D01*
X0242500Y0022261D01*
X0241783Y0023996D02*
X0238914Y0026865D01*
X0241783Y0026865D01*
X0242500Y0026148D01*
X0242500Y0024713D01*
X0241783Y0023996D01*
X0238914Y0023996D01*
X0238196Y0024713D01*
X0238196Y0026148D01*
X0238914Y0026865D01*
X0240348Y0022261D02*
X0240348Y0019392D01*
X0239631Y0019392D02*
X0238196Y0020827D01*
X0239631Y0019392D02*
X0242500Y0019392D01*
X0248196Y0020827D02*
X0249631Y0022261D01*
X0252500Y0022261D01*
X0252500Y0023996D02*
X0252500Y0026865D01*
X0252500Y0025431D02*
X0248196Y0025431D01*
X0249631Y0023996D01*
X0250348Y0022261D02*
X0250348Y0019392D01*
X0249631Y0019392D02*
X0248196Y0020827D01*
X0249631Y0019392D02*
X0252500Y0019392D01*
X0257696Y0021327D02*
X0259131Y0022761D01*
X0262000Y0022761D01*
X0259848Y0022761D02*
X0259848Y0019892D01*
X0259131Y0019892D02*
X0257696Y0021327D01*
X0259131Y0019892D02*
X0262000Y0019892D01*
X0266992Y0019600D02*
X0266992Y0022469D01*
X0268427Y0023904D01*
X0269861Y0022469D01*
X0269861Y0019600D01*
X0271596Y0020317D02*
X0272313Y0019600D01*
X0273748Y0019600D01*
X0274465Y0020317D01*
X0274465Y0021035D01*
X0273748Y0021752D01*
X0273031Y0021752D01*
X0273748Y0021752D02*
X0274465Y0022469D01*
X0274465Y0023186D01*
X0273748Y0023904D01*
X0272313Y0023904D01*
X0271596Y0023186D01*
X0269861Y0021752D02*
X0266992Y0021752D01*
X0262000Y0024496D02*
X0259131Y0027365D01*
X0258414Y0027365D01*
X0257696Y0026648D01*
X0257696Y0025213D01*
X0258414Y0024496D01*
X0262000Y0024496D02*
X0262000Y0027365D01*
X0278196Y0026648D02*
X0280348Y0024496D01*
X0280348Y0027365D01*
X0282500Y0026648D02*
X0278196Y0026648D01*
X0279631Y0022761D02*
X0282500Y0022761D01*
X0280348Y0022761D02*
X0280348Y0019892D01*
X0279631Y0019892D02*
X0278196Y0021327D01*
X0279631Y0022761D01*
X0279631Y0019892D02*
X0282500Y0019892D01*
X0286992Y0019600D02*
X0286992Y0022469D01*
X0288427Y0023904D01*
X0289861Y0022469D01*
X0289861Y0019600D01*
X0291596Y0020317D02*
X0292313Y0019600D01*
X0293748Y0019600D01*
X0294465Y0020317D01*
X0294465Y0021752D01*
X0293748Y0022469D01*
X0293031Y0022469D01*
X0291596Y0021752D01*
X0291596Y0023904D01*
X0294465Y0023904D01*
X0289861Y0021752D02*
X0286992Y0021752D01*
X0091969Y0021417D02*
X0091152Y0020600D01*
X0089517Y0020600D01*
X0088700Y0021417D01*
X0091969Y0024687D01*
X0091969Y0021417D01*
X0088700Y0021417D02*
X0088700Y0024687D01*
X0089517Y0025504D01*
X0091152Y0025504D01*
X0091969Y0024687D01*
X0082969Y0020600D02*
X0079700Y0020600D01*
X0081335Y0020600D02*
X0081335Y0025504D01*
X0079700Y0023869D01*
X0072469Y0023869D02*
X0072469Y0024687D01*
X0071652Y0025504D01*
X0070017Y0025504D01*
X0069200Y0024687D01*
X0072469Y0023869D02*
X0069200Y0020600D01*
X0072469Y0020600D01*
X0062469Y0020917D02*
X0061652Y0020100D01*
X0060017Y0020100D01*
X0059200Y0020917D01*
X0060835Y0022552D02*
X0061652Y0022552D01*
X0062469Y0021735D01*
X0062469Y0020917D01*
X0061652Y0022552D02*
X0062469Y0023369D01*
X0062469Y0024187D01*
X0061652Y0025004D01*
X0060017Y0025004D01*
X0059200Y0024187D01*
X0051969Y0022552D02*
X0048700Y0022552D01*
X0051152Y0025004D01*
X0051152Y0020100D01*
X0041969Y0020917D02*
X0041152Y0020100D01*
X0039517Y0020100D01*
X0038700Y0020917D01*
X0038700Y0022552D02*
X0040335Y0023369D01*
X0041152Y0023369D01*
X0041969Y0022552D01*
X0041969Y0020917D01*
X0038700Y0022552D02*
X0038700Y0025004D01*
X0041969Y0025004D01*
X0031969Y0025004D02*
X0030335Y0024187D01*
X0028700Y0022552D01*
X0031152Y0022552D01*
X0031969Y0021735D01*
X0031969Y0020917D01*
X0031152Y0020100D01*
X0029517Y0020100D01*
X0028700Y0020917D01*
X0028700Y0022552D01*
X0022969Y0024187D02*
X0022969Y0025004D01*
X0019700Y0025004D01*
X0022969Y0024187D02*
X0019700Y0020917D01*
X0019700Y0020100D01*
X0020700Y0048100D02*
X0023569Y0052404D01*
X0025304Y0050969D02*
X0026738Y0052404D01*
X0026738Y0048100D01*
X0025304Y0048100D02*
X0028173Y0048100D01*
X0023569Y0048100D02*
X0020700Y0052404D01*
X0184200Y0113317D02*
X0184917Y0112600D01*
X0186352Y0112600D01*
X0187069Y0113317D01*
X0187069Y0114752D01*
X0185635Y0114752D01*
X0184200Y0116186D02*
X0184200Y0113317D01*
X0188804Y0112600D02*
X0188804Y0116904D01*
X0191673Y0112600D01*
X0191673Y0116904D01*
X0193408Y0116904D02*
X0195560Y0116904D01*
X0196277Y0116186D01*
X0196277Y0113317D01*
X0195560Y0112600D01*
X0193408Y0112600D01*
X0193408Y0116904D01*
X0187069Y0116186D02*
X0186352Y0116904D01*
X0184917Y0116904D01*
X0184200Y0116186D01*
X0207696Y0117073D02*
X0210565Y0117073D01*
X0212000Y0115638D01*
X0210565Y0114204D01*
X0207696Y0114204D01*
X0207696Y0112469D02*
X0207696Y0109600D01*
X0209848Y0109600D01*
X0209131Y0111035D01*
X0209131Y0111752D01*
X0209848Y0112469D01*
X0211283Y0112469D01*
X0212000Y0111752D01*
X0212000Y0110317D01*
X0211283Y0109600D01*
X0218196Y0109600D02*
X0218196Y0111752D01*
X0218914Y0112469D01*
X0220348Y0112469D01*
X0221065Y0111752D01*
X0221065Y0109600D01*
X0221065Y0111035D02*
X0222500Y0112469D01*
X0222500Y0114204D02*
X0219631Y0117073D01*
X0219631Y0114204D02*
X0222500Y0117073D01*
X0230131Y0116865D02*
X0233000Y0113996D01*
X0230131Y0113996D02*
X0233000Y0116865D01*
X0236888Y0116904D02*
X0239040Y0116904D01*
X0239757Y0116186D01*
X0239757Y0113317D01*
X0239040Y0112600D01*
X0236888Y0112600D01*
X0236888Y0116904D01*
X0241492Y0116904D02*
X0244361Y0116904D01*
X0242927Y0116904D02*
X0242927Y0112600D01*
X0246096Y0112600D02*
X0246096Y0116904D01*
X0248248Y0116904D01*
X0248965Y0116186D01*
X0248965Y0114752D01*
X0248248Y0114035D01*
X0246096Y0114035D01*
X0247531Y0114035D02*
X0248965Y0112600D01*
X0233000Y0110827D02*
X0228696Y0110827D01*
X0228696Y0112261D02*
X0228696Y0109392D01*
X0222500Y0109600D02*
X0218196Y0109600D01*
X0292696Y0110219D02*
X0292696Y0111653D01*
X0292696Y0110936D02*
X0297000Y0110936D01*
X0297000Y0110219D02*
X0297000Y0111653D01*
X0296283Y0113288D02*
X0297000Y0114005D01*
X0297000Y0115440D01*
X0296283Y0116157D01*
X0296283Y0117892D02*
X0297000Y0118609D01*
X0297000Y0120044D01*
X0296283Y0120761D01*
X0295565Y0120761D01*
X0294848Y0120044D01*
X0294848Y0118609D01*
X0294131Y0117892D01*
X0293414Y0117892D01*
X0292696Y0118609D01*
X0292696Y0120044D01*
X0293414Y0120761D01*
X0292696Y0122496D02*
X0292696Y0124648D01*
X0293414Y0125365D01*
X0294848Y0125365D01*
X0295565Y0124648D01*
X0295565Y0122496D01*
X0297000Y0122496D02*
X0292696Y0122496D01*
X0293414Y0116157D02*
X0292696Y0115440D01*
X0292696Y0114005D01*
X0293414Y0113288D01*
X0296283Y0113288D01*
D12*
X0289452Y0113553D02*
X0287050Y0113553D01*
X0287050Y0111752D01*
X0288251Y0112352D01*
X0288852Y0112352D01*
X0289452Y0111752D01*
X0289452Y0110551D01*
X0288852Y0109950D01*
X0287651Y0109950D01*
X0287050Y0110551D01*
X0294047Y0105568D02*
X0294047Y0104367D01*
X0294647Y0103767D01*
X0294647Y0102486D02*
X0295848Y0102486D01*
X0296449Y0101885D01*
X0296449Y0100084D01*
X0296449Y0101285D02*
X0297650Y0102486D01*
X0297650Y0103767D02*
X0295248Y0106169D01*
X0294647Y0106169D01*
X0294047Y0105568D01*
X0297650Y0106169D02*
X0297650Y0103767D01*
X0294647Y0102486D02*
X0294047Y0101885D01*
X0294047Y0100084D01*
X0297650Y0100084D01*
X0267635Y0087453D02*
X0267635Y0086852D01*
X0267035Y0086252D01*
X0267635Y0085651D01*
X0267635Y0085051D01*
X0267035Y0084450D01*
X0265834Y0084450D01*
X0265233Y0085051D01*
X0263952Y0084450D02*
X0262751Y0085651D01*
X0263352Y0085651D02*
X0261550Y0085651D01*
X0261550Y0084450D02*
X0261550Y0088053D01*
X0263352Y0088053D01*
X0263952Y0087453D01*
X0263952Y0086252D01*
X0263352Y0085651D01*
X0265233Y0087453D02*
X0265834Y0088053D01*
X0267035Y0088053D01*
X0267635Y0087453D01*
X0267035Y0086252D02*
X0266434Y0086252D01*
X0257251Y0080553D02*
X0257251Y0076950D01*
X0256050Y0076950D02*
X0258452Y0076950D01*
X0256050Y0079352D02*
X0257251Y0080553D01*
X0241769Y0086551D02*
X0241168Y0085950D01*
X0239967Y0085950D01*
X0239367Y0086551D01*
X0239367Y0087752D02*
X0240568Y0088352D01*
X0241168Y0088352D01*
X0241769Y0087752D01*
X0241769Y0086551D01*
X0239367Y0087752D02*
X0239367Y0089553D01*
X0241769Y0089553D01*
X0238086Y0088953D02*
X0238086Y0087752D01*
X0237485Y0087151D01*
X0235684Y0087151D01*
X0236885Y0087151D02*
X0238086Y0085950D01*
X0235684Y0085950D02*
X0235684Y0089553D01*
X0237485Y0089553D01*
X0238086Y0088953D01*
X0244047Y0099084D02*
X0244047Y0100885D01*
X0244647Y0101486D01*
X0245848Y0101486D01*
X0246449Y0100885D01*
X0246449Y0099084D01*
X0246449Y0100285D02*
X0247650Y0101486D01*
X0247049Y0102767D02*
X0247650Y0103367D01*
X0247650Y0104568D01*
X0247049Y0105169D01*
X0246449Y0105169D01*
X0245848Y0104568D01*
X0245848Y0102767D01*
X0247049Y0102767D01*
X0245848Y0102767D02*
X0244647Y0103968D01*
X0244047Y0105169D01*
X0244047Y0099084D02*
X0247650Y0099084D01*
X0252550Y0110950D02*
X0254952Y0110950D01*
X0253751Y0110950D02*
X0253751Y0114553D01*
X0252550Y0113352D01*
X0252550Y0123950D02*
X0254952Y0126352D01*
X0254952Y0126953D01*
X0254352Y0127553D01*
X0253151Y0127553D01*
X0252550Y0126953D01*
X0252550Y0123950D02*
X0254952Y0123950D01*
X0287050Y0124252D02*
X0287050Y0123051D01*
X0287651Y0122450D01*
X0288852Y0122450D01*
X0289452Y0123051D01*
X0289452Y0123651D01*
X0288852Y0124252D01*
X0287050Y0124252D01*
X0288251Y0125453D01*
X0289452Y0126053D01*
X0294015Y0081872D02*
X0294482Y0081872D01*
X0294949Y0081405D01*
X0295416Y0081872D01*
X0295883Y0081872D01*
X0296350Y0081405D01*
X0296350Y0080471D01*
X0295883Y0080003D01*
X0296350Y0078925D02*
X0296350Y0077057D01*
X0296350Y0077991D02*
X0293548Y0077991D01*
X0294482Y0077057D01*
X0294015Y0080003D02*
X0293548Y0080471D01*
X0293548Y0081405D01*
X0294015Y0081872D01*
X0294949Y0081405D02*
X0294949Y0080938D01*
X0294949Y0073032D02*
X0294482Y0072565D01*
X0294482Y0071631D01*
X0294949Y0071164D01*
X0295883Y0071164D01*
X0296350Y0071631D01*
X0296350Y0072565D01*
X0295883Y0073032D01*
X0294949Y0073032D01*
X0294949Y0070086D02*
X0296350Y0070086D01*
X0294949Y0070086D02*
X0294482Y0069619D01*
X0294482Y0068217D01*
X0296350Y0068217D01*
X0296350Y0067187D02*
X0296350Y0066253D01*
X0296350Y0066720D02*
X0294482Y0066720D01*
X0294482Y0066253D01*
X0293548Y0066720D02*
X0293081Y0066720D01*
X0294015Y0065175D02*
X0294949Y0065175D01*
X0295416Y0064708D01*
X0295416Y0063307D01*
X0296350Y0063307D02*
X0293548Y0063307D01*
X0293548Y0064708D01*
X0294015Y0065175D01*
X0259769Y0043453D02*
X0259769Y0042852D01*
X0259168Y0042252D01*
X0257967Y0042252D01*
X0257367Y0042852D01*
X0257367Y0043453D01*
X0257967Y0044053D01*
X0259168Y0044053D01*
X0259769Y0043453D01*
X0259168Y0042252D02*
X0259769Y0041651D01*
X0259769Y0041051D01*
X0259168Y0040450D01*
X0257967Y0040450D01*
X0257367Y0041051D01*
X0257367Y0041651D01*
X0257967Y0042252D01*
X0256086Y0042852D02*
X0256086Y0043453D01*
X0255485Y0044053D01*
X0254284Y0044053D01*
X0253684Y0043453D01*
X0256086Y0042852D02*
X0253684Y0040450D01*
X0256086Y0040450D01*
X0242269Y0038752D02*
X0239867Y0038752D01*
X0241668Y0040553D01*
X0241668Y0036950D01*
X0238586Y0036950D02*
X0237385Y0038151D01*
X0237985Y0038151D02*
X0236184Y0038151D01*
X0236184Y0036950D02*
X0236184Y0040553D01*
X0237985Y0040553D01*
X0238586Y0039953D01*
X0238586Y0038752D01*
X0237985Y0038151D01*
X0209269Y0039051D02*
X0209269Y0039651D01*
X0208668Y0040252D01*
X0206867Y0040252D01*
X0206867Y0039051D01*
X0207467Y0038450D01*
X0208668Y0038450D01*
X0209269Y0039051D01*
X0208068Y0041453D02*
X0206867Y0040252D01*
X0208068Y0041453D02*
X0209269Y0042053D01*
X0205586Y0041453D02*
X0204985Y0042053D01*
X0203784Y0042053D01*
X0203184Y0041453D01*
X0203184Y0039051D01*
X0203784Y0038450D01*
X0204985Y0038450D01*
X0205586Y0039051D01*
X0189135Y0040252D02*
X0186733Y0040252D01*
X0188535Y0042053D01*
X0188535Y0038450D01*
X0185452Y0039051D02*
X0184852Y0038450D01*
X0183651Y0038450D01*
X0183050Y0039051D01*
X0183050Y0041453D01*
X0183651Y0042053D01*
X0184852Y0042053D01*
X0185452Y0041453D01*
X0127635Y0041752D02*
X0127635Y0040551D01*
X0127035Y0039950D01*
X0125834Y0039950D01*
X0125233Y0040551D01*
X0125233Y0041752D02*
X0126434Y0042352D01*
X0127035Y0042352D01*
X0127635Y0041752D01*
X0125233Y0041752D02*
X0125233Y0043553D01*
X0127635Y0043553D01*
X0122751Y0043553D02*
X0121550Y0042352D01*
X0122751Y0043553D02*
X0122751Y0039950D01*
X0121550Y0039950D02*
X0123952Y0039950D01*
X0102135Y0050551D02*
X0101535Y0049950D01*
X0100334Y0049950D01*
X0099733Y0050551D01*
X0099733Y0051151D01*
X0100334Y0051752D01*
X0101535Y0051752D01*
X0102135Y0051151D01*
X0102135Y0050551D01*
X0101535Y0051752D02*
X0102135Y0052352D01*
X0102135Y0052953D01*
X0101535Y0053553D01*
X0100334Y0053553D01*
X0099733Y0052953D01*
X0099733Y0052352D01*
X0100334Y0051752D01*
X0098452Y0052953D02*
X0097852Y0053553D01*
X0096651Y0053553D01*
X0096050Y0052953D01*
X0096050Y0050551D01*
X0096651Y0049950D01*
X0097852Y0049950D01*
X0098452Y0050551D01*
X0063452Y0045252D02*
X0061050Y0045252D01*
X0062251Y0046453D02*
X0062251Y0044051D01*
X0055434Y0041053D02*
X0055434Y0037450D01*
X0054233Y0037450D02*
X0056635Y0037450D01*
X0052952Y0038051D02*
X0052952Y0040453D01*
X0052352Y0041053D01*
X0050550Y0041053D01*
X0050550Y0037450D01*
X0052352Y0037450D01*
X0052952Y0038051D01*
X0054233Y0039852D02*
X0055434Y0041053D01*
X0111710Y0022585D02*
X0111710Y0020717D01*
X0112178Y0020250D01*
X0113112Y0020250D01*
X0113579Y0020717D01*
X0113579Y0021651D01*
X0112645Y0021651D01*
X0113579Y0022585D02*
X0113112Y0023052D01*
X0112178Y0023052D01*
X0111710Y0022585D01*
X0114657Y0023052D02*
X0116525Y0020250D01*
X0116525Y0023052D01*
X0117603Y0023052D02*
X0119005Y0023052D01*
X0119472Y0022585D01*
X0119472Y0020717D01*
X0119005Y0020250D01*
X0117603Y0020250D01*
X0117603Y0023052D01*
X0114657Y0023052D02*
X0114657Y0020250D01*
X0098934Y0016053D02*
X0098934Y0012450D01*
X0097733Y0012450D02*
X0100135Y0012450D01*
X0097733Y0014852D02*
X0098934Y0016053D01*
X0096452Y0015453D02*
X0095852Y0016053D01*
X0094050Y0016053D01*
X0094050Y0012450D01*
X0095852Y0012450D01*
X0096452Y0013051D01*
X0096452Y0015453D01*
X0080135Y0068950D02*
X0077733Y0068950D01*
X0078934Y0068950D02*
X0078934Y0072553D01*
X0077733Y0071352D01*
X0076452Y0070752D02*
X0075852Y0070151D01*
X0074050Y0070151D01*
X0074050Y0068950D02*
X0074050Y0072553D01*
X0075852Y0072553D01*
X0076452Y0071953D01*
X0076452Y0070752D01*
X0075251Y0070151D02*
X0076452Y0068950D01*
X0074233Y0080950D02*
X0074233Y0081551D01*
X0076635Y0083953D01*
X0076635Y0084553D01*
X0074233Y0084553D01*
X0072952Y0083953D02*
X0072352Y0084553D01*
X0071151Y0084553D01*
X0070550Y0083953D01*
X0070550Y0081551D01*
X0071151Y0080950D01*
X0072352Y0080950D01*
X0072952Y0081551D01*
X0111050Y0078852D02*
X0112251Y0080053D01*
X0112251Y0076450D01*
X0111050Y0076450D02*
X0113452Y0076450D01*
X0114733Y0078252D02*
X0117135Y0078252D01*
X0116535Y0080053D02*
X0116535Y0076450D01*
X0114733Y0078252D02*
X0116535Y0080053D01*
X0112251Y0084551D02*
X0112251Y0086953D01*
X0111050Y0085752D02*
X0113452Y0085752D01*
X0156550Y0104051D02*
X0157151Y0103450D01*
X0158352Y0103450D01*
X0158952Y0104051D01*
X0158952Y0106453D01*
X0158352Y0107053D01*
X0157151Y0107053D01*
X0156550Y0106453D01*
X0156550Y0104051D01*
X0157751Y0104651D02*
X0158952Y0103450D01*
X0160233Y0103450D02*
X0162635Y0103450D01*
X0161434Y0103450D02*
X0161434Y0107053D01*
X0160233Y0105852D01*
X0180547Y0105252D02*
X0180547Y0104051D01*
X0181147Y0103450D01*
X0183549Y0103450D01*
X0184150Y0104051D01*
X0184150Y0105252D01*
X0183549Y0105852D01*
X0184150Y0107133D02*
X0181748Y0109535D01*
X0181147Y0109535D01*
X0180547Y0108935D01*
X0180547Y0107734D01*
X0181147Y0107133D01*
X0181147Y0105852D02*
X0180547Y0105252D01*
X0184150Y0107133D02*
X0184150Y0109535D01*
X0164650Y0120551D02*
X0164049Y0119950D01*
X0161647Y0119950D01*
X0161047Y0120551D01*
X0161047Y0121752D01*
X0161647Y0122352D01*
X0161647Y0123633D02*
X0161047Y0124234D01*
X0161047Y0125435D01*
X0161647Y0126035D01*
X0162248Y0126035D01*
X0162848Y0125435D01*
X0163449Y0126035D01*
X0164049Y0126035D01*
X0164650Y0125435D01*
X0164650Y0124234D01*
X0164049Y0123633D01*
X0164049Y0122352D02*
X0164650Y0121752D01*
X0164650Y0120551D01*
X0162848Y0124834D02*
X0162848Y0125435D01*
X0144650Y0125334D02*
X0141047Y0125334D01*
X0142248Y0124133D01*
X0141647Y0122852D02*
X0141047Y0122252D01*
X0141047Y0121051D01*
X0141647Y0120450D01*
X0144049Y0120450D01*
X0144650Y0121051D01*
X0144650Y0122252D01*
X0144049Y0122852D01*
X0144650Y0124133D02*
X0144650Y0126535D01*
X0126025Y0111552D02*
X0126025Y0108750D01*
X0124624Y0108750D01*
X0124157Y0109217D01*
X0124157Y0110151D01*
X0124624Y0110618D01*
X0126025Y0110618D01*
X0127103Y0110151D02*
X0127103Y0109217D01*
X0127571Y0108750D01*
X0128505Y0108750D01*
X0128972Y0109217D01*
X0128972Y0110151D01*
X0128505Y0110618D01*
X0127571Y0110618D01*
X0127103Y0110151D01*
X0123079Y0110151D02*
X0123079Y0108750D01*
X0121678Y0108750D01*
X0121210Y0109217D01*
X0121678Y0109684D01*
X0123079Y0109684D01*
X0123079Y0110151D02*
X0122612Y0110618D01*
X0121678Y0110618D01*
X0120132Y0110618D02*
X0120132Y0108283D01*
X0119665Y0107816D01*
X0119198Y0107816D01*
X0118731Y0108750D02*
X0120132Y0108750D01*
X0118731Y0108750D02*
X0118264Y0109217D01*
X0118264Y0110151D01*
X0118731Y0110618D01*
X0120132Y0110618D01*
X0116767Y0110618D02*
X0116767Y0108750D01*
X0116300Y0108750D02*
X0117234Y0108750D01*
X0116767Y0110618D02*
X0116300Y0110618D01*
X0116767Y0111552D02*
X0116767Y0112019D01*
X0113353Y0111552D02*
X0113353Y0108750D01*
X0115221Y0108750D01*
X0106091Y0124450D02*
X0103689Y0124450D01*
X0104890Y0124450D02*
X0104890Y0128053D01*
X0103689Y0126852D01*
X0102407Y0127453D02*
X0101807Y0128053D01*
X0100606Y0128053D01*
X0100005Y0127453D01*
X0100005Y0125051D01*
X0100606Y0124450D01*
X0101807Y0124450D01*
X0102407Y0125051D01*
X0098751Y0124450D02*
X0097550Y0124450D01*
X0098151Y0124450D02*
X0098151Y0128053D01*
X0098751Y0128053D02*
X0097550Y0128053D01*
D13*
X0080850Y0133750D02*
X0031850Y0133750D01*
X0031850Y0130250D01*
X0025850Y0130250D01*
X0025850Y0133750D01*
X0018350Y0133750D01*
X0018350Y0092750D01*
X0025850Y0092750D01*
X0025850Y0096250D01*
X0031850Y0096250D01*
X0031850Y0092750D01*
X0080850Y0092750D01*
X0080850Y0133750D01*
X0024750Y0113250D02*
X0024752Y0113424D01*
X0024759Y0113598D01*
X0024769Y0113772D01*
X0024784Y0113946D01*
X0024803Y0114119D01*
X0024827Y0114292D01*
X0024855Y0114464D01*
X0024886Y0114635D01*
X0024923Y0114806D01*
X0024963Y0114975D01*
X0025007Y0115144D01*
X0025056Y0115311D01*
X0025108Y0115477D01*
X0025165Y0115642D01*
X0025226Y0115805D01*
X0025290Y0115967D01*
X0025359Y0116127D01*
X0025432Y0116286D01*
X0025508Y0116442D01*
X0025588Y0116597D01*
X0025672Y0116750D01*
X0025760Y0116900D01*
X0025852Y0117048D01*
X0025947Y0117195D01*
X0026045Y0117338D01*
X0026147Y0117479D01*
X0026253Y0117618D01*
X0026362Y0117754D01*
X0026474Y0117888D01*
X0026589Y0118018D01*
X0026708Y0118146D01*
X0026830Y0118270D01*
X0026954Y0118392D01*
X0027082Y0118511D01*
X0027212Y0118626D01*
X0027346Y0118738D01*
X0027482Y0118847D01*
X0027621Y0118953D01*
X0027762Y0119055D01*
X0027905Y0119153D01*
X0028052Y0119248D01*
X0028200Y0119340D01*
X0028350Y0119428D01*
X0028503Y0119512D01*
X0028658Y0119592D01*
X0028814Y0119668D01*
X0028973Y0119741D01*
X0029133Y0119810D01*
X0029295Y0119874D01*
X0029458Y0119935D01*
X0029623Y0119992D01*
X0029789Y0120044D01*
X0029956Y0120093D01*
X0030125Y0120137D01*
X0030294Y0120177D01*
X0030465Y0120214D01*
X0030636Y0120245D01*
X0030808Y0120273D01*
X0030981Y0120297D01*
X0031154Y0120316D01*
X0031328Y0120331D01*
X0031502Y0120341D01*
X0031676Y0120348D01*
X0031850Y0120350D01*
X0032024Y0120348D01*
X0032198Y0120341D01*
X0032372Y0120331D01*
X0032546Y0120316D01*
X0032719Y0120297D01*
X0032892Y0120273D01*
X0033064Y0120245D01*
X0033235Y0120214D01*
X0033406Y0120177D01*
X0033575Y0120137D01*
X0033744Y0120093D01*
X0033911Y0120044D01*
X0034077Y0119992D01*
X0034242Y0119935D01*
X0034405Y0119874D01*
X0034567Y0119810D01*
X0034727Y0119741D01*
X0034886Y0119668D01*
X0035042Y0119592D01*
X0035197Y0119512D01*
X0035350Y0119428D01*
X0035500Y0119340D01*
X0035648Y0119248D01*
X0035795Y0119153D01*
X0035938Y0119055D01*
X0036079Y0118953D01*
X0036218Y0118847D01*
X0036354Y0118738D01*
X0036488Y0118626D01*
X0036618Y0118511D01*
X0036746Y0118392D01*
X0036870Y0118270D01*
X0036992Y0118146D01*
X0037111Y0118018D01*
X0037226Y0117888D01*
X0037338Y0117754D01*
X0037447Y0117618D01*
X0037553Y0117479D01*
X0037655Y0117338D01*
X0037753Y0117195D01*
X0037848Y0117048D01*
X0037940Y0116900D01*
X0038028Y0116750D01*
X0038112Y0116597D01*
X0038192Y0116442D01*
X0038268Y0116286D01*
X0038341Y0116127D01*
X0038410Y0115967D01*
X0038474Y0115805D01*
X0038535Y0115642D01*
X0038592Y0115477D01*
X0038644Y0115311D01*
X0038693Y0115144D01*
X0038737Y0114975D01*
X0038777Y0114806D01*
X0038814Y0114635D01*
X0038845Y0114464D01*
X0038873Y0114292D01*
X0038897Y0114119D01*
X0038916Y0113946D01*
X0038931Y0113772D01*
X0038941Y0113598D01*
X0038948Y0113424D01*
X0038950Y0113250D01*
X0038948Y0113076D01*
X0038941Y0112902D01*
X0038931Y0112728D01*
X0038916Y0112554D01*
X0038897Y0112381D01*
X0038873Y0112208D01*
X0038845Y0112036D01*
X0038814Y0111865D01*
X0038777Y0111694D01*
X0038737Y0111525D01*
X0038693Y0111356D01*
X0038644Y0111189D01*
X0038592Y0111023D01*
X0038535Y0110858D01*
X0038474Y0110695D01*
X0038410Y0110533D01*
X0038341Y0110373D01*
X0038268Y0110214D01*
X0038192Y0110058D01*
X0038112Y0109903D01*
X0038028Y0109750D01*
X0037940Y0109600D01*
X0037848Y0109452D01*
X0037753Y0109305D01*
X0037655Y0109162D01*
X0037553Y0109021D01*
X0037447Y0108882D01*
X0037338Y0108746D01*
X0037226Y0108612D01*
X0037111Y0108482D01*
X0036992Y0108354D01*
X0036870Y0108230D01*
X0036746Y0108108D01*
X0036618Y0107989D01*
X0036488Y0107874D01*
X0036354Y0107762D01*
X0036218Y0107653D01*
X0036079Y0107547D01*
X0035938Y0107445D01*
X0035795Y0107347D01*
X0035648Y0107252D01*
X0035500Y0107160D01*
X0035350Y0107072D01*
X0035197Y0106988D01*
X0035042Y0106908D01*
X0034886Y0106832D01*
X0034727Y0106759D01*
X0034567Y0106690D01*
X0034405Y0106626D01*
X0034242Y0106565D01*
X0034077Y0106508D01*
X0033911Y0106456D01*
X0033744Y0106407D01*
X0033575Y0106363D01*
X0033406Y0106323D01*
X0033235Y0106286D01*
X0033064Y0106255D01*
X0032892Y0106227D01*
X0032719Y0106203D01*
X0032546Y0106184D01*
X0032372Y0106169D01*
X0032198Y0106159D01*
X0032024Y0106152D01*
X0031850Y0106150D01*
X0031676Y0106152D01*
X0031502Y0106159D01*
X0031328Y0106169D01*
X0031154Y0106184D01*
X0030981Y0106203D01*
X0030808Y0106227D01*
X0030636Y0106255D01*
X0030465Y0106286D01*
X0030294Y0106323D01*
X0030125Y0106363D01*
X0029956Y0106407D01*
X0029789Y0106456D01*
X0029623Y0106508D01*
X0029458Y0106565D01*
X0029295Y0106626D01*
X0029133Y0106690D01*
X0028973Y0106759D01*
X0028814Y0106832D01*
X0028658Y0106908D01*
X0028503Y0106988D01*
X0028350Y0107072D01*
X0028200Y0107160D01*
X0028052Y0107252D01*
X0027905Y0107347D01*
X0027762Y0107445D01*
X0027621Y0107547D01*
X0027482Y0107653D01*
X0027346Y0107762D01*
X0027212Y0107874D01*
X0027082Y0107989D01*
X0026954Y0108108D01*
X0026830Y0108230D01*
X0026708Y0108354D01*
X0026589Y0108482D01*
X0026474Y0108612D01*
X0026362Y0108746D01*
X0026253Y0108882D01*
X0026147Y0109021D01*
X0026045Y0109162D01*
X0025947Y0109305D01*
X0025852Y0109452D01*
X0025760Y0109600D01*
X0025672Y0109750D01*
X0025588Y0109903D01*
X0025508Y0110058D01*
X0025432Y0110214D01*
X0025359Y0110373D01*
X0025290Y0110533D01*
X0025226Y0110695D01*
X0025165Y0110858D01*
X0025108Y0111023D01*
X0025056Y0111189D01*
X0025007Y0111356D01*
X0024963Y0111525D01*
X0024923Y0111694D01*
X0024886Y0111865D01*
X0024855Y0112036D01*
X0024827Y0112208D01*
X0024803Y0112381D01*
X0024784Y0112554D01*
X0024769Y0112728D01*
X0024759Y0112902D01*
X0024752Y0113076D01*
X0024750Y0113250D01*
X0077850Y0083250D02*
X0077855Y0083643D01*
X0077869Y0084035D01*
X0077893Y0084427D01*
X0077927Y0084818D01*
X0077970Y0085209D01*
X0078023Y0085598D01*
X0078086Y0085985D01*
X0078157Y0086371D01*
X0078239Y0086756D01*
X0078329Y0087138D01*
X0078430Y0087517D01*
X0078539Y0087895D01*
X0078658Y0088269D01*
X0078785Y0088640D01*
X0078922Y0089008D01*
X0079068Y0089373D01*
X0079223Y0089734D01*
X0079386Y0090091D01*
X0079558Y0090444D01*
X0079739Y0090792D01*
X0079929Y0091136D01*
X0080126Y0091476D01*
X0080332Y0091810D01*
X0080546Y0092139D01*
X0080769Y0092463D01*
X0080999Y0092781D01*
X0081236Y0093094D01*
X0081482Y0093400D01*
X0081735Y0093701D01*
X0081995Y0093995D01*
X0082262Y0094283D01*
X0082536Y0094564D01*
X0082817Y0094838D01*
X0083105Y0095105D01*
X0083399Y0095365D01*
X0083700Y0095618D01*
X0084006Y0095864D01*
X0084319Y0096101D01*
X0084637Y0096331D01*
X0084961Y0096554D01*
X0085290Y0096768D01*
X0085624Y0096974D01*
X0085964Y0097171D01*
X0086308Y0097361D01*
X0086656Y0097542D01*
X0087009Y0097714D01*
X0087366Y0097877D01*
X0087727Y0098032D01*
X0088092Y0098178D01*
X0088460Y0098315D01*
X0088831Y0098442D01*
X0089205Y0098561D01*
X0089583Y0098670D01*
X0089962Y0098771D01*
X0090344Y0098861D01*
X0090729Y0098943D01*
X0091115Y0099014D01*
X0091502Y0099077D01*
X0091891Y0099130D01*
X0092282Y0099173D01*
X0092673Y0099207D01*
X0093065Y0099231D01*
X0093457Y0099245D01*
X0093850Y0099250D01*
X0094243Y0099245D01*
X0094635Y0099231D01*
X0095027Y0099207D01*
X0095418Y0099173D01*
X0095809Y0099130D01*
X0096198Y0099077D01*
X0096585Y0099014D01*
X0096971Y0098943D01*
X0097356Y0098861D01*
X0097738Y0098771D01*
X0098117Y0098670D01*
X0098495Y0098561D01*
X0098869Y0098442D01*
X0099240Y0098315D01*
X0099608Y0098178D01*
X0099973Y0098032D01*
X0100334Y0097877D01*
X0100691Y0097714D01*
X0101044Y0097542D01*
X0101392Y0097361D01*
X0101736Y0097171D01*
X0102076Y0096974D01*
X0102410Y0096768D01*
X0102739Y0096554D01*
X0103063Y0096331D01*
X0103381Y0096101D01*
X0103694Y0095864D01*
X0104000Y0095618D01*
X0104301Y0095365D01*
X0104595Y0095105D01*
X0104883Y0094838D01*
X0105164Y0094564D01*
X0105438Y0094283D01*
X0105705Y0093995D01*
X0105965Y0093701D01*
X0106218Y0093400D01*
X0106464Y0093094D01*
X0106701Y0092781D01*
X0106931Y0092463D01*
X0107154Y0092139D01*
X0107368Y0091810D01*
X0107574Y0091476D01*
X0107771Y0091136D01*
X0107961Y0090792D01*
X0108142Y0090444D01*
X0108314Y0090091D01*
X0108477Y0089734D01*
X0108632Y0089373D01*
X0108778Y0089008D01*
X0108915Y0088640D01*
X0109042Y0088269D01*
X0109161Y0087895D01*
X0109270Y0087517D01*
X0109371Y0087138D01*
X0109461Y0086756D01*
X0109543Y0086371D01*
X0109614Y0085985D01*
X0109677Y0085598D01*
X0109730Y0085209D01*
X0109773Y0084818D01*
X0109807Y0084427D01*
X0109831Y0084035D01*
X0109845Y0083643D01*
X0109850Y0083250D01*
X0109845Y0082857D01*
X0109831Y0082465D01*
X0109807Y0082073D01*
X0109773Y0081682D01*
X0109730Y0081291D01*
X0109677Y0080902D01*
X0109614Y0080515D01*
X0109543Y0080129D01*
X0109461Y0079744D01*
X0109371Y0079362D01*
X0109270Y0078983D01*
X0109161Y0078605D01*
X0109042Y0078231D01*
X0108915Y0077860D01*
X0108778Y0077492D01*
X0108632Y0077127D01*
X0108477Y0076766D01*
X0108314Y0076409D01*
X0108142Y0076056D01*
X0107961Y0075708D01*
X0107771Y0075364D01*
X0107574Y0075024D01*
X0107368Y0074690D01*
X0107154Y0074361D01*
X0106931Y0074037D01*
X0106701Y0073719D01*
X0106464Y0073406D01*
X0106218Y0073100D01*
X0105965Y0072799D01*
X0105705Y0072505D01*
X0105438Y0072217D01*
X0105164Y0071936D01*
X0104883Y0071662D01*
X0104595Y0071395D01*
X0104301Y0071135D01*
X0104000Y0070882D01*
X0103694Y0070636D01*
X0103381Y0070399D01*
X0103063Y0070169D01*
X0102739Y0069946D01*
X0102410Y0069732D01*
X0102076Y0069526D01*
X0101736Y0069329D01*
X0101392Y0069139D01*
X0101044Y0068958D01*
X0100691Y0068786D01*
X0100334Y0068623D01*
X0099973Y0068468D01*
X0099608Y0068322D01*
X0099240Y0068185D01*
X0098869Y0068058D01*
X0098495Y0067939D01*
X0098117Y0067830D01*
X0097738Y0067729D01*
X0097356Y0067639D01*
X0096971Y0067557D01*
X0096585Y0067486D01*
X0096198Y0067423D01*
X0095809Y0067370D01*
X0095418Y0067327D01*
X0095027Y0067293D01*
X0094635Y0067269D01*
X0094243Y0067255D01*
X0093850Y0067250D01*
X0093457Y0067255D01*
X0093065Y0067269D01*
X0092673Y0067293D01*
X0092282Y0067327D01*
X0091891Y0067370D01*
X0091502Y0067423D01*
X0091115Y0067486D01*
X0090729Y0067557D01*
X0090344Y0067639D01*
X0089962Y0067729D01*
X0089583Y0067830D01*
X0089205Y0067939D01*
X0088831Y0068058D01*
X0088460Y0068185D01*
X0088092Y0068322D01*
X0087727Y0068468D01*
X0087366Y0068623D01*
X0087009Y0068786D01*
X0086656Y0068958D01*
X0086308Y0069139D01*
X0085964Y0069329D01*
X0085624Y0069526D01*
X0085290Y0069732D01*
X0084961Y0069946D01*
X0084637Y0070169D01*
X0084319Y0070399D01*
X0084006Y0070636D01*
X0083700Y0070882D01*
X0083399Y0071135D01*
X0083105Y0071395D01*
X0082817Y0071662D01*
X0082536Y0071936D01*
X0082262Y0072217D01*
X0081995Y0072505D01*
X0081735Y0072799D01*
X0081482Y0073100D01*
X0081236Y0073406D01*
X0080999Y0073719D01*
X0080769Y0074037D01*
X0080546Y0074361D01*
X0080332Y0074690D01*
X0080126Y0075024D01*
X0079929Y0075364D01*
X0079739Y0075708D01*
X0079558Y0076056D01*
X0079386Y0076409D01*
X0079223Y0076766D01*
X0079068Y0077127D01*
X0078922Y0077492D01*
X0078785Y0077860D01*
X0078658Y0078231D01*
X0078539Y0078605D01*
X0078430Y0078983D01*
X0078329Y0079362D01*
X0078239Y0079744D01*
X0078157Y0080129D01*
X0078086Y0080515D01*
X0078023Y0080902D01*
X0077970Y0081291D01*
X0077927Y0081682D01*
X0077893Y0082073D01*
X0077869Y0082465D01*
X0077855Y0082857D01*
X0077850Y0083250D01*
X0104350Y0078750D02*
X0107350Y0078750D01*
X0105850Y0080250D02*
X0105850Y0077250D01*
X0112850Y0074250D02*
X0112850Y0052250D01*
X0258850Y0052250D01*
X0258850Y0060750D01*
X0258752Y0060752D01*
X0258654Y0060758D01*
X0258556Y0060767D01*
X0258459Y0060781D01*
X0258362Y0060798D01*
X0258266Y0060819D01*
X0258171Y0060844D01*
X0258077Y0060872D01*
X0257985Y0060905D01*
X0257893Y0060940D01*
X0257803Y0060980D01*
X0257715Y0061022D01*
X0257628Y0061069D01*
X0257544Y0061118D01*
X0257461Y0061171D01*
X0257381Y0061227D01*
X0257302Y0061287D01*
X0257226Y0061349D01*
X0257153Y0061414D01*
X0257082Y0061482D01*
X0257014Y0061553D01*
X0256949Y0061626D01*
X0256887Y0061702D01*
X0256827Y0061781D01*
X0256771Y0061861D01*
X0256718Y0061944D01*
X0256669Y0062028D01*
X0256622Y0062115D01*
X0256580Y0062203D01*
X0256540Y0062293D01*
X0256505Y0062385D01*
X0256472Y0062477D01*
X0256444Y0062571D01*
X0256419Y0062666D01*
X0256398Y0062762D01*
X0256381Y0062859D01*
X0256367Y0062956D01*
X0256358Y0063054D01*
X0256352Y0063152D01*
X0256350Y0063250D01*
X0256352Y0063348D01*
X0256358Y0063446D01*
X0256367Y0063544D01*
X0256381Y0063641D01*
X0256398Y0063738D01*
X0256419Y0063834D01*
X0256444Y0063929D01*
X0256472Y0064023D01*
X0256505Y0064115D01*
X0256540Y0064207D01*
X0256580Y0064297D01*
X0256622Y0064385D01*
X0256669Y0064472D01*
X0256718Y0064556D01*
X0256771Y0064639D01*
X0256827Y0064719D01*
X0256887Y0064798D01*
X0256949Y0064874D01*
X0257014Y0064947D01*
X0257082Y0065018D01*
X0257153Y0065086D01*
X0257226Y0065151D01*
X0257302Y0065213D01*
X0257381Y0065273D01*
X0257461Y0065329D01*
X0257544Y0065382D01*
X0257628Y0065431D01*
X0257715Y0065478D01*
X0257803Y0065520D01*
X0257893Y0065560D01*
X0257985Y0065595D01*
X0258077Y0065628D01*
X0258171Y0065656D01*
X0258266Y0065681D01*
X0258362Y0065702D01*
X0258459Y0065719D01*
X0258556Y0065733D01*
X0258654Y0065742D01*
X0258752Y0065748D01*
X0258850Y0065750D01*
X0258850Y0074250D01*
X0112850Y0074250D01*
X0093350Y0066750D02*
X0093350Y0059750D01*
X0093348Y0059690D01*
X0093343Y0059629D01*
X0093334Y0059570D01*
X0093321Y0059511D01*
X0093305Y0059452D01*
X0093285Y0059395D01*
X0093262Y0059340D01*
X0093235Y0059285D01*
X0093206Y0059233D01*
X0093173Y0059182D01*
X0093137Y0059133D01*
X0093099Y0059087D01*
X0093057Y0059043D01*
X0093013Y0059001D01*
X0092967Y0058963D01*
X0092918Y0058927D01*
X0092867Y0058894D01*
X0092815Y0058865D01*
X0092760Y0058838D01*
X0092705Y0058815D01*
X0092648Y0058795D01*
X0092589Y0058779D01*
X0092530Y0058766D01*
X0092471Y0058757D01*
X0092410Y0058752D01*
X0092350Y0058750D01*
X0090850Y0058750D01*
X0090350Y0059250D01*
X0071350Y0059250D01*
X0070850Y0058750D01*
X0069350Y0058750D01*
X0069290Y0058752D01*
X0069229Y0058757D01*
X0069170Y0058766D01*
X0069111Y0058779D01*
X0069052Y0058795D01*
X0068995Y0058815D01*
X0068940Y0058838D01*
X0068885Y0058865D01*
X0068833Y0058894D01*
X0068782Y0058927D01*
X0068733Y0058963D01*
X0068687Y0059001D01*
X0068643Y0059043D01*
X0068601Y0059087D01*
X0068563Y0059133D01*
X0068527Y0059182D01*
X0068494Y0059233D01*
X0068465Y0059285D01*
X0068438Y0059340D01*
X0068415Y0059395D01*
X0068395Y0059452D01*
X0068379Y0059511D01*
X0068366Y0059570D01*
X0068357Y0059629D01*
X0068352Y0059690D01*
X0068350Y0059750D01*
X0068350Y0066750D01*
X0068352Y0066810D01*
X0068357Y0066871D01*
X0068366Y0066930D01*
X0068379Y0066989D01*
X0068395Y0067048D01*
X0068415Y0067105D01*
X0068438Y0067160D01*
X0068465Y0067215D01*
X0068494Y0067267D01*
X0068527Y0067318D01*
X0068563Y0067367D01*
X0068601Y0067413D01*
X0068643Y0067457D01*
X0068687Y0067499D01*
X0068733Y0067537D01*
X0068782Y0067573D01*
X0068833Y0067606D01*
X0068885Y0067635D01*
X0068940Y0067662D01*
X0068995Y0067685D01*
X0069052Y0067705D01*
X0069111Y0067721D01*
X0069170Y0067734D01*
X0069229Y0067743D01*
X0069290Y0067748D01*
X0069350Y0067750D01*
X0070850Y0067750D01*
X0071350Y0067250D01*
X0090350Y0067250D01*
X0090850Y0067750D01*
X0092350Y0067750D01*
X0092410Y0067748D01*
X0092471Y0067743D01*
X0092530Y0067734D01*
X0092589Y0067721D01*
X0092648Y0067705D01*
X0092705Y0067685D01*
X0092760Y0067662D01*
X0092815Y0067635D01*
X0092867Y0067606D01*
X0092918Y0067573D01*
X0092967Y0067537D01*
X0093013Y0067499D01*
X0093057Y0067457D01*
X0093099Y0067413D01*
X0093137Y0067367D01*
X0093173Y0067318D01*
X0093206Y0067267D01*
X0093235Y0067215D01*
X0093262Y0067160D01*
X0093285Y0067105D01*
X0093305Y0067048D01*
X0093321Y0066989D01*
X0093334Y0066930D01*
X0093343Y0066871D01*
X0093348Y0066810D01*
X0093350Y0066750D01*
X0068350Y0049250D02*
X0068350Y0046250D01*
X0066850Y0047750D02*
X0069850Y0047750D01*
X0064350Y0043250D02*
X0064355Y0043643D01*
X0064369Y0044035D01*
X0064393Y0044427D01*
X0064427Y0044818D01*
X0064470Y0045209D01*
X0064523Y0045598D01*
X0064586Y0045985D01*
X0064657Y0046371D01*
X0064739Y0046756D01*
X0064829Y0047138D01*
X0064930Y0047517D01*
X0065039Y0047895D01*
X0065158Y0048269D01*
X0065285Y0048640D01*
X0065422Y0049008D01*
X0065568Y0049373D01*
X0065723Y0049734D01*
X0065886Y0050091D01*
X0066058Y0050444D01*
X0066239Y0050792D01*
X0066429Y0051136D01*
X0066626Y0051476D01*
X0066832Y0051810D01*
X0067046Y0052139D01*
X0067269Y0052463D01*
X0067499Y0052781D01*
X0067736Y0053094D01*
X0067982Y0053400D01*
X0068235Y0053701D01*
X0068495Y0053995D01*
X0068762Y0054283D01*
X0069036Y0054564D01*
X0069317Y0054838D01*
X0069605Y0055105D01*
X0069899Y0055365D01*
X0070200Y0055618D01*
X0070506Y0055864D01*
X0070819Y0056101D01*
X0071137Y0056331D01*
X0071461Y0056554D01*
X0071790Y0056768D01*
X0072124Y0056974D01*
X0072464Y0057171D01*
X0072808Y0057361D01*
X0073156Y0057542D01*
X0073509Y0057714D01*
X0073866Y0057877D01*
X0074227Y0058032D01*
X0074592Y0058178D01*
X0074960Y0058315D01*
X0075331Y0058442D01*
X0075705Y0058561D01*
X0076083Y0058670D01*
X0076462Y0058771D01*
X0076844Y0058861D01*
X0077229Y0058943D01*
X0077615Y0059014D01*
X0078002Y0059077D01*
X0078391Y0059130D01*
X0078782Y0059173D01*
X0079173Y0059207D01*
X0079565Y0059231D01*
X0079957Y0059245D01*
X0080350Y0059250D01*
X0080743Y0059245D01*
X0081135Y0059231D01*
X0081527Y0059207D01*
X0081918Y0059173D01*
X0082309Y0059130D01*
X0082698Y0059077D01*
X0083085Y0059014D01*
X0083471Y0058943D01*
X0083856Y0058861D01*
X0084238Y0058771D01*
X0084617Y0058670D01*
X0084995Y0058561D01*
X0085369Y0058442D01*
X0085740Y0058315D01*
X0086108Y0058178D01*
X0086473Y0058032D01*
X0086834Y0057877D01*
X0087191Y0057714D01*
X0087544Y0057542D01*
X0087892Y0057361D01*
X0088236Y0057171D01*
X0088576Y0056974D01*
X0088910Y0056768D01*
X0089239Y0056554D01*
X0089563Y0056331D01*
X0089881Y0056101D01*
X0090194Y0055864D01*
X0090500Y0055618D01*
X0090801Y0055365D01*
X0091095Y0055105D01*
X0091383Y0054838D01*
X0091664Y0054564D01*
X0091938Y0054283D01*
X0092205Y0053995D01*
X0092465Y0053701D01*
X0092718Y0053400D01*
X0092964Y0053094D01*
X0093201Y0052781D01*
X0093431Y0052463D01*
X0093654Y0052139D01*
X0093868Y0051810D01*
X0094074Y0051476D01*
X0094271Y0051136D01*
X0094461Y0050792D01*
X0094642Y0050444D01*
X0094814Y0050091D01*
X0094977Y0049734D01*
X0095132Y0049373D01*
X0095278Y0049008D01*
X0095415Y0048640D01*
X0095542Y0048269D01*
X0095661Y0047895D01*
X0095770Y0047517D01*
X0095871Y0047138D01*
X0095961Y0046756D01*
X0096043Y0046371D01*
X0096114Y0045985D01*
X0096177Y0045598D01*
X0096230Y0045209D01*
X0096273Y0044818D01*
X0096307Y0044427D01*
X0096331Y0044035D01*
X0096345Y0043643D01*
X0096350Y0043250D01*
X0096345Y0042857D01*
X0096331Y0042465D01*
X0096307Y0042073D01*
X0096273Y0041682D01*
X0096230Y0041291D01*
X0096177Y0040902D01*
X0096114Y0040515D01*
X0096043Y0040129D01*
X0095961Y0039744D01*
X0095871Y0039362D01*
X0095770Y0038983D01*
X0095661Y0038605D01*
X0095542Y0038231D01*
X0095415Y0037860D01*
X0095278Y0037492D01*
X0095132Y0037127D01*
X0094977Y0036766D01*
X0094814Y0036409D01*
X0094642Y0036056D01*
X0094461Y0035708D01*
X0094271Y0035364D01*
X0094074Y0035024D01*
X0093868Y0034690D01*
X0093654Y0034361D01*
X0093431Y0034037D01*
X0093201Y0033719D01*
X0092964Y0033406D01*
X0092718Y0033100D01*
X0092465Y0032799D01*
X0092205Y0032505D01*
X0091938Y0032217D01*
X0091664Y0031936D01*
X0091383Y0031662D01*
X0091095Y0031395D01*
X0090801Y0031135D01*
X0090500Y0030882D01*
X0090194Y0030636D01*
X0089881Y0030399D01*
X0089563Y0030169D01*
X0089239Y0029946D01*
X0088910Y0029732D01*
X0088576Y0029526D01*
X0088236Y0029329D01*
X0087892Y0029139D01*
X0087544Y0028958D01*
X0087191Y0028786D01*
X0086834Y0028623D01*
X0086473Y0028468D01*
X0086108Y0028322D01*
X0085740Y0028185D01*
X0085369Y0028058D01*
X0084995Y0027939D01*
X0084617Y0027830D01*
X0084238Y0027729D01*
X0083856Y0027639D01*
X0083471Y0027557D01*
X0083085Y0027486D01*
X0082698Y0027423D01*
X0082309Y0027370D01*
X0081918Y0027327D01*
X0081527Y0027293D01*
X0081135Y0027269D01*
X0080743Y0027255D01*
X0080350Y0027250D01*
X0079957Y0027255D01*
X0079565Y0027269D01*
X0079173Y0027293D01*
X0078782Y0027327D01*
X0078391Y0027370D01*
X0078002Y0027423D01*
X0077615Y0027486D01*
X0077229Y0027557D01*
X0076844Y0027639D01*
X0076462Y0027729D01*
X0076083Y0027830D01*
X0075705Y0027939D01*
X0075331Y0028058D01*
X0074960Y0028185D01*
X0074592Y0028322D01*
X0074227Y0028468D01*
X0073866Y0028623D01*
X0073509Y0028786D01*
X0073156Y0028958D01*
X0072808Y0029139D01*
X0072464Y0029329D01*
X0072124Y0029526D01*
X0071790Y0029732D01*
X0071461Y0029946D01*
X0071137Y0030169D01*
X0070819Y0030399D01*
X0070506Y0030636D01*
X0070200Y0030882D01*
X0069899Y0031135D01*
X0069605Y0031395D01*
X0069317Y0031662D01*
X0069036Y0031936D01*
X0068762Y0032217D01*
X0068495Y0032505D01*
X0068235Y0032799D01*
X0067982Y0033100D01*
X0067736Y0033406D01*
X0067499Y0033719D01*
X0067269Y0034037D01*
X0067046Y0034361D01*
X0066832Y0034690D01*
X0066626Y0035024D01*
X0066429Y0035364D01*
X0066239Y0035708D01*
X0066058Y0036056D01*
X0065886Y0036409D01*
X0065723Y0036766D01*
X0065568Y0037127D01*
X0065422Y0037492D01*
X0065285Y0037860D01*
X0065158Y0038231D01*
X0065039Y0038605D01*
X0064930Y0038983D01*
X0064829Y0039362D01*
X0064739Y0039744D01*
X0064657Y0040129D01*
X0064586Y0040515D01*
X0064523Y0040902D01*
X0064470Y0041291D01*
X0064427Y0041682D01*
X0064393Y0042073D01*
X0064369Y0042465D01*
X0064355Y0042857D01*
X0064350Y0043250D01*
X0048850Y0038250D02*
X0048850Y0028250D01*
X0032850Y0028250D01*
X0032850Y0038250D01*
X0048850Y0038250D01*
X0040850Y0035750D02*
X0040850Y0033250D01*
X0040850Y0030750D01*
X0040850Y0033250D02*
X0036850Y0030750D01*
X0036850Y0035750D01*
X0040850Y0033250D01*
X0034850Y0033250D01*
X0040850Y0033250D02*
X0043350Y0033250D01*
X0095850Y0015750D02*
X0095850Y0010750D01*
X0098350Y0008250D01*
X0103350Y0008250D01*
X0105850Y0010750D01*
X0105850Y0015750D01*
X0103350Y0018250D01*
X0098350Y0018250D01*
X0095850Y0015750D01*
X0105850Y0015750D02*
X0108350Y0018250D01*
X0113350Y0018250D01*
X0115850Y0015750D01*
X0118350Y0018250D01*
X0123350Y0018250D01*
X0125850Y0015750D01*
X0128350Y0018250D01*
X0133350Y0018250D01*
X0135850Y0015750D01*
X0138350Y0018250D01*
X0143350Y0018250D01*
X0145850Y0015750D01*
X0148350Y0018250D01*
X0153350Y0018250D01*
X0155850Y0015750D01*
X0155850Y0010750D01*
X0153350Y0008250D01*
X0148350Y0008250D01*
X0145850Y0010750D01*
X0143350Y0008250D01*
X0138350Y0008250D01*
X0135850Y0010750D01*
X0135850Y0015750D01*
X0125850Y0015750D02*
X0125850Y0010750D01*
X0123350Y0008250D01*
X0118350Y0008250D01*
X0115850Y0010750D01*
X0113350Y0008250D01*
X0108350Y0008250D01*
X0105850Y0010750D01*
X0115850Y0010750D02*
X0115850Y0015750D01*
X0125850Y0010750D02*
X0128350Y0008250D01*
X0133350Y0008250D01*
X0135850Y0010750D01*
X0145850Y0010750D02*
X0145850Y0015750D01*
X0176350Y0026750D02*
X0176350Y0036750D01*
X0176352Y0036810D01*
X0176357Y0036871D01*
X0176366Y0036930D01*
X0176379Y0036989D01*
X0176395Y0037048D01*
X0176415Y0037105D01*
X0176438Y0037160D01*
X0176465Y0037215D01*
X0176494Y0037267D01*
X0176527Y0037318D01*
X0176563Y0037367D01*
X0176601Y0037413D01*
X0176643Y0037457D01*
X0176687Y0037499D01*
X0176733Y0037537D01*
X0176782Y0037573D01*
X0176833Y0037606D01*
X0176885Y0037635D01*
X0176940Y0037662D01*
X0176995Y0037685D01*
X0177052Y0037705D01*
X0177111Y0037721D01*
X0177170Y0037734D01*
X0177229Y0037743D01*
X0177290Y0037748D01*
X0177350Y0037750D01*
X0194350Y0037750D01*
X0194410Y0037748D01*
X0194471Y0037743D01*
X0194530Y0037734D01*
X0194589Y0037721D01*
X0194648Y0037705D01*
X0194705Y0037685D01*
X0194760Y0037662D01*
X0194815Y0037635D01*
X0194867Y0037606D01*
X0194918Y0037573D01*
X0194967Y0037537D01*
X0195013Y0037499D01*
X0195057Y0037457D01*
X0195099Y0037413D01*
X0195137Y0037367D01*
X0195173Y0037318D01*
X0195206Y0037267D01*
X0195235Y0037215D01*
X0195262Y0037160D01*
X0195285Y0037105D01*
X0195305Y0037048D01*
X0195321Y0036989D01*
X0195334Y0036930D01*
X0195343Y0036871D01*
X0195348Y0036810D01*
X0195350Y0036750D01*
X0195350Y0026750D01*
X0195348Y0026690D01*
X0195343Y0026629D01*
X0195334Y0026570D01*
X0195321Y0026511D01*
X0195305Y0026452D01*
X0195285Y0026395D01*
X0195262Y0026340D01*
X0195235Y0026285D01*
X0195206Y0026233D01*
X0195173Y0026182D01*
X0195137Y0026133D01*
X0195099Y0026087D01*
X0195057Y0026043D01*
X0195013Y0026001D01*
X0194967Y0025963D01*
X0194918Y0025927D01*
X0194867Y0025894D01*
X0194815Y0025865D01*
X0194760Y0025838D01*
X0194705Y0025815D01*
X0194648Y0025795D01*
X0194589Y0025779D01*
X0194530Y0025766D01*
X0194471Y0025757D01*
X0194410Y0025752D01*
X0194350Y0025750D01*
X0177350Y0025750D01*
X0177290Y0025752D01*
X0177229Y0025757D01*
X0177170Y0025766D01*
X0177111Y0025779D01*
X0177052Y0025795D01*
X0176995Y0025815D01*
X0176940Y0025838D01*
X0176885Y0025865D01*
X0176833Y0025894D01*
X0176782Y0025927D01*
X0176733Y0025963D01*
X0176687Y0026001D01*
X0176643Y0026043D01*
X0176601Y0026087D01*
X0176563Y0026133D01*
X0176527Y0026182D01*
X0176494Y0026233D01*
X0176465Y0026285D01*
X0176438Y0026340D01*
X0176415Y0026395D01*
X0176395Y0026452D01*
X0176379Y0026511D01*
X0176366Y0026570D01*
X0176357Y0026629D01*
X0176352Y0026690D01*
X0176350Y0026750D01*
X0184350Y0031750D02*
X0184850Y0031750D01*
X0186850Y0031750D02*
X0187350Y0031750D01*
X0196350Y0026750D02*
X0196350Y0036750D01*
X0196352Y0036810D01*
X0196357Y0036871D01*
X0196366Y0036930D01*
X0196379Y0036989D01*
X0196395Y0037048D01*
X0196415Y0037105D01*
X0196438Y0037160D01*
X0196465Y0037215D01*
X0196494Y0037267D01*
X0196527Y0037318D01*
X0196563Y0037367D01*
X0196601Y0037413D01*
X0196643Y0037457D01*
X0196687Y0037499D01*
X0196733Y0037537D01*
X0196782Y0037573D01*
X0196833Y0037606D01*
X0196885Y0037635D01*
X0196940Y0037662D01*
X0196995Y0037685D01*
X0197052Y0037705D01*
X0197111Y0037721D01*
X0197170Y0037734D01*
X0197229Y0037743D01*
X0197290Y0037748D01*
X0197350Y0037750D01*
X0214350Y0037750D01*
X0214410Y0037748D01*
X0214471Y0037743D01*
X0214530Y0037734D01*
X0214589Y0037721D01*
X0214648Y0037705D01*
X0214705Y0037685D01*
X0214760Y0037662D01*
X0214815Y0037635D01*
X0214867Y0037606D01*
X0214918Y0037573D01*
X0214967Y0037537D01*
X0215013Y0037499D01*
X0215057Y0037457D01*
X0215099Y0037413D01*
X0215137Y0037367D01*
X0215173Y0037318D01*
X0215206Y0037267D01*
X0215235Y0037215D01*
X0215262Y0037160D01*
X0215285Y0037105D01*
X0215305Y0037048D01*
X0215321Y0036989D01*
X0215334Y0036930D01*
X0215343Y0036871D01*
X0215348Y0036810D01*
X0215350Y0036750D01*
X0215350Y0026750D01*
X0215348Y0026690D01*
X0215343Y0026629D01*
X0215334Y0026570D01*
X0215321Y0026511D01*
X0215305Y0026452D01*
X0215285Y0026395D01*
X0215262Y0026340D01*
X0215235Y0026285D01*
X0215206Y0026233D01*
X0215173Y0026182D01*
X0215137Y0026133D01*
X0215099Y0026087D01*
X0215057Y0026043D01*
X0215013Y0026001D01*
X0214967Y0025963D01*
X0214918Y0025927D01*
X0214867Y0025894D01*
X0214815Y0025865D01*
X0214760Y0025838D01*
X0214705Y0025815D01*
X0214648Y0025795D01*
X0214589Y0025779D01*
X0214530Y0025766D01*
X0214471Y0025757D01*
X0214410Y0025752D01*
X0214350Y0025750D01*
X0197350Y0025750D01*
X0197290Y0025752D01*
X0197229Y0025757D01*
X0197170Y0025766D01*
X0197111Y0025779D01*
X0197052Y0025795D01*
X0196995Y0025815D01*
X0196940Y0025838D01*
X0196885Y0025865D01*
X0196833Y0025894D01*
X0196782Y0025927D01*
X0196733Y0025963D01*
X0196687Y0026001D01*
X0196643Y0026043D01*
X0196601Y0026087D01*
X0196563Y0026133D01*
X0196527Y0026182D01*
X0196494Y0026233D01*
X0196465Y0026285D01*
X0196438Y0026340D01*
X0196415Y0026395D01*
X0196395Y0026452D01*
X0196379Y0026511D01*
X0196366Y0026570D01*
X0196357Y0026629D01*
X0196352Y0026690D01*
X0196350Y0026750D01*
X0204350Y0031750D02*
X0204850Y0031750D01*
X0206850Y0031750D02*
X0207350Y0031750D01*
X0227350Y0028750D02*
X0227350Y0035750D01*
X0227352Y0035810D01*
X0227357Y0035871D01*
X0227366Y0035930D01*
X0227379Y0035989D01*
X0227395Y0036048D01*
X0227415Y0036105D01*
X0227438Y0036160D01*
X0227465Y0036215D01*
X0227494Y0036267D01*
X0227527Y0036318D01*
X0227563Y0036367D01*
X0227601Y0036413D01*
X0227643Y0036457D01*
X0227687Y0036499D01*
X0227733Y0036537D01*
X0227782Y0036573D01*
X0227833Y0036606D01*
X0227885Y0036635D01*
X0227940Y0036662D01*
X0227995Y0036685D01*
X0228052Y0036705D01*
X0228111Y0036721D01*
X0228170Y0036734D01*
X0228229Y0036743D01*
X0228290Y0036748D01*
X0228350Y0036750D01*
X0229850Y0036750D01*
X0230350Y0036250D01*
X0249350Y0036250D01*
X0249850Y0036750D01*
X0251350Y0036750D01*
X0251410Y0036748D01*
X0251471Y0036743D01*
X0251530Y0036734D01*
X0251589Y0036721D01*
X0251648Y0036705D01*
X0251705Y0036685D01*
X0251760Y0036662D01*
X0251815Y0036635D01*
X0251867Y0036606D01*
X0251918Y0036573D01*
X0251967Y0036537D01*
X0252013Y0036499D01*
X0252057Y0036457D01*
X0252099Y0036413D01*
X0252137Y0036367D01*
X0252173Y0036318D01*
X0252206Y0036267D01*
X0252235Y0036215D01*
X0252262Y0036160D01*
X0252285Y0036105D01*
X0252305Y0036048D01*
X0252321Y0035989D01*
X0252334Y0035930D01*
X0252343Y0035871D01*
X0252348Y0035810D01*
X0252350Y0035750D01*
X0252350Y0028750D01*
X0252348Y0028690D01*
X0252343Y0028629D01*
X0252334Y0028570D01*
X0252321Y0028511D01*
X0252305Y0028452D01*
X0252285Y0028395D01*
X0252262Y0028340D01*
X0252235Y0028285D01*
X0252206Y0028233D01*
X0252173Y0028182D01*
X0252137Y0028133D01*
X0252099Y0028087D01*
X0252057Y0028043D01*
X0252013Y0028001D01*
X0251967Y0027963D01*
X0251918Y0027927D01*
X0251867Y0027894D01*
X0251815Y0027865D01*
X0251760Y0027838D01*
X0251705Y0027815D01*
X0251648Y0027795D01*
X0251589Y0027779D01*
X0251530Y0027766D01*
X0251471Y0027757D01*
X0251410Y0027752D01*
X0251350Y0027750D01*
X0249850Y0027750D01*
X0249350Y0028250D01*
X0230350Y0028250D01*
X0229850Y0027750D01*
X0228350Y0027750D01*
X0228290Y0027752D01*
X0228229Y0027757D01*
X0228170Y0027766D01*
X0228111Y0027779D01*
X0228052Y0027795D01*
X0227995Y0027815D01*
X0227940Y0027838D01*
X0227885Y0027865D01*
X0227833Y0027894D01*
X0227782Y0027927D01*
X0227733Y0027963D01*
X0227687Y0028001D01*
X0227643Y0028043D01*
X0227601Y0028087D01*
X0227563Y0028133D01*
X0227527Y0028182D01*
X0227494Y0028233D01*
X0227465Y0028285D01*
X0227438Y0028340D01*
X0227415Y0028395D01*
X0227395Y0028452D01*
X0227379Y0028511D01*
X0227366Y0028570D01*
X0227357Y0028629D01*
X0227352Y0028690D01*
X0227350Y0028750D01*
X0238350Y0018250D02*
X0243350Y0018250D01*
X0245850Y0015750D01*
X0248350Y0018250D01*
X0253350Y0018250D01*
X0255850Y0015750D01*
X0258350Y0018250D01*
X0263350Y0018250D01*
X0265850Y0015750D01*
X0268350Y0018250D01*
X0273350Y0018250D01*
X0275850Y0015750D01*
X0278350Y0018250D01*
X0283350Y0018250D01*
X0285850Y0015750D01*
X0288350Y0018250D01*
X0293350Y0018250D01*
X0295850Y0015750D01*
X0295850Y0010750D01*
X0293350Y0008250D01*
X0288350Y0008250D01*
X0285850Y0010750D01*
X0283350Y0008250D01*
X0278350Y0008250D01*
X0275850Y0010750D01*
X0275850Y0015750D01*
X0285850Y0015750D02*
X0285850Y0010750D01*
X0275850Y0010750D02*
X0273350Y0008250D01*
X0268350Y0008250D01*
X0265850Y0010750D01*
X0263350Y0008250D01*
X0258350Y0008250D01*
X0255850Y0010750D01*
X0253350Y0008250D01*
X0248350Y0008250D01*
X0245850Y0010750D01*
X0243350Y0008250D01*
X0238350Y0008250D01*
X0235850Y0010750D01*
X0235850Y0015750D01*
X0238350Y0018250D01*
X0245850Y0015750D02*
X0245850Y0010750D01*
X0255850Y0010750D02*
X0255850Y0015750D01*
X0265850Y0015750D02*
X0265850Y0010750D01*
X0277850Y0030250D02*
X0283850Y0030250D01*
X0283850Y0031250D01*
X0284850Y0031250D01*
X0292850Y0034750D02*
X0292850Y0038250D01*
X0292850Y0048250D01*
X0292850Y0051750D01*
X0284850Y0055250D02*
X0283850Y0055250D01*
X0283850Y0056250D01*
X0277850Y0056250D01*
X0277850Y0055250D01*
X0276850Y0055250D01*
X0268850Y0051750D02*
X0268850Y0048250D01*
X0268850Y0038750D01*
X0268850Y0034750D01*
X0276850Y0031250D02*
X0277850Y0031250D01*
X0277850Y0030250D01*
X0279850Y0043250D02*
X0279852Y0043313D01*
X0279858Y0043375D01*
X0279868Y0043437D01*
X0279881Y0043499D01*
X0279899Y0043559D01*
X0279920Y0043618D01*
X0279945Y0043676D01*
X0279974Y0043732D01*
X0280006Y0043786D01*
X0280041Y0043838D01*
X0280079Y0043887D01*
X0280121Y0043935D01*
X0280165Y0043979D01*
X0280213Y0044021D01*
X0280262Y0044059D01*
X0280314Y0044094D01*
X0280368Y0044126D01*
X0280424Y0044155D01*
X0280482Y0044180D01*
X0280541Y0044201D01*
X0280601Y0044219D01*
X0280663Y0044232D01*
X0280725Y0044242D01*
X0280787Y0044248D01*
X0280850Y0044250D01*
X0280913Y0044248D01*
X0280975Y0044242D01*
X0281037Y0044232D01*
X0281099Y0044219D01*
X0281159Y0044201D01*
X0281218Y0044180D01*
X0281276Y0044155D01*
X0281332Y0044126D01*
X0281386Y0044094D01*
X0281438Y0044059D01*
X0281487Y0044021D01*
X0281535Y0043979D01*
X0281579Y0043935D01*
X0281621Y0043887D01*
X0281659Y0043838D01*
X0281694Y0043786D01*
X0281726Y0043732D01*
X0281755Y0043676D01*
X0281780Y0043618D01*
X0281801Y0043559D01*
X0281819Y0043499D01*
X0281832Y0043437D01*
X0281842Y0043375D01*
X0281848Y0043313D01*
X0281850Y0043250D01*
X0281848Y0043187D01*
X0281842Y0043125D01*
X0281832Y0043063D01*
X0281819Y0043001D01*
X0281801Y0042941D01*
X0281780Y0042882D01*
X0281755Y0042824D01*
X0281726Y0042768D01*
X0281694Y0042714D01*
X0281659Y0042662D01*
X0281621Y0042613D01*
X0281579Y0042565D01*
X0281535Y0042521D01*
X0281487Y0042479D01*
X0281438Y0042441D01*
X0281386Y0042406D01*
X0281332Y0042374D01*
X0281276Y0042345D01*
X0281218Y0042320D01*
X0281159Y0042299D01*
X0281099Y0042281D01*
X0281037Y0042268D01*
X0280975Y0042258D01*
X0280913Y0042252D01*
X0280850Y0042250D01*
X0280787Y0042252D01*
X0280725Y0042258D01*
X0280663Y0042268D01*
X0280601Y0042281D01*
X0280541Y0042299D01*
X0280482Y0042320D01*
X0280424Y0042345D01*
X0280368Y0042374D01*
X0280314Y0042406D01*
X0280262Y0042441D01*
X0280213Y0042479D01*
X0280165Y0042521D01*
X0280121Y0042565D01*
X0280079Y0042613D01*
X0280041Y0042662D01*
X0280006Y0042714D01*
X0279974Y0042768D01*
X0279945Y0042824D01*
X0279920Y0042882D01*
X0279899Y0042941D01*
X0279881Y0043001D01*
X0279868Y0043063D01*
X0279858Y0043125D01*
X0279852Y0043187D01*
X0279850Y0043250D01*
X0273850Y0043250D02*
X0273852Y0043422D01*
X0273858Y0043593D01*
X0273869Y0043765D01*
X0273884Y0043936D01*
X0273903Y0044107D01*
X0273926Y0044277D01*
X0273953Y0044447D01*
X0273985Y0044616D01*
X0274020Y0044784D01*
X0274060Y0044951D01*
X0274104Y0045117D01*
X0274151Y0045282D01*
X0274203Y0045446D01*
X0274259Y0045608D01*
X0274319Y0045769D01*
X0274383Y0045929D01*
X0274451Y0046087D01*
X0274522Y0046243D01*
X0274597Y0046397D01*
X0274677Y0046550D01*
X0274759Y0046700D01*
X0274846Y0046849D01*
X0274936Y0046995D01*
X0275030Y0047139D01*
X0275127Y0047281D01*
X0275228Y0047420D01*
X0275332Y0047557D01*
X0275439Y0047691D01*
X0275550Y0047822D01*
X0275663Y0047951D01*
X0275780Y0048077D01*
X0275900Y0048200D01*
X0276023Y0048320D01*
X0276149Y0048437D01*
X0276278Y0048550D01*
X0276409Y0048661D01*
X0276543Y0048768D01*
X0276680Y0048872D01*
X0276819Y0048973D01*
X0276961Y0049070D01*
X0277105Y0049164D01*
X0277251Y0049254D01*
X0277400Y0049341D01*
X0277550Y0049423D01*
X0277703Y0049503D01*
X0277857Y0049578D01*
X0278013Y0049649D01*
X0278171Y0049717D01*
X0278331Y0049781D01*
X0278492Y0049841D01*
X0278654Y0049897D01*
X0278818Y0049949D01*
X0278983Y0049996D01*
X0279149Y0050040D01*
X0279316Y0050080D01*
X0279484Y0050115D01*
X0279653Y0050147D01*
X0279823Y0050174D01*
X0279993Y0050197D01*
X0280164Y0050216D01*
X0280335Y0050231D01*
X0280507Y0050242D01*
X0280678Y0050248D01*
X0280850Y0050250D01*
X0281022Y0050248D01*
X0281193Y0050242D01*
X0281365Y0050231D01*
X0281536Y0050216D01*
X0281707Y0050197D01*
X0281877Y0050174D01*
X0282047Y0050147D01*
X0282216Y0050115D01*
X0282384Y0050080D01*
X0282551Y0050040D01*
X0282717Y0049996D01*
X0282882Y0049949D01*
X0283046Y0049897D01*
X0283208Y0049841D01*
X0283369Y0049781D01*
X0283529Y0049717D01*
X0283687Y0049649D01*
X0283843Y0049578D01*
X0283997Y0049503D01*
X0284150Y0049423D01*
X0284300Y0049341D01*
X0284449Y0049254D01*
X0284595Y0049164D01*
X0284739Y0049070D01*
X0284881Y0048973D01*
X0285020Y0048872D01*
X0285157Y0048768D01*
X0285291Y0048661D01*
X0285422Y0048550D01*
X0285551Y0048437D01*
X0285677Y0048320D01*
X0285800Y0048200D01*
X0285920Y0048077D01*
X0286037Y0047951D01*
X0286150Y0047822D01*
X0286261Y0047691D01*
X0286368Y0047557D01*
X0286472Y0047420D01*
X0286573Y0047281D01*
X0286670Y0047139D01*
X0286764Y0046995D01*
X0286854Y0046849D01*
X0286941Y0046700D01*
X0287023Y0046550D01*
X0287103Y0046397D01*
X0287178Y0046243D01*
X0287249Y0046087D01*
X0287317Y0045929D01*
X0287381Y0045769D01*
X0287441Y0045608D01*
X0287497Y0045446D01*
X0287549Y0045282D01*
X0287596Y0045117D01*
X0287640Y0044951D01*
X0287680Y0044784D01*
X0287715Y0044616D01*
X0287747Y0044447D01*
X0287774Y0044277D01*
X0287797Y0044107D01*
X0287816Y0043936D01*
X0287831Y0043765D01*
X0287842Y0043593D01*
X0287848Y0043422D01*
X0287850Y0043250D01*
X0287848Y0043078D01*
X0287842Y0042907D01*
X0287831Y0042735D01*
X0287816Y0042564D01*
X0287797Y0042393D01*
X0287774Y0042223D01*
X0287747Y0042053D01*
X0287715Y0041884D01*
X0287680Y0041716D01*
X0287640Y0041549D01*
X0287596Y0041383D01*
X0287549Y0041218D01*
X0287497Y0041054D01*
X0287441Y0040892D01*
X0287381Y0040731D01*
X0287317Y0040571D01*
X0287249Y0040413D01*
X0287178Y0040257D01*
X0287103Y0040103D01*
X0287023Y0039950D01*
X0286941Y0039800D01*
X0286854Y0039651D01*
X0286764Y0039505D01*
X0286670Y0039361D01*
X0286573Y0039219D01*
X0286472Y0039080D01*
X0286368Y0038943D01*
X0286261Y0038809D01*
X0286150Y0038678D01*
X0286037Y0038549D01*
X0285920Y0038423D01*
X0285800Y0038300D01*
X0285677Y0038180D01*
X0285551Y0038063D01*
X0285422Y0037950D01*
X0285291Y0037839D01*
X0285157Y0037732D01*
X0285020Y0037628D01*
X0284881Y0037527D01*
X0284739Y0037430D01*
X0284595Y0037336D01*
X0284449Y0037246D01*
X0284300Y0037159D01*
X0284150Y0037077D01*
X0283997Y0036997D01*
X0283843Y0036922D01*
X0283687Y0036851D01*
X0283529Y0036783D01*
X0283369Y0036719D01*
X0283208Y0036659D01*
X0283046Y0036603D01*
X0282882Y0036551D01*
X0282717Y0036504D01*
X0282551Y0036460D01*
X0282384Y0036420D01*
X0282216Y0036385D01*
X0282047Y0036353D01*
X0281877Y0036326D01*
X0281707Y0036303D01*
X0281536Y0036284D01*
X0281365Y0036269D01*
X0281193Y0036258D01*
X0281022Y0036252D01*
X0280850Y0036250D01*
X0280678Y0036252D01*
X0280507Y0036258D01*
X0280335Y0036269D01*
X0280164Y0036284D01*
X0279993Y0036303D01*
X0279823Y0036326D01*
X0279653Y0036353D01*
X0279484Y0036385D01*
X0279316Y0036420D01*
X0279149Y0036460D01*
X0278983Y0036504D01*
X0278818Y0036551D01*
X0278654Y0036603D01*
X0278492Y0036659D01*
X0278331Y0036719D01*
X0278171Y0036783D01*
X0278013Y0036851D01*
X0277857Y0036922D01*
X0277703Y0036997D01*
X0277550Y0037077D01*
X0277400Y0037159D01*
X0277251Y0037246D01*
X0277105Y0037336D01*
X0276961Y0037430D01*
X0276819Y0037527D01*
X0276680Y0037628D01*
X0276543Y0037732D01*
X0276409Y0037839D01*
X0276278Y0037950D01*
X0276149Y0038063D01*
X0276023Y0038180D01*
X0275900Y0038300D01*
X0275780Y0038423D01*
X0275663Y0038549D01*
X0275550Y0038678D01*
X0275439Y0038809D01*
X0275332Y0038943D01*
X0275228Y0039080D01*
X0275127Y0039219D01*
X0275030Y0039361D01*
X0274936Y0039505D01*
X0274846Y0039651D01*
X0274759Y0039800D01*
X0274677Y0039950D01*
X0274597Y0040103D01*
X0274522Y0040257D01*
X0274451Y0040413D01*
X0274383Y0040571D01*
X0274319Y0040731D01*
X0274259Y0040892D01*
X0274203Y0041054D01*
X0274151Y0041218D01*
X0274104Y0041383D01*
X0274060Y0041549D01*
X0274020Y0041716D01*
X0273985Y0041884D01*
X0273953Y0042053D01*
X0273926Y0042223D01*
X0273903Y0042393D01*
X0273884Y0042564D01*
X0273869Y0042735D01*
X0273858Y0042907D01*
X0273852Y0043078D01*
X0273850Y0043250D01*
X0270850Y0073250D02*
X0270853Y0073495D01*
X0270862Y0073741D01*
X0270877Y0073986D01*
X0270898Y0074230D01*
X0270925Y0074474D01*
X0270958Y0074717D01*
X0270997Y0074960D01*
X0271042Y0075201D01*
X0271093Y0075441D01*
X0271150Y0075680D01*
X0271212Y0075917D01*
X0271281Y0076153D01*
X0271355Y0076387D01*
X0271435Y0076619D01*
X0271520Y0076849D01*
X0271611Y0077077D01*
X0271708Y0077302D01*
X0271810Y0077526D01*
X0271918Y0077746D01*
X0272031Y0077964D01*
X0272149Y0078179D01*
X0272273Y0078391D01*
X0272401Y0078600D01*
X0272535Y0078806D01*
X0272674Y0079008D01*
X0272818Y0079207D01*
X0272967Y0079402D01*
X0273120Y0079594D01*
X0273278Y0079782D01*
X0273440Y0079966D01*
X0273608Y0080145D01*
X0273779Y0080321D01*
X0273955Y0080492D01*
X0274134Y0080660D01*
X0274318Y0080822D01*
X0274506Y0080980D01*
X0274698Y0081133D01*
X0274893Y0081282D01*
X0275092Y0081426D01*
X0275294Y0081565D01*
X0275500Y0081699D01*
X0275709Y0081827D01*
X0275921Y0081951D01*
X0276136Y0082069D01*
X0276354Y0082182D01*
X0276574Y0082290D01*
X0276798Y0082392D01*
X0277023Y0082489D01*
X0277251Y0082580D01*
X0277481Y0082665D01*
X0277713Y0082745D01*
X0277947Y0082819D01*
X0278183Y0082888D01*
X0278420Y0082950D01*
X0278659Y0083007D01*
X0278899Y0083058D01*
X0279140Y0083103D01*
X0279383Y0083142D01*
X0279626Y0083175D01*
X0279870Y0083202D01*
X0280114Y0083223D01*
X0280359Y0083238D01*
X0280605Y0083247D01*
X0280850Y0083250D01*
X0281095Y0083247D01*
X0281341Y0083238D01*
X0281586Y0083223D01*
X0281830Y0083202D01*
X0282074Y0083175D01*
X0282317Y0083142D01*
X0282560Y0083103D01*
X0282801Y0083058D01*
X0283041Y0083007D01*
X0283280Y0082950D01*
X0283517Y0082888D01*
X0283753Y0082819D01*
X0283987Y0082745D01*
X0284219Y0082665D01*
X0284449Y0082580D01*
X0284677Y0082489D01*
X0284902Y0082392D01*
X0285126Y0082290D01*
X0285346Y0082182D01*
X0285564Y0082069D01*
X0285779Y0081951D01*
X0285991Y0081827D01*
X0286200Y0081699D01*
X0286406Y0081565D01*
X0286608Y0081426D01*
X0286807Y0081282D01*
X0287002Y0081133D01*
X0287194Y0080980D01*
X0287382Y0080822D01*
X0287566Y0080660D01*
X0287745Y0080492D01*
X0287921Y0080321D01*
X0288092Y0080145D01*
X0288260Y0079966D01*
X0288422Y0079782D01*
X0288580Y0079594D01*
X0288733Y0079402D01*
X0288882Y0079207D01*
X0289026Y0079008D01*
X0289165Y0078806D01*
X0289299Y0078600D01*
X0289427Y0078391D01*
X0289551Y0078179D01*
X0289669Y0077964D01*
X0289782Y0077746D01*
X0289890Y0077526D01*
X0289992Y0077302D01*
X0290089Y0077077D01*
X0290180Y0076849D01*
X0290265Y0076619D01*
X0290345Y0076387D01*
X0290419Y0076153D01*
X0290488Y0075917D01*
X0290550Y0075680D01*
X0290607Y0075441D01*
X0290658Y0075201D01*
X0290703Y0074960D01*
X0290742Y0074717D01*
X0290775Y0074474D01*
X0290802Y0074230D01*
X0290823Y0073986D01*
X0290838Y0073741D01*
X0290847Y0073495D01*
X0290850Y0073250D01*
X0290847Y0073005D01*
X0290838Y0072759D01*
X0290823Y0072514D01*
X0290802Y0072270D01*
X0290775Y0072026D01*
X0290742Y0071783D01*
X0290703Y0071540D01*
X0290658Y0071299D01*
X0290607Y0071059D01*
X0290550Y0070820D01*
X0290488Y0070583D01*
X0290419Y0070347D01*
X0290345Y0070113D01*
X0290265Y0069881D01*
X0290180Y0069651D01*
X0290089Y0069423D01*
X0289992Y0069198D01*
X0289890Y0068974D01*
X0289782Y0068754D01*
X0289669Y0068536D01*
X0289551Y0068321D01*
X0289427Y0068109D01*
X0289299Y0067900D01*
X0289165Y0067694D01*
X0289026Y0067492D01*
X0288882Y0067293D01*
X0288733Y0067098D01*
X0288580Y0066906D01*
X0288422Y0066718D01*
X0288260Y0066534D01*
X0288092Y0066355D01*
X0287921Y0066179D01*
X0287745Y0066008D01*
X0287566Y0065840D01*
X0287382Y0065678D01*
X0287194Y0065520D01*
X0287002Y0065367D01*
X0286807Y0065218D01*
X0286608Y0065074D01*
X0286406Y0064935D01*
X0286200Y0064801D01*
X0285991Y0064673D01*
X0285779Y0064549D01*
X0285564Y0064431D01*
X0285346Y0064318D01*
X0285126Y0064210D01*
X0284902Y0064108D01*
X0284677Y0064011D01*
X0284449Y0063920D01*
X0284219Y0063835D01*
X0283987Y0063755D01*
X0283753Y0063681D01*
X0283517Y0063612D01*
X0283280Y0063550D01*
X0283041Y0063493D01*
X0282801Y0063442D01*
X0282560Y0063397D01*
X0282317Y0063358D01*
X0282074Y0063325D01*
X0281830Y0063298D01*
X0281586Y0063277D01*
X0281341Y0063262D01*
X0281095Y0063253D01*
X0280850Y0063250D01*
X0280605Y0063253D01*
X0280359Y0063262D01*
X0280114Y0063277D01*
X0279870Y0063298D01*
X0279626Y0063325D01*
X0279383Y0063358D01*
X0279140Y0063397D01*
X0278899Y0063442D01*
X0278659Y0063493D01*
X0278420Y0063550D01*
X0278183Y0063612D01*
X0277947Y0063681D01*
X0277713Y0063755D01*
X0277481Y0063835D01*
X0277251Y0063920D01*
X0277023Y0064011D01*
X0276798Y0064108D01*
X0276574Y0064210D01*
X0276354Y0064318D01*
X0276136Y0064431D01*
X0275921Y0064549D01*
X0275709Y0064673D01*
X0275500Y0064801D01*
X0275294Y0064935D01*
X0275092Y0065074D01*
X0274893Y0065218D01*
X0274698Y0065367D01*
X0274506Y0065520D01*
X0274318Y0065678D01*
X0274134Y0065840D01*
X0273955Y0066008D01*
X0273779Y0066179D01*
X0273608Y0066355D01*
X0273440Y0066534D01*
X0273278Y0066718D01*
X0273120Y0066906D01*
X0272967Y0067098D01*
X0272818Y0067293D01*
X0272674Y0067492D01*
X0272535Y0067694D01*
X0272401Y0067900D01*
X0272273Y0068109D01*
X0272149Y0068321D01*
X0272031Y0068536D01*
X0271918Y0068754D01*
X0271810Y0068974D01*
X0271708Y0069198D01*
X0271611Y0069423D01*
X0271520Y0069651D01*
X0271435Y0069881D01*
X0271355Y0070113D01*
X0271281Y0070347D01*
X0271212Y0070583D01*
X0271150Y0070820D01*
X0271093Y0071059D01*
X0271042Y0071299D01*
X0270997Y0071540D01*
X0270958Y0071783D01*
X0270925Y0072026D01*
X0270898Y0072270D01*
X0270877Y0072514D01*
X0270862Y0072759D01*
X0270853Y0073005D01*
X0270850Y0073250D01*
X0260850Y0088750D02*
X0259350Y0088750D01*
X0259290Y0088752D01*
X0259229Y0088757D01*
X0259170Y0088766D01*
X0259111Y0088779D01*
X0259052Y0088795D01*
X0258995Y0088815D01*
X0258940Y0088838D01*
X0258885Y0088865D01*
X0258833Y0088894D01*
X0258782Y0088927D01*
X0258733Y0088963D01*
X0258687Y0089001D01*
X0258643Y0089043D01*
X0258601Y0089087D01*
X0258563Y0089133D01*
X0258527Y0089182D01*
X0258494Y0089233D01*
X0258465Y0089285D01*
X0258438Y0089340D01*
X0258415Y0089395D01*
X0258395Y0089452D01*
X0258379Y0089511D01*
X0258366Y0089570D01*
X0258357Y0089629D01*
X0258352Y0089690D01*
X0258350Y0089750D01*
X0258350Y0096750D01*
X0258352Y0096810D01*
X0258357Y0096871D01*
X0258366Y0096930D01*
X0258379Y0096989D01*
X0258395Y0097048D01*
X0258415Y0097105D01*
X0258438Y0097160D01*
X0258465Y0097215D01*
X0258494Y0097267D01*
X0258527Y0097318D01*
X0258563Y0097367D01*
X0258601Y0097413D01*
X0258643Y0097457D01*
X0258687Y0097499D01*
X0258733Y0097537D01*
X0258782Y0097573D01*
X0258833Y0097606D01*
X0258885Y0097635D01*
X0258940Y0097662D01*
X0258995Y0097685D01*
X0259052Y0097705D01*
X0259111Y0097721D01*
X0259170Y0097734D01*
X0259229Y0097743D01*
X0259290Y0097748D01*
X0259350Y0097750D01*
X0260850Y0097750D01*
X0261350Y0097250D01*
X0280350Y0097250D01*
X0280850Y0097750D01*
X0282350Y0097750D01*
X0282350Y0098750D02*
X0280850Y0098750D01*
X0280350Y0099250D01*
X0261350Y0099250D01*
X0260850Y0098750D01*
X0259350Y0098750D01*
X0259290Y0098752D01*
X0259229Y0098757D01*
X0259170Y0098766D01*
X0259111Y0098779D01*
X0259052Y0098795D01*
X0258995Y0098815D01*
X0258940Y0098838D01*
X0258885Y0098865D01*
X0258833Y0098894D01*
X0258782Y0098927D01*
X0258733Y0098963D01*
X0258687Y0099001D01*
X0258643Y0099043D01*
X0258601Y0099087D01*
X0258563Y0099133D01*
X0258527Y0099182D01*
X0258494Y0099233D01*
X0258465Y0099285D01*
X0258438Y0099340D01*
X0258415Y0099395D01*
X0258395Y0099452D01*
X0258379Y0099511D01*
X0258366Y0099570D01*
X0258357Y0099629D01*
X0258352Y0099690D01*
X0258350Y0099750D01*
X0258350Y0106750D01*
X0258352Y0106810D01*
X0258357Y0106871D01*
X0258366Y0106930D01*
X0258379Y0106989D01*
X0258395Y0107048D01*
X0258415Y0107105D01*
X0258438Y0107160D01*
X0258465Y0107215D01*
X0258494Y0107267D01*
X0258527Y0107318D01*
X0258563Y0107367D01*
X0258601Y0107413D01*
X0258643Y0107457D01*
X0258687Y0107499D01*
X0258733Y0107537D01*
X0258782Y0107573D01*
X0258833Y0107606D01*
X0258885Y0107635D01*
X0258940Y0107662D01*
X0258995Y0107685D01*
X0259052Y0107705D01*
X0259111Y0107721D01*
X0259170Y0107734D01*
X0259229Y0107743D01*
X0259290Y0107748D01*
X0259350Y0107750D01*
X0260850Y0107750D01*
X0261350Y0107250D01*
X0280350Y0107250D01*
X0280850Y0107750D01*
X0282350Y0107750D01*
X0282410Y0107748D01*
X0282471Y0107743D01*
X0282530Y0107734D01*
X0282589Y0107721D01*
X0282648Y0107705D01*
X0282705Y0107685D01*
X0282760Y0107662D01*
X0282815Y0107635D01*
X0282867Y0107606D01*
X0282918Y0107573D01*
X0282967Y0107537D01*
X0283013Y0107499D01*
X0283057Y0107457D01*
X0283099Y0107413D01*
X0283137Y0107367D01*
X0283173Y0107318D01*
X0283206Y0107267D01*
X0283235Y0107215D01*
X0283262Y0107160D01*
X0283285Y0107105D01*
X0283305Y0107048D01*
X0283321Y0106989D01*
X0283334Y0106930D01*
X0283343Y0106871D01*
X0283348Y0106810D01*
X0283350Y0106750D01*
X0283350Y0099750D01*
X0283348Y0099690D01*
X0283343Y0099629D01*
X0283334Y0099570D01*
X0283321Y0099511D01*
X0283305Y0099452D01*
X0283285Y0099395D01*
X0283262Y0099340D01*
X0283235Y0099285D01*
X0283206Y0099233D01*
X0283173Y0099182D01*
X0283137Y0099133D01*
X0283099Y0099087D01*
X0283057Y0099043D01*
X0283013Y0099001D01*
X0282967Y0098963D01*
X0282918Y0098927D01*
X0282867Y0098894D01*
X0282815Y0098865D01*
X0282760Y0098838D01*
X0282705Y0098815D01*
X0282648Y0098795D01*
X0282589Y0098779D01*
X0282530Y0098766D01*
X0282471Y0098757D01*
X0282410Y0098752D01*
X0282350Y0098750D01*
X0282350Y0097750D02*
X0282410Y0097748D01*
X0282471Y0097743D01*
X0282530Y0097734D01*
X0282589Y0097721D01*
X0282648Y0097705D01*
X0282705Y0097685D01*
X0282760Y0097662D01*
X0282815Y0097635D01*
X0282867Y0097606D01*
X0282918Y0097573D01*
X0282967Y0097537D01*
X0283013Y0097499D01*
X0283057Y0097457D01*
X0283099Y0097413D01*
X0283137Y0097367D01*
X0283173Y0097318D01*
X0283206Y0097267D01*
X0283235Y0097215D01*
X0283262Y0097160D01*
X0283285Y0097105D01*
X0283305Y0097048D01*
X0283321Y0096989D01*
X0283334Y0096930D01*
X0283343Y0096871D01*
X0283348Y0096810D01*
X0283350Y0096750D01*
X0283350Y0089750D01*
X0283348Y0089690D01*
X0283343Y0089629D01*
X0283334Y0089570D01*
X0283321Y0089511D01*
X0283305Y0089452D01*
X0283285Y0089395D01*
X0283262Y0089340D01*
X0283235Y0089285D01*
X0283206Y0089233D01*
X0283173Y0089182D01*
X0283137Y0089133D01*
X0283099Y0089087D01*
X0283057Y0089043D01*
X0283013Y0089001D01*
X0282967Y0088963D01*
X0282918Y0088927D01*
X0282867Y0088894D01*
X0282815Y0088865D01*
X0282760Y0088838D01*
X0282705Y0088815D01*
X0282648Y0088795D01*
X0282589Y0088779D01*
X0282530Y0088766D01*
X0282471Y0088757D01*
X0282410Y0088752D01*
X0282350Y0088750D01*
X0280850Y0088750D01*
X0280350Y0089250D01*
X0261350Y0089250D01*
X0260850Y0088750D01*
X0233350Y0089750D02*
X0233350Y0096750D01*
X0233348Y0096810D01*
X0233343Y0096871D01*
X0233334Y0096930D01*
X0233321Y0096989D01*
X0233305Y0097048D01*
X0233285Y0097105D01*
X0233262Y0097160D01*
X0233235Y0097215D01*
X0233206Y0097267D01*
X0233173Y0097318D01*
X0233137Y0097367D01*
X0233099Y0097413D01*
X0233057Y0097457D01*
X0233013Y0097499D01*
X0232967Y0097537D01*
X0232918Y0097573D01*
X0232867Y0097606D01*
X0232815Y0097635D01*
X0232760Y0097662D01*
X0232705Y0097685D01*
X0232648Y0097705D01*
X0232589Y0097721D01*
X0232530Y0097734D01*
X0232471Y0097743D01*
X0232410Y0097748D01*
X0232350Y0097750D01*
X0230850Y0097750D01*
X0230350Y0097250D01*
X0211350Y0097250D01*
X0210850Y0097750D01*
X0209350Y0097750D01*
X0209290Y0097748D01*
X0209229Y0097743D01*
X0209170Y0097734D01*
X0209111Y0097721D01*
X0209052Y0097705D01*
X0208995Y0097685D01*
X0208940Y0097662D01*
X0208885Y0097635D01*
X0208833Y0097606D01*
X0208782Y0097573D01*
X0208733Y0097537D01*
X0208687Y0097499D01*
X0208643Y0097457D01*
X0208601Y0097413D01*
X0208563Y0097367D01*
X0208527Y0097318D01*
X0208494Y0097267D01*
X0208465Y0097215D01*
X0208438Y0097160D01*
X0208415Y0097105D01*
X0208395Y0097048D01*
X0208379Y0096989D01*
X0208366Y0096930D01*
X0208357Y0096871D01*
X0208352Y0096810D01*
X0208350Y0096750D01*
X0208350Y0089750D01*
X0208352Y0089690D01*
X0208357Y0089629D01*
X0208366Y0089570D01*
X0208379Y0089511D01*
X0208395Y0089452D01*
X0208415Y0089395D01*
X0208438Y0089340D01*
X0208465Y0089285D01*
X0208494Y0089233D01*
X0208527Y0089182D01*
X0208563Y0089133D01*
X0208601Y0089087D01*
X0208643Y0089043D01*
X0208687Y0089001D01*
X0208733Y0088963D01*
X0208782Y0088927D01*
X0208833Y0088894D01*
X0208885Y0088865D01*
X0208940Y0088838D01*
X0208995Y0088815D01*
X0209052Y0088795D01*
X0209111Y0088779D01*
X0209170Y0088766D01*
X0209229Y0088757D01*
X0209290Y0088752D01*
X0209350Y0088750D01*
X0210850Y0088750D01*
X0211350Y0089250D01*
X0230350Y0089250D01*
X0230850Y0088750D01*
X0232350Y0088750D01*
X0232410Y0088752D01*
X0232471Y0088757D01*
X0232530Y0088766D01*
X0232589Y0088779D01*
X0232648Y0088795D01*
X0232705Y0088815D01*
X0232760Y0088838D01*
X0232815Y0088865D01*
X0232867Y0088894D01*
X0232918Y0088927D01*
X0232967Y0088963D01*
X0233013Y0089001D01*
X0233057Y0089043D01*
X0233099Y0089087D01*
X0233137Y0089133D01*
X0233173Y0089182D01*
X0233206Y0089233D01*
X0233235Y0089285D01*
X0233262Y0089340D01*
X0233285Y0089395D01*
X0233305Y0089452D01*
X0233321Y0089511D01*
X0233334Y0089570D01*
X0233343Y0089629D01*
X0233348Y0089690D01*
X0233350Y0089750D01*
X0232350Y0098750D02*
X0230850Y0098750D01*
X0230350Y0099250D01*
X0211350Y0099250D01*
X0210850Y0098750D01*
X0209350Y0098750D01*
X0209290Y0098752D01*
X0209229Y0098757D01*
X0209170Y0098766D01*
X0209111Y0098779D01*
X0209052Y0098795D01*
X0208995Y0098815D01*
X0208940Y0098838D01*
X0208885Y0098865D01*
X0208833Y0098894D01*
X0208782Y0098927D01*
X0208733Y0098963D01*
X0208687Y0099001D01*
X0208643Y0099043D01*
X0208601Y0099087D01*
X0208563Y0099133D01*
X0208527Y0099182D01*
X0208494Y0099233D01*
X0208465Y0099285D01*
X0208438Y0099340D01*
X0208415Y0099395D01*
X0208395Y0099452D01*
X0208379Y0099511D01*
X0208366Y0099570D01*
X0208357Y0099629D01*
X0208352Y0099690D01*
X0208350Y0099750D01*
X0208350Y0106750D01*
X0208352Y0106810D01*
X0208357Y0106871D01*
X0208366Y0106930D01*
X0208379Y0106989D01*
X0208395Y0107048D01*
X0208415Y0107105D01*
X0208438Y0107160D01*
X0208465Y0107215D01*
X0208494Y0107267D01*
X0208527Y0107318D01*
X0208563Y0107367D01*
X0208601Y0107413D01*
X0208643Y0107457D01*
X0208687Y0107499D01*
X0208733Y0107537D01*
X0208782Y0107573D01*
X0208833Y0107606D01*
X0208885Y0107635D01*
X0208940Y0107662D01*
X0208995Y0107685D01*
X0209052Y0107705D01*
X0209111Y0107721D01*
X0209170Y0107734D01*
X0209229Y0107743D01*
X0209290Y0107748D01*
X0209350Y0107750D01*
X0210850Y0107750D01*
X0211350Y0107250D01*
X0230350Y0107250D01*
X0230850Y0107750D01*
X0232350Y0107750D01*
X0232410Y0107748D01*
X0232471Y0107743D01*
X0232530Y0107734D01*
X0232589Y0107721D01*
X0232648Y0107705D01*
X0232705Y0107685D01*
X0232760Y0107662D01*
X0232815Y0107635D01*
X0232867Y0107606D01*
X0232918Y0107573D01*
X0232967Y0107537D01*
X0233013Y0107499D01*
X0233057Y0107457D01*
X0233099Y0107413D01*
X0233137Y0107367D01*
X0233173Y0107318D01*
X0233206Y0107267D01*
X0233235Y0107215D01*
X0233262Y0107160D01*
X0233285Y0107105D01*
X0233305Y0107048D01*
X0233321Y0106989D01*
X0233334Y0106930D01*
X0233343Y0106871D01*
X0233348Y0106810D01*
X0233350Y0106750D01*
X0233350Y0099750D01*
X0233348Y0099690D01*
X0233343Y0099629D01*
X0233334Y0099570D01*
X0233321Y0099511D01*
X0233305Y0099452D01*
X0233285Y0099395D01*
X0233262Y0099340D01*
X0233235Y0099285D01*
X0233206Y0099233D01*
X0233173Y0099182D01*
X0233137Y0099133D01*
X0233099Y0099087D01*
X0233057Y0099043D01*
X0233013Y0099001D01*
X0232967Y0098963D01*
X0232918Y0098927D01*
X0232867Y0098894D01*
X0232815Y0098865D01*
X0232760Y0098838D01*
X0232705Y0098815D01*
X0232648Y0098795D01*
X0232589Y0098779D01*
X0232530Y0098766D01*
X0232471Y0098757D01*
X0232410Y0098752D01*
X0232350Y0098750D01*
X0255850Y0110750D02*
X0255850Y0125750D01*
X0258350Y0128250D01*
X0263350Y0128250D01*
X0265850Y0125750D01*
X0265850Y0110750D01*
X0268350Y0108250D01*
X0273350Y0108250D01*
X0275850Y0110750D01*
X0278350Y0108250D01*
X0283350Y0108250D01*
X0285850Y0110750D01*
X0285850Y0125750D01*
X0283350Y0128250D01*
X0278350Y0128250D01*
X0275850Y0125750D01*
X0275850Y0110750D01*
X0265850Y0110750D02*
X0263350Y0108250D01*
X0258350Y0108250D01*
X0255850Y0110750D01*
X0245850Y0120750D02*
X0243350Y0118250D01*
X0238350Y0118250D01*
X0235850Y0120750D01*
X0233350Y0118250D01*
X0228350Y0118250D01*
X0225850Y0120750D01*
X0225850Y0125750D01*
X0228350Y0128250D01*
X0233350Y0128250D01*
X0235850Y0125750D01*
X0238350Y0128250D01*
X0243350Y0128250D01*
X0245850Y0125750D01*
X0245850Y0120750D01*
X0235850Y0120750D02*
X0235850Y0125750D01*
X0225850Y0125750D02*
X0223350Y0128250D01*
X0218350Y0128250D01*
X0215850Y0125750D01*
X0213350Y0128250D01*
X0208350Y0128250D01*
X0205850Y0125750D01*
X0203350Y0128250D01*
X0198350Y0128250D01*
X0195850Y0125750D01*
X0193350Y0128250D01*
X0188350Y0128250D01*
X0185850Y0125750D01*
X0185850Y0120750D01*
X0188350Y0118250D01*
X0193350Y0118250D01*
X0195850Y0120750D01*
X0195850Y0125750D01*
X0195850Y0120750D02*
X0198350Y0118250D01*
X0203350Y0118250D01*
X0205850Y0120750D01*
X0205850Y0125750D01*
X0215850Y0125750D02*
X0215850Y0120750D01*
X0213350Y0118250D01*
X0208350Y0118250D01*
X0205850Y0120750D01*
X0215850Y0120750D02*
X0218350Y0118250D01*
X0223350Y0118250D01*
X0225850Y0120750D01*
X0196850Y0106750D02*
X0196850Y0089750D01*
X0196848Y0089690D01*
X0196843Y0089629D01*
X0196834Y0089570D01*
X0196821Y0089511D01*
X0196805Y0089452D01*
X0196785Y0089395D01*
X0196762Y0089340D01*
X0196735Y0089285D01*
X0196706Y0089233D01*
X0196673Y0089182D01*
X0196637Y0089133D01*
X0196599Y0089087D01*
X0196557Y0089043D01*
X0196513Y0089001D01*
X0196467Y0088963D01*
X0196418Y0088927D01*
X0196367Y0088894D01*
X0196315Y0088865D01*
X0196260Y0088838D01*
X0196205Y0088815D01*
X0196148Y0088795D01*
X0196089Y0088779D01*
X0196030Y0088766D01*
X0195971Y0088757D01*
X0195910Y0088752D01*
X0195850Y0088750D01*
X0185850Y0088750D01*
X0185790Y0088752D01*
X0185729Y0088757D01*
X0185670Y0088766D01*
X0185611Y0088779D01*
X0185552Y0088795D01*
X0185495Y0088815D01*
X0185440Y0088838D01*
X0185385Y0088865D01*
X0185333Y0088894D01*
X0185282Y0088927D01*
X0185233Y0088963D01*
X0185187Y0089001D01*
X0185143Y0089043D01*
X0185101Y0089087D01*
X0185063Y0089133D01*
X0185027Y0089182D01*
X0184994Y0089233D01*
X0184965Y0089285D01*
X0184938Y0089340D01*
X0184915Y0089395D01*
X0184895Y0089452D01*
X0184879Y0089511D01*
X0184866Y0089570D01*
X0184857Y0089629D01*
X0184852Y0089690D01*
X0184850Y0089750D01*
X0184850Y0106750D01*
X0184852Y0106810D01*
X0184857Y0106871D01*
X0184866Y0106930D01*
X0184879Y0106989D01*
X0184895Y0107048D01*
X0184915Y0107105D01*
X0184938Y0107160D01*
X0184965Y0107215D01*
X0184994Y0107267D01*
X0185027Y0107318D01*
X0185063Y0107367D01*
X0185101Y0107413D01*
X0185143Y0107457D01*
X0185187Y0107499D01*
X0185233Y0107537D01*
X0185282Y0107573D01*
X0185333Y0107606D01*
X0185385Y0107635D01*
X0185440Y0107662D01*
X0185495Y0107685D01*
X0185552Y0107705D01*
X0185611Y0107721D01*
X0185670Y0107734D01*
X0185729Y0107743D01*
X0185790Y0107748D01*
X0185850Y0107750D01*
X0195850Y0107750D01*
X0195910Y0107748D01*
X0195971Y0107743D01*
X0196030Y0107734D01*
X0196089Y0107721D01*
X0196148Y0107705D01*
X0196205Y0107685D01*
X0196260Y0107662D01*
X0196315Y0107635D01*
X0196367Y0107606D01*
X0196418Y0107573D01*
X0196467Y0107537D01*
X0196513Y0107499D01*
X0196557Y0107457D01*
X0196599Y0107413D01*
X0196637Y0107367D01*
X0196673Y0107318D01*
X0196706Y0107267D01*
X0196735Y0107215D01*
X0196762Y0107160D01*
X0196785Y0107105D01*
X0196805Y0107048D01*
X0196821Y0106989D01*
X0196834Y0106930D01*
X0196843Y0106871D01*
X0196848Y0106810D01*
X0196850Y0106750D01*
X0190850Y0099750D02*
X0190850Y0099250D01*
X0190850Y0097250D02*
X0190850Y0096750D01*
X0173350Y0099750D02*
X0149350Y0099750D01*
X0158850Y0096250D02*
X0158850Y0093250D01*
X0156350Y0093250D01*
X0158850Y0093250D02*
X0158850Y0090250D01*
X0160350Y0090250D02*
X0160350Y0096250D01*
X0162350Y0096250D01*
X0162350Y0090250D01*
X0160350Y0090250D01*
X0163850Y0090250D02*
X0163850Y0093250D01*
X0166350Y0093250D01*
X0163850Y0093250D02*
X0163850Y0096250D01*
X0173350Y0099750D02*
X0173510Y0099748D01*
X0173669Y0099742D01*
X0173828Y0099732D01*
X0173987Y0099719D01*
X0174146Y0099701D01*
X0174304Y0099680D01*
X0174461Y0099654D01*
X0174618Y0099625D01*
X0174774Y0099592D01*
X0174929Y0099555D01*
X0175084Y0099515D01*
X0175237Y0099470D01*
X0175389Y0099422D01*
X0175540Y0099370D01*
X0175689Y0099314D01*
X0175837Y0099255D01*
X0175984Y0099192D01*
X0176129Y0099126D01*
X0176272Y0099056D01*
X0176414Y0098982D01*
X0176554Y0098906D01*
X0176692Y0098825D01*
X0176827Y0098742D01*
X0176961Y0098655D01*
X0177093Y0098564D01*
X0177222Y0098471D01*
X0177349Y0098374D01*
X0177474Y0098275D01*
X0177596Y0098172D01*
X0177715Y0098066D01*
X0177832Y0097958D01*
X0177946Y0097846D01*
X0178058Y0097732D01*
X0178166Y0097615D01*
X0178272Y0097496D01*
X0178375Y0097374D01*
X0178474Y0097249D01*
X0178571Y0097122D01*
X0178664Y0096993D01*
X0178755Y0096861D01*
X0178842Y0096727D01*
X0178925Y0096592D01*
X0179006Y0096454D01*
X0179082Y0096314D01*
X0179156Y0096172D01*
X0179226Y0096029D01*
X0179292Y0095884D01*
X0179355Y0095737D01*
X0179414Y0095589D01*
X0179470Y0095440D01*
X0179522Y0095289D01*
X0179570Y0095137D01*
X0179615Y0094984D01*
X0179655Y0094829D01*
X0179692Y0094674D01*
X0179725Y0094518D01*
X0179754Y0094361D01*
X0179780Y0094204D01*
X0179801Y0094046D01*
X0179819Y0093887D01*
X0179832Y0093728D01*
X0179842Y0093569D01*
X0179848Y0093410D01*
X0179850Y0093250D01*
X0179848Y0093090D01*
X0179842Y0092931D01*
X0179832Y0092772D01*
X0179819Y0092613D01*
X0179801Y0092454D01*
X0179780Y0092296D01*
X0179754Y0092139D01*
X0179725Y0091982D01*
X0179692Y0091826D01*
X0179655Y0091671D01*
X0179615Y0091516D01*
X0179570Y0091363D01*
X0179522Y0091211D01*
X0179470Y0091060D01*
X0179414Y0090911D01*
X0179355Y0090763D01*
X0179292Y0090616D01*
X0179226Y0090471D01*
X0179156Y0090328D01*
X0179082Y0090186D01*
X0179006Y0090046D01*
X0178925Y0089908D01*
X0178842Y0089773D01*
X0178755Y0089639D01*
X0178664Y0089507D01*
X0178571Y0089378D01*
X0178474Y0089251D01*
X0178375Y0089126D01*
X0178272Y0089004D01*
X0178166Y0088885D01*
X0178058Y0088768D01*
X0177946Y0088654D01*
X0177832Y0088542D01*
X0177715Y0088434D01*
X0177596Y0088328D01*
X0177474Y0088225D01*
X0177349Y0088126D01*
X0177222Y0088029D01*
X0177093Y0087936D01*
X0176961Y0087845D01*
X0176827Y0087758D01*
X0176692Y0087675D01*
X0176554Y0087594D01*
X0176414Y0087518D01*
X0176272Y0087444D01*
X0176129Y0087374D01*
X0175984Y0087308D01*
X0175837Y0087245D01*
X0175689Y0087186D01*
X0175540Y0087130D01*
X0175389Y0087078D01*
X0175237Y0087030D01*
X0175084Y0086985D01*
X0174929Y0086945D01*
X0174774Y0086908D01*
X0174618Y0086875D01*
X0174461Y0086846D01*
X0174304Y0086820D01*
X0174146Y0086799D01*
X0173987Y0086781D01*
X0173828Y0086768D01*
X0173669Y0086758D01*
X0173510Y0086752D01*
X0173350Y0086750D01*
X0149350Y0086750D01*
X0149190Y0086752D01*
X0149031Y0086758D01*
X0148872Y0086768D01*
X0148713Y0086781D01*
X0148554Y0086799D01*
X0148396Y0086820D01*
X0148239Y0086846D01*
X0148082Y0086875D01*
X0147926Y0086908D01*
X0147771Y0086945D01*
X0147616Y0086985D01*
X0147463Y0087030D01*
X0147311Y0087078D01*
X0147160Y0087130D01*
X0147011Y0087186D01*
X0146863Y0087245D01*
X0146716Y0087308D01*
X0146571Y0087374D01*
X0146428Y0087444D01*
X0146286Y0087518D01*
X0146146Y0087594D01*
X0146008Y0087675D01*
X0145873Y0087758D01*
X0145739Y0087845D01*
X0145607Y0087936D01*
X0145478Y0088029D01*
X0145351Y0088126D01*
X0145226Y0088225D01*
X0145104Y0088328D01*
X0144985Y0088434D01*
X0144868Y0088542D01*
X0144754Y0088654D01*
X0144642Y0088768D01*
X0144534Y0088885D01*
X0144428Y0089004D01*
X0144325Y0089126D01*
X0144226Y0089251D01*
X0144129Y0089378D01*
X0144036Y0089507D01*
X0143945Y0089639D01*
X0143858Y0089773D01*
X0143775Y0089908D01*
X0143694Y0090046D01*
X0143618Y0090186D01*
X0143544Y0090328D01*
X0143474Y0090471D01*
X0143408Y0090616D01*
X0143345Y0090763D01*
X0143286Y0090911D01*
X0143230Y0091060D01*
X0143178Y0091211D01*
X0143130Y0091363D01*
X0143085Y0091516D01*
X0143045Y0091671D01*
X0143008Y0091826D01*
X0142975Y0091982D01*
X0142946Y0092139D01*
X0142920Y0092296D01*
X0142899Y0092454D01*
X0142881Y0092613D01*
X0142868Y0092772D01*
X0142858Y0092931D01*
X0142852Y0093090D01*
X0142850Y0093250D01*
X0142852Y0093410D01*
X0142858Y0093569D01*
X0142868Y0093728D01*
X0142881Y0093887D01*
X0142899Y0094046D01*
X0142920Y0094204D01*
X0142946Y0094361D01*
X0142975Y0094518D01*
X0143008Y0094674D01*
X0143045Y0094829D01*
X0143085Y0094984D01*
X0143130Y0095137D01*
X0143178Y0095289D01*
X0143230Y0095440D01*
X0143286Y0095589D01*
X0143345Y0095737D01*
X0143408Y0095884D01*
X0143474Y0096029D01*
X0143544Y0096172D01*
X0143618Y0096314D01*
X0143694Y0096454D01*
X0143775Y0096592D01*
X0143858Y0096727D01*
X0143945Y0096861D01*
X0144036Y0096993D01*
X0144129Y0097122D01*
X0144226Y0097249D01*
X0144325Y0097374D01*
X0144428Y0097496D01*
X0144534Y0097615D01*
X0144642Y0097732D01*
X0144754Y0097846D01*
X0144868Y0097958D01*
X0144985Y0098066D01*
X0145104Y0098172D01*
X0145226Y0098275D01*
X0145351Y0098374D01*
X0145478Y0098471D01*
X0145607Y0098564D01*
X0145739Y0098655D01*
X0145873Y0098742D01*
X0146008Y0098825D01*
X0146146Y0098906D01*
X0146286Y0098982D01*
X0146428Y0099056D01*
X0146571Y0099126D01*
X0146716Y0099192D01*
X0146863Y0099255D01*
X0147011Y0099314D01*
X0147160Y0099370D01*
X0147311Y0099422D01*
X0147463Y0099470D01*
X0147616Y0099515D01*
X0147771Y0099555D01*
X0147926Y0099592D01*
X0148082Y0099625D01*
X0148239Y0099654D01*
X0148396Y0099680D01*
X0148554Y0099701D01*
X0148713Y0099719D01*
X0148872Y0099732D01*
X0149031Y0099742D01*
X0149190Y0099748D01*
X0149350Y0099750D01*
X0146850Y0108750D02*
X0154850Y0108750D01*
X0154910Y0108752D01*
X0154971Y0108757D01*
X0155030Y0108766D01*
X0155089Y0108779D01*
X0155148Y0108795D01*
X0155205Y0108815D01*
X0155260Y0108838D01*
X0155315Y0108865D01*
X0155367Y0108894D01*
X0155418Y0108927D01*
X0155467Y0108963D01*
X0155513Y0109001D01*
X0155557Y0109043D01*
X0155599Y0109087D01*
X0155637Y0109133D01*
X0155673Y0109182D01*
X0155706Y0109233D01*
X0155735Y0109285D01*
X0155762Y0109340D01*
X0155785Y0109395D01*
X0155805Y0109452D01*
X0155821Y0109511D01*
X0155834Y0109570D01*
X0155843Y0109629D01*
X0155848Y0109690D01*
X0155850Y0109750D01*
X0155850Y0126750D01*
X0155848Y0126810D01*
X0155843Y0126871D01*
X0155834Y0126930D01*
X0155821Y0126989D01*
X0155805Y0127048D01*
X0155785Y0127105D01*
X0155762Y0127160D01*
X0155735Y0127215D01*
X0155706Y0127267D01*
X0155673Y0127318D01*
X0155637Y0127367D01*
X0155599Y0127413D01*
X0155557Y0127457D01*
X0155513Y0127499D01*
X0155467Y0127537D01*
X0155418Y0127573D01*
X0155367Y0127606D01*
X0155315Y0127635D01*
X0155260Y0127662D01*
X0155205Y0127685D01*
X0155148Y0127705D01*
X0155089Y0127721D01*
X0155030Y0127734D01*
X0154971Y0127743D01*
X0154910Y0127748D01*
X0154850Y0127750D01*
X0146850Y0127750D01*
X0146790Y0127748D01*
X0146729Y0127743D01*
X0146670Y0127734D01*
X0146611Y0127721D01*
X0146552Y0127705D01*
X0146495Y0127685D01*
X0146440Y0127662D01*
X0146385Y0127635D01*
X0146333Y0127606D01*
X0146282Y0127573D01*
X0146233Y0127537D01*
X0146187Y0127499D01*
X0146143Y0127457D01*
X0146101Y0127413D01*
X0146063Y0127367D01*
X0146027Y0127318D01*
X0145994Y0127267D01*
X0145965Y0127215D01*
X0145938Y0127160D01*
X0145915Y0127105D01*
X0145895Y0127048D01*
X0145879Y0126989D01*
X0145866Y0126930D01*
X0145857Y0126871D01*
X0145852Y0126810D01*
X0145850Y0126750D01*
X0145850Y0109750D01*
X0145852Y0109690D01*
X0145857Y0109629D01*
X0145866Y0109570D01*
X0145879Y0109511D01*
X0145895Y0109452D01*
X0145915Y0109395D01*
X0145938Y0109340D01*
X0145965Y0109285D01*
X0145994Y0109233D01*
X0146027Y0109182D01*
X0146063Y0109133D01*
X0146101Y0109087D01*
X0146143Y0109043D01*
X0146187Y0109001D01*
X0146233Y0108963D01*
X0146282Y0108927D01*
X0146333Y0108894D01*
X0146385Y0108865D01*
X0146440Y0108838D01*
X0146495Y0108815D01*
X0146552Y0108795D01*
X0146611Y0108779D01*
X0146670Y0108766D01*
X0146729Y0108757D01*
X0146790Y0108752D01*
X0146850Y0108750D01*
X0150850Y0116750D02*
X0150850Y0117250D01*
X0150850Y0119250D02*
X0150850Y0119750D01*
X0165850Y0126750D02*
X0165850Y0109750D01*
X0165852Y0109690D01*
X0165857Y0109629D01*
X0165866Y0109570D01*
X0165879Y0109511D01*
X0165895Y0109452D01*
X0165915Y0109395D01*
X0165938Y0109340D01*
X0165965Y0109285D01*
X0165994Y0109233D01*
X0166027Y0109182D01*
X0166063Y0109133D01*
X0166101Y0109087D01*
X0166143Y0109043D01*
X0166187Y0109001D01*
X0166233Y0108963D01*
X0166282Y0108927D01*
X0166333Y0108894D01*
X0166385Y0108865D01*
X0166440Y0108838D01*
X0166495Y0108815D01*
X0166552Y0108795D01*
X0166611Y0108779D01*
X0166670Y0108766D01*
X0166729Y0108757D01*
X0166790Y0108752D01*
X0166850Y0108750D01*
X0174850Y0108750D01*
X0174910Y0108752D01*
X0174971Y0108757D01*
X0175030Y0108766D01*
X0175089Y0108779D01*
X0175148Y0108795D01*
X0175205Y0108815D01*
X0175260Y0108838D01*
X0175315Y0108865D01*
X0175367Y0108894D01*
X0175418Y0108927D01*
X0175467Y0108963D01*
X0175513Y0109001D01*
X0175557Y0109043D01*
X0175599Y0109087D01*
X0175637Y0109133D01*
X0175673Y0109182D01*
X0175706Y0109233D01*
X0175735Y0109285D01*
X0175762Y0109340D01*
X0175785Y0109395D01*
X0175805Y0109452D01*
X0175821Y0109511D01*
X0175834Y0109570D01*
X0175843Y0109629D01*
X0175848Y0109690D01*
X0175850Y0109750D01*
X0175850Y0126750D01*
X0175848Y0126810D01*
X0175843Y0126871D01*
X0175834Y0126930D01*
X0175821Y0126989D01*
X0175805Y0127048D01*
X0175785Y0127105D01*
X0175762Y0127160D01*
X0175735Y0127215D01*
X0175706Y0127267D01*
X0175673Y0127318D01*
X0175637Y0127367D01*
X0175599Y0127413D01*
X0175557Y0127457D01*
X0175513Y0127499D01*
X0175467Y0127537D01*
X0175418Y0127573D01*
X0175367Y0127606D01*
X0175315Y0127635D01*
X0175260Y0127662D01*
X0175205Y0127685D01*
X0175148Y0127705D01*
X0175089Y0127721D01*
X0175030Y0127734D01*
X0174971Y0127743D01*
X0174910Y0127748D01*
X0174850Y0127750D01*
X0166850Y0127750D01*
X0166790Y0127748D01*
X0166729Y0127743D01*
X0166670Y0127734D01*
X0166611Y0127721D01*
X0166552Y0127705D01*
X0166495Y0127685D01*
X0166440Y0127662D01*
X0166385Y0127635D01*
X0166333Y0127606D01*
X0166282Y0127573D01*
X0166233Y0127537D01*
X0166187Y0127499D01*
X0166143Y0127457D01*
X0166101Y0127413D01*
X0166063Y0127367D01*
X0166027Y0127318D01*
X0165994Y0127267D01*
X0165965Y0127215D01*
X0165938Y0127160D01*
X0165915Y0127105D01*
X0165895Y0127048D01*
X0165879Y0126989D01*
X0165866Y0126930D01*
X0165857Y0126871D01*
X0165852Y0126810D01*
X0165850Y0126750D01*
X0170850Y0119750D02*
X0170850Y0119250D01*
X0170850Y0117250D02*
X0170850Y0116750D01*
X0126850Y0098250D02*
X0126848Y0098096D01*
X0126842Y0097942D01*
X0126832Y0097788D01*
X0126818Y0097634D01*
X0126801Y0097481D01*
X0126779Y0097329D01*
X0126753Y0097177D01*
X0126724Y0097025D01*
X0126690Y0096875D01*
X0126653Y0096725D01*
X0126612Y0096577D01*
X0126567Y0096429D01*
X0126518Y0096283D01*
X0126466Y0096138D01*
X0126410Y0095995D01*
X0126350Y0095852D01*
X0126287Y0095712D01*
X0126220Y0095573D01*
X0126149Y0095436D01*
X0126075Y0095301D01*
X0125998Y0095168D01*
X0125917Y0095036D01*
X0125833Y0094907D01*
X0125745Y0094780D01*
X0125654Y0094656D01*
X0125561Y0094534D01*
X0125463Y0094414D01*
X0125363Y0094297D01*
X0125260Y0094182D01*
X0125154Y0094070D01*
X0125046Y0093961D01*
X0124934Y0093855D01*
X0124820Y0093751D01*
X0124703Y0093651D01*
X0124584Y0093553D01*
X0124462Y0093459D01*
X0124337Y0093368D01*
X0114850Y0098250D02*
X0114852Y0098402D01*
X0114858Y0098553D01*
X0114867Y0098704D01*
X0114881Y0098856D01*
X0114898Y0099006D01*
X0114919Y0099156D01*
X0114944Y0099306D01*
X0114972Y0099455D01*
X0115005Y0099603D01*
X0115041Y0099750D01*
X0115080Y0099897D01*
X0115124Y0100042D01*
X0115171Y0100186D01*
X0115222Y0100329D01*
X0115276Y0100470D01*
X0115334Y0100611D01*
X0115395Y0100749D01*
X0115460Y0100886D01*
X0115529Y0101022D01*
X0115600Y0101155D01*
X0115675Y0101287D01*
X0115754Y0101417D01*
X0115835Y0101544D01*
X0115920Y0101670D01*
X0116008Y0101794D01*
X0116099Y0101915D01*
X0116193Y0102034D01*
X0116291Y0102150D01*
X0116391Y0102264D01*
X0116493Y0102376D01*
X0116599Y0102484D01*
X0116707Y0102590D01*
X0116818Y0102694D01*
X0116932Y0102794D01*
X0117048Y0102892D01*
X0117167Y0102986D01*
X0114850Y0098250D02*
X0114852Y0098098D01*
X0114858Y0097947D01*
X0114867Y0097796D01*
X0114881Y0097644D01*
X0114898Y0097494D01*
X0114919Y0097344D01*
X0114944Y0097194D01*
X0114972Y0097045D01*
X0115005Y0096897D01*
X0115041Y0096750D01*
X0115080Y0096603D01*
X0115124Y0096458D01*
X0115171Y0096314D01*
X0115222Y0096171D01*
X0115276Y0096030D01*
X0115334Y0095889D01*
X0115395Y0095751D01*
X0115460Y0095614D01*
X0115529Y0095478D01*
X0115600Y0095345D01*
X0115675Y0095213D01*
X0115754Y0095083D01*
X0115835Y0094956D01*
X0115920Y0094830D01*
X0116008Y0094706D01*
X0116099Y0094585D01*
X0116193Y0094466D01*
X0116291Y0094350D01*
X0116391Y0094236D01*
X0116493Y0094124D01*
X0116599Y0094016D01*
X0116707Y0093910D01*
X0116818Y0093806D01*
X0116932Y0093706D01*
X0117048Y0093608D01*
X0117167Y0093514D01*
X0126850Y0098250D02*
X0126848Y0098400D01*
X0126842Y0098551D01*
X0126833Y0098701D01*
X0126820Y0098850D01*
X0126803Y0099000D01*
X0126782Y0099149D01*
X0126758Y0099297D01*
X0126730Y0099445D01*
X0126698Y0099592D01*
X0126663Y0099738D01*
X0126623Y0099883D01*
X0126581Y0100027D01*
X0126534Y0100170D01*
X0126484Y0100312D01*
X0126431Y0100453D01*
X0126374Y0100592D01*
X0126314Y0100730D01*
X0126250Y0100866D01*
X0126183Y0101000D01*
X0126112Y0101133D01*
X0126038Y0101264D01*
X0125961Y0101393D01*
X0125880Y0101520D01*
X0125797Y0101645D01*
X0125710Y0101768D01*
X0125621Y0101889D01*
X0125528Y0102007D01*
X0125432Y0102123D01*
X0125334Y0102237D01*
X0125233Y0102348D01*
X0125128Y0102457D01*
X0125022Y0102562D01*
X0124912Y0102666D01*
X0124800Y0102766D01*
X0124686Y0102864D01*
X0124569Y0102958D01*
X0124450Y0103050D01*
X0114850Y0047750D02*
X0104850Y0047750D01*
X0104790Y0047748D01*
X0104729Y0047743D01*
X0104670Y0047734D01*
X0104611Y0047721D01*
X0104552Y0047705D01*
X0104495Y0047685D01*
X0104440Y0047662D01*
X0104385Y0047635D01*
X0104333Y0047606D01*
X0104282Y0047573D01*
X0104233Y0047537D01*
X0104187Y0047499D01*
X0104143Y0047457D01*
X0104101Y0047413D01*
X0104063Y0047367D01*
X0104027Y0047318D01*
X0103994Y0047267D01*
X0103965Y0047215D01*
X0103938Y0047160D01*
X0103915Y0047105D01*
X0103895Y0047048D01*
X0103879Y0046989D01*
X0103866Y0046930D01*
X0103857Y0046871D01*
X0103852Y0046810D01*
X0103850Y0046750D01*
X0103850Y0029750D01*
X0103852Y0029690D01*
X0103857Y0029629D01*
X0103866Y0029570D01*
X0103879Y0029511D01*
X0103895Y0029452D01*
X0103915Y0029395D01*
X0103938Y0029340D01*
X0103965Y0029285D01*
X0103994Y0029233D01*
X0104027Y0029182D01*
X0104063Y0029133D01*
X0104101Y0029087D01*
X0104143Y0029043D01*
X0104187Y0029001D01*
X0104233Y0028963D01*
X0104282Y0028927D01*
X0104333Y0028894D01*
X0104385Y0028865D01*
X0104440Y0028838D01*
X0104495Y0028815D01*
X0104552Y0028795D01*
X0104611Y0028779D01*
X0104670Y0028766D01*
X0104729Y0028757D01*
X0104790Y0028752D01*
X0104850Y0028750D01*
X0114850Y0028750D01*
X0114910Y0028752D01*
X0114971Y0028757D01*
X0115030Y0028766D01*
X0115089Y0028779D01*
X0115148Y0028795D01*
X0115205Y0028815D01*
X0115260Y0028838D01*
X0115315Y0028865D01*
X0115367Y0028894D01*
X0115418Y0028927D01*
X0115467Y0028963D01*
X0115513Y0029001D01*
X0115557Y0029043D01*
X0115599Y0029087D01*
X0115637Y0029133D01*
X0115673Y0029182D01*
X0115706Y0029233D01*
X0115735Y0029285D01*
X0115762Y0029340D01*
X0115785Y0029395D01*
X0115805Y0029452D01*
X0115821Y0029511D01*
X0115834Y0029570D01*
X0115843Y0029629D01*
X0115848Y0029690D01*
X0115850Y0029750D01*
X0115850Y0046750D01*
X0115848Y0046810D01*
X0115843Y0046871D01*
X0115834Y0046930D01*
X0115821Y0046989D01*
X0115805Y0047048D01*
X0115785Y0047105D01*
X0115762Y0047160D01*
X0115735Y0047215D01*
X0115706Y0047267D01*
X0115673Y0047318D01*
X0115637Y0047367D01*
X0115599Y0047413D01*
X0115557Y0047457D01*
X0115513Y0047499D01*
X0115467Y0047537D01*
X0115418Y0047573D01*
X0115367Y0047606D01*
X0115315Y0047635D01*
X0115260Y0047662D01*
X0115205Y0047685D01*
X0115148Y0047705D01*
X0115089Y0047721D01*
X0115030Y0047734D01*
X0114971Y0047743D01*
X0114910Y0047748D01*
X0114850Y0047750D01*
X0109850Y0039750D02*
X0109850Y0039250D01*
X0109850Y0037250D02*
X0109850Y0036750D01*
X0265850Y0125750D02*
X0268350Y0128250D01*
X0273350Y0128250D01*
X0275850Y0125750D01*
D14*
X0015850Y0018250D02*
X0015850Y0008250D01*
X0095850Y0008250D01*
X0095850Y0018250D01*
X0015850Y0018250D01*
X0014950Y0053850D02*
X0014950Y0089150D01*
X0001250Y0089150D01*
X0001250Y0053750D01*
X0031850Y0053750D01*
X0053100Y0053750D02*
X0054350Y0053750D01*
X0054350Y0062500D01*
X0054350Y0083750D02*
X0054350Y0089150D01*
X0014950Y0089150D01*
X0155850Y0018250D02*
X0235850Y0018250D01*
X0235850Y0008250D01*
X0155850Y0008250D01*
X0155850Y0018250D01*
D15*
X0046350Y0033250D03*
D16*
X0052600Y0033250D03*
X0029100Y0033250D03*
D17*
X0045850Y0095250D02*
X0078350Y0095250D01*
X0078350Y0131250D01*
X0045850Y0131250D01*
X0045850Y0095250D01*
X0268850Y0048250D02*
X0269850Y0048250D01*
X0269850Y0038750D01*
X0268850Y0038750D01*
X0291850Y0038250D02*
X0292850Y0038250D01*
X0291850Y0038250D02*
X0291850Y0048250D01*
X0292850Y0048250D01*
D18*
X0093100Y0103250D03*
X0093100Y0113250D03*
X0093100Y0123250D03*
D19*
X0086350Y0123250D03*
X0086350Y0113250D03*
X0086350Y0103250D03*
D20*
X0095050Y0063250D03*
X0066650Y0063250D03*
X0206650Y0093250D03*
X0206650Y0103250D03*
X0235050Y0103250D03*
X0235050Y0093250D03*
X0256650Y0093250D03*
X0256650Y0103250D03*
X0285050Y0103250D03*
X0285050Y0093250D03*
X0254050Y0032250D03*
X0225650Y0032250D03*
D21*
X0206850Y0031750D02*
X0206850Y0028750D01*
X0204850Y0028750D02*
X0204850Y0031750D01*
X0204850Y0034750D01*
X0206850Y0034750D02*
X0206850Y0031750D01*
X0186850Y0031750D02*
X0186850Y0028750D01*
X0184850Y0028750D02*
X0184850Y0031750D01*
X0184850Y0034750D01*
X0186850Y0034750D02*
X0186850Y0031750D01*
X0112850Y0037250D02*
X0109850Y0037250D01*
X0106850Y0037250D01*
X0106850Y0039250D02*
X0109850Y0039250D01*
X0112850Y0039250D01*
X0128850Y0098250D02*
X0128848Y0098442D01*
X0128841Y0098634D01*
X0128829Y0098826D01*
X0128813Y0099018D01*
X0128792Y0099209D01*
X0128767Y0099399D01*
X0128737Y0099589D01*
X0128703Y0099778D01*
X0128664Y0099966D01*
X0128620Y0100153D01*
X0128572Y0100339D01*
X0128520Y0100524D01*
X0128463Y0100708D01*
X0128402Y0100890D01*
X0128336Y0101070D01*
X0128266Y0101249D01*
X0128192Y0101427D01*
X0128114Y0101602D01*
X0128031Y0101776D01*
X0127944Y0101947D01*
X0127854Y0102116D01*
X0127759Y0102283D01*
X0127660Y0102448D01*
X0127557Y0102611D01*
X0127450Y0102770D01*
X0127340Y0102928D01*
X0127226Y0103082D01*
X0127108Y0103234D01*
X0126986Y0103383D01*
X0126861Y0103529D01*
X0126733Y0103671D01*
X0126601Y0103811D01*
X0126466Y0103948D01*
X0126327Y0104081D01*
X0126186Y0104211D01*
X0126041Y0104337D01*
X0125893Y0104460D01*
X0125743Y0104579D01*
X0125589Y0104695D01*
X0125433Y0104807D01*
X0125274Y0104915D01*
X0125113Y0105020D01*
X0124949Y0105120D01*
X0124783Y0105216D01*
X0124615Y0105309D01*
X0116881Y0105196D02*
X0116712Y0105097D01*
X0116546Y0104993D01*
X0116382Y0104886D01*
X0116221Y0104775D01*
X0116063Y0104660D01*
X0115908Y0104541D01*
X0115755Y0104418D01*
X0115606Y0104292D01*
X0115460Y0104162D01*
X0115317Y0104028D01*
X0115177Y0103891D01*
X0115041Y0103751D01*
X0114908Y0103607D01*
X0114779Y0103460D01*
X0114653Y0103310D01*
X0114532Y0103157D01*
X0114413Y0103001D01*
X0114299Y0102842D01*
X0114189Y0102681D01*
X0114083Y0102516D01*
X0113980Y0102350D01*
X0113882Y0102180D01*
X0113788Y0102009D01*
X0113698Y0101835D01*
X0113613Y0101659D01*
X0113531Y0101481D01*
X0113455Y0101301D01*
X0113382Y0101119D01*
X0113314Y0100936D01*
X0113251Y0100751D01*
X0113192Y0100564D01*
X0113138Y0100376D01*
X0113088Y0100187D01*
X0113043Y0099997D01*
X0113003Y0099805D01*
X0112967Y0099613D01*
X0112936Y0099420D01*
X0112910Y0099226D01*
X0112888Y0099031D01*
X0112872Y0098836D01*
X0112860Y0098641D01*
X0112852Y0098445D01*
X0112850Y0098250D01*
X0112852Y0098057D01*
X0112859Y0097864D01*
X0112871Y0097672D01*
X0112887Y0097479D01*
X0112908Y0097287D01*
X0112934Y0097096D01*
X0112964Y0096906D01*
X0112999Y0096716D01*
X0113038Y0096527D01*
X0113082Y0096339D01*
X0113130Y0096152D01*
X0113183Y0095966D01*
X0113240Y0095782D01*
X0113302Y0095599D01*
X0113368Y0095418D01*
X0113439Y0095238D01*
X0113513Y0095060D01*
X0113592Y0094884D01*
X0113676Y0094710D01*
X0113763Y0094538D01*
X0113855Y0094368D01*
X0113951Y0094201D01*
X0114050Y0094035D01*
X0114154Y0093872D01*
X0114261Y0093712D01*
X0114373Y0093555D01*
X0114488Y0093400D01*
X0114607Y0093248D01*
X0114729Y0093099D01*
X0114855Y0092952D01*
X0114985Y0092809D01*
X0115118Y0092669D01*
X0115254Y0092533D01*
X0115394Y0092399D01*
X0115536Y0092270D01*
X0115682Y0092143D01*
X0125972Y0092104D02*
X0126120Y0092231D01*
X0126265Y0092361D01*
X0126406Y0092494D01*
X0126545Y0092631D01*
X0126680Y0092771D01*
X0126811Y0092915D01*
X0126939Y0093062D01*
X0127064Y0093211D01*
X0127185Y0093364D01*
X0127302Y0093519D01*
X0127415Y0093678D01*
X0127524Y0093839D01*
X0127629Y0094003D01*
X0127731Y0094169D01*
X0127828Y0094338D01*
X0127921Y0094508D01*
X0128010Y0094682D01*
X0128095Y0094857D01*
X0128175Y0095034D01*
X0128251Y0095213D01*
X0128323Y0095394D01*
X0128390Y0095577D01*
X0128453Y0095761D01*
X0128511Y0095947D01*
X0128565Y0096134D01*
X0128614Y0096322D01*
X0128659Y0096512D01*
X0128699Y0096702D01*
X0128734Y0096894D01*
X0128765Y0097086D01*
X0128791Y0097279D01*
X0128812Y0097473D01*
X0128829Y0097667D01*
X0128841Y0097861D01*
X0128848Y0098055D01*
X0128850Y0098250D01*
X0147850Y0117250D02*
X0150850Y0117250D01*
X0153850Y0117250D01*
X0153850Y0119250D02*
X0150850Y0119250D01*
X0147850Y0119250D01*
X0167850Y0119250D02*
X0170850Y0119250D01*
X0173850Y0119250D01*
X0173850Y0117250D02*
X0170850Y0117250D01*
X0167850Y0117250D01*
X0187850Y0099250D02*
X0190850Y0099250D01*
X0193850Y0099250D01*
X0193850Y0097250D02*
X0190850Y0097250D01*
X0187850Y0097250D01*
X0290850Y0080750D02*
X0290663Y0080993D01*
X0290471Y0081231D01*
X0290272Y0081464D01*
X0290068Y0081692D01*
X0289859Y0081915D01*
X0289644Y0082133D01*
X0289424Y0082346D01*
X0289199Y0082553D01*
X0288968Y0082755D01*
X0288733Y0082951D01*
X0288493Y0083141D01*
X0288249Y0083325D01*
X0288000Y0083503D01*
X0287746Y0083675D01*
X0287489Y0083841D01*
X0287228Y0084001D01*
X0286963Y0084154D01*
X0286694Y0084300D01*
X0286421Y0084440D01*
X0286146Y0084573D01*
X0285867Y0084699D01*
X0285585Y0084819D01*
X0285300Y0084931D01*
X0285013Y0085036D01*
X0284723Y0085135D01*
X0284431Y0085226D01*
X0284136Y0085310D01*
X0283840Y0085387D01*
X0283542Y0085457D01*
X0283242Y0085519D01*
X0282941Y0085574D01*
X0282639Y0085621D01*
X0282335Y0085661D01*
X0282031Y0085694D01*
X0281726Y0085719D01*
X0281420Y0085737D01*
X0281114Y0085747D01*
X0280808Y0085750D01*
X0280502Y0085745D01*
X0280196Y0085733D01*
X0279890Y0085713D01*
X0279586Y0085686D01*
X0279281Y0085651D01*
X0278978Y0085609D01*
X0278676Y0085560D01*
X0278375Y0085503D01*
X0278076Y0085438D01*
X0277778Y0085367D01*
X0277483Y0085288D01*
X0277189Y0085202D01*
X0276897Y0085109D01*
X0276608Y0085008D01*
X0276321Y0084901D01*
X0276037Y0084786D01*
X0275756Y0084665D01*
X0275478Y0084537D01*
X0275203Y0084402D01*
X0274932Y0084260D01*
X0274664Y0084112D01*
X0274400Y0083957D01*
X0274140Y0083796D01*
X0273884Y0083629D01*
X0273631Y0083455D01*
X0273384Y0083275D01*
X0273140Y0083089D01*
X0272902Y0082898D01*
X0272668Y0082700D01*
X0272439Y0082497D01*
X0272215Y0082288D01*
X0271996Y0082074D01*
X0271783Y0081854D01*
X0271575Y0081630D01*
X0271372Y0081400D01*
X0271176Y0081166D01*
X0270985Y0080926D01*
X0270800Y0080683D01*
X0270621Y0080434D01*
X0270448Y0080182D01*
X0270281Y0079925D01*
X0270121Y0079664D01*
X0269967Y0079399D01*
X0269820Y0079131D01*
X0269679Y0078859D01*
X0269545Y0078584D01*
X0269418Y0078305D01*
X0269297Y0078024D01*
X0269184Y0077739D01*
X0269078Y0077452D01*
X0268978Y0077163D01*
X0268886Y0076871D01*
X0268801Y0076577D01*
X0268723Y0076281D01*
X0268652Y0075983D01*
X0268589Y0075683D01*
X0268533Y0075382D01*
X0268485Y0075080D01*
X0268444Y0074777D01*
X0268410Y0074473D01*
X0268384Y0074168D01*
X0268365Y0073862D01*
X0268354Y0073556D01*
X0268350Y0073250D01*
X0268354Y0072944D01*
X0268365Y0072638D01*
X0268384Y0072332D01*
X0268410Y0072027D01*
X0268444Y0071723D01*
X0268485Y0071420D01*
X0268533Y0071118D01*
X0268589Y0070817D01*
X0268652Y0070517D01*
X0268723Y0070219D01*
X0268801Y0069923D01*
X0268886Y0069629D01*
X0268978Y0069337D01*
X0269078Y0069048D01*
X0269184Y0068761D01*
X0269297Y0068476D01*
X0269418Y0068195D01*
X0269545Y0067916D01*
X0269679Y0067641D01*
X0269820Y0067369D01*
X0269967Y0067101D01*
X0270121Y0066836D01*
X0270281Y0066575D01*
X0270448Y0066318D01*
X0270621Y0066066D01*
X0270800Y0065817D01*
X0270985Y0065574D01*
X0271176Y0065334D01*
X0271372Y0065100D01*
X0271575Y0064870D01*
X0271783Y0064646D01*
X0271996Y0064426D01*
X0272215Y0064212D01*
X0272439Y0064003D01*
X0272668Y0063800D01*
X0272902Y0063602D01*
X0273140Y0063411D01*
X0273384Y0063225D01*
X0273631Y0063045D01*
X0273884Y0062871D01*
X0274140Y0062704D01*
X0274400Y0062543D01*
X0274664Y0062388D01*
X0274932Y0062240D01*
X0275203Y0062098D01*
X0275478Y0061963D01*
X0275756Y0061835D01*
X0276037Y0061714D01*
X0276321Y0061599D01*
X0276608Y0061492D01*
X0276897Y0061391D01*
X0277189Y0061298D01*
X0277483Y0061212D01*
X0277778Y0061133D01*
X0278076Y0061062D01*
X0278375Y0060997D01*
X0278676Y0060940D01*
X0278978Y0060891D01*
X0279281Y0060849D01*
X0279586Y0060814D01*
X0279890Y0060787D01*
X0280196Y0060767D01*
X0280502Y0060755D01*
X0280808Y0060750D01*
X0281114Y0060753D01*
X0281420Y0060763D01*
X0281726Y0060781D01*
X0282031Y0060806D01*
X0282335Y0060839D01*
X0282639Y0060879D01*
X0282941Y0060926D01*
X0283242Y0060981D01*
X0283542Y0061043D01*
X0283840Y0061113D01*
X0284136Y0061190D01*
X0284431Y0061274D01*
X0284723Y0061365D01*
X0285013Y0061464D01*
X0285300Y0061569D01*
X0285585Y0061681D01*
X0285867Y0061801D01*
X0286146Y0061927D01*
X0286421Y0062060D01*
X0286694Y0062200D01*
X0286963Y0062346D01*
X0287228Y0062499D01*
X0287489Y0062659D01*
X0287746Y0062825D01*
X0288000Y0062997D01*
X0288249Y0063175D01*
X0288493Y0063359D01*
X0288733Y0063549D01*
X0288968Y0063745D01*
X0289199Y0063947D01*
X0289424Y0064154D01*
X0289644Y0064367D01*
X0289859Y0064585D01*
X0290068Y0064808D01*
X0290272Y0065036D01*
X0290471Y0065269D01*
X0290663Y0065507D01*
X0290850Y0065750D01*
D22*
X0290850Y0080750D01*
D23*
X0173350Y0084750D02*
X0149350Y0084750D01*
X0149143Y0084753D01*
X0148936Y0084760D01*
X0148730Y0084773D01*
X0148523Y0084790D01*
X0148318Y0084813D01*
X0148112Y0084841D01*
X0147908Y0084873D01*
X0147704Y0084911D01*
X0147502Y0084953D01*
X0147300Y0085001D01*
X0147100Y0085053D01*
X0146901Y0085110D01*
X0146704Y0085172D01*
X0146508Y0085239D01*
X0146314Y0085311D01*
X0146121Y0085387D01*
X0145931Y0085468D01*
X0145742Y0085554D01*
X0145556Y0085644D01*
X0145372Y0085738D01*
X0145190Y0085838D01*
X0145011Y0085941D01*
X0144834Y0086049D01*
X0144660Y0086161D01*
X0144489Y0086277D01*
X0144320Y0086398D01*
X0144155Y0086522D01*
X0143993Y0086651D01*
X0143834Y0086783D01*
X0143678Y0086919D01*
X0143525Y0087059D01*
X0143376Y0087203D01*
X0143231Y0087350D01*
X0143089Y0087501D01*
X0142951Y0087655D01*
X0142816Y0087813D01*
X0142686Y0087973D01*
X0142560Y0088137D01*
X0142437Y0088304D01*
X0142319Y0088474D01*
X0142204Y0088647D01*
X0142094Y0088822D01*
X0141989Y0089000D01*
X0141887Y0089181D01*
X0141791Y0089363D01*
X0141698Y0089549D01*
X0141610Y0089736D01*
X0141527Y0089926D01*
X0141448Y0090117D01*
X0141374Y0090310D01*
X0141305Y0090506D01*
X0141241Y0090702D01*
X0141181Y0090900D01*
X0141126Y0091100D01*
X0141076Y0091301D01*
X0141031Y0091503D01*
X0140991Y0091706D01*
X0140956Y0091910D01*
X0140926Y0092115D01*
X0140901Y0092320D01*
X0140881Y0092526D01*
X0140866Y0092733D01*
X0140856Y0092940D01*
X0140851Y0093147D01*
X0140851Y0093353D01*
X0140856Y0093560D01*
X0140866Y0093767D01*
X0140881Y0093974D01*
X0140901Y0094180D01*
X0140926Y0094385D01*
X0140956Y0094590D01*
X0140991Y0094794D01*
X0141031Y0094997D01*
X0141076Y0095199D01*
X0141126Y0095400D01*
X0141181Y0095600D01*
X0141241Y0095798D01*
X0141305Y0095994D01*
X0141374Y0096190D01*
X0141448Y0096383D01*
X0141527Y0096574D01*
X0141610Y0096764D01*
X0141698Y0096951D01*
X0141791Y0097137D01*
X0141887Y0097319D01*
X0141989Y0097500D01*
X0142094Y0097678D01*
X0142204Y0097853D01*
X0142319Y0098026D01*
X0142437Y0098196D01*
X0142560Y0098363D01*
X0142686Y0098527D01*
X0142816Y0098687D01*
X0142951Y0098845D01*
X0143089Y0098999D01*
X0143231Y0099150D01*
X0143376Y0099297D01*
X0143525Y0099441D01*
X0143678Y0099581D01*
X0143834Y0099717D01*
X0143993Y0099849D01*
X0144155Y0099978D01*
X0144320Y0100102D01*
X0144489Y0100223D01*
X0144660Y0100339D01*
X0144834Y0100451D01*
X0145011Y0100559D01*
X0145190Y0100662D01*
X0145372Y0100762D01*
X0145556Y0100856D01*
X0145742Y0100946D01*
X0145931Y0101032D01*
X0146121Y0101113D01*
X0146314Y0101189D01*
X0146508Y0101261D01*
X0146704Y0101328D01*
X0146901Y0101390D01*
X0147100Y0101447D01*
X0147300Y0101499D01*
X0147502Y0101547D01*
X0147704Y0101589D01*
X0147908Y0101627D01*
X0148112Y0101659D01*
X0148318Y0101687D01*
X0148523Y0101710D01*
X0148730Y0101727D01*
X0148936Y0101740D01*
X0149143Y0101747D01*
X0149350Y0101750D01*
X0173350Y0101750D01*
X0173557Y0101747D01*
X0173764Y0101740D01*
X0173970Y0101727D01*
X0174177Y0101710D01*
X0174382Y0101687D01*
X0174588Y0101659D01*
X0174792Y0101627D01*
X0174996Y0101589D01*
X0175198Y0101547D01*
X0175400Y0101499D01*
X0175600Y0101447D01*
X0175799Y0101390D01*
X0175996Y0101328D01*
X0176192Y0101261D01*
X0176386Y0101189D01*
X0176579Y0101113D01*
X0176769Y0101032D01*
X0176958Y0100946D01*
X0177144Y0100856D01*
X0177328Y0100762D01*
X0177510Y0100662D01*
X0177689Y0100559D01*
X0177866Y0100451D01*
X0178040Y0100339D01*
X0178211Y0100223D01*
X0178380Y0100102D01*
X0178545Y0099978D01*
X0178707Y0099849D01*
X0178866Y0099717D01*
X0179022Y0099581D01*
X0179175Y0099441D01*
X0179324Y0099297D01*
X0179469Y0099150D01*
X0179611Y0098999D01*
X0179749Y0098845D01*
X0179884Y0098687D01*
X0180014Y0098527D01*
X0180140Y0098363D01*
X0180263Y0098196D01*
X0180381Y0098026D01*
X0180496Y0097853D01*
X0180606Y0097678D01*
X0180711Y0097500D01*
X0180813Y0097319D01*
X0180909Y0097137D01*
X0181002Y0096951D01*
X0181090Y0096764D01*
X0181173Y0096574D01*
X0181252Y0096383D01*
X0181326Y0096190D01*
X0181395Y0095994D01*
X0181459Y0095798D01*
X0181519Y0095600D01*
X0181574Y0095400D01*
X0181624Y0095199D01*
X0181669Y0094997D01*
X0181709Y0094794D01*
X0181744Y0094590D01*
X0181774Y0094385D01*
X0181799Y0094180D01*
X0181819Y0093974D01*
X0181834Y0093767D01*
X0181844Y0093560D01*
X0181849Y0093353D01*
X0181849Y0093147D01*
X0181844Y0092940D01*
X0181834Y0092733D01*
X0181819Y0092526D01*
X0181799Y0092320D01*
X0181774Y0092115D01*
X0181744Y0091910D01*
X0181709Y0091706D01*
X0181669Y0091503D01*
X0181624Y0091301D01*
X0181574Y0091100D01*
X0181519Y0090900D01*
X0181459Y0090702D01*
X0181395Y0090506D01*
X0181326Y0090310D01*
X0181252Y0090117D01*
X0181173Y0089926D01*
X0181090Y0089736D01*
X0181002Y0089549D01*
X0180909Y0089363D01*
X0180813Y0089181D01*
X0180711Y0089000D01*
X0180606Y0088822D01*
X0180496Y0088647D01*
X0180381Y0088474D01*
X0180263Y0088304D01*
X0180140Y0088137D01*
X0180014Y0087973D01*
X0179884Y0087813D01*
X0179749Y0087655D01*
X0179611Y0087501D01*
X0179469Y0087350D01*
X0179324Y0087203D01*
X0179175Y0087059D01*
X0179022Y0086919D01*
X0178866Y0086783D01*
X0178707Y0086651D01*
X0178545Y0086522D01*
X0178380Y0086398D01*
X0178211Y0086277D01*
X0178040Y0086161D01*
X0177866Y0086049D01*
X0177689Y0085941D01*
X0177510Y0085838D01*
X0177328Y0085738D01*
X0177144Y0085644D01*
X0176958Y0085554D01*
X0176769Y0085468D01*
X0176579Y0085387D01*
X0176386Y0085311D01*
X0176192Y0085239D01*
X0175996Y0085172D01*
X0175799Y0085110D01*
X0175600Y0085053D01*
X0175400Y0085001D01*
X0175198Y0084953D01*
X0174996Y0084911D01*
X0174792Y0084873D01*
X0174588Y0084841D01*
X0174382Y0084813D01*
X0174177Y0084790D01*
X0173970Y0084773D01*
X0173764Y0084760D01*
X0173557Y0084753D01*
X0173350Y0084750D01*
M02*
