G75*
%MOIN*%
%OFA0B0*%
%FSLAX25Y25*%
%IPPOS*%
%LPD*%
%AMOC8*
5,1,8,0,0,1.08239X$1,22.5*
%
%ADD10C,0.01000*%
%ADD11C,0.05600*%
%ADD12OC8,0.06102*%
%ADD13OC8,0.15748*%
%ADD14C,0.07677*%
%ADD15C,0.06600*%
%ADD16C,0.06600*%
%ADD17C,0.00000*%
%ADD18OC8,0.05200*%
%ADD19C,0.06000*%
%ADD20C,0.05200*%
%ADD21OC8,0.06300*%
%ADD22C,0.06300*%
%ADD23C,0.05937*%
%ADD24C,0.02000*%
%ADD25C,0.04362*%
%ADD26C,0.01200*%
%ADD27C,0.04400*%
%ADD28C,0.04200*%
D10*
X0084298Y0021333D02*
X0084298Y0131333D01*
X0084301Y0131575D01*
X0084310Y0131816D01*
X0084324Y0132057D01*
X0084345Y0132298D01*
X0084371Y0132538D01*
X0084403Y0132778D01*
X0084441Y0133017D01*
X0084484Y0133254D01*
X0084534Y0133491D01*
X0084589Y0133726D01*
X0084649Y0133960D01*
X0084716Y0134192D01*
X0084787Y0134423D01*
X0084865Y0134652D01*
X0084948Y0134879D01*
X0085036Y0135104D01*
X0085130Y0135327D01*
X0085229Y0135547D01*
X0085334Y0135765D01*
X0085443Y0135980D01*
X0085558Y0136193D01*
X0085678Y0136403D01*
X0085803Y0136609D01*
X0085933Y0136813D01*
X0086068Y0137014D01*
X0086208Y0137211D01*
X0086352Y0137405D01*
X0086501Y0137595D01*
X0086655Y0137781D01*
X0086813Y0137964D01*
X0086975Y0138143D01*
X0087142Y0138318D01*
X0087313Y0138489D01*
X0087488Y0138656D01*
X0087667Y0138818D01*
X0087850Y0138976D01*
X0088036Y0139130D01*
X0088226Y0139279D01*
X0088420Y0139423D01*
X0088617Y0139563D01*
X0088818Y0139698D01*
X0089022Y0139828D01*
X0089228Y0139953D01*
X0089438Y0140073D01*
X0089651Y0140188D01*
X0089866Y0140297D01*
X0090084Y0140402D01*
X0090304Y0140501D01*
X0090527Y0140595D01*
X0090752Y0140683D01*
X0090979Y0140766D01*
X0091208Y0140844D01*
X0091439Y0140915D01*
X0091671Y0140982D01*
X0091905Y0141042D01*
X0092140Y0141097D01*
X0092377Y0141147D01*
X0092614Y0141190D01*
X0092853Y0141228D01*
X0093093Y0141260D01*
X0093333Y0141286D01*
X0093574Y0141307D01*
X0093815Y0141321D01*
X0094056Y0141330D01*
X0094298Y0141333D01*
X0364298Y0141333D01*
X0364540Y0141330D01*
X0364781Y0141321D01*
X0365022Y0141307D01*
X0365263Y0141286D01*
X0365503Y0141260D01*
X0365743Y0141228D01*
X0365982Y0141190D01*
X0366219Y0141147D01*
X0366456Y0141097D01*
X0366691Y0141042D01*
X0366925Y0140982D01*
X0367157Y0140915D01*
X0367388Y0140844D01*
X0367617Y0140766D01*
X0367844Y0140683D01*
X0368069Y0140595D01*
X0368292Y0140501D01*
X0368512Y0140402D01*
X0368730Y0140297D01*
X0368945Y0140188D01*
X0369158Y0140073D01*
X0369368Y0139953D01*
X0369574Y0139828D01*
X0369778Y0139698D01*
X0369979Y0139563D01*
X0370176Y0139423D01*
X0370370Y0139279D01*
X0370560Y0139130D01*
X0370746Y0138976D01*
X0370929Y0138818D01*
X0371108Y0138656D01*
X0371283Y0138489D01*
X0371454Y0138318D01*
X0371621Y0138143D01*
X0371783Y0137964D01*
X0371941Y0137781D01*
X0372095Y0137595D01*
X0372244Y0137405D01*
X0372388Y0137211D01*
X0372528Y0137014D01*
X0372663Y0136813D01*
X0372793Y0136609D01*
X0372918Y0136403D01*
X0373038Y0136193D01*
X0373153Y0135980D01*
X0373262Y0135765D01*
X0373367Y0135547D01*
X0373466Y0135327D01*
X0373560Y0135104D01*
X0373648Y0134879D01*
X0373731Y0134652D01*
X0373809Y0134423D01*
X0373880Y0134192D01*
X0373947Y0133960D01*
X0374007Y0133726D01*
X0374062Y0133491D01*
X0374112Y0133254D01*
X0374155Y0133017D01*
X0374193Y0132778D01*
X0374225Y0132538D01*
X0374251Y0132298D01*
X0374272Y0132057D01*
X0374286Y0131816D01*
X0374295Y0131575D01*
X0374298Y0131333D01*
X0374298Y0021333D01*
X0374295Y0021091D01*
X0374286Y0020850D01*
X0374272Y0020609D01*
X0374251Y0020368D01*
X0374225Y0020128D01*
X0374193Y0019888D01*
X0374155Y0019649D01*
X0374112Y0019412D01*
X0374062Y0019175D01*
X0374007Y0018940D01*
X0373947Y0018706D01*
X0373880Y0018474D01*
X0373809Y0018243D01*
X0373731Y0018014D01*
X0373648Y0017787D01*
X0373560Y0017562D01*
X0373466Y0017339D01*
X0373367Y0017119D01*
X0373262Y0016901D01*
X0373153Y0016686D01*
X0373038Y0016473D01*
X0372918Y0016263D01*
X0372793Y0016057D01*
X0372663Y0015853D01*
X0372528Y0015652D01*
X0372388Y0015455D01*
X0372244Y0015261D01*
X0372095Y0015071D01*
X0371941Y0014885D01*
X0371783Y0014702D01*
X0371621Y0014523D01*
X0371454Y0014348D01*
X0371283Y0014177D01*
X0371108Y0014010D01*
X0370929Y0013848D01*
X0370746Y0013690D01*
X0370560Y0013536D01*
X0370370Y0013387D01*
X0370176Y0013243D01*
X0369979Y0013103D01*
X0369778Y0012968D01*
X0369574Y0012838D01*
X0369368Y0012713D01*
X0369158Y0012593D01*
X0368945Y0012478D01*
X0368730Y0012369D01*
X0368512Y0012264D01*
X0368292Y0012165D01*
X0368069Y0012071D01*
X0367844Y0011983D01*
X0367617Y0011900D01*
X0367388Y0011822D01*
X0367157Y0011751D01*
X0366925Y0011684D01*
X0366691Y0011624D01*
X0366456Y0011569D01*
X0366219Y0011519D01*
X0365982Y0011476D01*
X0365743Y0011438D01*
X0365503Y0011406D01*
X0365263Y0011380D01*
X0365022Y0011359D01*
X0364781Y0011345D01*
X0364540Y0011336D01*
X0364298Y0011333D01*
X0094298Y0011333D01*
X0094056Y0011336D01*
X0093815Y0011345D01*
X0093574Y0011359D01*
X0093333Y0011380D01*
X0093093Y0011406D01*
X0092853Y0011438D01*
X0092614Y0011476D01*
X0092377Y0011519D01*
X0092140Y0011569D01*
X0091905Y0011624D01*
X0091671Y0011684D01*
X0091439Y0011751D01*
X0091208Y0011822D01*
X0090979Y0011900D01*
X0090752Y0011983D01*
X0090527Y0012071D01*
X0090304Y0012165D01*
X0090084Y0012264D01*
X0089866Y0012369D01*
X0089651Y0012478D01*
X0089438Y0012593D01*
X0089228Y0012713D01*
X0089022Y0012838D01*
X0088818Y0012968D01*
X0088617Y0013103D01*
X0088420Y0013243D01*
X0088226Y0013387D01*
X0088036Y0013536D01*
X0087850Y0013690D01*
X0087667Y0013848D01*
X0087488Y0014010D01*
X0087313Y0014177D01*
X0087142Y0014348D01*
X0086975Y0014523D01*
X0086813Y0014702D01*
X0086655Y0014885D01*
X0086501Y0015071D01*
X0086352Y0015261D01*
X0086208Y0015455D01*
X0086068Y0015652D01*
X0085933Y0015853D01*
X0085803Y0016057D01*
X0085678Y0016263D01*
X0085558Y0016473D01*
X0085443Y0016686D01*
X0085334Y0016901D01*
X0085229Y0017119D01*
X0085130Y0017339D01*
X0085036Y0017562D01*
X0084948Y0017787D01*
X0084865Y0018014D01*
X0084787Y0018243D01*
X0084716Y0018474D01*
X0084649Y0018706D01*
X0084589Y0018940D01*
X0084534Y0019175D01*
X0084484Y0019412D01*
X0084441Y0019649D01*
X0084403Y0019888D01*
X0084371Y0020128D01*
X0084345Y0020368D01*
X0084324Y0020609D01*
X0084310Y0020850D01*
X0084301Y0021091D01*
X0084298Y0021333D01*
X0119298Y0015083D02*
X0119298Y0050083D01*
X0139298Y0070083D01*
X0139298Y0076333D01*
X0138048Y0077583D01*
X0138048Y0113833D01*
X0161798Y0137583D01*
X0269298Y0137583D01*
X0269298Y0100083D01*
X0283048Y0086333D01*
X0284298Y0086333D01*
X0290548Y0093833D02*
X0294298Y0090083D01*
X0294298Y0086333D01*
X0304298Y0086333D02*
X0304298Y0101333D01*
X0314298Y0111333D01*
X0314298Y0121333D02*
X0324298Y0111333D01*
X0329298Y0116333D02*
X0329298Y0098833D01*
X0319298Y0088833D01*
X0319298Y0077583D01*
X0306798Y0065083D01*
X0268798Y0065083D01*
X0268798Y0054333D01*
X0279298Y0043833D01*
X0279298Y0028833D01*
X0274298Y0023833D01*
X0274298Y0021333D01*
X0284298Y0021333D02*
X0284298Y0015083D01*
X0251798Y0015083D01*
X0249298Y0017583D01*
X0249298Y0025083D01*
X0234298Y0040083D01*
X0234298Y0056333D01*
X0233048Y0065083D02*
X0224298Y0056333D01*
X0233048Y0065083D02*
X0268798Y0065083D01*
X0268048Y0076833D02*
X0314298Y0076833D01*
X0314298Y0086333D01*
X0314298Y0101333D01*
X0294298Y0107583D02*
X0294298Y0131333D01*
X0304298Y0131333D02*
X0304298Y0137583D01*
X0281798Y0137583D01*
X0279298Y0135083D01*
X0279298Y0116333D01*
X0274298Y0111333D01*
X0289298Y0120083D02*
X0290548Y0118833D01*
X0290548Y0093833D01*
X0324298Y0086333D02*
X0341798Y0068833D01*
X0341798Y0108833D01*
X0354298Y0121333D01*
X0344298Y0131333D02*
X0339298Y0126333D01*
X0339298Y0086333D01*
X0335548Y0082583D01*
X0341798Y0068833D02*
X0344298Y0066333D01*
X0344298Y0065083D01*
X0345398Y0064133D01*
X0345548Y0063833D01*
X0345548Y0038833D01*
X0345398Y0038533D01*
X0337798Y0043833D02*
X0337798Y0026833D01*
X0339548Y0025083D01*
X0340548Y0025083D01*
X0344298Y0021333D01*
X0354298Y0021333D02*
X0354298Y0015083D01*
X0323048Y0015083D01*
X0319298Y0018833D01*
X0319298Y0023833D01*
X0318048Y0025083D01*
X0318048Y0052583D01*
X0314298Y0056333D01*
X0310798Y0062833D02*
X0304298Y0056333D01*
X0310798Y0062833D02*
X0327298Y0062833D01*
X0328798Y0061333D01*
X0328798Y0045833D01*
X0329798Y0044833D01*
X0336798Y0044833D01*
X0337798Y0043833D01*
X0324298Y0046333D02*
X0324298Y0021333D01*
X0324298Y0046333D02*
X0321798Y0048833D01*
X0264298Y0024333D02*
X0264298Y0021333D01*
X0264298Y0024333D02*
X0259798Y0028833D01*
X0249798Y0028833D01*
X0238298Y0040333D01*
X0238298Y0047333D01*
X0238048Y0047583D01*
X0219298Y0036333D02*
X0234298Y0021333D01*
X0244298Y0021333D02*
X0244298Y0015083D01*
X0221798Y0015083D01*
X0219298Y0017583D01*
X0219298Y0031333D01*
X0194298Y0056333D01*
X0186798Y0058833D02*
X0214298Y0086333D01*
X0204298Y0086333D02*
X0180548Y0062583D01*
X0179298Y0076333D02*
X0189298Y0086333D01*
X0189298Y0106333D01*
X0194298Y0111333D01*
X0169298Y0100083D02*
X0169298Y0036333D01*
X0154298Y0021333D01*
X0144298Y0021333D02*
X0165548Y0042583D01*
X0165548Y0103833D01*
X0194298Y0086333D02*
X0200548Y0092583D01*
X0219298Y0092583D01*
X0219298Y0036333D01*
X0141798Y0038833D02*
X0141798Y0080083D01*
X0224298Y0101333D02*
X0225298Y0101333D01*
X0225548Y0101333D01*
X0234298Y0092583D01*
X0234298Y0086333D01*
X0244298Y0086333D02*
X0244298Y0101333D01*
X0244298Y0121333D01*
X0224298Y0121333D02*
X0224298Y0101333D01*
X0314298Y0121333D02*
X0314298Y0131333D01*
X0329298Y0116333D02*
X0334298Y0121333D01*
X0141798Y0038833D02*
X0124298Y0021333D01*
X0128048Y0015083D02*
X0119298Y0015083D01*
X0128048Y0015083D02*
X0134298Y0021333D01*
D11*
X0134298Y0022733D02*
X0134298Y0019933D01*
X0124298Y0019933D02*
X0124298Y0022733D01*
X0114298Y0022733D02*
X0114298Y0019933D01*
X0104298Y0019933D02*
X0104298Y0022733D01*
X0094298Y0022733D02*
X0094298Y0019933D01*
X0144298Y0019933D02*
X0144298Y0022733D01*
X0154298Y0022733D02*
X0154298Y0019933D01*
X0164298Y0019933D02*
X0164298Y0022733D01*
X0194298Y0054933D02*
X0194298Y0057733D01*
X0204298Y0057733D02*
X0204298Y0054933D01*
X0214298Y0054933D02*
X0214298Y0057733D01*
X0224298Y0057733D02*
X0224298Y0054933D01*
X0234298Y0054933D02*
X0234298Y0057733D01*
X0244298Y0057733D02*
X0244298Y0054933D01*
X0254298Y0054933D02*
X0254298Y0057733D01*
X0264298Y0057733D02*
X0264298Y0054933D01*
X0274298Y0054933D02*
X0274298Y0057733D01*
X0284298Y0057733D02*
X0284298Y0054933D01*
X0294298Y0054933D02*
X0294298Y0057733D01*
X0304298Y0057733D02*
X0304298Y0054933D01*
X0314298Y0054933D02*
X0314298Y0057733D01*
X0324298Y0057733D02*
X0324298Y0054933D01*
X0324298Y0084933D02*
X0324298Y0087733D01*
X0314298Y0087733D02*
X0314298Y0084933D01*
X0304298Y0084933D02*
X0304298Y0087733D01*
X0294298Y0087733D02*
X0294298Y0084933D01*
X0284298Y0084933D02*
X0284298Y0087733D01*
X0274298Y0087733D02*
X0274298Y0084933D01*
X0264298Y0084933D02*
X0264298Y0087733D01*
X0254298Y0087733D02*
X0254298Y0084933D01*
X0244298Y0084933D02*
X0244298Y0087733D01*
X0234298Y0087733D02*
X0234298Y0084933D01*
X0224298Y0084933D02*
X0224298Y0087733D01*
X0214298Y0087733D02*
X0214298Y0084933D01*
X0204298Y0084933D02*
X0204298Y0087733D01*
X0194298Y0087733D02*
X0194298Y0084933D01*
X0314298Y0022733D02*
X0314298Y0019933D01*
X0324298Y0019933D02*
X0324298Y0022733D01*
X0334298Y0022733D02*
X0334298Y0019933D01*
X0344298Y0019933D02*
X0344298Y0022733D01*
X0354298Y0022733D02*
X0354298Y0019933D01*
X0364298Y0019933D02*
X0364298Y0022733D01*
D12*
X0354298Y0121333D03*
X0344298Y0121333D03*
X0334298Y0121333D03*
X0334298Y0131333D03*
X0344298Y0131333D03*
X0354298Y0131333D03*
D13*
X0127798Y0081533D03*
X0104198Y0081533D03*
X0115998Y0061833D03*
D14*
X0118998Y0061833D03*
X0112998Y0061833D03*
X0104198Y0078533D03*
X0104198Y0084533D03*
X0127798Y0084533D03*
X0127798Y0078533D03*
D15*
X0134298Y0041333D03*
X0094298Y0041333D03*
D16*
X0162648Y0111333D02*
X0165948Y0111333D01*
X0165948Y0121333D02*
X0162648Y0121333D01*
X0162648Y0131333D02*
X0165948Y0131333D01*
D17*
X0098798Y0121333D02*
X0098800Y0121494D01*
X0098806Y0121654D01*
X0098816Y0121815D01*
X0098830Y0121975D01*
X0098848Y0122135D01*
X0098869Y0122294D01*
X0098895Y0122453D01*
X0098925Y0122611D01*
X0098958Y0122768D01*
X0098996Y0122925D01*
X0099037Y0123080D01*
X0099082Y0123234D01*
X0099131Y0123387D01*
X0099184Y0123539D01*
X0099240Y0123690D01*
X0099301Y0123839D01*
X0099364Y0123987D01*
X0099432Y0124133D01*
X0099503Y0124277D01*
X0099577Y0124419D01*
X0099655Y0124560D01*
X0099737Y0124698D01*
X0099822Y0124835D01*
X0099910Y0124969D01*
X0100002Y0125101D01*
X0100097Y0125231D01*
X0100195Y0125359D01*
X0100296Y0125484D01*
X0100400Y0125606D01*
X0100507Y0125726D01*
X0100617Y0125843D01*
X0100730Y0125958D01*
X0100846Y0126069D01*
X0100965Y0126178D01*
X0101086Y0126283D01*
X0101210Y0126386D01*
X0101336Y0126486D01*
X0101464Y0126582D01*
X0101595Y0126675D01*
X0101729Y0126765D01*
X0101864Y0126852D01*
X0102002Y0126935D01*
X0102141Y0127015D01*
X0102283Y0127091D01*
X0102426Y0127164D01*
X0102571Y0127233D01*
X0102718Y0127299D01*
X0102866Y0127361D01*
X0103016Y0127419D01*
X0103167Y0127474D01*
X0103320Y0127525D01*
X0103474Y0127572D01*
X0103629Y0127615D01*
X0103785Y0127654D01*
X0103941Y0127690D01*
X0104099Y0127721D01*
X0104257Y0127749D01*
X0104416Y0127773D01*
X0104576Y0127793D01*
X0104736Y0127809D01*
X0104896Y0127821D01*
X0105057Y0127829D01*
X0105218Y0127833D01*
X0105378Y0127833D01*
X0105539Y0127829D01*
X0105700Y0127821D01*
X0105860Y0127809D01*
X0106020Y0127793D01*
X0106180Y0127773D01*
X0106339Y0127749D01*
X0106497Y0127721D01*
X0106655Y0127690D01*
X0106811Y0127654D01*
X0106967Y0127615D01*
X0107122Y0127572D01*
X0107276Y0127525D01*
X0107429Y0127474D01*
X0107580Y0127419D01*
X0107730Y0127361D01*
X0107878Y0127299D01*
X0108025Y0127233D01*
X0108170Y0127164D01*
X0108313Y0127091D01*
X0108455Y0127015D01*
X0108594Y0126935D01*
X0108732Y0126852D01*
X0108867Y0126765D01*
X0109001Y0126675D01*
X0109132Y0126582D01*
X0109260Y0126486D01*
X0109386Y0126386D01*
X0109510Y0126283D01*
X0109631Y0126178D01*
X0109750Y0126069D01*
X0109866Y0125958D01*
X0109979Y0125843D01*
X0110089Y0125726D01*
X0110196Y0125606D01*
X0110300Y0125484D01*
X0110401Y0125359D01*
X0110499Y0125231D01*
X0110594Y0125101D01*
X0110686Y0124969D01*
X0110774Y0124835D01*
X0110859Y0124698D01*
X0110941Y0124560D01*
X0111019Y0124419D01*
X0111093Y0124277D01*
X0111164Y0124133D01*
X0111232Y0123987D01*
X0111295Y0123839D01*
X0111356Y0123690D01*
X0111412Y0123539D01*
X0111465Y0123387D01*
X0111514Y0123234D01*
X0111559Y0123080D01*
X0111600Y0122925D01*
X0111638Y0122768D01*
X0111671Y0122611D01*
X0111701Y0122453D01*
X0111727Y0122294D01*
X0111748Y0122135D01*
X0111766Y0121975D01*
X0111780Y0121815D01*
X0111790Y0121654D01*
X0111796Y0121494D01*
X0111798Y0121333D01*
X0111796Y0121172D01*
X0111790Y0121012D01*
X0111780Y0120851D01*
X0111766Y0120691D01*
X0111748Y0120531D01*
X0111727Y0120372D01*
X0111701Y0120213D01*
X0111671Y0120055D01*
X0111638Y0119898D01*
X0111600Y0119741D01*
X0111559Y0119586D01*
X0111514Y0119432D01*
X0111465Y0119279D01*
X0111412Y0119127D01*
X0111356Y0118976D01*
X0111295Y0118827D01*
X0111232Y0118679D01*
X0111164Y0118533D01*
X0111093Y0118389D01*
X0111019Y0118247D01*
X0110941Y0118106D01*
X0110859Y0117968D01*
X0110774Y0117831D01*
X0110686Y0117697D01*
X0110594Y0117565D01*
X0110499Y0117435D01*
X0110401Y0117307D01*
X0110300Y0117182D01*
X0110196Y0117060D01*
X0110089Y0116940D01*
X0109979Y0116823D01*
X0109866Y0116708D01*
X0109750Y0116597D01*
X0109631Y0116488D01*
X0109510Y0116383D01*
X0109386Y0116280D01*
X0109260Y0116180D01*
X0109132Y0116084D01*
X0109001Y0115991D01*
X0108867Y0115901D01*
X0108732Y0115814D01*
X0108594Y0115731D01*
X0108455Y0115651D01*
X0108313Y0115575D01*
X0108170Y0115502D01*
X0108025Y0115433D01*
X0107878Y0115367D01*
X0107730Y0115305D01*
X0107580Y0115247D01*
X0107429Y0115192D01*
X0107276Y0115141D01*
X0107122Y0115094D01*
X0106967Y0115051D01*
X0106811Y0115012D01*
X0106655Y0114976D01*
X0106497Y0114945D01*
X0106339Y0114917D01*
X0106180Y0114893D01*
X0106020Y0114873D01*
X0105860Y0114857D01*
X0105700Y0114845D01*
X0105539Y0114837D01*
X0105378Y0114833D01*
X0105218Y0114833D01*
X0105057Y0114837D01*
X0104896Y0114845D01*
X0104736Y0114857D01*
X0104576Y0114873D01*
X0104416Y0114893D01*
X0104257Y0114917D01*
X0104099Y0114945D01*
X0103941Y0114976D01*
X0103785Y0115012D01*
X0103629Y0115051D01*
X0103474Y0115094D01*
X0103320Y0115141D01*
X0103167Y0115192D01*
X0103016Y0115247D01*
X0102866Y0115305D01*
X0102718Y0115367D01*
X0102571Y0115433D01*
X0102426Y0115502D01*
X0102283Y0115575D01*
X0102141Y0115651D01*
X0102002Y0115731D01*
X0101864Y0115814D01*
X0101729Y0115901D01*
X0101595Y0115991D01*
X0101464Y0116084D01*
X0101336Y0116180D01*
X0101210Y0116280D01*
X0101086Y0116383D01*
X0100965Y0116488D01*
X0100846Y0116597D01*
X0100730Y0116708D01*
X0100617Y0116823D01*
X0100507Y0116940D01*
X0100400Y0117060D01*
X0100296Y0117182D01*
X0100195Y0117307D01*
X0100097Y0117435D01*
X0100002Y0117565D01*
X0099910Y0117697D01*
X0099822Y0117831D01*
X0099737Y0117968D01*
X0099655Y0118106D01*
X0099577Y0118247D01*
X0099503Y0118389D01*
X0099432Y0118533D01*
X0099364Y0118679D01*
X0099301Y0118827D01*
X0099240Y0118976D01*
X0099184Y0119127D01*
X0099131Y0119279D01*
X0099082Y0119432D01*
X0099037Y0119586D01*
X0098996Y0119741D01*
X0098958Y0119898D01*
X0098925Y0120055D01*
X0098895Y0120213D01*
X0098869Y0120372D01*
X0098848Y0120531D01*
X0098830Y0120691D01*
X0098816Y0120851D01*
X0098806Y0121012D01*
X0098800Y0121172D01*
X0098798Y0121333D01*
D18*
X0194298Y0111333D03*
X0194298Y0101333D03*
X0174298Y0071333D03*
X0134298Y0071333D03*
X0274298Y0101333D03*
X0274298Y0111333D03*
X0314298Y0111333D03*
X0324298Y0111333D03*
X0324298Y0101333D03*
X0314298Y0101333D03*
X0349298Y0081333D03*
X0359298Y0081333D03*
X0364298Y0101333D03*
X0364298Y0111333D03*
X0333298Y0040333D03*
X0293298Y0040333D03*
D19*
X0345398Y0040033D02*
X0345398Y0037033D01*
X0363198Y0037033D02*
X0363198Y0040033D01*
X0363198Y0062633D02*
X0363198Y0065633D01*
X0345398Y0065633D02*
X0345398Y0062633D01*
D20*
X0244298Y0101333D03*
X0225298Y0101333D03*
D21*
X0264298Y0101333D03*
X0264298Y0111333D03*
X0244298Y0121333D03*
X0224298Y0121333D03*
X0224298Y0131333D03*
X0244298Y0131333D03*
X0160298Y0091333D03*
X0160798Y0051333D03*
X0183298Y0051333D03*
X0183298Y0041333D03*
X0254298Y0039833D03*
X0264298Y0039833D03*
X0274298Y0039833D03*
X0284298Y0039833D03*
D22*
X0174298Y0091333D03*
X0146798Y0051333D03*
D23*
X0174298Y0022818D02*
X0174298Y0019849D01*
X0184298Y0019849D02*
X0184298Y0022818D01*
X0194298Y0022818D02*
X0194298Y0019849D01*
X0204298Y0019849D02*
X0204298Y0022818D01*
X0214298Y0022818D02*
X0214298Y0019849D01*
X0224298Y0019849D02*
X0224298Y0022818D01*
X0234298Y0022818D02*
X0234298Y0019849D01*
X0244298Y0019849D02*
X0244298Y0022818D01*
X0254298Y0022818D02*
X0254298Y0019849D01*
X0264298Y0019849D02*
X0264298Y0022818D01*
X0274298Y0022818D02*
X0274298Y0019849D01*
X0284298Y0019849D02*
X0284298Y0022818D01*
X0294298Y0022818D02*
X0294298Y0019849D01*
X0304298Y0019849D02*
X0304298Y0022818D01*
X0304298Y0129849D02*
X0304298Y0132818D01*
X0294298Y0132818D02*
X0294298Y0129849D01*
X0284298Y0129849D02*
X0284298Y0132818D01*
X0274298Y0132818D02*
X0274298Y0129849D01*
X0264298Y0129849D02*
X0264298Y0132818D01*
X0314298Y0132818D02*
X0314298Y0129849D01*
D24*
X0304298Y0117833D02*
X0299298Y0122833D01*
X0304298Y0117833D02*
X0308798Y0117833D01*
X0284298Y0131333D02*
X0284298Y0095083D01*
X0289298Y0090083D01*
X0289298Y0082583D01*
X0286798Y0080083D01*
X0270548Y0080083D01*
X0264298Y0086333D01*
X0258798Y0080833D02*
X0258798Y0068833D01*
X0254298Y0086333D02*
X0254298Y0120333D01*
X0253798Y0120833D01*
X0209798Y0122333D02*
X0209798Y0100833D01*
X0204798Y0101333D02*
X0204798Y0122333D01*
X0174298Y0121333D02*
X0174298Y0091333D01*
X0174298Y0071333D01*
X0174298Y0050083D01*
X0183048Y0041333D01*
X0183298Y0041333D01*
X0184298Y0041333D01*
X0204298Y0021333D01*
X0207298Y0034833D02*
X0197798Y0034833D01*
X0207298Y0034833D02*
X0208298Y0035833D01*
X0197798Y0041833D02*
X0190798Y0048833D01*
X0160798Y0051333D02*
X0160298Y0051833D01*
X0160298Y0091333D01*
X0151298Y0100333D01*
X0151298Y0105333D01*
X0144798Y0111833D02*
X0142798Y0109833D01*
X0142798Y0087833D01*
X0146798Y0083833D01*
X0146798Y0051333D01*
X0112798Y0074833D02*
X0106298Y0068333D01*
X0101298Y0068333D01*
X0094298Y0061333D01*
X0094298Y0041333D01*
X0112798Y0074833D02*
X0117798Y0074833D01*
X0124498Y0081533D01*
X0127798Y0081533D01*
X0144798Y0111833D02*
X0163798Y0111833D01*
X0164298Y0111333D01*
X0174298Y0121333D02*
X0164298Y0131333D01*
X0319798Y0068833D02*
X0329298Y0068833D01*
X0335298Y0062833D01*
X0335298Y0053333D01*
X0335798Y0052833D01*
X0363198Y0064133D02*
X0363198Y0038533D01*
X0363198Y0064133D02*
X0363198Y0077433D01*
X0359298Y0081333D01*
X0236298Y0032833D02*
X0227298Y0041833D01*
X0225798Y0041833D01*
D25*
X0225798Y0041833D03*
X0208298Y0035833D03*
X0197798Y0034833D03*
X0197798Y0041833D03*
X0190798Y0048833D03*
X0236298Y0032833D03*
X0289298Y0045833D03*
X0319298Y0068833D03*
X0335298Y0057833D03*
X0335798Y0052833D03*
X0258798Y0068833D03*
X0258798Y0080833D03*
X0209798Y0101333D03*
X0204798Y0101333D03*
X0204798Y0122333D03*
X0209798Y0122333D03*
X0253798Y0120833D03*
X0299298Y0122833D03*
X0308798Y0117833D03*
X0151298Y0105333D03*
X0151298Y0099833D03*
D26*
X0254298Y0056333D02*
X0254298Y0051833D01*
X0244798Y0042333D01*
X0244798Y0039833D01*
X0251298Y0033333D01*
X0257798Y0033333D01*
X0264298Y0039833D01*
X0254298Y0039833D02*
X0264298Y0049833D01*
X0264298Y0056333D01*
X0274298Y0056333D02*
X0274298Y0054833D01*
X0279298Y0049833D01*
X0308298Y0049833D01*
X0313798Y0044333D01*
X0313798Y0021833D01*
X0314298Y0021333D01*
X0309798Y0017333D02*
X0309798Y0039833D01*
X0303798Y0045833D01*
X0289298Y0045833D01*
X0274298Y0039833D02*
X0264298Y0049833D01*
X0283548Y0032583D02*
X0284798Y0032333D01*
X0299298Y0032333D01*
X0304298Y0026833D01*
X0304298Y0021333D01*
X0309798Y0017333D02*
X0307798Y0014833D01*
X0300298Y0014833D01*
X0294298Y0021333D01*
D27*
X0283548Y0032583D03*
D28*
X0321798Y0048833D03*
X0268048Y0076833D03*
X0238048Y0047583D03*
X0186798Y0058833D03*
X0180548Y0062583D03*
X0179298Y0076333D03*
X0141798Y0080083D03*
X0169298Y0100083D03*
X0165548Y0103833D03*
X0289298Y0120083D03*
X0294298Y0107583D03*
X0335548Y0082583D03*
M02*
