%
M48
M72
T01C0.01200
T02C0.02362
T03C0.03200
T04C0.03346
T05C0.03740
T06C0.04000
T07C0.04400
T08C0.05118
T09C0.13000
%
T01
X117250Y38450
X111650Y52050
X115650Y64050
X100450Y64050
X147650Y55250
X186050Y57650
X192450Y60050
X206050Y68050
X196450Y84050
X210050Y92850
X195650Y96050
X105250Y100850
X86050Y91250
X190850Y20850
T02
X150850Y24250
X140350Y31250
X104850Y28750
X96850Y29250
X89850Y35750
X25850Y43750
X25850Y24250
X21350Y95750
X30850Y97750
X44350Y95750
X44350Y110250
X30850Y123750
X21350Y126250
X44350Y126250
X179850Y116750
X180850Y106750
X249850Y120250
T03
X250850Y103250
X240850Y103250
X240850Y93250
X250850Y93250
X290850Y93250
X290850Y103250
X285850Y73250
X275850Y73250
X200850Y93250
X190850Y93250
X190850Y103250
X200850Y103250
X170850Y95250
X151850Y95250
X120850Y93250
X120850Y103250
X103850Y113750
X143850Y113750
X155350Y112750
X166850Y112750
X166850Y122750
X155350Y122750
X103350Y80750
X89350Y80750
X109850Y43250
X89850Y41750
X75850Y41750
X109850Y33250
X180850Y31750
X190850Y31750
X200850Y31750
X210850Y31750
X219850Y32250
X259850Y32250
T04
X250850Y48250
X240850Y48250
X230850Y48250
X220850Y48250
X210850Y48250
X200850Y48250
X190850Y48250
X180850Y48250
X170850Y48250
X160850Y48250
X150850Y48250
X140850Y48250
X130850Y48250
X120850Y48250
X120850Y78250
X130850Y78250
X140850Y78250
X150850Y78250
X160850Y78250
X170850Y78250
X180850Y78250
X190850Y78250
X200850Y78250
X210850Y78250
X220850Y78250
X230850Y78250
X240850Y78250
X250850Y78250
T05
X260850Y113250
X270850Y113250
X280850Y113250
X280850Y123250
X270850Y123250
X260850Y123250
T06
X20850Y13250
X30850Y13250
X40850Y13250
X50850Y13250
X60850Y13250
X70850Y13250
X80850Y13250
X90850Y13250
X100850Y13250
X110850Y13250
X120850Y13250
X130850Y13250
X140850Y13250
X150850Y13250
X160850Y13250
X170850Y13250
X180850Y13250
X190850Y13250
X200850Y13250
X210850Y13250
X220850Y13250
X230850Y13250
X240850Y13250
X250850Y13250
X260850Y13250
X270850Y13250
X280850Y13250
X290850Y13250
X289750Y30450
X271950Y30450
X271950Y56050
X289750Y56050
X240850Y123250
X230850Y123250
X220850Y123250
X210850Y123250
X200850Y123250
X190850Y123250
T07
X90350Y120750
X90350Y110750
X90350Y100750
X60850Y33250
X20850Y33250
T08
X39550Y53750
X42550Y53750
X45550Y53750
X54350Y70450
X54350Y73450
X54350Y76450
X30750Y76450
X30750Y73450
X30750Y70450
T09
X31350Y110750
M30
