G75*
%MOIN*%
%OFA0B0*%
%FSLAX25Y25*%
%IPPOS*%
%LPD*%
%AMOC8*
5,1,8,0,0,1.08239X$1,22.5*
%
%ADD10C,0.00800*%
%ADD11C,0.01300*%
%ADD12C,0.00500*%
%ADD13C,0.01000*%
%ADD14C,0.00700*%
%ADD15C,0.00400*%
%ADD16C,0.00300*%
%ADD17C,0.00000*%
D10*
X0067250Y0076937D02*
X0071454Y0076937D01*
X0071454Y0079740D01*
X0070052Y0081541D02*
X0067250Y0081541D01*
X0068651Y0081541D02*
X0070052Y0082943D01*
X0070052Y0083643D01*
X0070052Y0085378D02*
X0070052Y0086079D01*
X0067250Y0086079D01*
X0067250Y0086779D02*
X0067250Y0085378D01*
X0063954Y0086088D02*
X0063954Y0087490D01*
X0063253Y0088190D01*
X0062552Y0088190D01*
X0061852Y0087490D01*
X0061852Y0086088D01*
X0062552Y0085388D01*
X0063253Y0085388D01*
X0063954Y0086088D01*
X0061852Y0086088D02*
X0061151Y0085388D01*
X0060451Y0085388D01*
X0059750Y0086088D01*
X0059750Y0087490D01*
X0060451Y0088190D01*
X0061151Y0088190D01*
X0061852Y0087490D01*
X0061852Y0089992D02*
X0061852Y0092794D01*
X0062552Y0094596D02*
X0062552Y0096697D01*
X0061852Y0097398D01*
X0060451Y0097398D01*
X0059750Y0096697D01*
X0059750Y0094596D01*
X0063954Y0094596D01*
X0067250Y0094319D02*
X0067250Y0091517D01*
X0070052Y0094319D01*
X0070052Y0091517D01*
X0070052Y0089848D02*
X0070052Y0088447D01*
X0070753Y0089148D02*
X0067951Y0089148D01*
X0067250Y0089848D01*
X0071454Y0086079D02*
X0072154Y0086079D01*
X0069352Y0078339D02*
X0069352Y0076937D01*
X0069352Y0096120D02*
X0070052Y0096821D01*
X0070052Y0098222D01*
X0069352Y0098923D01*
X0068651Y0098923D01*
X0068651Y0096120D01*
X0067951Y0096120D02*
X0069352Y0096120D01*
X0067951Y0096120D02*
X0067250Y0096821D01*
X0067250Y0098222D01*
X0067250Y0100724D02*
X0070052Y0100724D01*
X0070052Y0102826D01*
X0069352Y0103527D01*
X0067250Y0103527D01*
X0063253Y0102969D02*
X0060451Y0102969D01*
X0059750Y0103670D01*
X0062552Y0103670D02*
X0062552Y0102269D01*
X0062552Y0099900D02*
X0059750Y0099900D01*
X0059750Y0099200D02*
X0059750Y0100601D01*
X0062552Y0099900D02*
X0062552Y0099200D01*
X0063954Y0099900D02*
X0064654Y0099900D01*
X0062552Y0109942D02*
X0060451Y0109942D01*
X0059750Y0110643D01*
X0059750Y0112744D01*
X0062552Y0112744D01*
X0063253Y0114546D02*
X0060451Y0114546D01*
X0059750Y0115247D01*
X0059750Y0116648D01*
X0060451Y0117348D01*
X0063253Y0117348D02*
X0063954Y0116648D01*
X0063954Y0115247D01*
X0063253Y0114546D01*
X0067250Y0114536D02*
X0070052Y0114536D01*
X0068651Y0114536D02*
X0070052Y0115937D01*
X0070052Y0116638D01*
X0069352Y0118373D02*
X0067951Y0118373D01*
X0067250Y0119073D01*
X0067250Y0120475D01*
X0067951Y0121175D01*
X0069352Y0121175D01*
X0070052Y0120475D01*
X0070052Y0119073D01*
X0069352Y0118373D01*
X0070052Y0122977D02*
X0070052Y0124378D01*
X0070753Y0123677D02*
X0067951Y0123677D01*
X0067250Y0124378D01*
X0067951Y0126046D02*
X0067250Y0126747D01*
X0067250Y0128148D01*
X0067951Y0128848D01*
X0069352Y0128848D01*
X0070052Y0128148D01*
X0070052Y0126747D01*
X0069352Y0126046D01*
X0067951Y0126046D01*
X0069352Y0112735D02*
X0068651Y0112034D01*
X0068651Y0109932D01*
X0067250Y0109932D02*
X0071454Y0109932D01*
X0071454Y0112034D01*
X0070753Y0112735D01*
X0069352Y0112735D01*
D11*
X0164465Y0069424D02*
X0164465Y0068206D01*
X0164465Y0065771D02*
X0164465Y0060900D01*
X0165682Y0060900D02*
X0163247Y0060900D01*
X0159185Y0062118D02*
X0157968Y0060900D01*
X0159185Y0062118D02*
X0159185Y0066989D01*
X0157968Y0065771D02*
X0160403Y0065771D01*
X0164465Y0065771D02*
X0165682Y0065771D01*
X0168628Y0065771D02*
X0169846Y0065771D01*
X0172281Y0063335D01*
X0172281Y0060900D02*
X0172281Y0065771D01*
X0175329Y0068206D02*
X0180200Y0068206D01*
X0180200Y0060900D01*
X0180200Y0064553D02*
X0177765Y0064553D01*
X0155124Y0065771D02*
X0150253Y0065771D01*
X0155124Y0060900D01*
X0150253Y0060900D01*
X0147205Y0062118D02*
X0147205Y0064553D01*
X0145987Y0065771D01*
X0143552Y0065771D01*
X0142334Y0064553D01*
X0142334Y0063335D01*
X0147205Y0063335D01*
X0147205Y0062118D02*
X0145987Y0060900D01*
X0143552Y0060900D01*
X0139286Y0060900D02*
X0139286Y0065771D01*
X0135633Y0065771D01*
X0134416Y0064553D01*
X0134416Y0060900D01*
X0131368Y0060900D02*
X0126497Y0060900D01*
X0123449Y0062118D02*
X0122231Y0063335D01*
X0118578Y0063335D01*
X0118578Y0064553D02*
X0118578Y0060900D01*
X0122231Y0060900D01*
X0123449Y0062118D01*
X0119796Y0065771D02*
X0118578Y0064553D01*
X0119796Y0065771D02*
X0122231Y0065771D01*
X0115530Y0065771D02*
X0111877Y0065771D01*
X0110659Y0064553D01*
X0110659Y0062118D01*
X0111877Y0060900D01*
X0115530Y0060900D01*
X0115530Y0068206D01*
X0131368Y0068206D02*
X0131368Y0060900D01*
D12*
X0021354Y0057132D02*
X0020604Y0057132D01*
X0019103Y0057132D02*
X0016100Y0057132D01*
X0016100Y0056382D02*
X0016100Y0057883D01*
X0019103Y0057132D02*
X0019103Y0056382D01*
X0019103Y0054797D02*
X0019103Y0054046D01*
X0017601Y0052545D01*
X0016100Y0052545D02*
X0019103Y0052545D01*
X0020604Y0050944D02*
X0020604Y0047941D01*
X0016100Y0047941D01*
X0018352Y0047941D02*
X0018352Y0049442D01*
X0019103Y0059451D02*
X0019103Y0060952D01*
X0019853Y0060201D02*
X0016851Y0060201D01*
X0016100Y0060952D01*
X0016100Y0062520D02*
X0016100Y0065523D01*
X0016851Y0067124D02*
X0018352Y0067124D01*
X0019103Y0067875D01*
X0019103Y0069376D01*
X0018352Y0070127D01*
X0017601Y0070127D01*
X0017601Y0067124D01*
X0016851Y0067124D02*
X0016100Y0067875D01*
X0016100Y0069376D01*
X0016100Y0071728D02*
X0019103Y0071728D01*
X0019103Y0073980D01*
X0018352Y0074730D01*
X0016100Y0074730D01*
X0016100Y0076332D02*
X0016100Y0079334D01*
X0016851Y0080936D02*
X0017601Y0081686D01*
X0017601Y0083938D01*
X0018352Y0083938D02*
X0016100Y0083938D01*
X0016100Y0081686D01*
X0016851Y0080936D01*
X0019103Y0081686D02*
X0019103Y0083188D01*
X0018352Y0083938D01*
X0019103Y0085540D02*
X0019103Y0087792D01*
X0018352Y0088542D01*
X0016851Y0088542D01*
X0016100Y0087792D01*
X0016100Y0085540D01*
X0020604Y0085540D01*
X0016851Y0090144D02*
X0016851Y0090894D01*
X0016100Y0090894D01*
X0016100Y0090144D01*
X0016851Y0090144D01*
X0016851Y0092446D02*
X0016100Y0093196D01*
X0016100Y0095448D01*
X0019103Y0095448D02*
X0019103Y0093196D01*
X0018352Y0092446D01*
X0016851Y0092446D01*
X0016851Y0097049D02*
X0016100Y0097800D01*
X0016100Y0099301D01*
X0016851Y0100052D01*
X0018352Y0100052D01*
X0019103Y0099301D01*
X0019103Y0097800D01*
X0018352Y0097049D01*
X0016851Y0097049D01*
X0016100Y0101653D02*
X0019103Y0101653D01*
X0019103Y0102404D01*
X0018352Y0103155D01*
X0019103Y0103905D01*
X0018352Y0104656D01*
X0016100Y0104656D01*
X0016100Y0103155D02*
X0018352Y0103155D01*
X0016851Y0106257D02*
X0016851Y0107008D01*
X0016100Y0107008D01*
X0016100Y0106257D01*
X0016851Y0106257D01*
X0016100Y0108559D02*
X0016100Y0110811D01*
X0016851Y0111562D01*
X0018352Y0111562D01*
X0019103Y0110811D01*
X0019103Y0108559D01*
X0020604Y0108559D02*
X0016100Y0108559D01*
X0016100Y0113163D02*
X0019103Y0113163D01*
X0017601Y0113163D02*
X0019103Y0114665D01*
X0019103Y0115415D01*
X0020604Y0076332D02*
X0016100Y0076332D01*
X0019103Y0065523D02*
X0016100Y0062520D01*
X0019103Y0062520D02*
X0019103Y0065523D01*
D13*
X0020850Y0003250D02*
X0290850Y0003250D01*
X0291092Y0003253D01*
X0291333Y0003262D01*
X0291574Y0003276D01*
X0291815Y0003297D01*
X0292055Y0003323D01*
X0292295Y0003355D01*
X0292534Y0003393D01*
X0292771Y0003436D01*
X0293008Y0003486D01*
X0293243Y0003541D01*
X0293477Y0003601D01*
X0293709Y0003668D01*
X0293940Y0003739D01*
X0294169Y0003817D01*
X0294396Y0003900D01*
X0294621Y0003988D01*
X0294844Y0004082D01*
X0295064Y0004181D01*
X0295282Y0004286D01*
X0295497Y0004395D01*
X0295710Y0004510D01*
X0295920Y0004630D01*
X0296126Y0004755D01*
X0296330Y0004885D01*
X0296531Y0005020D01*
X0296728Y0005160D01*
X0296922Y0005304D01*
X0297112Y0005453D01*
X0297298Y0005607D01*
X0297481Y0005765D01*
X0297660Y0005927D01*
X0297835Y0006094D01*
X0298006Y0006265D01*
X0298173Y0006440D01*
X0298335Y0006619D01*
X0298493Y0006802D01*
X0298647Y0006988D01*
X0298796Y0007178D01*
X0298940Y0007372D01*
X0299080Y0007569D01*
X0299215Y0007770D01*
X0299345Y0007974D01*
X0299470Y0008180D01*
X0299590Y0008390D01*
X0299705Y0008603D01*
X0299814Y0008818D01*
X0299919Y0009036D01*
X0300018Y0009256D01*
X0300112Y0009479D01*
X0300200Y0009704D01*
X0300283Y0009931D01*
X0300361Y0010160D01*
X0300432Y0010391D01*
X0300499Y0010623D01*
X0300559Y0010857D01*
X0300614Y0011092D01*
X0300664Y0011329D01*
X0300707Y0011566D01*
X0300745Y0011805D01*
X0300777Y0012045D01*
X0300803Y0012285D01*
X0300824Y0012526D01*
X0300838Y0012767D01*
X0300847Y0013008D01*
X0300850Y0013250D01*
X0300850Y0123250D01*
X0300847Y0123492D01*
X0300838Y0123733D01*
X0300824Y0123974D01*
X0300803Y0124215D01*
X0300777Y0124455D01*
X0300745Y0124695D01*
X0300707Y0124934D01*
X0300664Y0125171D01*
X0300614Y0125408D01*
X0300559Y0125643D01*
X0300499Y0125877D01*
X0300432Y0126109D01*
X0300361Y0126340D01*
X0300283Y0126569D01*
X0300200Y0126796D01*
X0300112Y0127021D01*
X0300018Y0127244D01*
X0299919Y0127464D01*
X0299814Y0127682D01*
X0299705Y0127897D01*
X0299590Y0128110D01*
X0299470Y0128320D01*
X0299345Y0128526D01*
X0299215Y0128730D01*
X0299080Y0128931D01*
X0298940Y0129128D01*
X0298796Y0129322D01*
X0298647Y0129512D01*
X0298493Y0129698D01*
X0298335Y0129881D01*
X0298173Y0130060D01*
X0298006Y0130235D01*
X0297835Y0130406D01*
X0297660Y0130573D01*
X0297481Y0130735D01*
X0297298Y0130893D01*
X0297112Y0131047D01*
X0296922Y0131196D01*
X0296728Y0131340D01*
X0296531Y0131480D01*
X0296330Y0131615D01*
X0296126Y0131745D01*
X0295920Y0131870D01*
X0295710Y0131990D01*
X0295497Y0132105D01*
X0295282Y0132214D01*
X0295064Y0132319D01*
X0294844Y0132418D01*
X0294621Y0132512D01*
X0294396Y0132600D01*
X0294169Y0132683D01*
X0293940Y0132761D01*
X0293709Y0132832D01*
X0293477Y0132899D01*
X0293243Y0132959D01*
X0293008Y0133014D01*
X0292771Y0133064D01*
X0292534Y0133107D01*
X0292295Y0133145D01*
X0292055Y0133177D01*
X0291815Y0133203D01*
X0291574Y0133224D01*
X0291333Y0133238D01*
X0291092Y0133247D01*
X0290850Y0133250D01*
X0020850Y0133250D01*
X0020608Y0133247D01*
X0020367Y0133238D01*
X0020126Y0133224D01*
X0019885Y0133203D01*
X0019645Y0133177D01*
X0019405Y0133145D01*
X0019166Y0133107D01*
X0018929Y0133064D01*
X0018692Y0133014D01*
X0018457Y0132959D01*
X0018223Y0132899D01*
X0017991Y0132832D01*
X0017760Y0132761D01*
X0017531Y0132683D01*
X0017304Y0132600D01*
X0017079Y0132512D01*
X0016856Y0132418D01*
X0016636Y0132319D01*
X0016418Y0132214D01*
X0016203Y0132105D01*
X0015990Y0131990D01*
X0015780Y0131870D01*
X0015574Y0131745D01*
X0015370Y0131615D01*
X0015169Y0131480D01*
X0014972Y0131340D01*
X0014778Y0131196D01*
X0014588Y0131047D01*
X0014402Y0130893D01*
X0014219Y0130735D01*
X0014040Y0130573D01*
X0013865Y0130406D01*
X0013694Y0130235D01*
X0013527Y0130060D01*
X0013365Y0129881D01*
X0013207Y0129698D01*
X0013053Y0129512D01*
X0012904Y0129322D01*
X0012760Y0129128D01*
X0012620Y0128931D01*
X0012485Y0128730D01*
X0012355Y0128526D01*
X0012230Y0128320D01*
X0012110Y0128110D01*
X0011995Y0127897D01*
X0011886Y0127682D01*
X0011781Y0127464D01*
X0011682Y0127244D01*
X0011588Y0127021D01*
X0011500Y0126796D01*
X0011417Y0126569D01*
X0011339Y0126340D01*
X0011268Y0126109D01*
X0011201Y0125877D01*
X0011141Y0125643D01*
X0011086Y0125408D01*
X0011036Y0125171D01*
X0010993Y0124934D01*
X0010955Y0124695D01*
X0010923Y0124455D01*
X0010897Y0124215D01*
X0010876Y0123974D01*
X0010862Y0123733D01*
X0010853Y0123492D01*
X0010850Y0123250D01*
X0010850Y0013250D01*
X0010853Y0013008D01*
X0010862Y0012767D01*
X0010876Y0012526D01*
X0010897Y0012285D01*
X0010923Y0012045D01*
X0010955Y0011805D01*
X0010993Y0011566D01*
X0011036Y0011329D01*
X0011086Y0011092D01*
X0011141Y0010857D01*
X0011201Y0010623D01*
X0011268Y0010391D01*
X0011339Y0010160D01*
X0011417Y0009931D01*
X0011500Y0009704D01*
X0011588Y0009479D01*
X0011682Y0009256D01*
X0011781Y0009036D01*
X0011886Y0008818D01*
X0011995Y0008603D01*
X0012110Y0008390D01*
X0012230Y0008180D01*
X0012355Y0007974D01*
X0012485Y0007770D01*
X0012620Y0007569D01*
X0012760Y0007372D01*
X0012904Y0007178D01*
X0013053Y0006988D01*
X0013207Y0006802D01*
X0013365Y0006619D01*
X0013527Y0006440D01*
X0013694Y0006265D01*
X0013865Y0006094D01*
X0014040Y0005927D01*
X0014219Y0005765D01*
X0014402Y0005607D01*
X0014588Y0005453D01*
X0014778Y0005304D01*
X0014972Y0005160D01*
X0015169Y0005020D01*
X0015370Y0004885D01*
X0015574Y0004755D01*
X0015780Y0004630D01*
X0015990Y0004510D01*
X0016203Y0004395D01*
X0016418Y0004286D01*
X0016636Y0004181D01*
X0016856Y0004082D01*
X0017079Y0003988D01*
X0017304Y0003900D01*
X0017531Y0003817D01*
X0017760Y0003739D01*
X0017991Y0003668D01*
X0018223Y0003601D01*
X0018457Y0003541D01*
X0018692Y0003486D01*
X0018929Y0003436D01*
X0019166Y0003393D01*
X0019405Y0003355D01*
X0019645Y0003323D01*
X0019885Y0003297D01*
X0020126Y0003276D01*
X0020367Y0003262D01*
X0020608Y0003253D01*
X0020850Y0003250D01*
D14*
X0021000Y0020100D02*
X0021000Y0020917D01*
X0017731Y0024187D01*
X0017731Y0025004D01*
X0021000Y0025004D01*
X0028731Y0025004D02*
X0030365Y0024187D01*
X0032000Y0022552D01*
X0029548Y0022552D01*
X0028731Y0021735D01*
X0028731Y0020917D01*
X0029548Y0020100D01*
X0031183Y0020100D01*
X0032000Y0020917D01*
X0032000Y0022552D01*
X0038731Y0022552D02*
X0038731Y0020917D01*
X0039548Y0020100D01*
X0041183Y0020100D01*
X0042000Y0020917D01*
X0042000Y0022552D02*
X0040365Y0023369D01*
X0039548Y0023369D01*
X0038731Y0022552D01*
X0042000Y0022552D02*
X0042000Y0025004D01*
X0038731Y0025004D01*
X0048231Y0022552D02*
X0051500Y0022552D01*
X0049048Y0025004D01*
X0049048Y0020100D01*
X0058731Y0020917D02*
X0059548Y0020100D01*
X0061183Y0020100D01*
X0062000Y0020917D01*
X0060365Y0022552D02*
X0059548Y0022552D01*
X0058731Y0021735D01*
X0058731Y0020917D01*
X0059548Y0022552D02*
X0058731Y0023369D01*
X0058731Y0024187D01*
X0059548Y0025004D01*
X0061183Y0025004D01*
X0062000Y0024187D01*
X0069231Y0023869D02*
X0069231Y0024687D01*
X0070048Y0025504D01*
X0071683Y0025504D01*
X0072500Y0024687D01*
X0069231Y0023869D02*
X0072500Y0020600D01*
X0069231Y0020600D01*
X0079731Y0020600D02*
X0083000Y0020600D01*
X0081365Y0020600D02*
X0081365Y0025504D01*
X0083000Y0023869D01*
X0088731Y0024687D02*
X0088731Y0021417D01*
X0089548Y0020600D01*
X0091183Y0020600D01*
X0092000Y0021417D01*
X0088731Y0024687D01*
X0089548Y0025504D01*
X0091183Y0025504D01*
X0092000Y0024687D01*
X0092000Y0021417D01*
X0238200Y0022261D02*
X0241069Y0022261D01*
X0242504Y0020827D01*
X0241069Y0019392D01*
X0238200Y0019392D01*
X0240352Y0019392D02*
X0240352Y0022261D01*
X0241786Y0023996D02*
X0242504Y0024713D01*
X0242504Y0026148D01*
X0241786Y0026865D01*
X0238917Y0023996D01*
X0238200Y0024713D01*
X0238200Y0026148D01*
X0238917Y0026865D01*
X0241786Y0026865D01*
X0241786Y0023996D02*
X0238917Y0023996D01*
X0248700Y0023996D02*
X0248700Y0026865D01*
X0248700Y0025431D02*
X0253004Y0025431D01*
X0251569Y0023996D01*
X0251569Y0022261D02*
X0248700Y0022261D01*
X0250852Y0022261D02*
X0250852Y0019392D01*
X0251569Y0019392D02*
X0248700Y0019392D01*
X0251569Y0019392D02*
X0253004Y0020827D01*
X0251569Y0022261D01*
X0257700Y0022761D02*
X0260569Y0022761D01*
X0262004Y0021327D01*
X0260569Y0019892D01*
X0257700Y0019892D01*
X0259852Y0019892D02*
X0259852Y0022761D01*
X0261286Y0024496D02*
X0262004Y0025213D01*
X0262004Y0026648D01*
X0261286Y0027365D01*
X0260569Y0027365D01*
X0257700Y0024496D01*
X0257700Y0027365D01*
X0266735Y0023186D02*
X0266735Y0022469D01*
X0267452Y0021752D01*
X0266735Y0021035D01*
X0266735Y0020317D01*
X0267452Y0019600D01*
X0268887Y0019600D01*
X0269604Y0020317D01*
X0271339Y0019600D02*
X0271339Y0022469D01*
X0272773Y0023904D01*
X0274208Y0022469D01*
X0274208Y0019600D01*
X0274208Y0021752D02*
X0271339Y0021752D01*
X0269604Y0023186D02*
X0268887Y0023904D01*
X0267452Y0023904D01*
X0266735Y0023186D01*
X0267452Y0021752D02*
X0268169Y0021752D01*
X0278200Y0022761D02*
X0281069Y0022761D01*
X0282504Y0021327D01*
X0281069Y0019892D01*
X0278200Y0019892D01*
X0280352Y0019892D02*
X0280352Y0022761D01*
X0280352Y0024496D02*
X0280352Y0027365D01*
X0278200Y0026648D02*
X0282504Y0026648D01*
X0280352Y0024496D01*
X0286735Y0023904D02*
X0289604Y0023904D01*
X0289604Y0021752D01*
X0288169Y0022469D01*
X0287452Y0022469D01*
X0286735Y0021752D01*
X0286735Y0020317D01*
X0287452Y0019600D01*
X0288887Y0019600D01*
X0289604Y0020317D01*
X0291339Y0019600D02*
X0291339Y0022469D01*
X0292773Y0023904D01*
X0294208Y0022469D01*
X0294208Y0019600D01*
X0294208Y0021752D02*
X0291339Y0021752D01*
X0292200Y0110219D02*
X0292200Y0111653D01*
X0292200Y0110936D02*
X0296504Y0110936D01*
X0296504Y0110219D02*
X0296504Y0111653D01*
X0295786Y0113288D02*
X0292917Y0113288D01*
X0292200Y0114005D01*
X0292200Y0115440D01*
X0292917Y0116157D01*
X0292917Y0117892D02*
X0292200Y0118609D01*
X0292200Y0120044D01*
X0292917Y0120761D01*
X0293635Y0120761D01*
X0294352Y0120044D01*
X0294352Y0118609D01*
X0295069Y0117892D01*
X0295786Y0117892D01*
X0296504Y0118609D01*
X0296504Y0120044D01*
X0295786Y0120761D01*
X0296504Y0122496D02*
X0292200Y0122496D01*
X0293635Y0122496D02*
X0293635Y0124648D01*
X0294352Y0125365D01*
X0295786Y0125365D01*
X0296504Y0124648D01*
X0296504Y0122496D01*
X0295786Y0116157D02*
X0296504Y0115440D01*
X0296504Y0114005D01*
X0295786Y0113288D01*
X0248812Y0112600D02*
X0246660Y0112600D01*
X0245943Y0113317D01*
X0245943Y0116186D01*
X0246660Y0116904D01*
X0248812Y0116904D01*
X0248812Y0112600D01*
X0242773Y0112600D02*
X0242773Y0116904D01*
X0241339Y0116904D02*
X0244208Y0116904D01*
X0239604Y0116904D02*
X0237452Y0116904D01*
X0236735Y0116186D01*
X0236735Y0114752D01*
X0237452Y0114035D01*
X0239604Y0114035D01*
X0238169Y0114035D02*
X0236735Y0112600D01*
X0234004Y0112261D02*
X0234004Y0109392D01*
X0234004Y0110827D02*
X0229700Y0110827D01*
X0224004Y0111752D02*
X0224004Y0109600D01*
X0219700Y0109600D01*
X0221135Y0109600D02*
X0221135Y0111752D01*
X0221852Y0112469D01*
X0223286Y0112469D01*
X0224004Y0111752D01*
X0221135Y0111035D02*
X0219700Y0112469D01*
X0219700Y0114204D02*
X0222569Y0117073D01*
X0222569Y0114204D02*
X0219700Y0117073D01*
X0212004Y0117073D02*
X0209135Y0117073D01*
X0207700Y0115638D01*
X0209135Y0114204D01*
X0212004Y0114204D01*
X0212004Y0112469D02*
X0212004Y0109600D01*
X0209852Y0109600D01*
X0210569Y0111035D01*
X0210569Y0111752D01*
X0209852Y0112469D01*
X0208417Y0112469D01*
X0207700Y0111752D01*
X0207700Y0110317D01*
X0208417Y0109600D01*
X0196000Y0113317D02*
X0195283Y0112600D01*
X0193848Y0112600D01*
X0193131Y0113317D01*
X0193131Y0114752D01*
X0194565Y0114752D01*
X0193131Y0116186D02*
X0193848Y0116904D01*
X0195283Y0116904D01*
X0196000Y0116186D01*
X0196000Y0113317D01*
X0191396Y0112600D02*
X0191396Y0116904D01*
X0188527Y0112600D01*
X0188527Y0116904D01*
X0186792Y0116904D02*
X0184640Y0116904D01*
X0183923Y0116186D01*
X0183923Y0113317D01*
X0184640Y0112600D01*
X0186792Y0112600D01*
X0186792Y0116904D01*
X0229700Y0116865D02*
X0232569Y0113996D01*
X0229700Y0113996D02*
X0232569Y0116865D01*
X0239604Y0116904D02*
X0239604Y0112600D01*
D15*
X0251748Y0110950D02*
X0254150Y0110950D01*
X0252949Y0110950D02*
X0252949Y0114553D01*
X0254150Y0113352D01*
X0254650Y0123950D02*
X0252248Y0123950D01*
X0254650Y0123950D02*
X0252248Y0126352D01*
X0252248Y0126953D01*
X0252848Y0127553D01*
X0254049Y0127553D01*
X0254650Y0126953D01*
X0286748Y0126053D02*
X0287949Y0125453D01*
X0289150Y0124252D01*
X0287348Y0124252D01*
X0286748Y0123651D01*
X0286748Y0123051D01*
X0287348Y0122450D01*
X0288549Y0122450D01*
X0289150Y0123051D01*
X0289150Y0124252D01*
X0289650Y0113553D02*
X0289650Y0111752D01*
X0288449Y0112352D01*
X0287848Y0112352D01*
X0287248Y0111752D01*
X0287248Y0110551D01*
X0287848Y0109950D01*
X0289049Y0109950D01*
X0289650Y0110551D01*
X0289650Y0113553D02*
X0287248Y0113553D01*
X0119490Y0022585D02*
X0119022Y0023052D01*
X0118088Y0023052D01*
X0117621Y0022585D01*
X0117621Y0021651D02*
X0118555Y0021651D01*
X0117621Y0021651D02*
X0117621Y0020717D01*
X0118088Y0020250D01*
X0119022Y0020250D01*
X0119490Y0020717D01*
X0119490Y0022585D01*
X0116543Y0023052D02*
X0116543Y0020250D01*
X0114675Y0020250D02*
X0114675Y0023052D01*
X0113597Y0023052D02*
X0112195Y0023052D01*
X0111728Y0022585D01*
X0111728Y0020717D01*
X0112195Y0020250D01*
X0113597Y0020250D01*
X0113597Y0023052D01*
X0116543Y0023052D02*
X0114675Y0020250D01*
X0104507Y0021684D02*
X0103573Y0020750D01*
X0102639Y0021684D01*
X0102639Y0023552D01*
X0101561Y0022618D02*
X0101094Y0022618D01*
X0101094Y0020750D01*
X0101561Y0020750D02*
X0100627Y0020750D01*
X0099597Y0020750D02*
X0099597Y0022618D01*
X0098195Y0022618D01*
X0097728Y0022151D01*
X0097728Y0020750D01*
X0101094Y0023552D02*
X0101094Y0024019D01*
X0104507Y0023552D02*
X0104507Y0021684D01*
X0128335Y0020884D02*
X0129269Y0019950D01*
X0130203Y0020884D01*
X0130203Y0022752D01*
X0131282Y0022752D02*
X0133150Y0022752D01*
X0133150Y0021351D01*
X0132216Y0021818D01*
X0131749Y0021818D01*
X0131282Y0021351D01*
X0131282Y0020417D01*
X0131749Y0019950D01*
X0132683Y0019950D01*
X0133150Y0020417D01*
X0128335Y0020884D02*
X0128335Y0022752D01*
X0159282Y0022285D02*
X0159282Y0021818D01*
X0159749Y0021351D01*
X0160683Y0021351D01*
X0161150Y0021818D01*
X0161150Y0022285D01*
X0160683Y0022752D01*
X0159749Y0022752D01*
X0159282Y0022285D01*
X0159749Y0021351D02*
X0159282Y0020884D01*
X0159282Y0020417D01*
X0159749Y0019950D01*
X0160683Y0019950D01*
X0161150Y0020417D01*
X0161150Y0020884D01*
X0160683Y0021351D01*
X0170782Y0021351D02*
X0172183Y0021351D01*
X0172650Y0021818D01*
X0172650Y0022285D01*
X0172183Y0022752D01*
X0171249Y0022752D01*
X0170782Y0022285D01*
X0170782Y0020417D01*
X0171249Y0019950D01*
X0172183Y0019950D01*
X0172650Y0020417D01*
X0177728Y0020217D02*
X0178195Y0019750D01*
X0179129Y0019750D01*
X0179597Y0020217D01*
X0177728Y0022085D01*
X0177728Y0020217D01*
X0177728Y0022085D02*
X0178195Y0022552D01*
X0179129Y0022552D01*
X0179597Y0022085D01*
X0179597Y0020217D01*
X0180675Y0019750D02*
X0182543Y0019750D01*
X0181609Y0019750D02*
X0181609Y0022552D01*
X0182543Y0021618D01*
X0198228Y0021618D02*
X0198228Y0022085D01*
X0198695Y0022552D01*
X0199629Y0022552D01*
X0200097Y0022085D01*
X0198228Y0021618D02*
X0200097Y0019750D01*
X0198228Y0019750D01*
X0201175Y0019750D02*
X0203043Y0019750D01*
X0202109Y0019750D02*
X0202109Y0022552D01*
X0203043Y0021618D01*
X0207728Y0021618D02*
X0208195Y0021151D01*
X0207728Y0020684D01*
X0207728Y0020217D01*
X0208195Y0019750D01*
X0209129Y0019750D01*
X0209597Y0020217D01*
X0210675Y0019750D02*
X0212543Y0019750D01*
X0211609Y0019750D02*
X0211609Y0022552D01*
X0212543Y0021618D01*
X0209597Y0022085D02*
X0209129Y0022552D01*
X0208195Y0022552D01*
X0207728Y0022085D01*
X0207728Y0021618D01*
X0208195Y0021151D02*
X0208662Y0021151D01*
D16*
X0217509Y0021751D02*
X0217509Y0020350D01*
X0217859Y0020000D01*
X0218910Y0020000D01*
X0218910Y0022102D01*
X0217859Y0022102D01*
X0217509Y0021751D01*
X0219719Y0022102D02*
X0219719Y0020000D01*
X0221120Y0022102D01*
X0221120Y0020000D01*
X0221928Y0020350D02*
X0222279Y0020000D01*
X0222979Y0020000D01*
X0223330Y0020350D01*
X0223330Y0021751D01*
X0222979Y0022102D01*
X0222279Y0022102D01*
X0221928Y0021751D01*
X0221928Y0021051D02*
X0222629Y0021051D01*
X0221928Y0021051D02*
X0221928Y0020350D01*
X0226669Y0022002D02*
X0228070Y0022002D01*
X0228070Y0019900D01*
X0228879Y0019900D02*
X0230280Y0019900D01*
X0230280Y0022002D01*
X0228879Y0022002D01*
X0229580Y0020951D02*
X0230280Y0020951D01*
X0231089Y0020951D02*
X0231439Y0020601D01*
X0232490Y0020601D01*
X0231790Y0020601D02*
X0231089Y0019900D01*
X0231089Y0020951D02*
X0231089Y0021651D01*
X0231439Y0022002D01*
X0232490Y0022002D01*
X0232490Y0019900D01*
X0233299Y0019900D02*
X0233299Y0021301D01*
X0233999Y0022002D01*
X0234700Y0021301D01*
X0234700Y0019900D01*
X0234700Y0020951D02*
X0233299Y0020951D01*
X0228070Y0020951D02*
X0227370Y0020951D01*
X0192200Y0022900D02*
X0190799Y0022900D01*
X0191499Y0022900D02*
X0191499Y0025002D01*
X0192200Y0024301D01*
X0189990Y0024301D02*
X0189290Y0025002D01*
X0189290Y0022900D01*
X0189990Y0022900D02*
X0188589Y0022900D01*
X0155513Y0022102D02*
X0155513Y0020000D01*
X0155513Y0020701D02*
X0154462Y0020701D01*
X0154112Y0021051D01*
X0154112Y0021751D01*
X0154462Y0022102D01*
X0155513Y0022102D01*
X0154812Y0020701D02*
X0154112Y0020000D01*
X0153303Y0020350D02*
X0152953Y0020000D01*
X0152252Y0020000D01*
X0151902Y0020701D02*
X0153303Y0020701D01*
X0153303Y0021051D02*
X0152953Y0021401D01*
X0152252Y0021401D01*
X0151902Y0021051D01*
X0151902Y0020701D01*
X0151093Y0021051D02*
X0150743Y0021401D01*
X0149692Y0021401D01*
X0150042Y0020701D02*
X0150743Y0020701D01*
X0151093Y0021051D01*
X0151093Y0020000D02*
X0150042Y0020000D01*
X0149692Y0020350D01*
X0150042Y0020701D01*
X0148883Y0020701D02*
X0147482Y0020701D01*
X0147482Y0021051D01*
X0147832Y0021401D01*
X0148533Y0021401D01*
X0148883Y0021051D01*
X0148883Y0020350D01*
X0148533Y0020000D01*
X0147832Y0020000D01*
X0146323Y0020350D02*
X0145973Y0020000D01*
X0146323Y0020350D02*
X0146323Y0021751D01*
X0146673Y0021401D02*
X0145973Y0021401D01*
X0153303Y0021051D02*
X0153303Y0020350D01*
X0199600Y0107587D02*
X0201702Y0107587D01*
X0201702Y0108638D01*
X0201351Y0108988D01*
X0200651Y0108988D01*
X0200301Y0108638D01*
X0200301Y0107587D01*
X0200301Y0108288D02*
X0199600Y0108988D01*
X0199950Y0109797D02*
X0200651Y0109797D01*
X0201001Y0110147D01*
X0201001Y0110848D01*
X0200651Y0111198D01*
X0200301Y0111198D01*
X0200301Y0109797D01*
X0199950Y0109797D02*
X0199600Y0110147D01*
X0199600Y0110848D01*
X0199600Y0112007D02*
X0199600Y0113058D01*
X0199950Y0113408D01*
X0200301Y0113058D01*
X0200301Y0112357D01*
X0200651Y0112007D01*
X0201001Y0112357D01*
X0201001Y0113408D01*
X0200651Y0114217D02*
X0201001Y0114567D01*
X0201001Y0115268D01*
X0200651Y0115618D01*
X0200301Y0115618D01*
X0200301Y0114217D01*
X0200651Y0114217D02*
X0199950Y0114217D01*
X0199600Y0114567D01*
X0199600Y0115268D01*
X0199950Y0116777D02*
X0199600Y0117127D01*
X0199950Y0116777D02*
X0201351Y0116777D01*
X0201001Y0116427D02*
X0201001Y0117127D01*
D17*
X0024850Y0110750D02*
X0024852Y0110911D01*
X0024858Y0111071D01*
X0024868Y0111232D01*
X0024882Y0111392D01*
X0024900Y0111552D01*
X0024921Y0111711D01*
X0024947Y0111870D01*
X0024977Y0112028D01*
X0025010Y0112185D01*
X0025048Y0112342D01*
X0025089Y0112497D01*
X0025134Y0112651D01*
X0025183Y0112804D01*
X0025236Y0112956D01*
X0025292Y0113107D01*
X0025353Y0113256D01*
X0025416Y0113404D01*
X0025484Y0113550D01*
X0025555Y0113694D01*
X0025629Y0113836D01*
X0025707Y0113977D01*
X0025789Y0114115D01*
X0025874Y0114252D01*
X0025962Y0114386D01*
X0026054Y0114518D01*
X0026149Y0114648D01*
X0026247Y0114776D01*
X0026348Y0114901D01*
X0026452Y0115023D01*
X0026559Y0115143D01*
X0026669Y0115260D01*
X0026782Y0115375D01*
X0026898Y0115486D01*
X0027017Y0115595D01*
X0027138Y0115700D01*
X0027262Y0115803D01*
X0027388Y0115903D01*
X0027516Y0115999D01*
X0027647Y0116092D01*
X0027781Y0116182D01*
X0027916Y0116269D01*
X0028054Y0116352D01*
X0028193Y0116432D01*
X0028335Y0116508D01*
X0028478Y0116581D01*
X0028623Y0116650D01*
X0028770Y0116716D01*
X0028918Y0116778D01*
X0029068Y0116836D01*
X0029219Y0116891D01*
X0029372Y0116942D01*
X0029526Y0116989D01*
X0029681Y0117032D01*
X0029837Y0117071D01*
X0029993Y0117107D01*
X0030151Y0117138D01*
X0030309Y0117166D01*
X0030468Y0117190D01*
X0030628Y0117210D01*
X0030788Y0117226D01*
X0030948Y0117238D01*
X0031109Y0117246D01*
X0031270Y0117250D01*
X0031430Y0117250D01*
X0031591Y0117246D01*
X0031752Y0117238D01*
X0031912Y0117226D01*
X0032072Y0117210D01*
X0032232Y0117190D01*
X0032391Y0117166D01*
X0032549Y0117138D01*
X0032707Y0117107D01*
X0032863Y0117071D01*
X0033019Y0117032D01*
X0033174Y0116989D01*
X0033328Y0116942D01*
X0033481Y0116891D01*
X0033632Y0116836D01*
X0033782Y0116778D01*
X0033930Y0116716D01*
X0034077Y0116650D01*
X0034222Y0116581D01*
X0034365Y0116508D01*
X0034507Y0116432D01*
X0034646Y0116352D01*
X0034784Y0116269D01*
X0034919Y0116182D01*
X0035053Y0116092D01*
X0035184Y0115999D01*
X0035312Y0115903D01*
X0035438Y0115803D01*
X0035562Y0115700D01*
X0035683Y0115595D01*
X0035802Y0115486D01*
X0035918Y0115375D01*
X0036031Y0115260D01*
X0036141Y0115143D01*
X0036248Y0115023D01*
X0036352Y0114901D01*
X0036453Y0114776D01*
X0036551Y0114648D01*
X0036646Y0114518D01*
X0036738Y0114386D01*
X0036826Y0114252D01*
X0036911Y0114115D01*
X0036993Y0113977D01*
X0037071Y0113836D01*
X0037145Y0113694D01*
X0037216Y0113550D01*
X0037284Y0113404D01*
X0037347Y0113256D01*
X0037408Y0113107D01*
X0037464Y0112956D01*
X0037517Y0112804D01*
X0037566Y0112651D01*
X0037611Y0112497D01*
X0037652Y0112342D01*
X0037690Y0112185D01*
X0037723Y0112028D01*
X0037753Y0111870D01*
X0037779Y0111711D01*
X0037800Y0111552D01*
X0037818Y0111392D01*
X0037832Y0111232D01*
X0037842Y0111071D01*
X0037848Y0110911D01*
X0037850Y0110750D01*
X0037848Y0110589D01*
X0037842Y0110429D01*
X0037832Y0110268D01*
X0037818Y0110108D01*
X0037800Y0109948D01*
X0037779Y0109789D01*
X0037753Y0109630D01*
X0037723Y0109472D01*
X0037690Y0109315D01*
X0037652Y0109158D01*
X0037611Y0109003D01*
X0037566Y0108849D01*
X0037517Y0108696D01*
X0037464Y0108544D01*
X0037408Y0108393D01*
X0037347Y0108244D01*
X0037284Y0108096D01*
X0037216Y0107950D01*
X0037145Y0107806D01*
X0037071Y0107664D01*
X0036993Y0107523D01*
X0036911Y0107385D01*
X0036826Y0107248D01*
X0036738Y0107114D01*
X0036646Y0106982D01*
X0036551Y0106852D01*
X0036453Y0106724D01*
X0036352Y0106599D01*
X0036248Y0106477D01*
X0036141Y0106357D01*
X0036031Y0106240D01*
X0035918Y0106125D01*
X0035802Y0106014D01*
X0035683Y0105905D01*
X0035562Y0105800D01*
X0035438Y0105697D01*
X0035312Y0105597D01*
X0035184Y0105501D01*
X0035053Y0105408D01*
X0034919Y0105318D01*
X0034784Y0105231D01*
X0034646Y0105148D01*
X0034507Y0105068D01*
X0034365Y0104992D01*
X0034222Y0104919D01*
X0034077Y0104850D01*
X0033930Y0104784D01*
X0033782Y0104722D01*
X0033632Y0104664D01*
X0033481Y0104609D01*
X0033328Y0104558D01*
X0033174Y0104511D01*
X0033019Y0104468D01*
X0032863Y0104429D01*
X0032707Y0104393D01*
X0032549Y0104362D01*
X0032391Y0104334D01*
X0032232Y0104310D01*
X0032072Y0104290D01*
X0031912Y0104274D01*
X0031752Y0104262D01*
X0031591Y0104254D01*
X0031430Y0104250D01*
X0031270Y0104250D01*
X0031109Y0104254D01*
X0030948Y0104262D01*
X0030788Y0104274D01*
X0030628Y0104290D01*
X0030468Y0104310D01*
X0030309Y0104334D01*
X0030151Y0104362D01*
X0029993Y0104393D01*
X0029837Y0104429D01*
X0029681Y0104468D01*
X0029526Y0104511D01*
X0029372Y0104558D01*
X0029219Y0104609D01*
X0029068Y0104664D01*
X0028918Y0104722D01*
X0028770Y0104784D01*
X0028623Y0104850D01*
X0028478Y0104919D01*
X0028335Y0104992D01*
X0028193Y0105068D01*
X0028054Y0105148D01*
X0027916Y0105231D01*
X0027781Y0105318D01*
X0027647Y0105408D01*
X0027516Y0105501D01*
X0027388Y0105597D01*
X0027262Y0105697D01*
X0027138Y0105800D01*
X0027017Y0105905D01*
X0026898Y0106014D01*
X0026782Y0106125D01*
X0026669Y0106240D01*
X0026559Y0106357D01*
X0026452Y0106477D01*
X0026348Y0106599D01*
X0026247Y0106724D01*
X0026149Y0106852D01*
X0026054Y0106982D01*
X0025962Y0107114D01*
X0025874Y0107248D01*
X0025789Y0107385D01*
X0025707Y0107523D01*
X0025629Y0107664D01*
X0025555Y0107806D01*
X0025484Y0107950D01*
X0025416Y0108096D01*
X0025353Y0108244D01*
X0025292Y0108393D01*
X0025236Y0108544D01*
X0025183Y0108696D01*
X0025134Y0108849D01*
X0025089Y0109003D01*
X0025048Y0109158D01*
X0025010Y0109315D01*
X0024977Y0109472D01*
X0024947Y0109630D01*
X0024921Y0109789D01*
X0024900Y0109948D01*
X0024882Y0110108D01*
X0024868Y0110268D01*
X0024858Y0110429D01*
X0024852Y0110589D01*
X0024850Y0110750D01*
M02*
