G75*
%MOIN*%
%OFA0B0*%
%FSLAX25Y25*%
%IPPOS*%
%LPD*%
%AMOC8*
5,1,8,0,0,1.08239X$1,22.5*
%
%ADD10C,0.01300*%
%ADD11C,0.00800*%
%ADD12C,0.00500*%
D10*
X0381107Y0209701D02*
X0381107Y0212136D01*
X0382325Y0213354D01*
X0385978Y0213354D01*
X0385978Y0215790D02*
X0385978Y0208483D01*
X0382325Y0208483D01*
X0381107Y0209701D01*
X0389026Y0208483D02*
X0392679Y0208483D01*
X0393897Y0209701D01*
X0392679Y0210919D01*
X0389026Y0210919D01*
X0389026Y0212136D02*
X0389026Y0208483D01*
X0389026Y0212136D02*
X0390244Y0213354D01*
X0392679Y0213354D01*
X0396945Y0208483D02*
X0401816Y0208483D01*
X0401816Y0215790D01*
X0404864Y0212136D02*
X0406081Y0213354D01*
X0409734Y0213354D01*
X0409734Y0208483D01*
X0412782Y0210919D02*
X0417653Y0210919D01*
X0417653Y0212136D02*
X0416435Y0213354D01*
X0414000Y0213354D01*
X0412782Y0212136D01*
X0412782Y0210919D01*
X0414000Y0208483D02*
X0416435Y0208483D01*
X0417653Y0209701D01*
X0417653Y0212136D01*
X0420701Y0213354D02*
X0425572Y0208483D01*
X0420701Y0208483D01*
X0420701Y0213354D02*
X0425572Y0213354D01*
X0428416Y0213354D02*
X0430851Y0213354D01*
X0429633Y0214572D02*
X0429633Y0209701D01*
X0428416Y0208483D01*
X0433695Y0208483D02*
X0436130Y0208483D01*
X0434913Y0208483D02*
X0434913Y0213354D01*
X0436130Y0213354D01*
X0434913Y0215790D02*
X0434913Y0217007D01*
X0439076Y0213354D02*
X0440294Y0213354D01*
X0442729Y0210919D01*
X0442729Y0213354D02*
X0442729Y0208483D01*
X0448213Y0212136D02*
X0450648Y0212136D01*
X0450648Y0208483D02*
X0450648Y0215790D01*
X0445777Y0215790D01*
X0456107Y0216290D02*
X0458543Y0213854D01*
X0460978Y0216290D01*
X0460978Y0208983D01*
X0464026Y0210201D02*
X0464026Y0216290D01*
X0468897Y0216290D02*
X0468897Y0210201D01*
X0467679Y0208983D01*
X0465244Y0208983D01*
X0464026Y0210201D01*
X0456107Y0208983D02*
X0456107Y0216290D01*
X0479864Y0212636D02*
X0479864Y0208983D01*
X0484734Y0208983D02*
X0484734Y0213854D01*
X0481081Y0213854D01*
X0479864Y0212636D01*
X0487782Y0212636D02*
X0487782Y0211419D01*
X0492653Y0211419D01*
X0492653Y0212636D02*
X0492653Y0210201D01*
X0491435Y0208983D01*
X0489000Y0208983D01*
X0495701Y0208983D02*
X0500572Y0208983D01*
X0495701Y0213854D01*
X0500572Y0213854D01*
X0503416Y0213854D02*
X0505851Y0213854D01*
X0504633Y0215072D02*
X0504633Y0210201D01*
X0503416Y0208983D01*
X0508695Y0208983D02*
X0511130Y0208983D01*
X0509913Y0208983D02*
X0509913Y0213854D01*
X0511130Y0213854D01*
X0509913Y0216290D02*
X0509913Y0217507D01*
X0514076Y0213854D02*
X0515294Y0213854D01*
X0517729Y0211419D01*
X0517729Y0213854D02*
X0517729Y0208983D01*
X0523213Y0212636D02*
X0525648Y0212636D01*
X0525648Y0208983D02*
X0525648Y0216290D01*
X0520777Y0216290D01*
X0492653Y0212636D02*
X0491435Y0213854D01*
X0489000Y0213854D01*
X0487782Y0212636D01*
X0404864Y0212136D02*
X0404864Y0208483D01*
D11*
X0481437Y0181236D02*
X0482138Y0181937D01*
X0483539Y0181937D01*
X0484240Y0181236D01*
X0484240Y0178434D01*
X0483539Y0177733D01*
X0482138Y0177733D01*
X0481437Y0178434D01*
X0486041Y0177733D02*
X0486041Y0180536D01*
X0486041Y0177733D02*
X0488143Y0177733D01*
X0488844Y0178434D01*
X0488844Y0180536D01*
X0495116Y0180536D02*
X0496517Y0180536D01*
X0495816Y0181236D02*
X0495816Y0178434D01*
X0495116Y0177733D01*
X0498185Y0177733D02*
X0499586Y0177733D01*
X0498886Y0177733D02*
X0498886Y0180536D01*
X0499586Y0180536D01*
X0498886Y0181937D02*
X0498886Y0182638D01*
X0501388Y0179835D02*
X0502088Y0180536D01*
X0504190Y0180536D01*
X0504190Y0181937D02*
X0504190Y0177733D01*
X0502088Y0177733D01*
X0501388Y0178434D01*
X0501388Y0179835D01*
X0505992Y0179835D02*
X0508794Y0179835D01*
X0510596Y0179135D02*
X0510596Y0178434D01*
X0511296Y0177733D01*
X0512697Y0177733D01*
X0513398Y0178434D01*
X0513398Y0179135D01*
X0512697Y0179835D01*
X0511296Y0179835D01*
X0510596Y0179135D01*
X0511296Y0179835D02*
X0510596Y0180536D01*
X0510596Y0181236D01*
X0511296Y0181937D01*
X0512697Y0181937D01*
X0513398Y0181236D01*
X0513398Y0180536D01*
X0512697Y0179835D01*
D12*
X0385326Y0199083D02*
X0385326Y0202086D01*
X0385326Y0200585D02*
X0383824Y0202086D01*
X0383074Y0202086D01*
X0386927Y0201335D02*
X0387678Y0202086D01*
X0389930Y0202086D01*
X0389930Y0203587D02*
X0389930Y0199083D01*
X0387678Y0199083D01*
X0386927Y0199834D01*
X0386927Y0201335D01*
X0391481Y0199834D02*
X0391481Y0199083D01*
X0392232Y0199083D01*
X0392232Y0199834D01*
X0391481Y0199834D01*
X0393833Y0199083D02*
X0393833Y0201335D01*
X0394584Y0202086D01*
X0395334Y0201335D01*
X0395334Y0199083D01*
X0396836Y0199083D02*
X0396836Y0202086D01*
X0396085Y0202086D01*
X0395334Y0201335D01*
X0398437Y0201335D02*
X0399188Y0202086D01*
X0400689Y0202086D01*
X0401439Y0201335D01*
X0401439Y0199834D01*
X0400689Y0199083D01*
X0399188Y0199083D01*
X0398437Y0199834D01*
X0398437Y0201335D01*
X0403041Y0202086D02*
X0405293Y0202086D01*
X0406043Y0201335D01*
X0406043Y0199834D01*
X0405293Y0199083D01*
X0403041Y0199083D01*
X0407595Y0199083D02*
X0408345Y0199083D01*
X0408345Y0199834D01*
X0407595Y0199834D01*
X0407595Y0199083D01*
X0409947Y0199834D02*
X0409947Y0201335D01*
X0410697Y0202086D01*
X0412949Y0202086D01*
X0412949Y0203587D02*
X0412949Y0199083D01*
X0410697Y0199083D01*
X0409947Y0199834D01*
X0414551Y0200585D02*
X0416803Y0200585D01*
X0417553Y0199834D01*
X0416803Y0199083D01*
X0414551Y0199083D01*
X0414551Y0201335D01*
X0415301Y0202086D01*
X0416803Y0202086D01*
X0419155Y0199083D02*
X0422157Y0199083D01*
X0422157Y0203587D01*
X0423759Y0201335D02*
X0423759Y0199083D01*
X0423759Y0201335D02*
X0424509Y0202086D01*
X0426761Y0202086D01*
X0426761Y0199083D01*
X0428362Y0200585D02*
X0431365Y0200585D01*
X0431365Y0201335D02*
X0430614Y0202086D01*
X0429113Y0202086D01*
X0428362Y0201335D01*
X0428362Y0200585D01*
X0429113Y0199083D02*
X0430614Y0199083D01*
X0431365Y0199834D01*
X0431365Y0201335D01*
X0432966Y0202086D02*
X0435969Y0199083D01*
X0432966Y0199083D01*
X0432966Y0202086D02*
X0435969Y0202086D01*
X0437537Y0202086D02*
X0439038Y0202086D01*
X0438288Y0202837D02*
X0438288Y0199834D01*
X0437537Y0199083D01*
X0440606Y0199083D02*
X0442107Y0199083D01*
X0441357Y0199083D02*
X0441357Y0202086D01*
X0442107Y0202086D01*
X0443692Y0202086D02*
X0444443Y0202086D01*
X0445944Y0200585D01*
X0445944Y0202086D02*
X0445944Y0199083D01*
X0449047Y0201335D02*
X0450548Y0201335D01*
X0450548Y0199083D02*
X0450548Y0203587D01*
X0447545Y0203587D01*
X0441357Y0203587D02*
X0441357Y0204338D01*
M02*
